<?xml version="1.0" encoding="UTF-8" standalone="no"?>
<svg
   xmlns:dc="http://purl.org/dc/elements/1.1/"
   xmlns:cc="http://creativecommons.org/ns#"
   xmlns:rdf="http://www.w3.org/1999/02/22-rdf-syntax-ns#"
   xmlns:svg="http://www.w3.org/2000/svg"
   xmlns="http://www.w3.org/2000/svg"
   xmlns:sodipodi="http://sodipodi.sourceforge.net/DTD/sodipodi-0.dtd"
   xmlns:inkscape="http://www.inkscape.org/namespaces/inkscape"
   class="text-animation__svg"
   viewBox="0 0 300 200"
   version="1.1"
   id="svg321"
   sodipodi:docname="animation-1.svg"
   inkscape:version="0.92.2 (unknown)">
  <metadata
     id="metadata327">
    <rdf:RDF>
      <cc:Work
         rdf:about="">
        <dc:format>image/svg+xml</dc:format>
        <dc:type
           rdf:resource="http://purl.org/dc/dcmitype/StillImage" />
        <dc:title></dc:title>
      </cc:Work>
    </rdf:RDF>
  </metadata>
  <defs
     id="defs325" />
  <sodipodi:namedview
     pagecolor="#ffffff"
     bordercolor="#666666"
     borderopacity="1"
     objecttolerance="10"
     gridtolerance="10"
     guidetolerance="10"
     inkscape:pageopacity="0"
     inkscape:pageshadow="2"
     inkscape:window-width="1853"
     inkscape:window-height="1025"
     id="namedview323"
     showgrid="true"
     inkscape:zoom="13.50338"
     inkscape:cx="145.80131"
     inkscape:cy="94.66021"
     inkscape:window-x="67"
     inkscape:window-y="27"
     inkscape:window-maximized="1"
     inkscape:current-layer="svg321"
     inkscape:measure-start="147.371,105.677"
     inkscape:measure-end="111.824,105.825"
     inkscape:snap-grids="true"
     inkscape:snap-to-guides="true"
     showguides="false">
    <inkscape:grid
       type="xygrid"
       id="grid4794" />
  </sodipodi:namedview>
  <path
     d="m 0,0 c 0,0 98.327274,1.0025714 99,89 l 0.17677,23.12281 c 0.138064,18.05975 -19.097351,10.61859 1.59466,-1.54039 l 6.54436,-3.84558 c 8.94548,-5.25652 6.35879,-15.73758 -1.87719,-16.859647 L 99,89 c 127.10306,-19.240971 -48.320713,16.09158 18.73684,13.7807 L 131,102 l 1,-1 3.68581,1.16216 c 18.12058,5.71354 6.26513,35.66676 -3.38596,-0.0524 C 132,101 131.66088,99.930465 131.24032,99.060617 c -0.65656,-1.357933 -1.36721,-2.408534 -2.21908,-3.234208 -1.39754,-1.354569 -2.78001,-2.268716 -4.10445,-1.75561 -2.39841,0.929176 -6.33666,3.018427 -7.17995,8.709901 -1.48221,10.00358 10.46491,11.09649 14.2193,4.36842 15,-23.999997 -33.956136,-20.149125 6.04386,2.85088 10,6 15,-4 5,-7 -5.24561,-1.5 -6.21492,-4.950909 -5.00178,-7.568426 C 139.05237,93.157096 147,93 151,98 c 11,14 14.27583,-39.483614 6,-9 l 0.0625,23 C 157.24713,179.99975 122,91 167,118 c 7,5 9,-1 9,-2 3,-8 -8,-19 -9,-30 -1,-13 13,-19 13,9 l 0.24013,10.02229 C 180,110 179,109 173,110 c -6,0 -8.06692,-1.65652 -8,-8 -0.0912,-5.079426 2,-8 8,-8 4,1 3.26049,1.883053 3.24113,5.912463 -0.24013,49.977707 7.7508,30.351867 7.83393,12.309707 l 0.074,-16.074059 C 184.17215,91.148164 189,80 194,91 c 6,10 -10,42 -9.77783,13.55567 C 184,98 187.3354,94.783522 190.98708,95.01864 c 3.16103,0.203527 6.57006,1.427207 6.71746,7.38816 l 0.25918,10.48187 C 198.40867,130.88317 220,160 300,80"
     id="path319"
     inkscape:connector-curvature="0"
     sodipodi:nodetypes="cssssscsccsssssscccsccscccsccccsssccsssc" />
</svg>
