<?xml version="1.0" encoding="UTF-8" standalone="no"?>
<svg
   xmlns:dc="http://purl.org/dc/elements/1.1/"
   xmlns:cc="http://creativecommons.org/ns#"
   xmlns:rdf="http://www.w3.org/1999/02/22-rdf-syntax-ns#"
   xmlns:svg="http://www.w3.org/2000/svg"
   xmlns="http://www.w3.org/2000/svg"
   xmlns:sodipodi="http://sodipodi.sourceforge.net/DTD/sodipodi-0.dtd"
   xmlns:inkscape="http://www.inkscape.org/namespaces/inkscape"
   class="text-animation__svg"
   viewBox="0 0 300 200"
   version="1.1"
   id="svg321"
   sodipodi:docname="animation-1.svg"
   inkscape:version="0.92.2 (unknown)">
  <metadata
     id="metadata327">
    <rdf:RDF>
      <cc:Work
         rdf:about="">
        <dc:format>image/svg+xml</dc:format>
        <dc:type
           rdf:resource="http://purl.org/dc/dcmitype/StillImage" />
        <dc:title></dc:title>
      </cc:Work>
    </rdf:RDF>
  </metadata>
  <defs
     id="defs325" />
  <sodipodi:namedview
     pagecolor="#ffffff"
     bordercolor="#666666"
     borderopacity="1"
     objecttolerance="10"
     gridtolerance="10"
     guidetolerance="10"
     inkscape:pageopacity="0"
     inkscape:pageshadow="2"
     inkscape:window-width="1853"
     inkscape:window-height="1025"
     id="namedview323"
     showgrid="false"
     inkscape:zoom="4.56"
     inkscape:cx="150"
     inkscape:cy="100"
     inkscape:window-x="67"
     inkscape:window-y="27"
     inkscape:window-maximized="1"
     inkscape:current-layer="svg321" />
  <path
     d="m 0,0 c 0,0 99,1 99,89 v 22 c 0,19 -21.214931,12.22171 0,1 l 7.87719,-4.16667 C 120.13652,100.81977 121,89 105,89 h -6 c -99,0 188.23684,14 24,14 h 13 c 19,0 1,37 1,0 0,-11 -14,-10 -14,0 0,12 12,10 14,7 15,-24 -34,-23 6,0 9,6 14,-4 4,-7 -7,-1 -4,-10 5,-7 54,22 7.5,-46 7,-7 v 23 c 0,68 -42,-19 9,6 8,4 12,-2 12,-3 3,-8 -11,-14 -12,-25 -1,-13 12,-23 12,5 v 8 c 0,12 -14,12 -14,0 0,-11 14,-9 14,-1 0,78 8,23 8,10 V 96 c 0,-5 1,-16 6,-5 6,10 -8,43 -6,15 1,-13 13,-13 13,-6 v 12 c 0,18 19,48 99,-32"
     id="path319"
     inkscape:connector-curvature="0"
     sodipodi:nodetypes="csssssssssscccccscccssssssccssc" />
</svg>
