<?xml version="1.0" encoding="UTF-8" standalone="no"?>
<svg
   xmlns:dc="http://purl.org/dc/elements/1.1/"
   xmlns:cc="http://creativecommons.org/ns#"
   xmlns:rdf="http://www.w3.org/1999/02/22-rdf-syntax-ns#"
   xmlns:svg="http://www.w3.org/2000/svg"
   xmlns="http://www.w3.org/2000/svg"
   xmlns:sodipodi="http://sodipodi.sourceforge.net/DTD/sodipodi-0.dtd"
   xmlns:inkscape="http://www.inkscape.org/namespaces/inkscape"
   class="text-animation__svg"
   viewBox="0 0 300 200"
   version="1.1"
   id="svg321"
   sodipodi:docname="animation-1.svg"
   inkscape:version="0.92.2 (unknown)">
  <metadata
     id="metadata327">
    <rdf:RDF>
      <cc:Work
         rdf:about="">
        <dc:format>image/svg+xml</dc:format>
        <dc:type
           rdf:resource="http://purl.org/dc/dcmitype/StillImage" />
        <dc:title></dc:title>
      </cc:Work>
    </rdf:RDF>
  </metadata>
  <defs
     id="defs325" />
  <sodipodi:namedview
     pagecolor="#ffffff"
     bordercolor="#666666"
     borderopacity="1"
     objecttolerance="10"
     gridtolerance="10"
     guidetolerance="10"
     inkscape:pageopacity="0"
     inkscape:pageshadow="2"
     inkscape:window-width="1853"
     inkscape:window-height="1025"
     id="namedview323"
     showgrid="false"
     inkscape:zoom="13.50338"
     inkscape:cx="126.53509"
     inkscape:cy="101.04929"
     inkscape:window-x="67"
     inkscape:window-y="27"
     inkscape:window-maximized="1"
     inkscape:current-layer="svg321"
     inkscape:measure-start="147.371,105.677"
     inkscape:measure-end="111.824,105.825" />
  <path
     d="m 0,0 c 0,0 97.173151,1.0189644 99,89 l 0.438596,21.12281 c 0.385329,18.5574 -20.878902,13.84049 -0.290485,1.50691 l 8.167679,-4.89288 c 8.9007,-5.332 6.30498,-15.395932 -1.87719,-16.859647 L 100.53509,89 c 127.10306,-19.240971 -49.890772,12.97508 17.20175,13.7807 L 136,103 c 18.99863,0.22813 7.72752,35.29151 -3.38596,0 -1.97368,-6.267544 -5.41348,-9.9853 -8.00618,-8.824441 -2.56717,1.149427 -6.02773,2.913667 -6.87102,8.605141 -1.48221,10.00358 10.46491,11.09649 14.2193,4.36842 15,-23.999997 -34.438596,-20.807015 5.5614,2.19299 10.3244,6.0086 15.97369,-3.34211 5.97369,-6.34211 -8.75439,-2.97368 -4.59531,-14.018556 8.35206,-5.755398 C 166.56727,108.2333 167.27583,58.516386 159,89 v 23 c 0,68 -42,-19 9,6 8,4 12,-2 12,-3 3,-8 -11,-14 -12,-25 -1,-13 12,-23 12,5 v 8 c 0,12 -15.31579,12 -15.31579,0 0,-11 15.31579,-9 15.31579,-1 0,78 8,23 8,10 V 96 c 0,-5 1,-16 6,-5 6,10 -8,43 -6,15 1,-13 13,-13 13,-6 v 12 c 0,18 19,48 99,-32"
     id="path319"
     inkscape:connector-curvature="0"
     sodipodi:nodetypes="cssssscssssscccccscccssssssccssc" />
</svg>
