
<svg class="text-animation__svg" xmlns="http://www.w3.org/2000/svg" xmlns:xlink="http://www.w3.org/1999/xlink" x="0px" y="0px" viewBox="0 0 300 200" style="enable-background:new 0 0 300 200;" xml:space="preserve">
                  <path class="motion"
                  d="M0,0  c3.8-0.1,59-0.7,85.9,41.8C97.5,60.1,99,78.8,99,89l0.2,23.1c0.1,18.1-19.1,10.6,1.6-1.5l6.5-3.8c5-3.3,6.6-9,4.6-12.7  c-1.8-3.2-5.7-3.8-6.4-3.9c-2.2-0.3-4.3-0.6-6.5-0.9c32.8-5.5,47.3-7.1,47.6-5.7c0.5,2.5-45.5,13.2-44.7,17.6  c0.2,1.3,4.7,1.9,15.8,1.6L131,102c0.1-0.4,0.3-0.8,0.4-1.1c-0.1-0.4-0.3-0.9-0.6-1.6c-0.2-0.5-0.6-1.4-1.2-2.1  c-0.1-0.2-1.3-1.5-2.9-2c-3.2-0.9-6.2,2.3-6.6,2.7c-1.9,2-2.3,4.2-2.4,4.9c-0.1,0.5-0.6,4.3,1.5,6.4c2.5,2.4,8-0.1,12.5-2.2  c4.2-1.9,18.9-8.7,17.8-14.1c-0.8-3.6-8.7-6.5-12.9-3.9c-5.7,3.5-4.3,17.1,1.7,20.3c3.1,1.7,8.4,1,9.3-1.2c0.2-0.5,0.3-1.4-0.6-2.9  c-1.1-0.5-2.3-1.2-3.7-2c-3.6-1.9-4.3-2.4-4.6-3.3c-0.5-1.4,0.1-3.3,1.2-4.3c1.8-1.5,5-1.1,7.1,1.4c0.5,0.6,1.2,1.5,2.2,2.3  c1.4,1.1,3.1,2,4.5,2.3c3,0.6,6.5-1.4,9-4.8c2.9-5.7,3.1-10.7,0.9-12.3c-1.2-0.8-3.2-0.8-4.6,0.1c-1.7,1-2.5,3.1-2.2,5.3  c0.6,5.1,1.2,12.8,0.3,21.9c0,0,0,0.2-0.1,0.7c-1.3,13.5-1.5,14.8-0.5,15.8c1.8,1.8,6.4,1.6,8.6-0.6c3.7-3.7,0.1-12.4,2.1-13.1  c1.3-0.5,3.1,3.2,5.6,2.7c1.2-0.2,1.9-1.4,2.2-1.8c3.3-5.1-9.5-16.2-8-29.6c0.6-5.4,3.5-11,5.9-10.9c3.5,0.1,7.1,5.5,7.1,19.9  l0.2,10c0,0.6-0.1,2.1-1.2,3.4c-1.4,1.6-3.7,2.3-6.1,1.6c-3,0-5.1-0.4-6.3-1.7c-2.2-2.2-1.8-5.2-1.7-6.3c0.1-0.9,0.4-3.5,2.7-5.3  c2.2-1.8,4.8-1.7,5.4-1.6c0.8,0.1,1.8,0.3,2.5,1.1c1.1,1.2,0.8,3.1,0.7,3.8c-1,6.7-0.1,18.4,0.6,23.1c0.1,1,1.3,8.6,2.8,8.6  c1.1,0,2.5-3.7,4.4-19.4l0.1-16.1c0-5,4.9-16.1,9.9-5.1c4.3,7.2-2.8,25.9-7,25c-1.8-0.4-3.8-6.2-2.7-11.5c0.7-3.7,3.3-9.1,6.9-9.2  c2,0,3.6,1.6,3.9,2c2.1,2.2,1.9,5.1,1.8,5.5c0,3.5,0,7-0.1,10.4c1.9,9.4,5.7,13.9,9.1,16.2c16.6,11,53.9-9,94.1-49.5"></path>
</svg>