
<svg xmlns="http://www.w3.org/2000/svg" xmlns:xlink="http://www.w3.org/1999/xlink" x="0px" y="0px" viewBox="0 0 1000 1000" enable-background="new 0 0 1000 1000" xml:space="preserve">
<g><g transform="translate(0.000000,511.000000) scale(0.100000,-0.100000)"><path d="M355.1,4232.9c-109.1-53.6-185.7-139.7-225.9-250.7c-36.4-101.4-40.2-5941.3-3.8-6061.9c30.6-105.3,189.5-264.1,294.8-294.8c59.3-17.2,535.9-23,1948.5-23h1868.1v-526.4v-526.4h-698.6h-698.6v-306.3v-306.3h2162.9h2162.9v306.3v306.3h-698.6h-698.6v526.4v526.4h1868.1c1412.6,0,1889.2,5.7,1948.5,23c111,32.5,264.1,191.4,294.8,302.4c19.1,67,23,752.2,19.1,3064.4l-5.7,2978.3l-57.4,93.8c-36.4,57.4-93.8,114.8-151.2,151.2l-93.8,57.4l-4568.9,5.7l-4567,3.8L355.1,4232.9z M9290,942.6v-2727.5H5002.5H715V942.6v2727.5h4287.5H9290V942.6z"/><path d="M6348.1,2498.8c-114.8-139.7-555.1-683.3-980-1207.8l-773.3-955.1l-403.9,403.9c-222,222-409.6,403.9-415.4,403.9c-19.1,0-534-570.4-534-591.4c0-17.2,1385.8-1383.9,1414.5-1395.4c11.5-3.8,1732.2,2101.7,2436.6,2984l72.7,90l-296.7,260.3c-160.8,143.6-298.6,260.3-304.3,260.3C6558.6,2751.4,6461,2636.6,6348.1,2498.8z"/></g></g>
</svg>