<?xml version="1.0" encoding="UTF-8" standalone="no"?>
<svg
   xmlns:dc="http://purl.org/dc/elements/1.1/"
   xmlns:cc="http://creativecommons.org/ns#"
   xmlns:rdf="http://www.w3.org/1999/02/22-rdf-syntax-ns#"
   xmlns:svg="http://www.w3.org/2000/svg"
   xmlns="http://www.w3.org/2000/svg"
   xmlns:sodipodi="http://sodipodi.sourceforge.net/DTD/sodipodi-0.dtd"
   xmlns:inkscape="http://www.inkscape.org/namespaces/inkscape"
   class="navicon"
   id="navicon-full"
   viewbox="-1 -1 52 52"
   x="0px"
   y="0px"
   xml:space="preserve"
   version="1.1"
   sodipodi:docname="menu-2.svg"
   inkscape:version="0.92.2 (unknown)"><metadata
     id="metadata4027"><rdf:RDF><cc:Work
         rdf:about=""><dc:format>image/svg+xml</dc:format><dc:type
           rdf:resource="http://purl.org/dc/dcmitype/StillImage" /><dc:title></dc:title></cc:Work></rdf:RDF></metadata><defs
     id="defs4025" /><sodipodi:namedview
     pagecolor="#ffffff"
     bordercolor="#666666"
     borderopacity="1"
     objecttolerance="10"
     gridtolerance="10"
     guidetolerance="10"
     inkscape:pageopacity="0"
     inkscape:pageshadow="2"
     inkscape:window-width="797"
     inkscape:window-height="742"
     id="namedview4023"
     showgrid="false"
     inkscape:zoom="8.44"
     inkscape:cx="33.245437"
     inkscape:cy="68.957346"
     inkscape:window-x="984"
     inkscape:window-y="236"
     inkscape:window-maximized="0"
     inkscape:current-layer="navicon-full" /><path
     style="fill:#2c3e50"
     d="M 24.826172 0 C 11.137172 0 4.7369516e-15 11.137172 0 24.826172 C 0 38.514172 11.137172 49.652344 24.826172 49.652344 C 38.514172 49.652344 49.652344 38.514172 49.652344 24.826172 C 49.652344 11.137172 38.516172 4.7369516e-15 24.826172 0 z M 13.451172 11.300781 L 36.03125 11.300781 C 37.11325 11.300781 37.990234 12.156937 37.990234 13.210938 L 37.990234 18 L 11.494141 18 L 11.494141 13.210938 C 11.494141 12.155938 12.371172 11.300781 13.451172 11.300781 z M 11.494141 22 L 37.990234 22 L 37.990234 28 L 11.494141 28 L 11.494141 22 z M 11.494141 32 L 37.990234 32 L 37.990234 36.054688 C 37.990234 37.110687 37.11425 37.964844 36.03125 37.964844 L 13.451172 37.964844 C 12.371172 37.964844 11.494141 37.110687 11.494141 36.054688 L 11.494141 32 z "
     id="rect4014" /></svg>