<svg x="0px" y="0px" viewBox="0 0 1000 1000" enable-background="new 0 0 1000 1000" xml:space="preserve">
<g><g transform="matrix(0.1,0,0,-0.1,0,512)">
<path
         d="M 2713,5004.7 C 2534.7,4962.5 2381.3,4836 2298.9,4661.5 l -49.8,-105.4 v -4438 -4438 l 49.8,-107.3 c 63.3,-132.3 168.7,-237.7 304.8,-302.9 l 105.4,-49.8 H 5000 7290.9 l 105.4,49.8 c 134.2,63.3 241.5,170.6 304.8,304.8 l 49.8,105.4 v 4438 4438 l -49.8,107.4 c -63.3,132.3 -168.7,237.7 -304.8,302.9 l -105.4,49.8 -2252.5,3.8 c -1271.1,0 -2283.3,-5.8 -2325.4,-15.3 z M 7002.73,690.75608 V -2779.1439 L 5000,-2795.9 2940.79,-2779.1439 V 690.75608 4160.6561 L 5000,4143.9 7002.73,4160.6561 Z M 4997.8799,-4257.2196 c -697.6164,5.4772 -680.2486,968.3667 2.1201,970.4027 673.8174,-19.7105 669.8717,-970.222 -2.1201,-970.4027 z"></path>
         <path
         d="m 5325.0072,982.62416 c -414.1,-709.3 -753.2682,-1201.7097 -766.6682,-1217.0097 -283.3121,180.719279 -484.1287,345.18253 -898.3391,661.7854 -17.3,-1.9 -466.5095,-640.2118 -466.5095,-663.2118 0,-15.35 382.6212,-280.1281 767.4051,-538.6811 384.7838,-258.55296 872.2665,-561.14936 880.9165,-551.59936 23,24.9 744.876,1108.12776 1174.9486,1843.31826 430.0725,735.19054 831.6391,1464.21554 831.6391,1464.21554 -13.4,21.1 -685.7681,377.1634 -685.7681,377.1634 -9.6,-0.1 -423.6243,-664.7806 -837.6244,-1375.98064 z"></path>
</g></g></svg>