<?xml version="1.0" standalone="no"?>
<!DOCTYPE svg PUBLIC "-//W3C//DTD SVG 1.1//EN" "http://www.w3.org/Graphics/SVG/1.1/DTD/svg11.dtd" >
<svg xmlns="http://www.w3.org/2000/svg" xmlns:xlink="http://www.w3.org/1999/xlink" version="1.1">
<metadata>
Created by FontForge 20170910 at Fri Feb  3 12:48:41 2017
 By Jimmy Wärting
Copyright 2016 The Pangolin Project Authors (https://github.com/googlefonts/pangolin)
</metadata>
<defs>
<font id="Pangolin-Regular" horiz-adv-x="600" >
  <font-face 
    font-family="Pangolin"
    font-weight="400"
    font-stretch="normal"
    units-per-em="1000"
    panose-1="0 0 5 0 0 0 0 0 0 0"
    ascent="800"
    descent="-200"
    x-height="536"
    cap-height="714"
    bbox="-622 -256 1727.03 1259"
    underline-thickness="50"
    underline-position="-100"
    unicode-range="U+000D-FB02"
  />
<missing-glyph horiz-adv-x="480" 
d="M394 740v-960h-305v960h305zM320 676h-159v-32h63v-36h-64v-31h160v31h-64v36h64v32zM256 552h-96v-100h160v33h-64v67zM224 519v-34h-32v34h32zM320 426h-160v-32h64v-35h-64v-32h96v67h64v32zM320 368h-32v-63h-128v-33h160v96zM320 251h-96v-53h32v22h32v-45h-96v76
h-32v-108h160v108zM320 85h-160v-108h160v108zM288 54v-46h-96v46h96zM320 -45h-160v-32h68l-68 -45v-32h160v32h-98l67 45h31v32z" />
    <glyph glyph-name="f_f" unicode="ff" horiz-adv-x="654" 
d="M620 513q13 -15 9 -34q-2 -15 -14 -25t-27 -10q-7 0 -17 4q-12 -4 -18 -4q-8 0 -14 3q-9 -4 -23 -2q-9 -10 -25 -12q0 -11 -7 -19q5 -8 5 -17q0 -10 -7 -21q4 -8 4 -17q0 -7 -3 -15q9 -12 9 -26t-10 -27q2 -4 2 -13q0 -14 -7 -24l1 -13q0 -10 -3 -19v-4q4 -8 4 -19
q0 -9 -2 -14q4 -3 6.5 -14t2.5 -25q0 -29 -9 -37v-1q7 -10 7 -25q0 -20 -8 -32q1 -3 1 -10q0 -17 -12 -29.5t-29 -12.5t-29.5 13t-12.5 31q0 5 1 8q-1 3 -1 10q0 8 4 16q-8 11 -8 24q0 9 5 19q0 12 9 26q-5 4 -8.5 14t-3.5 20q0 14 5 21q-5 10 -5 20q0 8 3 15q-2 8 -2 17
q0 19 7 29q-4 10 -4 16q0 8 5 18q-7 8 -7 22q0 10 4 18q-6 9 -6 22q0 17 10 27q-2 8 -2 13q0 6 4 18q-5 0 -16.5 3.5t-18.5 6.5q-10 -7 -22 -7q-8 0 -15 3q-6 -2 -11 -2q-6 0 -10 2q-13 -8 -25 -8l-8 1l-10 -1l-10 1l-9 -1q-12 0 -25 8q-8 -6 -18 -4q5 -11 3 -27q2 -8 2 -13
q0 -16 -11 -29q1 -5 1 -18q2 -8 2 -12q0 -17 -12 -29q2 -12 1 -20l1 -10q7 -10 7 -21q0 -4 -2 -12v-4q8 -11 8 -24q0 -12 -8 -25q3 -7 3 -15q0 -3 -2 -11q10 -11 10 -28q0 -12 -6 -21q5 -12 5 -20q0 -12 -8 -23q3 -10 2 -19q4 -8 4 -17q0 -16 -11.5 -28.5t-29.5 -12.5
t-30.5 13.5t-11.5 31.5q-5 6 -9 18t-4 23q0 9 3 15q-4 8 -4 19q0 17 10 27q-2 10 -2 14q0 5 2 13v1q-9 12 -9 26t8 25q-4 8 -4 18q0 8 3 14q-7 14 -7 23l1 8q-1 3 -1 11q0 6 1 9q-2 8 -2 11q0 14 11 27q-7 11 -7 30q0 21 11 31q-9 10 -12 22l-12 9q-13 -13 -30 -13
q-14 0 -26 9q-17 2 -26 13t-9 26q0 17 11 30t29 13q7 0 11 -1q12 12 30 12q12 0 21 -6q2 14 8 20q-2 6 -2 19q0 15 3.5 28t10.5 19q0 10 4.5 19t12.5 14q-1 17 10 32q5 13 15 20.5t23 8.5q11 9 31 9t28 -8q9 6 20 6q16 0 29 -12t13 -30q0 -15 -10.5 -27t-25.5 -14
q-11 -8 -25 -8q-16 0 -27 8q1 -24 -18 -37q-2 -15 -12 -24q2 -3 4 -11.5t2 -17.5q0 -6 -2 -14q12 2 22 2q26 0 32 -7q4 1 10 1q7 0 10 -1q4 5 16.5 7.5t22.5 0.5l10 1q4 0 12 -2q11 10 28 10q14 0 25 -8q3 3 9 4.5t11 -1.5q-11 13 -11 28q0 4 2 12q-3 14 -3 24t4 22
q0 12 6.5 22.5t16.5 14.5q6 9 12 12q1 17 14 29t29 12q7 0 17 -4q9 6 20 6q17 0 29 -12q8 2 12 2q17 0 29 -12t13 -28q0 -19 -14 -32t-32 -11q-12 -4 -17 -4q-10 0 -22 7h-1q-7 -14 -26 -19l-7 -7q3 -6 3 -14q0 -5 -2 -13q13 -11 11 -29l9 1q15 0 26 -8l10 -2q10 2 15 2
q9 0 17 -3q7 3 17 3q19 1 32 -14z" />
    <glyph glyph-name="f_f_i" unicode="ffi" horiz-adv-x="832" 
d="M620 513q13 -15 9 -34q-2 -15 -14 -25t-27 -10q-7 0 -17 4q-12 -4 -18 -4q-8 0 -14 3q-9 -4 -23 -2q-9 -10 -25 -12q0 -11 -7 -19q5 -8 5 -17q0 -10 -7 -21q4 -8 4 -17q0 -7 -3 -15q9 -12 9 -26t-10 -27q2 -4 2 -13q0 -14 -7 -24l1 -13q0 -10 -3 -19v-4q4 -8 4 -19
q0 -9 -2 -14q4 -3 6.5 -14t2.5 -25q0 -29 -9 -37v-1q7 -10 7 -25q0 -20 -8 -32q1 -3 1 -10q0 -17 -12 -29.5t-29 -12.5t-29.5 13t-12.5 31q0 5 1 8q-1 3 -1 10q0 8 4 16q-8 11 -8 24q0 9 5 19q0 12 9 26q-5 4 -8.5 14t-3.5 20q0 14 5 21q-5 10 -5 20q0 8 3 15q-2 8 -2 17
q0 19 7 29q-4 10 -4 16q0 8 5 18q-7 8 -7 22q0 10 4 18q-6 9 -6 22q0 17 10 27q-2 8 -2 13q0 6 4 18q-5 0 -16.5 3.5t-18.5 6.5q-10 -7 -22 -7q-8 0 -15 3q-6 -2 -11 -2q-6 0 -10 2q-13 -8 -25 -8l-8 1l-10 -1l-10 1l-9 -1q-12 0 -25 8q-8 -6 -18 -4q5 -11 3 -27q2 -8 2 -13
q0 -16 -11 -29q1 -5 1 -18q2 -8 2 -12q0 -17 -12 -29q2 -12 1 -20l1 -10q7 -10 7 -21q0 -4 -2 -12v-4q8 -11 8 -24q0 -12 -8 -25q3 -7 3 -15q0 -3 -2 -11q10 -11 10 -28q0 -12 -6 -21q5 -12 5 -20q0 -12 -8 -23q3 -10 2 -19q4 -8 4 -17q0 -16 -11.5 -28.5t-29.5 -12.5
t-30.5 13.5t-11.5 31.5q-5 6 -9 18t-4 23q0 9 3 15q-4 8 -4 19q0 17 10 27q-2 10 -2 14q0 5 2 13v1q-9 12 -9 26t8 25q-4 8 -4 18q0 8 3 14q-7 14 -7 23l1 8q-1 3 -1 11q0 6 1 9q-2 8 -2 11q0 14 11 27q-7 11 -7 30q0 21 11 31q-9 10 -12 22l-12 9q-13 -13 -30 -13
q-14 0 -26 9q-17 2 -26 13t-9 26q0 17 11 30t29 13q7 0 11 -1q12 12 30 12q12 0 21 -6q2 14 8 20q-2 6 -2 19q0 15 3.5 28t10.5 19q0 10 4.5 19t12.5 14q-1 17 10 32q5 13 15 20.5t23 8.5q11 9 31 9t28 -8q9 6 20 6q16 0 29 -12t13 -30q0 -15 -10.5 -27t-25.5 -14
q-11 -8 -25 -8q-16 0 -27 8q1 -24 -18 -37q-2 -15 -12 -24q2 -3 4 -11.5t2 -17.5q0 -6 -2 -14q12 2 22 2q26 0 32 -7q4 1 10 1q7 0 10 -1q4 5 16.5 7.5t22.5 0.5l10 1q4 0 12 -2q11 10 28 10q14 0 25 -8q3 3 9 4.5t11 -1.5q-11 13 -11 28q0 4 2 12q-3 14 -3 24t4 22
q0 12 6.5 22.5t16.5 14.5q6 9 12 12q1 17 14 29t29 12q7 0 17 -4q9 6 20 6q17 0 29 -12q8 2 12 2q17 0 29 -12t13 -28q0 -19 -14 -32t-32 -11q-12 -4 -17 -4q-10 0 -22 7h-1q-7 -14 -26 -19l-7 -7q3 -6 3 -14q0 -5 -2 -13q13 -11 11 -29l9 1q15 0 26 -8l10 -2q10 2 15 2
q9 0 17 -3q7 3 17 3q19 1 32 -14zM695 696q-8 -11 -8 -23q0 -16 13 -32q-2 -13 14 -25t35 -12q13 0 23 7q28 15 28 38q0 15 -12 34q1 20 -11.5 31.5t-29.5 11.5q-19 0 -31 -13q-13 -6 -21 -17zM793.5 252q4.5 -16 4.5 -35q0 -22 -7 -29q6 -15 6 -29q0 -18 -9 -30
q7 -17 7 -40q0 -19 -6 -31q3 -9 3 -17q0 -18 -13 -28.5t-31 -10.5q-17 0 -29 10.5t-11 28.5q-5 6 -8 19t-3 27q0 26 11 34q-8 13 -8 39t7 38q-4 4 -6 19t-2 33q0 17 2 30.5t6 17.5q-6 6 -6 33q0 31 7 45q-5 8 -9 21t-4 24q0 10 2 14q-8 26 -8 42q0 17 8 35q-2 15 7 23t26 8
q46 0 46 -56q9 -6 13.5 -16.5t4.5 -23.5q0 -21 -10 -36q4 -6 6.5 -18t2.5 -24q0 -16 -5 -22q4 -5 4 -21q0 -15 -3.5 -32t-7.5 -23q8 -3 12.5 -19z" />
    <glyph glyph-name="f_f_l" unicode="ffl" horiz-adv-x="892" 
d="M620 513q13 -15 9 -34q-2 -15 -14 -25t-27 -10q-7 0 -17 4q-12 -4 -18 -4q-8 0 -14 3q-9 -4 -23 -2q-9 -10 -25 -12q0 -11 -7 -19q5 -8 5 -17q0 -10 -7 -21q4 -8 4 -17q0 -7 -3 -15q9 -12 9 -26t-10 -27q2 -4 2 -13q0 -14 -7 -24l1 -13q0 -10 -3 -19v-4q4 -8 4 -19
q0 -9 -2 -14q4 -3 6.5 -14t2.5 -25q0 -29 -9 -37v-1q7 -10 7 -25q0 -20 -8 -32q1 -3 1 -10q0 -17 -12 -29.5t-29 -12.5t-29.5 13t-12.5 31q0 5 1 8q-1 3 -1 10q0 8 4 16q-8 11 -8 24q0 9 5 19q0 12 9 26q-5 4 -8.5 14t-3.5 20q0 14 5 21q-5 10 -5 20q0 8 3 15q-2 8 -2 17
q0 19 7 29q-4 10 -4 16q0 8 5 18q-7 8 -7 22q0 10 4 18q-6 9 -6 22q0 17 10 27q-2 8 -2 13q0 6 4 18q-5 0 -16.5 3.5t-18.5 6.5q-10 -7 -22 -7q-8 0 -15 3q-6 -2 -11 -2q-6 0 -10 2q-13 -8 -25 -8l-8 1l-10 -1l-10 1l-9 -1q-12 0 -25 8q-8 -6 -18 -4q5 -11 3 -27q2 -8 2 -13
q0 -16 -11 -29q1 -5 1 -18q2 -8 2 -12q0 -17 -12 -29q2 -12 1 -20l1 -10q7 -10 7 -21q0 -4 -2 -12v-4q8 -11 8 -24q0 -12 -8 -25q3 -7 3 -15q0 -3 -2 -11q10 -11 10 -28q0 -12 -6 -21q5 -12 5 -20q0 -12 -8 -23q3 -10 2 -19q4 -8 4 -17q0 -16 -11.5 -28.5t-29.5 -12.5
t-30.5 13.5t-11.5 31.5q-5 6 -9 18t-4 23q0 9 3 15q-4 8 -4 19q0 17 10 27q-2 10 -2 14q0 5 2 13v1q-9 12 -9 26t8 25q-4 8 -4 18q0 8 3 14q-7 14 -7 23l1 8q-1 3 -1 11q0 6 1 9q-2 8 -2 11q0 14 11 27q-7 11 -7 30q0 21 11 31q-9 10 -12 22l-12 9q-13 -13 -30 -13
q-14 0 -26 9q-17 2 -26 13t-9 26q0 17 11 30t29 13q7 0 11 -1q12 12 30 12q12 0 21 -6q2 14 8 20q-2 6 -2 19q0 15 3.5 28t10.5 19q0 10 4.5 19t12.5 14q-1 17 10 32q5 13 15 20.5t23 8.5q11 9 31 9t28 -8q9 6 20 6q16 0 29 -12t13 -30q0 -15 -10.5 -27t-25.5 -14
q-11 -8 -25 -8q-16 0 -27 8q1 -24 -18 -37q-2 -15 -12 -24q2 -3 4 -11.5t2 -17.5q0 -6 -2 -14q12 2 22 2q26 0 32 -7q4 1 10 1q7 0 10 -1q4 5 16.5 7.5t22.5 0.5l10 1q4 0 12 -2q11 10 28 10q14 0 25 -8q3 3 9 4.5t11 -1.5q-11 13 -11 28q0 4 2 12q-3 14 -3 24t4 22
q0 12 6.5 22.5t16.5 14.5q6 9 12 12q1 17 14 29t29 12q7 0 17 -4q9 6 20 6q17 0 29 -12q8 2 12 2q17 0 29 -12t13 -28q0 -19 -14 -32t-32 -11q-12 -4 -17 -4q-10 0 -22 7h-1q-7 -14 -26 -19l-7 -7q3 -6 3 -14q0 -5 -2 -13q13 -11 11 -29l9 1q15 0 26 -8l10 -2q10 2 15 2
q9 0 17 -3q7 3 17 3q19 1 32 -14zM828 91q0 -15 -4.5 -28.5t-11.5 -19.5q3 -19 -10 -31t-31 -12q-12 0 -23 6t-16 20t-5 30q0 22 7 35q-5 9 -5 26q0 19 6 39q-7 8 -7 29q0 27 8 40q-6 14 -6 27q0 18 9 36q-8 21 -8 38q0 14 6 32q-10 11 -10 28q0 7 1 10q-11 13 -11 30
q0 11 6 21q-7 16 -7 31q0 24 12 36q-6 14 -6 34q0 16 5 23q-5 3 -8 11t-3 18q0 17 8 28q-3 8 -3 21q0 10 2 18q-12 12 -12 28q0 17 14.5 29.5t32.5 12.5q12 0 22 -7.5t14 -22.5q15 -10 15 -31q0 -4 -2 -12q12 -12 12 -31q0 -16 -10 -25q5 -4 9 -13.5t4 -20.5q0 -18 -13 -30
q8 -11 8 -27t-6 -26q4 -4 4 -20q0 -9 -2 -19t-6 -14q15 -13 15 -33q0 -11 -4 -19q6 -9 6 -27q0 -23 -8 -37q7 -14 7 -37q0 -28 -9 -40q7 -10 7 -25q0 -13 -6 -31q9 -10 9 -31q0 -18 -6 -33q10 -11 10 -34z" />
    <glyph glyph-name="fi" unicode="fi" horiz-adv-x="584" 
d="M35.5 439q-11.5 12 -11.5 28q0 20 15.5 30.5t36.5 10.5q17 0 27 -6l2 1q-6 14 -6 43q0 16 3 22q-2 16 -2 24q0 32 16 51q5 15 18 28t28 17q3 11 24 24t42 12q6 10 33 10q25 0 35 -5q9 6 24 6q25 0 48 -13t23 -32q0 -17 -14.5 -28.5t-33.5 -11.5q-16 0 -27 7
q-10 -6 -21 -6t-20 6q-3 -6 -15.5 -8.5t-20.5 -0.5q-15 -25 -35 -25q0 -15 -3.5 -31.5t-11.5 -21.5q8 -11 8 -32q0 -17 -7 -27q4 1 11 1q16 0 29 -10q9 5 26 5t25 -5q17 -1 25.5 -10.5t8.5 -23.5q0 -17 -11 -31.5t-28 -14.5q-7 0 -19 5q-9 -6 -24 -6q-11 0 -27 4
q-4 -5 -13 -9q2 -6 2 -11q0 -15 -12 -27q1 -3 1 -10q0 -6 -1 -9q12 -12 12 -29q0 -7 -3 -15q10 -13 10 -39q0 -13 -4 -21q8 -11 8 -32q0 -13 -5 -25q6 -10 6 -21q0 -13 -7 -23q10 -24 10 -37q0 -15 -11 -26q1 -4 6 -21.5t5 -32.5q0 -39 -43 -36q-21 1 -34.5 30.5t-13.5 60.5
q0 21 7 31q-9 20 -9 34q0 10 4 18q-6 9 -6 20q0 14 8 25q-8 5 -12.5 14t-4.5 19q0 19 14 31q-9 6 -9 35q0 11 2.5 20.5t6.5 12.5q-7 7 -11.5 19t-4.5 23q0 15 6 25q-10 -2 -16 -2q-18 0 -30 9q-17 1 -28.5 13zM447 696q-8 -11 -8 -23q0 -16 13 -32q-2 -13 14 -25t35 -12
q13 0 23 7q28 15 28 38q0 15 -12 34q1 20 -11.5 31.5t-29.5 11.5q-19 0 -31 -13q-13 -6 -21 -17zM545.5 252q4.5 -16 4.5 -35q0 -22 -7 -29q6 -15 6 -29q0 -18 -9 -30q7 -17 7 -40q0 -19 -6 -31q3 -9 3 -17q0 -18 -13 -28.5t-31 -10.5q-17 0 -29 10.5t-11 28.5q-5 6 -8 19
t-3 27q0 26 11 34q-8 13 -8 39t7 38q-4 4 -6 19t-2 33q0 17 2 30.5t6 17.5q-6 6 -6 33q0 31 7 45q-5 8 -9 21t-4 24q0 10 2 14q-8 26 -8 42q0 17 8 35q-2 15 7 23t26 8q46 0 46 -56q9 -6 13.5 -16.5t4.5 -23.5q0 -21 -10 -36q4 -6 6.5 -18t2.5 -24q0 -16 -5 -22q4 -5 4 -21
q0 -15 -3.5 -32t-7.5 -23q8 -3 12.5 -19z" />
    <glyph glyph-name="fl" unicode="fl" horiz-adv-x="644" 
d="M35.5 439q-11.5 12 -11.5 28q0 20 15.5 30.5t36.5 10.5q17 0 27 -6l2 1q-6 14 -6 43q0 16 3 22q-2 16 -2 24q0 32 16 51q5 15 18 28t28 17q3 11 24 24t42 12q6 10 33 10q25 0 35 -5q9 6 24 6q25 0 48 -13t23 -32q0 -17 -14.5 -28.5t-33.5 -11.5q-16 0 -27 7
q-10 -6 -21 -6t-20 6q-3 -6 -15.5 -8.5t-20.5 -0.5q-15 -25 -35 -25q0 -15 -3.5 -31.5t-11.5 -21.5q8 -11 8 -32q0 -17 -7 -27q4 1 11 1q16 0 29 -10q9 5 26 5t25 -5q17 -1 25.5 -10.5t8.5 -23.5q0 -17 -11 -31.5t-28 -14.5q-7 0 -19 5q-9 -6 -24 -6q-11 0 -27 4
q-4 -5 -13 -9q2 -6 2 -11q0 -15 -12 -27q1 -3 1 -10q0 -6 -1 -9q12 -12 12 -29q0 -7 -3 -15q10 -13 10 -39q0 -13 -4 -21q8 -11 8 -32q0 -13 -5 -25q6 -10 6 -21q0 -13 -7 -23q10 -24 10 -37q0 -15 -11 -26q1 -4 6 -21.5t5 -32.5q0 -39 -43 -36q-21 1 -34.5 30.5t-13.5 60.5
q0 21 7 31q-9 20 -9 34q0 10 4 18q-6 9 -6 20q0 14 8 25q-8 5 -12.5 14t-4.5 19q0 19 14 31q-9 6 -9 35q0 11 2.5 20.5t6.5 12.5q-7 7 -11.5 19t-4.5 23q0 15 6 25q-10 -2 -16 -2q-18 0 -30 9q-17 1 -28.5 13zM580 91q0 -15 -4.5 -28.5t-11.5 -19.5q3 -19 -10 -31t-31 -12
q-12 0 -23 6t-16 20t-5 30q0 22 7 35q-5 9 -5 26q0 19 6 39q-7 8 -7 29q0 27 8 40q-6 14 -6 27q0 18 9 36q-8 21 -8 38q0 14 6 32q-10 11 -10 28q0 7 1 10q-11 13 -11 30q0 11 6 21q-7 16 -7 31q0 24 12 36q-6 14 -6 34q0 16 5 23q-5 3 -8 11t-3 18q0 17 8 28q-3 8 -3 21
q0 10 2 18q-12 12 -12 28q0 17 14.5 29.5t32.5 12.5q12 0 22 -7.5t14 -22.5q15 -10 15 -31q0 -4 -2 -12q12 -12 12 -31q0 -16 -10 -25q5 -4 9 -13.5t4 -20.5q0 -18 -13 -30q8 -11 8 -27t-6 -26q4 -4 4 -20q0 -9 -2 -19t-6 -14q15 -13 15 -33q0 -11 -4 -19q6 -9 6 -27
q0 -23 -8 -37q7 -14 7 -37q0 -28 -9 -40q7 -10 7 -25q0 -13 -6 -31q9 -10 9 -31q0 -18 -6 -33q10 -11 10 -34z" />
    <glyph glyph-name="p_a_n_g_o_l_i_n_h_u_g.liga" unicode="pangolinhug" horiz-adv-x="1767" 
d="M927 565q-1 -5 -2 -11t-1 -15q-24 -111 -63 -219t-90 -194q-15 -25 -37.5 -30.5t-67.5 -6.5q-55 0 -97.5 6t-76.5 27q9 3 30 -2.5t29 -6.5q24 -4 52 -4q29 0 49 4q6 0 28 0.5t40 3.5t27 9q13 7 22 25t18 43q6 16 9 22q11 35 45 119q38 98 53 147q19 52 31 113l-49 24
q-51 24 -88 44q-21 -60 -49.5 -131t-38.5 -97q-6 -16 -42.5 -105.5t-63.5 -172.5h-7q5 26 24 96q-13 -16 -23 -25t-26 -9q-37 0 -37 62l1 29q-13 -16 -21 -16q-6 0 -6 12q0 16 11 56q-3 -5 -4.5 -6t-6.5 -1l14 14q2 -2 -3 -28q-8 -36 -5 -44q10 10 17 16t10 6q2 0 2 -8
q0 -29 5 -45q4 -31 26 -31q16 0 36 18q16 20 25 43.5t19 62.5q13 44 14 47q-26 -1 -32 28.5t-6 70.5q-24 -39 -45 -48q-4 -1 -10 -1q-19 0 -19 22q0 11 3 21q-24 -49 -45 -119q2 4 -17 -43l-14 -34q-7 -5 -13 -5q-4 0 -11 5q10 19 19.5 43.5t12.5 32.5q-45 3 -86.5 23
t-75.5 45.5t-84 68.5l2 -21q3 -36 3 -37q0 -7 -1 -8t-15.5 9.5t-25.5 16t-17 -0.5q-7 -5 -7 -26q0 -16 2 -26q3 -11 13 -23.5t27 -30.5l19 -21q4 9 15 9t27 -9q-9 20 -9 35q0 26 27 31q14 0 22.5 -6t19 -17t17.5 -18q-4 3 -16.5 12t-23 14.5t-18.5 5.5q-14 0 -19 -15
q-2 -9 8 -31q10 -24 10 -37q-4 3 -15.5 11.5t-21.5 10.5h-4q-9 0 -9 -8l43 -45q8 -8 62 -65q-11 14 -19 32t-8 31q0 20 19 20q11 0 22 -5q-1 5 -4 17.5t-3 21.5q0 12 7 19q6 7 26 7q18 0 46 -7q-4 1 -15.5 2t-26.5 1q-16 0 -22 -3q-8 -5 -8 -18q0 -10 5 -27t7 -25
q-5 1 -11 3.5t-10 2.5q-6 0 -12 -6q-4 -4 -2 -12t6.5 -18t6.5 -16q12 -37 42.5 -65t70.5 -43v-5q-25 6 -57 24q0 -94 23 -105q6 -3 18.5 5t25 17.5t16.5 12.5q22 18 25 19q-6 -23 -30 -48.5t-47 -25.5q-14 0 -26 12q-11 9 -14 29.5t-3 53.5q0 27 -2 37q-63 43 -125.5 103.5
t-112.5 124.5q-3 4 -57 86.5t-54 145.5q0 32 25 39q13 4 45 -22t79 -71q10 -9 25.5 -23.5t23.5 -20.5q72 -64 160 -106q8 -6 32.5 -16t39.5 -10q7 0 10 3q8 5 30 66l7 19l11 28q39 93 47 111q5 15 12 29q11 27 17 44.5t6 32.5q0 11 -2 27t-2 23q0 13 4 28q10 29 33 55
q13 16 24 16q15 0 24.5 -22.5t9.5 -44.5q0 -17 -7 -48.5t-18.5 -56t-25.5 -24.5q-15 0 -29 26q-1 -5 -8.5 -29t-7.5 -39q0 -10 5 -13q5 -1 11 6t7 8q11 13 16 13q4 1 5.5 -2.5t1.5 -11.5q0 -5 -0.5 -21t4 -26t15.5 -10l9 2q31 6 48 31.5t26 50t11 30.5q10 21 17 28t28 13
l33 4q31 2 55 7q214 28 227 49q2 3 2 7q0 3 -4 5t-9.5 3.5t-11.5 4.5q-33 10 -82 15q-56 8 -59 9l-20 3q-38 6 -66 13t-49 20q3 -6 -8 -10.5t-23 -4.5q-10 0 -14 4q-16 8 -16 33q0 14 6 38q-13 -18 -22 -27.5t-22 -9.5q-5 0 -13 3q20 0 33 15q5 5 9.5 13t7.5 13q1 6 2.5 8.5
t7.5 2.5t6 -19v-14q0 -8 1 -10q0 -15 1.5 -25t8.5 -13q3 -3 10 -3t15.5 2t9.5 4q-17 11 -24 22l8 7q6 -11 17 -16.5l15 -7.5q4 9 14.5 34.5t12.5 33.5l29 85q4 16 18.5 51t34.5 63.5t40 28.5q11 0 22 -12q6 9 15.5 18t12.5 11q-37 12 -79 12q-51 0 -96.5 -19t-74.5 -55
q-41 -50 -70 -119t-41 -136h-3q0 7 -4.5 15t-5.5 11q-7 11 -11 21q-5 12 -6 23.5t-1 31.5q-86 -22 -168 -22q-42 0 -84 6q-66 15 -93 31q-16 15 -16 27q0 23 46 43l98 52q91 46 127 68q54 32 102.5 49t101.5 17q17 0 26 -1v-7q-9 1 -26 1q-42 0 -80 -11q14 -8 14 -31
q8 1 22.5 4t22.5 3q12 0 15 -6q2 -2 2 -3t-4 -1h-10q-8 0 -12 -1l-26 -7q-8 -5 -17 -7t-13 -3q1 4 4.5 12t1.5 16q-1 2 -3.5 9.5t-9.5 10.5q-34 -11 -64.5 -29t-74.5 -48q-55 -38 -81 -52q-19 -10 -65 -30q-42 -18 -62 -29.5t-20 -22.5q0 -20 42.5 -32t88.5 -17q21 -3 50 -3
q46 0 94.5 7t73.5 19q9 28 26 44.5t30 24.5t17 11q-10 -2 -15 -2q-13 0 -21.5 5.5t-8.5 16.5q0 10 8 22q12 26 45 45q22 13 48 15.5t29 2.5q-15 4 -23.5 14t-8.5 23q0 19 18 32q17 14 46 14q29 -1 61.5 -11t86.5 -30q10 -4 24.5 -9.5t32.5 -10.5q35 -11 60.5 -27t61.5 -43
q27 -21 56 -40q25 -21 55.5 -42t38.5 -26q53 -35 96 -70q21 -15 21 -35q0 -19 -17.5 -34t-40.5 -16q-64 -3 -138.5 14t-143.5 45q21 -62 30 -104q2 -1 6 -2.5t7 -4.5t5 -8q0 -10 -5 -17q5 -28 10 -47q27 -83 68 -228q13 -39 37 -125l12 -44q1 -4 4.5 -16.5t3.5 -20.5
q0 -11 -8 -11q-7 0 -12.5 17.5t-9.5 38t-6 27.5q2 -10 -3.5 -16.5t-14.5 -6.5q-5 0 -11 3q-6 -27 -16 -27q-8 0 -24 19q5 -39 17 -87q12 -60 16 -87h-1q-36 126 -52 192q-22 75 -47 141q-2 5 -5 20.5t-8 20.5q-4 4 -22.5 6.5t-21.5 2.5q-12 0 -22 2q-22 4 -46 12.5t-31 10.5
l-24 9q0 -9 -2 -29zM952 1216q16 0 23 -1q-41 14 -67.5 21.5t-52.5 7.5q-25 0 -38 -9q-12 -11 -12 -23q0 -6 1 -10q4 -12 10 -15t11.5 -3h7.5l34 12q34 14 60 19q7 1 23 1zM935 857q42 -8 79 -10q9 17 25 53t16 43q-18 9 -27 15q-3 -3 -19.5 -9t-26.5 -6q26 10 48 23.5
t27 20.5q0 -5 -8 -14t-12 -12q70 -37 158.5 -57.5t172.5 -22.5q20 0 35.5 6.5t15.5 20.5q0 10 -7 21q-4 7 -118 89t-136 95q-12 10 -19 14q-23 19 -57 43q-10 5 -22 5q-24 0 -40 -36q-10 19 -24 19q-15 0 -32 -23.5t-30 -53t-17 -44.5q-18 -63 -28.5 -94.5t-28.5 -65.5
q33 -12 75 -20zM809 1170q-34 -5 -60 -26.5t-38 -54.5q11 -4 19 -4q7 0 12 4t12 14q5 9 14 18q6 6 14 18zM574.5 1118.5q-7.5 -14.5 -5.5 -22.5q7 0 24 13l9 6t10 5.5t6 -0.5q0 -2 -8.5 -10.5t-19.5 -16t-19 -7.5q-9 0 -12 10q-5 9 5 26t19 24q1 1 4 1q5 0 8.5 -3.5
t-1.5 -4.5q-12 -6 -19.5 -20.5zM1085.5 1076q-12.5 7 -21.5 19l-6 9q1 0 4.5 -3t8.5 -5q8 -8 19 -13t20 -5q14 0 14 13q0 7 -4 15q-1 8 -14 27q9 -6 17.5 -20.5t8.5 -21.5q0 -13 -5 -16.5t-18 -5.5q-11 0 -23.5 7zM857 1124q4 0 4 -9l-2 -21q0 -5 -1.5 -14.5t-1.5 -17.5
q0 -10 9.5 -18.5t15.5 -6.5l-4 -2q-5 0 -13 5t-10 8q-8 6 -10 19t-2 32q-7 -12 -22.5 -25.5t-25.5 -13.5q-11 0 -10 18q3 -13 10 -13q10 0 24.5 17.5t23.5 30.5q10 11 15 11zM605 1060q0 9 7 21t15.5 20t10.5 5q4 -3 2 -7.5t-6 -9.5t-6 -7q-6 -7 -11 -13.5t-3 -11.5
q5 -2 11.5 2t20 15.5t13.5 3.5q2 -7 -8 -16t-22.5 -14t-17.5 0q-6 5 -6 12zM1012 1041q-10 12 -12 23q21 -27 37 -27q14 1 14 10q0 4 -1 7.5t-2 7.5q-6 14 -10 21t-11 13q6 -3 12.5 -9.5l8.5 -8.5q12 -17 12 -34q0 -18 -18 -18q-5 0 -8 1q-12 2 -22 14zM727 1055
q-27 -18 -36.5 -39t-9.5 -49q0 -23 3 -50q4 45 27 107q3 11 16 31zM356 1028q12 0 23 -8q3 -2 0 -4.5t-9 -2.5q-12 0 -22 14q3 1 8 1zM1080 834q20 -4 40 -9q-9 41 -20.5 71.5t-30.5 42.5q-8 -35 -42 -97q33 -4 53 -8zM1369.5 918.5q-5.5 -7.5 -14.5 -7.5v1q0 8 7 12.5
t16 4.5q-3 -3 -8.5 -10.5zM833 877zM623 773q0 -19 9.5 -40t23.5 -38q14 10 28 50t14 73q0 10 -1 15q-7 34 -22 34t-31.5 -29t-18.5 -50q-2 -10 -2 -15zM891 624q27 -11 49.5 -18t45.5 -12q27 -7 75 -12q27 -3 37.5 -5.5t17.5 -10.5q3 -4 5.5 -14.5t3.5 -13.5q5 -25 12 -39
t21 -11q17 1 21.5 16t10.5 62q2 -28 -4 -64.5t-25 -36.5q-10 0 -21 10l15 -48l17 -54q21 -29 29 -28q9 5 9 19q0 6 -1 12t-1 10q14 -23 23 -23q8 0 14 17q-66 237 -118 398q-37 -17 -75.5 -25t-104.5 -19q-30 -4 -45 -7q-12 -3 -31 -7q-5 -1 -12.5 -2t-16.5 -4
q-21 -3 -28.5 -5.5t-11 -9t-11.5 -29.5l26 -12q26 -12 39 -20q8 -3 35 -14zM229 474q0 13 -1.5 25t-1.5 20q-48 48 -91.5 88t-52.5 31q-7 -6 -7 -19q0 -12 5 -27.5t10 -25.5q10 -31 25 -55t44 -67q-1 4 -1 11q0 16 7 23.5t18 7.5q21 0 46 -18v6zM696 497.5q4 11.5 8 20.5
q19 55 36 93q-35 -49 -68 -45q-13 1 -17.5 12.5t-4.5 29.5l1 34q-8 -8 -19.5 -16.5t-17.5 -8.5q-7 0 -7 10q0 7 1 11q-10 -20 -22 -51q-6 -13 -11 -24t-9 -20q-1 -3 -9 -24t-8 -36q0 -5 2 -9q6 -9 14 -9t16 9t21 27q6 10 12.5 17.5t10.5 7.5q8 0 10.5 -6.5t2.5 -19.5l-1 -39
q0 -21 5.5 -34t20.5 -16l9 22l15 41q5 12 9 23.5zM1600 341q-71 -59 -169 -118q-60 -37 -109 -61.5t-100 -35.5q-47 -11 -102 -11q-68 0 -150 18l5 5q65 -13 119 -13q112 0 215 50q88 42 168 99q6 5 11 8t9 6q28 20 35 29q-6 13 -17 18t-26 5q-8 0 -28 -2q0 2 11 13.5
t16.5 20t-0.5 14.5q-6 3 -29.5 -5.5t-39.5 -15.5q9 12 19 24q9 11 17 22.5t8 19.5q0 9 -9 13l-33 -12q-49 -20 -59 -21q2 -6 2 -10q0 -12 -8 -21t-23 -20q-4 -4 -8.5 -7.5t-8.5 -8.5q15 7 27 7q21 0 21 -19q0 -11 -9 -28q14 6 26 6q27 0 27 -26q0 -3 -2 -13
q-1 -15 -10.5 -32.5t-24.5 -22.5q-3 -2 -12 -2q-6 0 -11 1t-6 1q26 0 42.5 21.5t16.5 42.5q0 8 -3 12q-7 8 -14 8q-5 0 -14.5 -4t-14.5 -4q-16 0 -16 9q0 3 3 9q10 17 10 24q0 6 -7 6t-23 -7q-2 -1 -9 -3.5t-10.5 -2.5t-4.5 2q-2 5 4 11.5t20 16.5q19 14 28.5 25t4.5 24
q-62 -16 -89 -14q94 15 273 117l45 24q45 25 69.5 36t43.5 11q26 0 30 -29q2 -86 -127 -210zM1683 555q-18 0 -44 -14t-29 -15q21 0 21 -17q0 -15 -11 -35.5t-13 -23.5q6 3 16 3q21 0 22 -16q20 23 34 51t17 55q0 12 -13 12zM1627.5 404.5q12.5 14.5 12.5 24.5q0 5 -3 8
q-4 6 -13 6q-11 0 -27 -7.5t-22 -12.5q-4 -2 -9 -2q-6 0 -6 5q0 4 4 9t8 6q5 6 15 16.5t16.5 20.5t6.5 20q1 13 -12 13q-16 0 -42.5 -13t-71.5 -37l-23 -13q12 -3 12 -12q0 -7 -7 -18t-15 -21q-12 -16 -12 -17q23 15 46 15q16 0 16 -11q0 -12 -20 -33q14 4 23 4
q16 0 25.5 -8t9.5 -26q21 15 62 58q14 11 26.5 25.5zM926 300q20 -98 28 -148q-8 15 -15.5 36t-10.5 41q-3 32 -20 115q-8 43 -10 53q8 1 28 -97zM1023.5 46q11.5 13 27.5 36q0 -13 -10 -33t-25 -33t-29 -9q-17 8 -27 48.5t-10 66.5v4q18 -58 46 -98q16 5 27.5 18zM1286 96
q6 -10 6 -22q0 -20 -14 -35.5t-33 -14.5q-24 3 -35.5 26.5t-12.5 48.5q10 -24 22 -37.5t30 -17.5q32 -8 37 52zM731.5 82q2.5 6 4.5 8.5t4 -0.5q-1 -30 -20 -49t-42 -19q-20 0 -34.5 17t-15.5 50l7 -19q6 -16 18 -27t26 -8q22 4 32 13t17 25q1 3 3.5 9z" />
    <glyph glyph-name="p_a_n_g_o_l_i_n_l_o_v_e.liga" unicode="pangolinlove" horiz-adv-x="1146" 
d="M1138 507q0 -31 -38 -90q-30 -52 -84 -113q-43 -48 -96 -91q-68 -46 -103 -68q-7 -4 -23 -10q-29 -11 -44 -22q-7 -24 -9 -46q-4 -38 -26 -38q-15 0 -31.5 18.5t-22.5 41.5q-27 -3 -54 -3q-25 0 -54 3q-8 -29 -22.5 -55t-34.5 -26q-10 0 -19 8q-13 10 -18 28.5t-5 34.5
q-4 26 -4 43q-5 16 -12 51t-11 62l-4 46q-6 74 -12 109q-6 -6 -13.5 -15.5t-14 -13t-15.5 -3.5t-14 1q-61 11 -126 45q-45 24 -83.5 58.5t-63.5 75.5q-33 53 -33 103q0 58 46 91q27 20 57 20q34 0 67.5 -22.5t59.5 -55.5q23 47 66 78q24 14 40 20q2 17 -11.5 34t-29.5 31.5
t-22 20.5q-68 60 -118 134q-3 5 -20 32t-28 55t-11 48q0 14 6 26q11 23 34 23q28 0 59 -25q42 -30 74 -50t65 -31q30 -10 45 -14q50 -13 80 -29q27 -13 43 -26q34 0 63 -29l32 -39q12 -16 19 -24q29 -30 45 -59q14 -24 14 -44q0 -6 -1 -9q-6 -17 -23 -17q-12 0 -21 10
q1 -7 2 -16t1 -17q3 -5 12.5 -15t13.5 -15q25 -31 32 -56q1 -5 1 -14q0 -24 -19 -24q-14 0 -34 14q1 -16 4.5 -29t11.5 -34q2 -6 5 -14.5t6 -19.5q5 -15 5 -34q0 -21 -9 -21q-6 0 -16 13q2 -10 3 -17t2 -13q15 -18 15 -30q0 -9 -8 -31q0 -14 2 -54q4 -62 4 -96q0 -32 -3 -56
q-12 85 -15 136q0 -4 -11 -6q8 8 11 13.5t5 17.5q1 11 -4 50.5t-7 52.5q-16 100 -17 146q0 135 -18 219q-26 140 -95 149q27 -42 37 -118q7 -45 18 -68t18 -23q9 0 12 5t4 12t2 11q3 -9 3 -17q0 -12 -6 -19t-14 -7q-15 0 -27 22q3 -28 3 -56l2 -37q0 -9 0.5 -23.5t2.5 -33.5
q0 -6 3.5 -24.5t3.5 -29.5q0 -5 -2 -9q-6 -7 -8 0t-2.5 17.5t-1.5 14.5q-3 54 -3 61q-3 33 -3 65l-2 24q-4 71 -12 120.5t-29 89.5q-16 28 -44.5 42.5t-55.5 22.5t-35 11q-88 23 -156 70q-5 4 -20 15t-30 19t-27 8q-11 0 -17 -9q-4 -7 -4 -17q0 -28 21.5 -65t50.5 -79
q28 -39 92 -109l45 -50q16 3 40.5 11t29.5 14q-3 15 -3 27q0 8 1 12q1 -5 5.5 -24t13 -32.5t20.5 -19.5q-21 2 -34 25q-35 -22 -66 -22q7 -9 11.5 -23.5t5.5 -17.5q20 5 33 5q53 0 83.5 -47t30.5 -109q0 -27 -6 -51q14 -4 61 -28.5t45 -29.5q-1 -2 -55 22q-9 4 -29.5 13.5
t-25.5 10.5q-2 -7 -6 -17t-4 -16q0 -8 4 -17q3 -8 15 -19.5t18 -18.5q3 -3 39 -29l39 -29q-3 -3 -16.5 3.5t-13.5 8.5q0 -11 1.5 -22t1.5 -20q5 -21 10.5 -33t17.5 -31q9 6 11 40q0 3 0.5 10.5t2 10.5t3.5 3q4 0 5.5 -12t3.5 -21.5t9 -12.5q-4 0 -9 2t-6 5q-1 -20 -6 -30
t-12 -10q-9 0 -18 16.5t-13 39.5q2 -37 10 -106q2 -11 4 -33q4 -26 9.5 -57t10.5 -53q24 0 59 9.5t57 19.5q33 16 52.5 37.5t19.5 54.5q0 20 -14 20q-6 0 -17.5 -3.5t-15.5 -3.5q-11 0 -11 14q0 10 21 31q12 13 18 21.5t6 16.5t-9 14q-4 2 -9 2q-7 0 -15 -1.5t-14 -1.5
q-7 0 -7 4t5 7q-25 -5 -41 -5q42 10 81.5 29.5t96.5 53.5l34 20q8 4 39 24q43 27 70.5 41t53.5 14l11 -1q-23 -2 -42.5 -13.5t-37 -24.5t-24.5 -19q9 7 14 -5t6 -28t0 -23q6 2 19 2q26 0 24 -17q18 27 29.5 48t16.5 42q2 6 4 21.5t3 14.5q6 -9 6 -21zM207 1135v-2v2z
M202 1116q0 2 3 8.5t2 8.5q3 -12 4 -19t-6 -2q-3 2 -3 4zM475 947q8 0 8 -10q0 -7 -5 -12t-11 -2q-5 3 -5 11q0 5 3 8.5t9 4.5h1zM514 909q0 7 4 12.5t9 4.5q7 -1 7 -8q0 -8 -5.5 -14.5t-11.5 -2.5q-3 3 -3 8zM644 918q19 -33 27 -80q1 -6 2 -20t6 -22t18 -8q15 1 15 16
q0 28 -58 99zM430 444q42 53 64 92t22 83q0 19 -4 35q-13 42 -33 67.5t-56 25.5q-37 0 -82 -30q-19 -12 -35 -32q-4 -3 -11 -11.5t-17 -17.5q-8 7 -50 39q-47 30 -78 27q-33 -4 -50 -28.5t-17 -58.5q0 -24 9 -47q29 -70 116 -140q44 -31 93 -53q34 -14 48 -18q6 -1 11 -3
t10 -2q7 0 16 13q14 21 44 59zM691.5 733q-4.5 7 -8.5 14l1 -26q2 -32 2 -47q1 -15 2.5 -18.5t13.5 -8.5q11 -3 16 -3q12 0 12 11q0 19 -31 65q-3 6 -7.5 13zM663 628q3 17 3 41q4 -9 4 -28q0 -17 -6 -29.5t-18 -12.5q-21 0 -21 50q0 27 3 36q2 -6 4 -27q1 -22 4 -34.5
t12 -12.5q12 0 15 17zM695 565.5q-4 10.5 -8 22.5l2 -22q2 -37 5 -48q2 -2 10 -7t8 -3q-1 10 -5 21.5t-5 16.5q-3 9 -7 19.5zM638 109q-11 41 -17 83.5t-12 108.5l-3 28q0 13 -1 25t-2 22q-1 12 -2 27t-1 30q-20 10 -45 32.5t-38 45.5l-27 -32l-30 -34q-8 -10 -24 -26
l-14 -15q3 -6 5.5 -23t3.5 -22l9 -55q4 -40 7 -61q1 -9 2.5 -35.5t7.5 -47.5q8 -26 33 -37.5t50.5 -13.5t64.5 -2q23 0 33 2zM1077 399l-2 -1q-2 0 -7.5 5.5t-8.5 6.5q-4 0 -21.5 -6t-18.5 -5q-5 2 -5 5t5 10t8 13t-5.5 25t-7.5 20q-57 -40 -123 -75q18 4 22 4q28 0 28 -28
q0 -29 -21 -61q24 13 43 13q26 0 26 -27q23 20 42 43q25 30 46 58zM979 300q0 14 -21 14q-11 0 -24.5 -6.5t-20.5 -8.5q-12 -7 -15 -7q-1 0 -1 3q0 5 1 9q2 6 12 18q12 14 16 25q7 14 7 24q0 14 -17 18q-1 0 -13.5 -2t-18.5 -2q-8 0 -6 5q-6 -3 -36 -16t-57 -18h5
q8 0 15.5 -1t11.5 -3q16 -6 16 -21t-12.5 -33t-31.5 -40q20 8 32 8q18 0 26 -15q3 -6 3 -13q0 -22 -23 -65l21 13q43 26 71 46t47 42q13 15 13 26zM537 69q8 13 13 20q-33 3 -53.5 8.5t-37.5 20.5q7 -40 14.5 -65t22.5 -25q13 0 27 21q6 7 14 20zM732 91.5q3 9.5 4 15.5
q-33 -14 -70 -17q29 -41 43 -43q9 -1 11.5 2.5t3.5 11t3 13.5q2 8 5 17.5z" />
    <glyph glyph-name=".notdef" horiz-adv-x="480" 
d="M394 740v-960h-305v960h305zM320 676h-159v-32h63v-36h-64v-31h160v31h-64v36h64v32zM256 552h-96v-100h160v33h-64v67zM224 519v-34h-32v34h32zM320 426h-160v-32h64v-35h-64v-32h96v67h64v32zM320 368h-32v-63h-128v-33h160v96zM320 251h-96v-53h32v22h32v-45h-96v76
h-32v-108h160v108zM320 85h-160v-108h160v108zM288 54v-46h-96v46h96zM320 -45h-160v-32h68l-68 -45v-32h160v32h-98l67 45h31v32z" />
    <glyph glyph-name="NULL" horiz-adv-x="0" 
 />
    <glyph glyph-name="NULL" horiz-adv-x="0" 
 />
    <glyph glyph-name="nonmarkingreturn" unicode="&#xd;" horiz-adv-x="217" 
 />
    <glyph glyph-name="space" unicode=" " horiz-adv-x="217" 
 />
    <glyph glyph-name="A" unicode="A" horiz-adv-x="649" 
d="M600.5 101q17.5 -7 13.5 -47q4 -8 4 -18q0 -16 -13 -26t-30 -10q-15 0 -25.5 9.5t-10.5 27.5q-11 2 -22.5 17.5t-11.5 31.5q0 4 2 12q-10 5 -17.5 20.5t-10.5 32.5t-2 24q-13 6 -20.5 29.5t-5.5 40.5q-7 -3 -17 -3q-20 0 -37 12q-13 -13 -39 -13q-24 0 -34 12
q-13 -11 -28 -11q-12 0 -19 5q-7 -5 -21 -5q-12 0 -24 4t-19 11q-1 0 -5 -2q6 -19 6 -34q0 -23 -23 -40q4 -8 4 -19q0 -22 -15 -42t-29 -22q4 -9 4 -21q0 -27 -18 -49.5t-44 -22.5q-7 0 -11 1q-13 0 -20 8t-7 21q0 9 5 21q-1 4 -1 12q0 20 20 35q-1 3 -1 9q0 15 7.5 30.5
t19.5 20.5q-1 2 -1 9q0 17 8 39.5t18 25.5q-2 44 29 89q0 23 7 43.5t25 29.5q1 19 9 38t18 32q-3 11 -3 20q0 14 5.5 22.5t12.5 10.5q-1 4 -1 12q0 22 16 35l-1 6q0 15 12 27q-1 4 -1 11q0 18 9 36t20 24q18 25 38 25q9 0 23 -6q29 -1 42 -45q9 -11 13 -25.5t3 -26.5
q9 -6 13.5 -16t3.5 -21q10 -9 17.5 -28t7.5 -36q0 -8 -1 -11q7 -7 12.5 -20t5.5 -24q0 -6 -1 -9q13 -9 21.5 -28t12 -37.5t1.5 -25.5q2 -3 11 -14.5t14 -23t5 -21.5q0 -9 -2 -13q4 -5 9 -11.5t8 -11.5t3 -12t-1 -10q8 -8 14 -21t6 -25q0 -10 -4 -15q11 -8 17 -23t4 -30z
M408 332.5q7 1.5 12 -1.5q-2 6 -2 9q0 8 4 12q-9 7 -14.5 18t-4.5 22q-7 2 -12.5 10.5t-5.5 18.5q0 3 2 11q-21 13 -21 39q0 10 3 23q-1 1 -5 4.5t-3 11.5q-20 6 -19 32q-8 4 -13 15q2 -23 -18 -36q1 -11 -4 -25t-12 -21q1 -4 1 -13q0 -23 -19 -61q-5 -11 -8 -20
q-4 -10 -8.5 -20t-11.5 -15q0 -10 -4 -18l8 1q10 0 15 -5q3 5 12 5q6 0 9 -3q12 9 30 9q13 0 24 -4t18 -11q10 11 21 11q7 0 17 -6q2 6 9 7.5z" />
    <glyph glyph-name="Aacute" unicode="&#xc1;" horiz-adv-x="673" 
d="M600.5 101q17.5 -7 13.5 -47q4 -8 4 -18q0 -16 -13 -26t-30 -10q-15 0 -25.5 9.5t-10.5 27.5q-11 2 -22.5 17.5t-11.5 31.5q0 4 2 12q-10 5 -17.5 20.5t-10.5 32.5t-2 24q-13 6 -20.5 29.5t-5.5 40.5q-7 -3 -17 -3q-20 0 -37 12q-13 -13 -39 -13q-24 0 -34 12
q-13 -11 -28 -11q-12 0 -19 5q-7 -5 -21 -5q-12 0 -24 4t-19 11q-1 0 -5 -2q6 -19 6 -34q0 -23 -23 -40q4 -8 4 -19q0 -22 -15 -42t-29 -22q4 -9 4 -21q0 -27 -18 -49.5t-44 -22.5q-7 0 -11 1q-13 0 -20 8t-7 21q0 9 5 21q-1 4 -1 12q0 20 20 35q-1 3 -1 9q0 15 7.5 30.5
t19.5 20.5q-1 2 -1 9q0 17 8 39.5t18 25.5q-2 44 29 89q0 23 7 43.5t25 29.5q1 19 9 38t18 32q-3 11 -3 20q0 14 5.5 22.5t12.5 10.5q-1 4 -1 12q0 22 16 35l-1 6q0 15 12 27q-1 4 -1 11q0 18 9 36t20 24q18 25 38 25q9 0 23 -6q29 -1 42 -45q9 -11 13 -25.5t3 -26.5
q9 -6 13.5 -16t3.5 -21q10 -9 17.5 -28t7.5 -36q0 -8 -1 -11q7 -7 12.5 -20t5.5 -24q0 -6 -1 -9q13 -9 21.5 -28t12 -37.5t1.5 -25.5q2 -3 11 -14.5t14 -23t5 -21.5q0 -9 -2 -13q4 -5 9 -11.5t8 -11.5t3 -12t-1 -10q8 -8 14 -21t6 -25q0 -10 -4 -15q11 -8 17 -23t4 -30z
M408 332.5q7 1.5 12 -1.5q-2 6 -2 9q0 8 4 12q-9 7 -14.5 18t-4.5 22q-7 2 -12.5 10.5t-5.5 18.5q0 3 2 11q-21 13 -21 39q0 10 3 23q-1 1 -5 4.5t-3 11.5q-20 6 -19 32q-8 4 -13 15q2 -23 -18 -36q1 -11 -4 -25t-12 -21q1 -4 1 -13q0 -23 -19 -61q-5 -11 -8 -20
q-4 -10 -8.5 -20t-11.5 -15q0 -10 -4 -18l8 1q10 0 15 -5q3 5 12 5q6 0 9 -3q12 9 30 9q13 0 24 -4t18 -11q10 11 21 11q7 0 17 -6q2 6 9 7.5zM338 760q-13 -16 -25 -17q-13 -12 -26 -12t-23 10t-10 24q0 20 22 34q1 6 9 16q0 15 7.5 26t25.5 12q-1 12 6.5 22t19.5 13
q3 9 11.5 15.5t18.5 6.5q9 6 19 6q14 0 24.5 -12t10.5 -26q0 -19 -21 -26q-1 -13 -16 -20q-1 -13 -13 -26.5t-25 -15.5q-2 -14 -15 -30z" />
    <glyph glyph-name="Abreve" unicode="&#x102;" horiz-adv-x="673" 
d="M600.5 101q17.5 -7 13.5 -47q4 -8 4 -18q0 -16 -13 -26t-30 -10q-15 0 -25.5 9.5t-10.5 27.5q-11 2 -22.5 17.5t-11.5 31.5q0 4 2 12q-10 5 -17.5 20.5t-10.5 32.5t-2 24q-13 6 -20.5 29.5t-5.5 40.5q-7 -3 -17 -3q-20 0 -37 12q-13 -13 -39 -13q-24 0 -34 12
q-13 -11 -28 -11q-12 0 -19 5q-7 -5 -21 -5q-12 0 -24 4t-19 11q-1 0 -5 -2q6 -19 6 -34q0 -23 -23 -40q4 -8 4 -19q0 -22 -15 -42t-29 -22q4 -9 4 -21q0 -27 -18 -49.5t-44 -22.5q-7 0 -11 1q-13 0 -20 8t-7 21q0 9 5 21q-1 4 -1 12q0 20 20 35q-1 3 -1 9q0 15 7.5 30.5
t19.5 20.5q-1 2 -1 9q0 17 8 39.5t18 25.5q-2 44 29 89q0 23 7 43.5t25 29.5q1 19 9 38t18 32q-3 11 -3 20q0 14 5.5 22.5t12.5 10.5q-1 4 -1 12q0 22 16 35l-1 6q0 15 12 27q-1 4 -1 11q0 18 9 36t20 24q18 25 38 25q9 0 23 -6q29 -1 42 -45q9 -11 13 -25.5t3 -26.5
q9 -6 13.5 -16t3.5 -21q10 -9 17.5 -28t7.5 -36q0 -8 -1 -11q7 -7 12.5 -20t5.5 -24q0 -6 -1 -9q13 -9 21.5 -28t12 -37.5t1.5 -25.5q2 -3 11 -14.5t14 -23t5 -21.5q0 -9 -2 -13q4 -5 9 -11.5t8 -11.5t3 -12t-1 -10q8 -8 14 -21t6 -25q0 -10 -4 -15q11 -8 17 -23t4 -30z
M408 332.5q7 1.5 12 -1.5q-2 6 -2 9q0 8 4 12q-9 7 -14.5 18t-4.5 22q-7 2 -12.5 10.5t-5.5 18.5q0 3 2 11q-21 13 -21 39q0 10 3 23q-1 1 -5 4.5t-3 11.5q-20 6 -19 32q-8 4 -13 15q2 -23 -18 -36q1 -11 -4 -25t-12 -21q1 -4 1 -13q0 -23 -19 -61q-5 -11 -8 -20
q-4 -10 -8.5 -20t-11.5 -15q0 -10 -4 -18l8 1q10 0 15 -5q3 5 12 5q6 0 9 -3q12 9 30 9q13 0 24 -4t18 -11q10 11 21 11q7 0 17 -6q2 6 9 7.5zM188 780.5q-15 16.5 -14 38.5q-6 11 -6 20q0 15 13 25t29 10q14 0 24 -8.5t10 -26.5q16 -10 24.5 -16.5t11.5 -17.5q8 2 13 2
q11 0 22 -3.5t16 -8.5q24 18 61 19q-1 3 -1 8q0 10 6 19t16 14q1 15 12.5 24.5t25.5 9.5q15 0 27 -12q9 -10 9 -29q0 -12 -4.5 -24t-12.5 -19q2 -11 -10 -26.5t-32 -27.5t-40 -14q-7 -7 -23 -12.5t-31 -5.5q-16 0 -23 7q-7 -5 -22 -5q-21 0 -29 7q-12 -3 -23 5.5t-16 23.5
q-18 7 -33 23.5z" />
    <glyph glyph-name="uni1EAE" unicode="&#x1eae;" horiz-adv-x="673" 
d="M401 967q0 -18 -11 -28q-5 -37 -44 -51q-6 -12 -17 -18.5t-21 -6.5q-12 0 -19 8t-5 23q-2 8 -2 11q0 9 6 18t15 14q3 17 29 32q-4 9 -4 19q0 17 13.5 28.5t28.5 11.5q11 0 18.5 -7t7.5 -20l-1 -8q6 -12 6 -26zM213.5 790.5q-13.5 15.5 -12.5 34.5q-5 8 -5 17
q0 13 11 21.5t25 8.5q13 0 22 -8t9 -23q12 -7 19.5 -13.5t9.5 -15.5q3 1 12 1q10 0 19.5 -2.5t13.5 -6.5q22 14 55 17q-2 10 3 21t14 14q2 13 12.5 21t23.5 8q14 0 23 -9q7 -8 7 -24q0 -11 -4 -22t-11 -17q1 -10 -9.5 -24t-27.5 -24.5t-34 -11.5q-6 -6 -21 -11t-28 -5
q-14 0 -20 6q-5 -5 -20 -5q-17 0 -24 6q-11 -1 -21 6.5t-13 19.5q-15 5 -28.5 20.5zM600.5 101q17.5 -7 13.5 -47q4 -8 4 -18q0 -16 -13 -26t-30 -10q-15 0 -25.5 9.5t-10.5 27.5q-11 2 -22.5 17.5t-11.5 31.5q0 4 2 12q-10 5 -17.5 20.5t-10.5 32.5t-2 24q-13 6 -20.5 29.5
t-5.5 40.5q-7 -3 -17 -3q-20 0 -37 12q-13 -13 -39 -13q-24 0 -34 12q-13 -11 -28 -11q-12 0 -19 5q-7 -5 -21 -5q-12 0 -24 4t-19 11q-1 0 -5 -2q6 -19 6 -34q0 -23 -23 -40q4 -8 4 -19q0 -22 -15 -42t-29 -22q4 -9 4 -21q0 -27 -18 -49.5t-44 -22.5q-7 0 -11 1
q-13 0 -20 8t-7 21q0 9 5 21q-1 4 -1 12q0 20 20 35q-1 3 -1 9q0 15 7.5 30.5t19.5 20.5q-1 2 -1 9q0 17 8 39.5t18 25.5q-2 44 29 89q0 23 7 43.5t25 29.5q1 19 9 38t18 32q-3 11 -3 20q0 14 5.5 22.5t12.5 10.5q-1 4 -1 12q0 22 16 35l-1 6q0 15 12 27q-1 4 -1 11
q0 18 9 36t20 24q18 25 38 25q9 0 23 -6q29 -1 42 -45q9 -11 13 -25.5t3 -26.5q9 -6 13.5 -16t3.5 -21q10 -9 17.5 -28t7.5 -36q0 -8 -1 -11q7 -7 12.5 -20t5.5 -24q0 -6 -1 -9q13 -9 21.5 -28t12 -37.5t1.5 -25.5q2 -3 11 -14.5t14 -23t5 -21.5q0 -9 -2 -13q4 -5 9 -11.5
t8 -11.5t3 -12t-1 -10q8 -8 14 -21t6 -25q0 -10 -4 -15q11 -8 17 -23t4 -30zM408 332.5q7 1.5 12 -1.5q-2 6 -2 9q0 8 4 12q-9 7 -14.5 18t-4.5 22q-7 2 -12.5 10.5t-5.5 18.5q0 3 2 11q-21 13 -21 39q0 10 3 23q-1 1 -5 4.5t-3 11.5q-20 6 -19 32q-8 4 -13 15
q2 -23 -18 -36q1 -11 -4 -25t-12 -21q1 -4 1 -13q0 -23 -19 -61q-5 -11 -8 -20q-4 -10 -8.5 -20t-11.5 -15q0 -10 -4 -18l8 1q10 0 15 -5q3 5 12 5q6 0 9 -3q12 9 30 9q13 0 24 -4t18 -11q10 11 21 11q7 0 17 -6q2 6 9 7.5z" />
    <glyph glyph-name="uni1EB6" unicode="&#x1eb6;" horiz-adv-x="673" 
d="M600.5 101q17.5 -7 13.5 -47q4 -8 4 -18q0 -16 -13 -26t-30 -10q-15 0 -25.5 9.5t-10.5 27.5q-11 2 -22.5 17.5t-11.5 31.5q0 4 2 12q-10 5 -17.5 20.5t-10.5 32.5t-2 24q-13 6 -20.5 29.5t-5.5 40.5q-7 -3 -17 -3q-20 0 -37 12q-13 -13 -39 -13q-24 0 -34 12
q-13 -11 -28 -11q-12 0 -19 5q-7 -5 -21 -5q-12 0 -24 4t-19 11q-1 0 -5 -2q6 -19 6 -34q0 -23 -23 -40q4 -8 4 -19q0 -22 -15 -42t-29 -22q4 -9 4 -21q0 -27 -18 -49.5t-44 -22.5q-7 0 -11 1q-13 0 -20 8t-7 21q0 9 5 21q-1 4 -1 12q0 20 20 35q-1 3 -1 9q0 15 7.5 30.5
t19.5 20.5q-1 2 -1 9q0 17 8 39.5t18 25.5q-2 44 29 89q0 23 7 43.5t25 29.5q1 19 9 38t18 32q-3 11 -3 20q0 14 5.5 22.5t12.5 10.5q-1 4 -1 12q0 22 16 35l-1 6q0 15 12 27q-1 4 -1 11q0 18 9 36t20 24q18 25 38 25q9 0 23 -6q29 -1 42 -45q9 -11 13 -25.5t3 -26.5
q9 -6 13.5 -16t3.5 -21q10 -9 17.5 -28t7.5 -36q0 -8 -1 -11q7 -7 12.5 -20t5.5 -24q0 -6 -1 -9q13 -9 21.5 -28t12 -37.5t1.5 -25.5q2 -3 11 -14.5t14 -23t5 -21.5q0 -9 -2 -13q4 -5 9 -11.5t8 -11.5t3 -12t-1 -10q8 -8 14 -21t6 -25q0 -10 -4 -15q11 -8 17 -23t4 -30z
M408 332.5q7 1.5 12 -1.5q-2 6 -2 9q0 8 4 12q-9 7 -14.5 18t-4.5 22q-7 2 -12.5 10.5t-5.5 18.5q0 3 2 11q-21 13 -21 39q0 10 3 23q-1 1 -5 4.5t-3 11.5q-20 6 -19 32q-8 4 -13 15q2 -23 -18 -36q1 -11 -4 -25t-12 -21q1 -4 1 -13q0 -23 -19 -61q-5 -11 -8 -20
q-4 -10 -8.5 -20t-11.5 -15q0 -10 -4 -18l8 1q10 0 15 -5q3 5 12 5q6 0 9 -3q12 9 30 9q13 0 24 -4t18 -11q10 11 21 11q7 0 17 -6q2 6 9 7.5zM305 -35q13 0 18 -4q22 -10 22 -34q0 -11 -6.5 -21t-17.5 -15q-11 -11 -26 -11q-6 0 -16 4q-16 1 -24 11.5t-8 25.5q0 14 8 24.5
t23 11.5q9 8 27 8zM205 792.5q-12 13.5 -11 31.5q-5 10 -5 16q0 12 10 19.5t23 7.5q12 0 20 -7.5t8 -21.5q24 -12 27 -26q3 1 10 1q21 0 31 -8q18 12 50 15q-2 9 2 19t13 13q2 12 11 19.5t21 7.5q13 0 22 -9q6 -7 6 -21q0 -24 -14 -36q1 -9 -8.5 -22t-25 -22.5t-30.5 -10.5
q-7 -5 -20 -9.5t-25 -4.5q-13 0 -18 5q-4 -4 -18 -4q-16 0 -22 5q-10 -1 -19 5.5t-12 18.5q-14 5 -26 18.5z" />
    <glyph glyph-name="uni1EB0" unicode="&#x1eb0;" horiz-adv-x="607" 
d="M355.5 906.5q9.5 -14.5 9.5 -29.5q0 -20 -14 -28q-7 -5 -17 -5q-11 0 -28 12q-19 4 -34 23q-14 18 -12 44q-16 14 -21 36q-22 8 -22 30q0 15 10.5 27.5t25.5 12.5q12 0 23 -10q33 -4 33 -33l-1 -8q10 -10 15 -21.5t9 -30.5q14 -5 23.5 -19.5zM210 777.5
q-13 14.5 -12 32.5q-5 8 -5 17q0 12 10.5 20t23.5 8q12 0 20.5 -7.5t8.5 -22.5q24 -11 29 -27q3 1 10 1q23 0 32 -9q19 13 53 16q-3 10 1.5 20t13.5 14q2 12 11.5 20t21.5 8q14 0 24 -10q6 -7 6 -21q0 -11 -4 -21.5t-11 -16.5q1 -10 -8.5 -23.5t-26 -23.5t-32.5 -11
q-7 -5 -21 -10t-26 -5t-18 6q-4 -4 -19 -4q-17 0 -23 5q-11 -1 -20 6t-12 19q-14 5 -27 19.5zM600.5 101q17.5 -7 13.5 -47q4 -8 4 -18q0 -16 -13 -26t-30 -10q-15 0 -25.5 9.5t-10.5 27.5q-11 2 -22.5 17.5t-11.5 31.5q0 4 2 12q-10 5 -17.5 20.5t-10.5 32.5t-2 24
q-13 6 -20.5 29.5t-5.5 40.5q-7 -3 -17 -3q-20 0 -37 12q-13 -13 -39 -13q-24 0 -34 12q-13 -11 -28 -11q-12 0 -19 5q-7 -5 -21 -5q-12 0 -24 4t-19 11q-1 0 -5 -2q6 -19 6 -34q0 -23 -23 -40q4 -8 4 -19q0 -22 -15 -42t-29 -22q4 -9 4 -21q0 -27 -18 -49.5t-44 -22.5
q-7 0 -11 1q-13 0 -20 8t-7 21q0 9 5 21q-1 4 -1 12q0 20 20 35q-1 3 -1 9q0 15 7.5 30.5t19.5 20.5q-1 2 -1 9q0 17 8 39.5t18 25.5q-2 44 29 89q0 23 7 43.5t25 29.5q1 19 9 38t18 32q-3 11 -3 20q0 14 5.5 22.5t12.5 10.5q-1 4 -1 12q0 22 16 35l-1 6q0 15 12 27
q-1 4 -1 11q0 18 9 36t20 24q18 25 38 25q9 0 23 -6q29 -1 42 -45q9 -11 13 -25.5t3 -26.5q9 -6 13.5 -16t3.5 -21q10 -9 17.5 -28t7.5 -36q0 -8 -1 -11q7 -7 12.5 -20t5.5 -24q0 -6 -1 -9q13 -9 21.5 -28t12 -37.5t1.5 -25.5q2 -3 11 -14.5t14 -23t5 -21.5q0 -9 -2 -13
q4 -5 9 -11.5t8 -11.5t3 -12t-1 -10q8 -8 14 -21t6 -25q0 -10 -4 -15q11 -8 17 -23t4 -30zM408 332.5q7 1.5 12 -1.5q-2 6 -2 9q0 8 4 12q-9 7 -14.5 18t-4.5 22q-7 2 -12.5 10.5t-5.5 18.5q0 3 2 11q-21 13 -21 39q0 10 3 23q-1 1 -5 4.5t-3 11.5q-20 6 -19 32q-8 4 -13 15
q2 -23 -18 -36q1 -11 -4 -25t-12 -21q1 -4 1 -13q0 -23 -19 -61q-5 -11 -8 -20q-4 -10 -8.5 -20t-11.5 -15q0 -10 -4 -18l8 1q10 0 15 -5q3 5 12 5q6 0 9 -3q12 9 30 9q13 0 24 -4t18 -11q10 11 21 11q7 0 17 -6q2 6 9 7.5z" />
    <glyph glyph-name="uni1EB2" unicode="&#x1eb2;" horiz-adv-x="607" 
d="M269 954q-7 0 -12 3q-15 8 -15 25q0 14 10.5 25.5t25.5 10.5q10 5 19 5q14 0 20 -8q17 0 33 -17.5t13 -39.5q5 -5 8 -14t3 -18q0 -18 -13 -26q4 -13 -6.5 -27.5t-23.5 -13.5q-10 -15 -27 -15q-14 0 -26 9t-12 21q0 9 7 16q1 10 7.5 17t15.5 9l5 6q-7 7 -9 22
q-11 3 -18 10h-5zM200 781.5q-13 14.5 -11 32.5q-5 8 -5 17q0 12 10.5 20t23.5 8q12 0 20.5 -7.5t8.5 -22.5q13 -7 20 -13t9 -15q6 2 11 2q19 0 32 -9q20 13 52 16q-2 10 2.5 20t13.5 13q2 13 11.5 21t21.5 8q14 0 24 -10q6 -7 6 -21q0 -11 -4 -22t-11 -17q1 -10 -8.5 -23
t-26 -23t-32.5 -11q-6 -6 -20.5 -10.5t-26.5 -4.5q-13 0 -19 5q-4 -4 -19 -4q-17 0 -23 5q-11 -1 -20 6t-13 20q-14 5 -27 19.5zM600.5 101q17.5 -7 13.5 -47q4 -8 4 -18q0 -16 -13 -26t-30 -10q-15 0 -25.5 9.5t-10.5 27.5q-11 2 -22.5 17.5t-11.5 31.5q0 4 2 12
q-10 5 -17.5 20.5t-10.5 32.5t-2 24q-13 6 -20.5 29.5t-5.5 40.5q-7 -3 -17 -3q-20 0 -37 12q-13 -13 -39 -13q-24 0 -34 12q-13 -11 -28 -11q-12 0 -19 5q-7 -5 -21 -5q-12 0 -24 4t-19 11q-1 0 -5 -2q6 -19 6 -34q0 -23 -23 -40q4 -8 4 -19q0 -22 -15 -42t-29 -22
q4 -9 4 -21q0 -27 -18 -49.5t-44 -22.5q-7 0 -11 1q-13 0 -20 8t-7 21q0 9 5 21q-1 4 -1 12q0 20 20 35q-1 3 -1 9q0 15 7.5 30.5t19.5 20.5q-1 2 -1 9q0 17 8 39.5t18 25.5q-2 44 29 89q0 23 7 43.5t25 29.5q1 19 9 38t18 32q-3 11 -3 20q0 14 5.5 22.5t12.5 10.5
q-1 4 -1 12q0 22 16 35l-1 6q0 15 12 27q-1 4 -1 11q0 18 9 36t20 24q18 25 38 25q9 0 23 -6q29 -1 42 -45q9 -11 13 -25.5t3 -26.5q9 -6 13.5 -16t3.5 -21q10 -9 17.5 -28t7.5 -36q0 -8 -1 -11q7 -7 12.5 -20t5.5 -24q0 -6 -1 -9q13 -9 21.5 -28t12 -37.5t1.5 -25.5
q2 -3 11 -14.5t14 -23t5 -21.5q0 -9 -2 -13q4 -5 9 -11.5t8 -11.5t3 -12t-1 -10q8 -8 14 -21t6 -25q0 -10 -4 -15q11 -8 17 -23t4 -30zM408 332.5q7 1.5 12 -1.5q-2 6 -2 9q0 8 4 12q-9 7 -14.5 18t-4.5 22q-7 2 -12.5 10.5t-5.5 18.5q0 3 2 11q-21 13 -21 39q0 10 3 23
q-1 1 -5 4.5t-3 11.5q-20 6 -19 32q-8 4 -13 15q2 -23 -18 -36q1 -11 -4 -25t-12 -21q1 -4 1 -13q0 -23 -19 -61q-5 -11 -8 -20q-4 -10 -8.5 -20t-11.5 -15q0 -10 -4 -18l8 1q10 0 15 -5q3 5 12 5q6 0 9 -3q12 9 30 9q13 0 24 -4t18 -11q10 11 21 11q7 0 17 -6q2 6 9 7.5z
" />
    <glyph glyph-name="uni1EB4" unicode="&#x1eb4;" horiz-adv-x="607" 
d="M279 923q-8 0 -11 4q-4 -4 -12 -6t-13 1q1 -5 -6.5 -12.5t-13.5 -9.5q-3 -12 -12.5 -18.5t-20.5 -6.5t-20 6q-14 11 -14 26q0 13 11 26q3 32 35 44q4 5 17.5 10t23.5 6q3 2 12 2q12 0 24 -4.5t13 -11.5q6 2 11 2q9 0 16 -4t10 -11q17 1 45 -15q6 8 21 14t23 4q0 20 15 36
q10 11 24 11t25 -10t11 -25q0 -3 -2 -11q2 -51 -52 -67q-10 -8 -27.5 -13t-35.5 -5q-17 0 -26 4q-11 -1 -20.5 4.5t-11.5 13.5q-5 -1 -15.5 5t-13.5 12q-3 -1 -10 -1zM202 773q-13 15 -12 33q-5 10 -5 17q0 13 10.5 21t24.5 8q12 0 21 -8t9 -23q25 -12 29 -27q3 1 11 1
q23 0 33 -9q19 13 53 16q-2 10 3 20.5t14 13.5q2 13 12 21t22 8q14 0 23 -9q7 -8 7 -23q0 -11 -4 -22t-11 -16q1 -10 -9 -24t-27 -24t-33 -11q-7 -6 -21 -11t-27 -5q-12 0 -19 6q-4 -4 -19 -4q-18 0 -24 5q-11 -1 -20.5 6.5t-12.5 19.5q-15 5 -28 20zM600.5 101
q17.5 -7 13.5 -47q4 -8 4 -18q0 -16 -13 -26t-30 -10q-15 0 -25.5 9.5t-10.5 27.5q-11 2 -22.5 17.5t-11.5 31.5q0 4 2 12q-10 5 -17.5 20.5t-10.5 32.5t-2 24q-13 6 -20.5 29.5t-5.5 40.5q-7 -3 -17 -3q-20 0 -37 12q-13 -13 -39 -13q-24 0 -34 12q-13 -11 -28 -11
q-12 0 -19 5q-7 -5 -21 -5q-12 0 -24 4t-19 11q-1 0 -5 -2q6 -19 6 -34q0 -23 -23 -40q4 -8 4 -19q0 -22 -15 -42t-29 -22q4 -9 4 -21q0 -27 -18 -49.5t-44 -22.5q-7 0 -11 1q-13 0 -20 8t-7 21q0 9 5 21q-1 4 -1 12q0 20 20 35q-1 3 -1 9q0 15 7.5 30.5t19.5 20.5
q-1 2 -1 9q0 17 8 39.5t18 25.5q-2 44 29 89q0 23 7 43.5t25 29.5q1 19 9 38t18 32q-3 11 -3 20q0 14 5.5 22.5t12.5 10.5q-1 4 -1 12q0 22 16 35l-1 6q0 15 12 27q-1 4 -1 11q0 18 9 36t20 24q18 25 38 25q9 0 23 -6q29 -1 42 -45q9 -11 13 -25.5t3 -26.5q9 -6 13.5 -16
t3.5 -21q10 -9 17.5 -28t7.5 -36q0 -8 -1 -11q7 -7 12.5 -20t5.5 -24q0 -6 -1 -9q13 -9 21.5 -28t12 -37.5t1.5 -25.5q2 -3 11 -14.5t14 -23t5 -21.5q0 -9 -2 -13q4 -5 9 -11.5t8 -11.5t3 -12t-1 -10q8 -8 14 -21t6 -25q0 -10 -4 -15q11 -8 17 -23t4 -30zM408 332.5
q7 1.5 12 -1.5q-2 6 -2 9q0 8 4 12q-9 7 -14.5 18t-4.5 22q-7 2 -12.5 10.5t-5.5 18.5q0 3 2 11q-21 13 -21 39q0 10 3 23q-1 1 -5 4.5t-3 11.5q-20 6 -19 32q-8 4 -13 15q2 -23 -18 -36q1 -11 -4 -25t-12 -21q1 -4 1 -13q0 -23 -19 -61q-5 -11 -8 -20q-4 -10 -8.5 -20
t-11.5 -15q0 -10 -4 -18l8 1q10 0 15 -5q3 5 12 5q6 0 9 -3q12 9 30 9q13 0 24 -4t18 -11q10 11 21 11q7 0 17 -6q2 6 9 7.5z" />
    <glyph glyph-name="Acircumflex" unicode="&#xc2;" horiz-adv-x="607" 
d="M600.5 101q17.5 -7 13.5 -47q4 -8 4 -18q0 -16 -13 -26t-30 -10q-15 0 -25.5 9.5t-10.5 27.5q-11 2 -22.5 17.5t-11.5 31.5q0 4 2 12q-10 5 -17.5 20.5t-10.5 32.5t-2 24q-13 6 -20.5 29.5t-5.5 40.5q-7 -3 -17 -3q-20 0 -37 12q-13 -13 -39 -13q-24 0 -34 12
q-13 -11 -28 -11q-12 0 -19 5q-7 -5 -21 -5q-12 0 -24 4t-19 11q-1 0 -5 -2q6 -19 6 -34q0 -23 -23 -40q4 -8 4 -19q0 -22 -15 -42t-29 -22q4 -9 4 -21q0 -27 -18 -49.5t-44 -22.5q-7 0 -11 1q-13 0 -20 8t-7 21q0 9 5 21q-1 4 -1 12q0 20 20 35q-1 3 -1 9q0 15 7.5 30.5
t19.5 20.5q-1 2 -1 9q0 17 8 39.5t18 25.5q-2 44 29 89q0 23 7 43.5t25 29.5q1 19 9 38t18 32q-3 11 -3 20q0 14 5.5 22.5t12.5 10.5q-1 4 -1 12q0 22 16 35l-1 6q0 15 12 27q-1 4 -1 11q0 18 9 36t20 24q18 25 38 25q9 0 23 -6q29 -1 42 -45q9 -11 13 -25.5t3 -26.5
q9 -6 13.5 -16t3.5 -21q10 -9 17.5 -28t7.5 -36q0 -8 -1 -11q7 -7 12.5 -20t5.5 -24q0 -6 -1 -9q13 -9 21.5 -28t12 -37.5t1.5 -25.5q2 -3 11 -14.5t14 -23t5 -21.5q0 -9 -2 -13q4 -5 9 -11.5t8 -11.5t3 -12t-1 -10q8 -8 14 -21t6 -25q0 -10 -4 -15q11 -8 17 -23t4 -30z
M408 332.5q7 1.5 12 -1.5q-2 6 -2 9q0 8 4 12q-9 7 -14.5 18t-4.5 22q-7 2 -12.5 10.5t-5.5 18.5q0 3 2 11q-21 13 -21 39q0 10 3 23q-1 1 -5 4.5t-3 11.5q-20 6 -19 32q-8 4 -13 15q2 -23 -18 -36q1 -11 -4 -25t-12 -21q1 -4 1 -13q0 -23 -19 -61q-5 -11 -8 -20
q-4 -10 -8.5 -20t-11.5 -15q0 -10 -4 -18l8 1q10 0 15 -5q3 5 12 5q6 0 9 -3q12 9 30 9q13 0 24 -4t18 -11q10 11 21 11q7 0 17 -6q2 6 9 7.5zM401 837.5q13 -13.5 14 -24.5q12 -5 20 -18.5t10 -24.5q18 -11 18 -27q0 -12 -15 -21q-6 -3 -13 -3q-12 0 -21 8.5t-11 19.5
q-9 4 -19 16.5t-12 21.5q-9 -1 -22 9t-15 19q-3 -11 -15 -24t-20 -14q-3 -9 -11 -19t-16 -12q-4 -12 -13.5 -21.5t-21.5 -9.5q-8 0 -19 6q-5 4 -8.5 11t-3.5 14q0 16 12 26q2 11 9 21.5t17 15.5q1 10 8.5 17.5t18.5 9.5q4 13 14 17q1 5 7.5 9.5t12.5 6.5q3 9 12 16t18 7
q10 0 17 -7q11 1 19 -9.5t8 -22.5q8 0 21 -13.5z" />
    <glyph glyph-name="uni1EA4" unicode="&#x1ea4;" horiz-adv-x="607" 
d="M600.5 101q17.5 -7 13.5 -47q4 -8 4 -18q0 -16 -13 -26t-30 -10q-15 0 -25.5 9.5t-10.5 27.5q-11 2 -22.5 17.5t-11.5 31.5q0 4 2 12q-10 5 -17.5 20.5t-10.5 32.5t-2 24q-13 6 -20.5 29.5t-5.5 40.5q-7 -3 -17 -3q-20 0 -37 12q-13 -13 -39 -13q-24 0 -34 12
q-13 -11 -28 -11q-12 0 -19 5q-7 -5 -21 -5q-12 0 -24 4t-19 11q-1 0 -5 -2q6 -19 6 -34q0 -23 -23 -40q4 -8 4 -19q0 -22 -15 -42t-29 -22q4 -9 4 -21q0 -27 -18 -49.5t-44 -22.5q-7 0 -11 1q-13 0 -20 8t-7 21q0 9 5 21q-1 4 -1 12q0 20 20 35q-1 3 -1 9q0 15 7.5 30.5
t19.5 20.5q-1 2 -1 9q0 17 8 39.5t18 25.5q-2 44 29 89q0 23 7 43.5t25 29.5q1 19 9 38t18 32q-3 11 -3 20q0 14 5.5 22.5t12.5 10.5q-1 4 -1 12q0 22 16 35l-1 6q0 15 12 27q-1 4 -1 11q0 18 9 36t20 24q18 25 38 25q9 0 23 -6q29 -1 42 -45q9 -11 13 -25.5t3 -26.5
q9 -6 13.5 -16t3.5 -21q10 -9 17.5 -28t7.5 -36q0 -8 -1 -11q7 -7 12.5 -20t5.5 -24q0 -6 -1 -9q13 -9 21.5 -28t12 -37.5t1.5 -25.5q2 -3 11 -14.5t14 -23t5 -21.5q0 -9 -2 -13q4 -5 9 -11.5t8 -11.5t3 -12t-1 -10q8 -8 14 -21t6 -25q0 -10 -4 -15q11 -8 17 -23t4 -30z
M408 332.5q7 1.5 12 -1.5q-2 6 -2 9q0 8 4 12q-9 7 -14.5 18t-4.5 22q-7 2 -12.5 10.5t-5.5 18.5q0 3 2 11q-21 13 -21 39q0 10 3 23q-1 1 -5 4.5t-3 11.5q-20 6 -19 32q-8 4 -13 15q2 -23 -18 -36q1 -11 -4 -25t-12 -21q1 -4 1 -13q0 -23 -19 -61q-5 -11 -8 -20
q-4 -10 -8.5 -20t-11.5 -15q0 -10 -4 -18l8 1q10 0 15 -5q3 5 12 5q6 0 9 -3q12 9 30 9q13 0 24 -4t18 -11q10 11 21 11q7 0 17 -6q2 6 9 7.5zM405 838.5q13 -13.5 14 -24.5q12 -5 20 -18.5t10 -24.5q18 -11 18 -27q0 -12 -15 -21q-6 -3 -13 -3q-12 0 -21 8.5t-11 19.5
q-9 4 -19 16.5t-12 21.5q-9 -1 -22 9t-15 19q-3 -11 -15 -24t-20 -14q-3 -9 -11 -19t-16 -12q-4 -12 -13.5 -21.5t-21.5 -9.5q-8 0 -19 6q-5 4 -8.5 11t-3.5 14q0 16 12 26q2 11 9 21.5t17 15.5q1 10 8.5 17.5t18.5 9.5q4 13 14 17q1 5 7.5 9.5t12.5 6.5q3 9 12 16t18 7
q10 0 17 -7q11 1 19 -9.5t8 -22.5q8 0 21 -13.5zM544 964q0 -18 -11 -28q-5 -37 -44 -51q-6 -12 -17 -18.5t-21 -6.5q-12 0 -19 8t-5 23q-2 8 -2 11q0 9 6 18t15 14q3 17 29 32q-4 9 -4 19q0 17 13.5 28.5t28.5 11.5q11 0 18.5 -7t7.5 -20l-1 -8q6 -12 6 -26z" />
    <glyph glyph-name="uni1EAC" unicode="&#x1eac;" horiz-adv-x="673" 
d="M600.5 101q17.5 -7 13.5 -47q4 -8 4 -18q0 -16 -13 -26t-30 -10q-15 0 -25.5 9.5t-10.5 27.5q-11 2 -22.5 17.5t-11.5 31.5q0 4 2 12q-10 5 -17.5 20.5t-10.5 32.5t-2 24q-13 6 -20.5 29.5t-5.5 40.5q-7 -3 -17 -3q-20 0 -37 12q-13 -13 -39 -13q-24 0 -34 12
q-13 -11 -28 -11q-12 0 -19 5q-7 -5 -21 -5q-12 0 -24 4t-19 11q-1 0 -5 -2q6 -19 6 -34q0 -23 -23 -40q4 -8 4 -19q0 -22 -15 -42t-29 -22q4 -9 4 -21q0 -27 -18 -49.5t-44 -22.5q-7 0 -11 1q-13 0 -20 8t-7 21q0 9 5 21q-1 4 -1 12q0 20 20 35q-1 3 -1 9q0 15 7.5 30.5
t19.5 20.5q-1 2 -1 9q0 17 8 39.5t18 25.5q-2 44 29 89q0 23 7 43.5t25 29.5q1 19 9 38t18 32q-3 11 -3 20q0 14 5.5 22.5t12.5 10.5q-1 4 -1 12q0 22 16 35l-1 6q0 15 12 27q-1 4 -1 11q0 18 9 36t20 24q18 25 38 25q9 0 23 -6q29 -1 42 -45q9 -11 13 -25.5t3 -26.5
q9 -6 13.5 -16t3.5 -21q10 -9 17.5 -28t7.5 -36q0 -8 -1 -11q7 -7 12.5 -20t5.5 -24q0 -6 -1 -9q13 -9 21.5 -28t12 -37.5t1.5 -25.5q2 -3 11 -14.5t14 -23t5 -21.5q0 -9 -2 -13q4 -5 9 -11.5t8 -11.5t3 -12t-1 -10q8 -8 14 -21t6 -25q0 -10 -4 -15q11 -8 17 -23t4 -30z
M408 332.5q7 1.5 12 -1.5q-2 6 -2 9q0 8 4 12q-9 7 -14.5 18t-4.5 22q-7 2 -12.5 10.5t-5.5 18.5q0 3 2 11q-21 13 -21 39q0 10 3 23q-1 1 -5 4.5t-3 11.5q-20 6 -19 32q-8 4 -13 15q2 -23 -18 -36q1 -11 -4 -25t-12 -21q1 -4 1 -13q0 -23 -19 -61q-5 -11 -8 -20
q-4 -10 -8.5 -20t-11.5 -15q0 -10 -4 -18l8 1q10 0 15 -5q3 5 12 5q6 0 9 -3q12 9 30 9q13 0 24 -4t18 -11q10 11 21 11q7 0 17 -6q2 6 9 7.5zM304 -35q13 0 18 -4q22 -10 22 -34q0 -11 -6.5 -21t-17.5 -15q-11 -11 -26 -11q-6 0 -16 4q-16 1 -24 11.5t-8 25.5q0 14 8 24.5
t23 11.5q9 8 27 8zM392 826.5q13 -13.5 14 -24.5q12 -5 20 -18.5t10 -24.5q18 -11 18 -27q0 -12 -15 -21q-6 -3 -13 -3q-12 0 -21 8.5t-11 19.5q-9 4 -19 16.5t-12 21.5q-9 -1 -22 9t-15 19q-3 -11 -15 -24t-20 -14q-3 -9 -11 -19t-16 -12q-4 -12 -13.5 -21.5t-21.5 -9.5
q-8 0 -19 6q-5 4 -8.5 11t-3.5 14q0 16 12 26q2 11 9 21.5t17 15.5q1 10 8.5 17.5t18.5 9.5q4 13 14 17q1 5 7.5 9.5t12.5 6.5q3 9 12 16t18 7q10 0 17 -7q11 1 19 -9.5t8 -22.5q8 0 21 -13.5z" />
    <glyph glyph-name="uni1EA6" unicode="&#x1ea6;" horiz-adv-x="673" 
d="M600.5 101q17.5 -7 13.5 -47q4 -8 4 -18q0 -16 -13 -26t-30 -10q-15 0 -25.5 9.5t-10.5 27.5q-11 2 -22.5 17.5t-11.5 31.5q0 4 2 12q-10 5 -17.5 20.5t-10.5 32.5t-2 24q-13 6 -20.5 29.5t-5.5 40.5q-7 -3 -17 -3q-20 0 -37 12q-13 -13 -39 -13q-24 0 -34 12
q-13 -11 -28 -11q-12 0 -19 5q-7 -5 -21 -5q-12 0 -24 4t-19 11q-1 0 -5 -2q6 -19 6 -34q0 -23 -23 -40q4 -8 4 -19q0 -22 -15 -42t-29 -22q4 -9 4 -21q0 -27 -18 -49.5t-44 -22.5q-7 0 -11 1q-13 0 -20 8t-7 21q0 9 5 21q-1 4 -1 12q0 20 20 35q-1 3 -1 9q0 15 7.5 30.5
t19.5 20.5q-1 2 -1 9q0 17 8 39.5t18 25.5q-2 44 29 89q0 23 7 43.5t25 29.5q1 19 9 38t18 32q-3 11 -3 20q0 14 5.5 22.5t12.5 10.5q-1 4 -1 12q0 22 16 35l-1 6q0 15 12 27q-1 4 -1 11q0 18 9 36t20 24q18 25 38 25q9 0 23 -6q29 -1 42 -45q9 -11 13 -25.5t3 -26.5
q9 -6 13.5 -16t3.5 -21q10 -9 17.5 -28t7.5 -36q0 -8 -1 -11q7 -7 12.5 -20t5.5 -24q0 -6 -1 -9q13 -9 21.5 -28t12 -37.5t1.5 -25.5q2 -3 11 -14.5t14 -23t5 -21.5q0 -9 -2 -13q4 -5 9 -11.5t8 -11.5t3 -12t-1 -10q8 -8 14 -21t6 -25q0 -10 -4 -15q11 -8 17 -23t4 -30z
M408 332.5q7 1.5 12 -1.5q-2 6 -2 9q0 8 4 12q-9 7 -14.5 18t-4.5 22q-7 2 -12.5 10.5t-5.5 18.5q0 3 2 11q-21 13 -21 39q0 10 3 23q-1 1 -5 4.5t-3 11.5q-20 6 -19 32q-8 4 -13 15q2 -23 -18 -36q1 -11 -4 -25t-12 -21q1 -4 1 -13q0 -23 -19 -61q-5 -11 -8 -20
q-4 -10 -8.5 -20t-11.5 -15q0 -10 -4 -18l8 1q10 0 15 -5q3 5 12 5q6 0 9 -3q12 9 30 9q13 0 24 -4t18 -11q10 11 21 11q7 0 17 -6q2 6 9 7.5zM392 828.5q13 -13.5 14 -24.5q12 -5 20 -18.5t10 -24.5q18 -11 18 -27q0 -12 -15 -21q-6 -3 -13 -3q-12 0 -21 8.5t-11 19.5
q-9 4 -19 16.5t-12 21.5q-9 -1 -22 9t-15 19q-3 -11 -15 -24t-20 -14q-3 -9 -11 -19t-16 -12q-4 -12 -13.5 -21.5t-21.5 -9.5q-8 0 -19 6q-5 4 -8.5 11t-3.5 14q0 16 12 26q2 11 9 21.5t17 15.5q1 10 8.5 17.5t18.5 9.5q4 13 14 17q1 5 7.5 9.5t12.5 6.5q3 9 12 16t18 7
q10 0 17 -7q11 1 19 -9.5t8 -22.5q8 0 21 -13.5zM473.5 930.5q9.5 -14.5 9.5 -29.5q0 -20 -14 -28q-8 -5 -17 -5q-11 0 -28 12q-19 4 -34 23q-14 18 -12 44q-17 14 -21 36q-22 8 -22 30q0 15 10.5 27.5t25.5 12.5q12 0 23 -10q33 -4 33 -33l-1 -8q10 -10 15 -21.5t9 -30.5
q14 -5 23.5 -19.5z" />
    <glyph glyph-name="uni1EA8" unicode="&#x1ea8;" horiz-adv-x="673" 
d="M600.5 101q17.5 -7 13.5 -47q4 -8 4 -18q0 -16 -13 -26t-30 -10q-15 0 -25.5 9.5t-10.5 27.5q-11 2 -22.5 17.5t-11.5 31.5q0 4 2 12q-10 5 -17.5 20.5t-10.5 32.5t-2 24q-13 6 -20.5 29.5t-5.5 40.5q-7 -3 -17 -3q-20 0 -37 12q-13 -13 -39 -13q-24 0 -34 12
q-13 -11 -28 -11q-12 0 -19 5q-7 -5 -21 -5q-12 0 -24 4t-19 11q-1 0 -5 -2q6 -19 6 -34q0 -23 -23 -40q4 -8 4 -19q0 -22 -15 -42t-29 -22q4 -9 4 -21q0 -27 -18 -49.5t-44 -22.5q-7 0 -11 1q-13 0 -20 8t-7 21q0 9 5 21q-1 4 -1 12q0 20 20 35q-1 3 -1 9q0 15 7.5 30.5
t19.5 20.5q-1 2 -1 9q0 17 8 39.5t18 25.5q-2 44 29 89q0 23 7 43.5t25 29.5q1 19 9 38t18 32q-3 11 -3 20q0 14 5.5 22.5t12.5 10.5q-1 4 -1 12q0 22 16 35l-1 6q0 15 12 27q-1 4 -1 11q0 18 9 36t20 24q18 25 38 25q9 0 23 -6q29 -1 42 -45q9 -11 13 -25.5t3 -26.5
q9 -6 13.5 -16t3.5 -21q10 -9 17.5 -28t7.5 -36q0 -8 -1 -11q7 -7 12.5 -20t5.5 -24q0 -6 -1 -9q13 -9 21.5 -28t12 -37.5t1.5 -25.5q2 -3 11 -14.5t14 -23t5 -21.5q0 -9 -2 -13q4 -5 9 -11.5t8 -11.5t3 -12t-1 -10q8 -8 14 -21t6 -25q0 -10 -4 -15q11 -8 17 -23t4 -30z
M408 332.5q7 1.5 12 -1.5q-2 6 -2 9q0 8 4 12q-9 7 -14.5 18t-4.5 22q-7 2 -12.5 10.5t-5.5 18.5q0 3 2 11q-21 13 -21 39q0 10 3 23q-1 1 -5 4.5t-3 11.5q-20 6 -19 32q-8 4 -13 15q2 -23 -18 -36q1 -11 -4 -25t-12 -21q1 -4 1 -13q0 -23 -19 -61q-5 -11 -8 -20
q-4 -10 -8.5 -20t-11.5 -15q0 -10 -4 -18l8 1q10 0 15 -5q3 5 12 5q6 0 9 -3q12 9 30 9q13 0 24 -4t18 -11q10 11 21 11q7 0 17 -6q2 6 9 7.5zM394 811.5q13 -13.5 14 -24.5q12 -5 20 -18.5t10 -24.5q18 -11 18 -27q0 -12 -15 -21q-6 -3 -13 -3q-12 0 -21 8.5t-11 19.5
q-9 4 -19 16.5t-12 21.5q-9 -1 -22 9t-15 19q-3 -11 -15 -24t-20 -14q-3 -9 -11 -19t-16 -12q-4 -12 -13.5 -21.5t-21.5 -9.5q-8 0 -19 6q-5 4 -8.5 11t-3.5 14q0 16 12 26q2 11 9 21.5t17 15.5q1 10 8.5 17.5t18.5 9.5q4 13 14 17q1 5 7.5 9.5t12.5 6.5q3 9 12 16t18 7
q10 0 17 -7q11 1 19 -9.5t8 -22.5q8 0 21 -13.5zM410 952q-7 0 -12 3q-15 8 -15 25q0 14 10.5 25.5t25.5 10.5q10 5 19 5q14 0 20 -8q17 0 33 -17.5t13 -39.5q5 -5 8 -14t3 -18q0 -18 -13 -26q4 -13 -6.5 -27.5t-23.5 -13.5q-10 -15 -27 -15q-14 0 -26 9t-12 21q0 9 7 16
q1 10 7.5 17t15.5 9l5 6q-7 7 -9 22q-11 3 -18 10h-5z" />
    <glyph glyph-name="uni1EAA" unicode="&#x1eaa;" horiz-adv-x="673" 
d="M600.5 101q17.5 -7 13.5 -47q4 -8 4 -18q0 -16 -13 -26t-30 -10q-15 0 -25.5 9.5t-10.5 27.5q-11 2 -22.5 17.5t-11.5 31.5q0 4 2 12q-10 5 -17.5 20.5t-10.5 32.5t-2 24q-13 6 -20.5 29.5t-5.5 40.5q-7 -3 -17 -3q-20 0 -37 12q-13 -13 -39 -13q-24 0 -34 12
q-13 -11 -28 -11q-12 0 -19 5q-7 -5 -21 -5q-12 0 -24 4t-19 11q-1 0 -5 -2q6 -19 6 -34q0 -23 -23 -40q4 -8 4 -19q0 -22 -15 -42t-29 -22q4 -9 4 -21q0 -27 -18 -49.5t-44 -22.5q-7 0 -11 1q-13 0 -20 8t-7 21q0 9 5 21q-1 4 -1 12q0 20 20 35q-1 3 -1 9q0 15 7.5 30.5
t19.5 20.5q-1 2 -1 9q0 17 8 39.5t18 25.5q-2 44 29 89q0 23 7 43.5t25 29.5q1 19 9 38t18 32q-3 11 -3 20q0 14 5.5 22.5t12.5 10.5q-1 4 -1 12q0 22 16 35l-1 6q0 15 12 27q-1 4 -1 11q0 18 9 36t20 24q18 25 38 25q9 0 23 -6q29 -1 42 -45q9 -11 13 -25.5t3 -26.5
q9 -6 13.5 -16t3.5 -21q10 -9 17.5 -28t7.5 -36q0 -8 -1 -11q7 -7 12.5 -20t5.5 -24q0 -6 -1 -9q13 -9 21.5 -28t12 -37.5t1.5 -25.5q2 -3 11 -14.5t14 -23t5 -21.5q0 -9 -2 -13q4 -5 9 -11.5t8 -11.5t3 -12t-1 -10q8 -8 14 -21t6 -25q0 -10 -4 -15q11 -8 17 -23t4 -30z
M408 332.5q7 1.5 12 -1.5q-2 6 -2 9q0 8 4 12q-9 7 -14.5 18t-4.5 22q-7 2 -12.5 10.5t-5.5 18.5q0 3 2 11q-21 13 -21 39q0 10 3 23q-1 1 -5 4.5t-3 11.5q-20 6 -19 32q-8 4 -13 15q2 -23 -18 -36q1 -11 -4 -25t-12 -21q1 -4 1 -13q0 -23 -19 -61q-5 -11 -8 -20
q-4 -10 -8.5 -20t-11.5 -15q0 -10 -4 -18l8 1q10 0 15 -5q3 5 12 5q6 0 9 -3q12 9 30 9q13 0 24 -4t18 -11q10 11 21 11q7 0 17 -6q2 6 9 7.5zM394 819.5q13 -13.5 14 -24.5q12 -5 20 -18.5t10 -24.5q18 -11 18 -27q0 -12 -15 -21q-6 -3 -13 -3q-12 0 -21 8.5t-11 19.5
q-9 4 -19 16.5t-12 21.5q-9 -1 -22 9t-15 19q-3 -11 -15 -24t-20 -14q-3 -9 -11 -19t-16 -12q-4 -12 -13.5 -21.5t-21.5 -9.5q-8 0 -19 6q-5 4 -8.5 11t-3.5 14q0 16 12 26q2 11 9 21.5t17 15.5q1 10 8.5 17.5t18.5 9.5q4 13 14 17q1 5 7.5 9.5t12.5 6.5q3 9 12 16t18 7
q10 0 17 -7q11 1 19 -9.5t8 -22.5q8 0 21 -13.5zM293 928q-8 0 -11 4q-4 -4 -12 -6t-13 1q1 -5 -6.5 -12.5t-13.5 -9.5q-3 -12 -12.5 -18.5t-20.5 -6.5t-20 6q-14 11 -14 26q0 13 11 26q3 32 35 44q4 5 17.5 10t23.5 6q3 2 12 2q12 0 24 -4.5t13 -11.5q6 2 11 2q9 0 16 -4
t10 -11q17 1 45 -15q6 8 21 14t23 4q0 20 15 36q10 11 24 11t25 -10t11 -25q0 -3 -2 -11q2 -51 -52 -67q-10 -8 -27.5 -13t-35.5 -5q-17 0 -26 4q-11 -1 -20.5 4.5t-11.5 13.5q-5 -1 -15.5 5t-13.5 12q-3 -1 -10 -1z" />
    <glyph glyph-name="uni0200" unicode="&#x200;" horiz-adv-x="673" 
d="M600.5 101q17.5 -7 13.5 -47q4 -8 4 -18q0 -16 -13 -26t-30 -10q-15 0 -25.5 9.5t-10.5 27.5q-11 2 -22.5 17.5t-11.5 31.5q0 4 2 12q-10 5 -17.5 20.5t-10.5 32.5t-2 24q-13 6 -20.5 29.5t-5.5 40.5q-7 -3 -17 -3q-20 0 -37 12q-13 -13 -39 -13q-24 0 -34 12
q-13 -11 -28 -11q-12 0 -19 5q-7 -5 -21 -5q-12 0 -24 4t-19 11q-1 0 -5 -2q6 -19 6 -34q0 -23 -23 -40q4 -8 4 -19q0 -22 -15 -42t-29 -22q4 -9 4 -21q0 -27 -18 -49.5t-44 -22.5q-7 0 -11 1q-13 0 -20 8t-7 21q0 9 5 21q-1 4 -1 12q0 20 20 35q-1 3 -1 9q0 15 7.5 30.5
t19.5 20.5q-1 2 -1 9q0 17 8 39.5t18 25.5q-2 44 29 89q0 23 7 43.5t25 29.5q1 19 9 38t18 32q-3 11 -3 20q0 14 5.5 22.5t12.5 10.5q-1 4 -1 12q0 22 16 35l-1 6q0 15 12 27q-1 4 -1 11q0 18 9 36t20 24q18 25 38 25q9 0 23 -6q29 -1 42 -45q9 -11 13 -25.5t3 -26.5
q9 -6 13.5 -16t3.5 -21q10 -9 17.5 -28t7.5 -36q0 -8 -1 -11q7 -7 12.5 -20t5.5 -24q0 -6 -1 -9q13 -9 21.5 -28t12 -37.5t1.5 -25.5q2 -3 11 -14.5t14 -23t5 -21.5q0 -9 -2 -13q4 -5 9 -11.5t8 -11.5t3 -12t-1 -10q8 -8 14 -21t6 -25q0 -10 -4 -15q11 -8 17 -23t4 -30z
M408 332.5q7 1.5 12 -1.5q-2 6 -2 9q0 8 4 12q-9 7 -14.5 18t-4.5 22q-7 2 -12.5 10.5t-5.5 18.5q0 3 2 11q-21 13 -21 39q0 10 3 23q-1 1 -5 4.5t-3 11.5q-20 6 -19 32q-8 4 -13 15q2 -23 -18 -36q1 -11 -4 -25t-12 -21q1 -4 1 -13q0 -23 -19 -61q-5 -11 -8 -20
q-4 -10 -8.5 -20t-11.5 -15q0 -10 -4 -18l8 1q10 0 15 -5q3 5 12 5q6 0 9 -3q12 9 30 9q13 0 24 -4t18 -11q10 11 21 11q7 0 17 -6q2 6 9 7.5zM280 878q0 14 7.5 22.5t19.5 8.5q21 0 46 -29q12 -4 26 -17.5t20 -26.5q12 -3 24.5 -11.5t16.5 -18.5q14 -17 14 -31
q0 -13 -14 -23q-11 -8 -21 -8q-8 0 -17 5t-18 11q-16 0 -32 7.5t-19 23.5q-17 5 -23.5 15.5t-8.5 26.5q-21 21 -21 45zM103 878q0 14 7.5 22.5t19.5 8.5q21 0 46 -29q12 -4 26 -17.5t20 -26.5q12 -3 24.5 -11.5t16.5 -18.5q14 -17 14 -31q0 -13 -14 -23q-11 -8 -21 -8
q-8 0 -17 5t-18 11q-16 0 -32 7.5t-19 23.5q-17 5 -23.5 15.5t-8.5 26.5q-21 21 -21 45z" />
    <glyph glyph-name="Adieresis" unicode="&#xc4;" horiz-adv-x="673" 
d="M600.5 101q17.5 -7 13.5 -47q4 -8 4 -18q0 -16 -13 -26t-30 -10q-15 0 -25.5 9.5t-10.5 27.5q-11 2 -22.5 17.5t-11.5 31.5q0 4 2 12q-10 5 -17.5 20.5t-10.5 32.5t-2 24q-13 6 -20.5 29.5t-5.5 40.5q-7 -3 -17 -3q-20 0 -37 12q-13 -13 -39 -13q-24 0 -34 12
q-13 -11 -28 -11q-12 0 -19 5q-7 -5 -21 -5q-12 0 -24 4t-19 11q-1 0 -5 -2q6 -19 6 -34q0 -23 -23 -40q4 -8 4 -19q0 -22 -15 -42t-29 -22q4 -9 4 -21q0 -27 -18 -49.5t-44 -22.5q-7 0 -11 1q-13 0 -20 8t-7 21q0 9 5 21q-1 4 -1 12q0 20 20 35q-1 3 -1 9q0 15 7.5 30.5
t19.5 20.5q-1 2 -1 9q0 17 8 39.5t18 25.5q-2 44 29 89q0 23 7 43.5t25 29.5q1 19 9 38t18 32q-3 11 -3 20q0 14 5.5 22.5t12.5 10.5q-1 4 -1 12q0 22 16 35l-1 6q0 15 12 27q-1 4 -1 11q0 18 9 36t20 24q18 25 38 25q9 0 23 -6q29 -1 42 -45q9 -11 13 -25.5t3 -26.5
q9 -6 13.5 -16t3.5 -21q10 -9 17.5 -28t7.5 -36q0 -8 -1 -11q7 -7 12.5 -20t5.5 -24q0 -6 -1 -9q13 -9 21.5 -28t12 -37.5t1.5 -25.5q2 -3 11 -14.5t14 -23t5 -21.5q0 -9 -2 -13q4 -5 9 -11.5t8 -11.5t3 -12t-1 -10q8 -8 14 -21t6 -25q0 -10 -4 -15q11 -8 17 -23t4 -30z
M408 332.5q7 1.5 12 -1.5q-2 6 -2 9q0 8 4 12q-9 7 -14.5 18t-4.5 22q-7 2 -12.5 10.5t-5.5 18.5q0 3 2 11q-21 13 -21 39q0 10 3 23q-1 1 -5 4.5t-3 11.5q-20 6 -19 32q-8 4 -13 15q2 -23 -18 -36q1 -11 -4 -25t-12 -21q1 -4 1 -13q0 -23 -19 -61q-5 -11 -8 -20
q-4 -10 -8.5 -20t-11.5 -15q0 -10 -4 -18l8 1q10 0 15 -5q3 5 12 5q6 0 9 -3q12 9 30 9q13 0 24 -4t18 -11q10 11 21 11q7 0 17 -6q2 6 9 7.5zM385 748q-12 0 -21.5 8.5t-9.5 19.5q0 12 12 24q1 21 22 31q12 16 28 16q15 0 27 -12t12 -27q0 -16 -16 -28q1 -10 -5.5 -15
t-16.5 -5l-8 1q-10 -13 -24 -13zM180 778q0 -14 12 -23t27 -9q16 0 27 9t11 27q0 6 -1 9q4 8 4 17q0 15 -12 23.5t-27 8.5q-17 0 -27.5 -10t-7.5 -30q-6 -12 -6 -22z" />
    <glyph glyph-name="uni1EA0" unicode="&#x1ea0;" horiz-adv-x="673" 
d="M600.5 101q17.5 -7 13.5 -47q4 -8 4 -18q0 -16 -13 -26t-30 -10q-15 0 -25.5 9.5t-10.5 27.5q-11 2 -22.5 17.5t-11.5 31.5q0 4 2 12q-10 5 -17.5 20.5t-10.5 32.5t-2 24q-13 6 -20.5 29.5t-5.5 40.5q-7 -3 -17 -3q-20 0 -37 12q-13 -13 -39 -13q-24 0 -34 12
q-13 -11 -28 -11q-12 0 -19 5q-7 -5 -21 -5q-12 0 -24 4t-19 11q-1 0 -5 -2q6 -19 6 -34q0 -23 -23 -40q4 -8 4 -19q0 -22 -15 -42t-29 -22q4 -9 4 -21q0 -27 -18 -49.5t-44 -22.5q-7 0 -11 1q-13 0 -20 8t-7 21q0 9 5 21q-1 4 -1 12q0 20 20 35q-1 3 -1 9q0 15 7.5 30.5
t19.5 20.5q-1 2 -1 9q0 17 8 39.5t18 25.5q-2 44 29 89q0 23 7 43.5t25 29.5q1 19 9 38t18 32q-3 11 -3 20q0 14 5.5 22.5t12.5 10.5q-1 4 -1 12q0 22 16 35l-1 6q0 15 12 27q-1 4 -1 11q0 18 9 36t20 24q18 25 38 25q9 0 23 -6q29 -1 42 -45q9 -11 13 -25.5t3 -26.5
q9 -6 13.5 -16t3.5 -21q10 -9 17.5 -28t7.5 -36q0 -8 -1 -11q7 -7 12.5 -20t5.5 -24q0 -6 -1 -9q13 -9 21.5 -28t12 -37.5t1.5 -25.5q2 -3 11 -14.5t14 -23t5 -21.5q0 -9 -2 -13q4 -5 9 -11.5t8 -11.5t3 -12t-1 -10q8 -8 14 -21t6 -25q0 -10 -4 -15q11 -8 17 -23t4 -30z
M408 332.5q7 1.5 12 -1.5q-2 6 -2 9q0 8 4 12q-9 7 -14.5 18t-4.5 22q-7 2 -12.5 10.5t-5.5 18.5q0 3 2 11q-21 13 -21 39q0 10 3 23q-1 1 -5 4.5t-3 11.5q-20 6 -19 32q-8 4 -13 15q2 -23 -18 -36q1 -11 -4 -25t-12 -21q1 -4 1 -13q0 -23 -19 -61q-5 -11 -8 -20
q-4 -10 -8.5 -20t-11.5 -15q0 -10 -4 -18l8 1q10 0 15 -5q3 5 12 5q6 0 9 -3q12 9 30 9q13 0 24 -4t18 -11q10 11 21 11q7 0 17 -6q2 6 9 7.5zM299 -84q13 0 18 -4q22 -10 22 -34q0 -11 -6.5 -21t-17.5 -15q-11 -11 -26 -11q-6 0 -16 4q-16 1 -24 11.5t-8 25.5q0 14 8 24.5
t23 11.5q9 8 27 8z" />
    <glyph glyph-name="Agrave" unicode="&#xc0;" horiz-adv-x="673" 
d="M600.5 101q17.5 -7 13.5 -47q4 -8 4 -18q0 -16 -13 -26t-30 -10q-15 0 -25.5 9.5t-10.5 27.5q-11 2 -22.5 17.5t-11.5 31.5q0 4 2 12q-10 5 -17.5 20.5t-10.5 32.5t-2 24q-13 6 -20.5 29.5t-5.5 40.5q-7 -3 -17 -3q-20 0 -37 12q-13 -13 -39 -13q-24 0 -34 12
q-13 -11 -28 -11q-12 0 -19 5q-7 -5 -21 -5q-12 0 -24 4t-19 11q-1 0 -5 -2q6 -19 6 -34q0 -23 -23 -40q4 -8 4 -19q0 -22 -15 -42t-29 -22q4 -9 4 -21q0 -27 -18 -49.5t-44 -22.5q-7 0 -11 1q-13 0 -20 8t-7 21q0 9 5 21q-1 4 -1 12q0 20 20 35q-1 3 -1 9q0 15 7.5 30.5
t19.5 20.5q-1 2 -1 9q0 17 8 39.5t18 25.5q-2 44 29 89q0 23 7 43.5t25 29.5q1 19 9 38t18 32q-3 11 -3 20q0 14 5.5 22.5t12.5 10.5q-1 4 -1 12q0 22 16 35l-1 6q0 15 12 27q-1 4 -1 11q0 18 9 36t20 24q18 25 38 25q9 0 23 -6q29 -1 42 -45q9 -11 13 -25.5t3 -26.5
q9 -6 13.5 -16t3.5 -21q10 -9 17.5 -28t7.5 -36q0 -8 -1 -11q7 -7 12.5 -20t5.5 -24q0 -6 -1 -9q13 -9 21.5 -28t12 -37.5t1.5 -25.5q2 -3 11 -14.5t14 -23t5 -21.5q0 -9 -2 -13q4 -5 9 -11.5t8 -11.5t3 -12t-1 -10q8 -8 14 -21t6 -25q0 -10 -4 -15q11 -8 17 -23t4 -30z
M408 332.5q7 1.5 12 -1.5q-2 6 -2 9q0 8 4 12q-9 7 -14.5 18t-4.5 22q-7 2 -12.5 10.5t-5.5 18.5q0 3 2 11q-21 13 -21 39q0 10 3 23q-1 1 -5 4.5t-3 11.5q-20 6 -19 32q-8 4 -13 15q2 -23 -18 -36q1 -11 -4 -25t-12 -21q1 -4 1 -13q0 -23 -19 -61q-5 -11 -8 -20
q-4 -10 -8.5 -20t-11.5 -15q0 -10 -4 -18l8 1q10 0 15 -5q3 5 12 5q6 0 9 -3q12 9 30 9q13 0 24 -4t18 -11q10 11 21 11q7 0 17 -6q2 6 9 7.5zM180 880q0 14 7.5 22.5t19.5 8.5q21 0 46 -29q12 -4 26 -17.5t20 -26.5q12 -3 24.5 -11.5t16.5 -18.5q14 -17 14 -31
q0 -13 -14 -23q-11 -8 -21 -8q-8 0 -17 5t-18 11q-16 0 -32 7.5t-19 23.5q-17 5 -23.5 15.5t-8.5 26.5q-21 21 -21 45z" />
    <glyph glyph-name="uni1EA2" unicode="&#x1ea2;" horiz-adv-x="673" 
d="M600.5 101q17.5 -7 13.5 -47q4 -8 4 -18q0 -16 -13 -26t-30 -10q-15 0 -25.5 9.5t-10.5 27.5q-11 2 -22.5 17.5t-11.5 31.5q0 4 2 12q-10 5 -17.5 20.5t-10.5 32.5t-2 24q-13 6 -20.5 29.5t-5.5 40.5q-7 -3 -17 -3q-20 0 -37 12q-13 -13 -39 -13q-24 0 -34 12
q-13 -11 -28 -11q-12 0 -19 5q-7 -5 -21 -5q-12 0 -24 4t-19 11q-1 0 -5 -2q6 -19 6 -34q0 -23 -23 -40q4 -8 4 -19q0 -22 -15 -42t-29 -22q4 -9 4 -21q0 -27 -18 -49.5t-44 -22.5q-7 0 -11 1q-13 0 -20 8t-7 21q0 9 5 21q-1 4 -1 12q0 20 20 35q-1 3 -1 9q0 15 7.5 30.5
t19.5 20.5q-1 2 -1 9q0 17 8 39.5t18 25.5q-2 44 29 89q0 23 7 43.5t25 29.5q1 19 9 38t18 32q-3 11 -3 20q0 14 5.5 22.5t12.5 10.5q-1 4 -1 12q0 22 16 35l-1 6q0 15 12 27q-1 4 -1 11q0 18 9 36t20 24q18 25 38 25q9 0 23 -6q29 -1 42 -45q9 -11 13 -25.5t3 -26.5
q9 -6 13.5 -16t3.5 -21q10 -9 17.5 -28t7.5 -36q0 -8 -1 -11q7 -7 12.5 -20t5.5 -24q0 -6 -1 -9q13 -9 21.5 -28t12 -37.5t1.5 -25.5q2 -3 11 -14.5t14 -23t5 -21.5q0 -9 -2 -13q4 -5 9 -11.5t8 -11.5t3 -12t-1 -10q8 -8 14 -21t6 -25q0 -10 -4 -15q11 -8 17 -23t4 -30z
M408 332.5q7 1.5 12 -1.5q-2 6 -2 9q0 8 4 12q-9 7 -14.5 18t-4.5 22q-7 2 -12.5 10.5t-5.5 18.5q0 3 2 11q-21 13 -21 39q0 10 3 23q-1 1 -5 4.5t-3 11.5q-20 6 -19 32q-8 4 -13 15q2 -23 -18 -36q1 -11 -4 -25t-12 -21q1 -4 1 -13q0 -23 -19 -61q-5 -11 -8 -20
q-4 -10 -8.5 -20t-11.5 -15q0 -10 -4 -18l8 1q10 0 15 -5q3 5 12 5q6 0 9 -3q12 9 30 9q13 0 24 -4t18 -11q10 11 21 11q7 0 17 -6q2 6 9 7.5zM276 837q-7 0 -12 3q-15 8 -15 25q0 14 10.5 25.5t25.5 10.5q10 5 19 5q14 0 20 -8q17 0 33 -17.5t13 -39.5q5 -5 8 -14t3 -18
q0 -18 -13 -26q4 -13 -6.5 -27.5t-23.5 -13.5q-10 -15 -27 -15q-14 0 -26 9t-12 21q0 9 7 16q1 10 7.5 17t15.5 9l5 6q-7 7 -9 22q-11 3 -18 10h-5z" />
    <glyph glyph-name="uni0202" unicode="&#x202;" horiz-adv-x="673" 
d="M600.5 101q17.5 -7 13.5 -47q4 -8 4 -18q0 -16 -13 -26t-30 -10q-15 0 -25.5 9.5t-10.5 27.5q-11 2 -22.5 17.5t-11.5 31.5q0 4 2 12q-10 5 -17.5 20.5t-10.5 32.5t-2 24q-13 6 -20.5 29.5t-5.5 40.5q-7 -3 -17 -3q-20 0 -37 12q-13 -13 -39 -13q-24 0 -34 12
q-13 -11 -28 -11q-12 0 -19 5q-7 -5 -21 -5q-12 0 -24 4t-19 11q-1 0 -5 -2q6 -19 6 -34q0 -23 -23 -40q4 -8 4 -19q0 -22 -15 -42t-29 -22q4 -9 4 -21q0 -27 -18 -49.5t-44 -22.5q-7 0 -11 1q-13 0 -20 8t-7 21q0 9 5 21q-1 4 -1 12q0 20 20 35q-1 3 -1 9q0 15 7.5 30.5
t19.5 20.5q-1 2 -1 9q0 17 8 39.5t18 25.5q-2 44 29 89q0 23 7 43.5t25 29.5q1 19 9 38t18 32q-3 11 -3 20q0 14 5.5 22.5t12.5 10.5q-1 4 -1 12q0 22 16 35l-1 6q0 15 12 27q-1 4 -1 11q0 18 9 36t20 24q18 25 38 25q9 0 23 -6q29 -1 42 -45q9 -11 13 -25.5t3 -26.5
q9 -6 13.5 -16t3.5 -21q10 -9 17.5 -28t7.5 -36q0 -8 -1 -11q7 -7 12.5 -20t5.5 -24q0 -6 -1 -9q13 -9 21.5 -28t12 -37.5t1.5 -25.5q2 -3 11 -14.5t14 -23t5 -21.5q0 -9 -2 -13q4 -5 9 -11.5t8 -11.5t3 -12t-1 -10q8 -8 14 -21t6 -25q0 -10 -4 -15q11 -8 17 -23t4 -30z
M408 332.5q7 1.5 12 -1.5q-2 6 -2 9q0 8 4 12q-9 7 -14.5 18t-4.5 22q-7 2 -12.5 10.5t-5.5 18.5q0 3 2 11q-21 13 -21 39q0 10 3 23q-1 1 -5 4.5t-3 11.5q-20 6 -19 32q-8 4 -13 15q2 -23 -18 -36q1 -11 -4 -25t-12 -21q1 -4 1 -13q0 -23 -19 -61q-5 -11 -8 -20
q-4 -10 -8.5 -20t-11.5 -15q0 -10 -4 -18l8 1q10 0 15 -5q3 5 12 5q6 0 9 -3q12 9 30 9q13 0 24 -4t18 -11q10 11 21 11q7 0 17 -6q2 6 9 7.5zM437 782.5q15 -16.5 14 -38.5q6 -10 6 -20q0 -15 -13 -25t-29 -10q-14 0 -24 9t-10 26q-16 10 -24.5 16.5t-11.5 17.5
q-8 -2 -13 -2q-11 0 -22 3.5t-16 8.5q-24 -18 -61 -19q1 -3 1 -8q0 -10 -6 -19t-16 -14q-1 -15 -12.5 -24.5t-25.5 -9.5q-15 0 -27 12q-9 11 -9 29q0 12 4.5 24t12.5 19q-2 11 10 26.5t32 27.5t40 14q7 7 23 12.5t31 5.5q16 0 23 -7q7 5 22 5q21 0 29 -7q12 3 23 -5.5
t16 -23.5q18 -7 33 -23.5z" />
    <glyph glyph-name="Amacron" unicode="&#x100;" horiz-adv-x="673" 
d="M600.5 101q17.5 -7 13.5 -47q4 -8 4 -18q0 -16 -13 -26t-30 -10q-15 0 -25.5 9.5t-10.5 27.5q-11 2 -22.5 17.5t-11.5 31.5q0 4 2 12q-10 5 -17.5 20.5t-10.5 32.5t-2 24q-13 6 -20.5 29.5t-5.5 40.5q-7 -3 -17 -3q-20 0 -37 12q-13 -13 -39 -13q-24 0 -34 12
q-13 -11 -28 -11q-12 0 -19 5q-7 -5 -21 -5q-12 0 -24 4t-19 11q-1 0 -5 -2q6 -19 6 -34q0 -23 -23 -40q4 -8 4 -19q0 -22 -15 -42t-29 -22q4 -9 4 -21q0 -27 -18 -49.5t-44 -22.5q-7 0 -11 1q-13 0 -20 8t-7 21q0 9 5 21q-1 4 -1 12q0 20 20 35q-1 3 -1 9q0 15 7.5 30.5
t19.5 20.5q-1 2 -1 9q0 17 8 39.5t18 25.5q-2 44 29 89q0 23 7 43.5t25 29.5q1 19 9 38t18 32q-3 11 -3 20q0 14 5.5 22.5t12.5 10.5q-1 4 -1 12q0 22 16 35l-1 6q0 15 12 27q-1 4 -1 11q0 18 9 36t20 24q18 25 38 25q9 0 23 -6q29 -1 42 -45q9 -11 13 -25.5t3 -26.5
q9 -6 13.5 -16t3.5 -21q10 -9 17.5 -28t7.5 -36q0 -8 -1 -11q7 -7 12.5 -20t5.5 -24q0 -6 -1 -9q13 -9 21.5 -28t12 -37.5t1.5 -25.5q2 -3 11 -14.5t14 -23t5 -21.5q0 -9 -2 -13q4 -5 9 -11.5t8 -11.5t3 -12t-1 -10q8 -8 14 -21t6 -25q0 -10 -4 -15q11 -8 17 -23t4 -30z
M408 332.5q7 1.5 12 -1.5q-2 6 -2 9q0 8 4 12q-9 7 -14.5 18t-4.5 22q-7 2 -12.5 10.5t-5.5 18.5q0 3 2 11q-21 13 -21 39q0 10 3 23q-1 1 -5 4.5t-3 11.5q-20 6 -19 32q-8 4 -13 15q2 -23 -18 -36q1 -11 -4 -25t-12 -21q1 -4 1 -13q0 -23 -19 -61q-5 -11 -8 -20
q-4 -10 -8.5 -20t-11.5 -15q0 -10 -4 -18l8 1q10 0 15 -5q3 5 12 5q6 0 9 -3q12 9 30 9q13 0 24 -4t18 -11q10 11 21 11q7 0 17 -6q2 6 9 7.5zM196.5 730q-4.5 -1 -16.5 -1q-21 0 -34.5 12t-13.5 27q0 14 11 24t33 12q9 9 27 9t32 -8q17 10 42 10q23 0 53 -8q28 5 48 5
q28 0 39 -8q12 6 37 6q27 0 37 -7q5 1 13 1q16 0 26 -9.5t10 -22.5q0 -14 -10.5 -25t-29.5 -12q-18 -11 -34 -11q-11 0 -22 6q-8 -4 -24 -4q-27 0 -35 9q-10 -3 -26 -3q-19 0 -35 6q-11 -4 -24 -4q-14 0 -31 5q-19 -10 -33 -10q-13 0 -30 7q-5 -5 -9.5 -6z" />
    <glyph glyph-name="Aogonek" unicode="&#x104;" horiz-adv-x="609" 
d="M618 37q0 -17 -13 -27.5t-30 -10.5q-16 0 -26 10q-10 -10 -28 -12q-4 -9 -12 -13.5t-17 -1.5q0 -19 -13 -31q8 -5 14.5 -15t6.5 -17q7 -2 8 -4q8 3 17 3q16 0 29.5 -6.5t17.5 -18.5q1 -4 1 -10q0 -13 -10 -19t-24 -6q-6 0 -16 2q-7 -4 -17 -4q-17 0 -30 13
q-12 -2 -21.5 6t-9.5 22q0 6 1 9q-9 2 -16 11t-7 18l2 8q-4 10 -4 18q0 12 4.5 22t11.5 14q-4 5 0.5 15.5t14.5 19t21 8.5q3 0 9 -2q2 7 11.5 11.5t21.5 6.5q-10 15 -10 30q0 4 2 12q-10 5 -17.5 20.5t-10.5 32.5t-2 24q-13 6 -20.5 29.5t-5.5 40.5q-7 -3 -17 -3
q-20 0 -37 12q-13 -13 -39 -13q-24 0 -34 12q-13 -11 -28 -11q-12 0 -19 5q-7 -5 -21 -5q-12 0 -24 4t-19 11q-1 0 -5 -2q6 -19 6 -34q0 -23 -23 -40q4 -8 4 -19q0 -22 -15 -42t-29 -22q4 -9 4 -21q0 -27 -18 -49.5t-44 -22.5q-7 0 -11 1q-13 0 -20 8t-7 21q0 9 5 21
q-1 4 -1 12q0 20 20 35q-1 3 -1 9q0 15 7.5 30.5t19.5 20.5q-1 2 -1 9q0 17 8 39.5t18 25.5q-2 44 29 89q0 23 7 43.5t25 29.5q1 19 9 38t18 32q-3 11 -3 20q0 14 5.5 22.5t12.5 10.5q-1 4 -1 12q0 22 16 35l-1 6q0 15 12 27q-1 4 -1 11q0 18 9 36t20 24q18 25 38 25
q9 0 23 -6q29 -1 42 -45q9 -11 13 -25.5t3 -26.5q9 -6 13.5 -16t3.5 -21q10 -9 17.5 -28t7.5 -36q0 -8 -1 -11q7 -7 12.5 -20t5.5 -24q0 -6 -1 -9q13 -9 21.5 -28t12 -37.5t1.5 -25.5q2 -3 11 -14.5t14 -23t5 -21.5q0 -9 -2 -13q4 -5 9 -11.5t8 -11.5t3 -12t-1 -10
q8 -8 14 -21t6 -25q0 -10 -4 -15q11 -8 17 -23t4 -30l17.5 -7t13.5 -47q4 -8 4 -17zM418 340q0 8 4 12q-9 7 -14.5 18t-4.5 22q-7 2 -12.5 10.5t-5.5 18.5q0 3 2 11q-21 13 -21 39q0 10 3 23q-1 1 -5 4.5t-3 11.5q-20 6 -19 32q-8 4 -13 15q2 -23 -18 -36q1 -11 -4 -25
t-12 -21q1 -4 1 -13q0 -23 -19 -61q-5 -11 -8 -20q-4 -10 -8.5 -20t-11.5 -15q0 -10 -4 -18l8 1q10 0 15 -5q3 5 12 5q6 0 9 -3q12 9 30 9q13 0 24 -4t18 -11q10 11 21 11q7 0 17 -6q2 6 9 7.5t12 -1.5q-2 6 -2 9z" />
    <glyph glyph-name="Aring" unicode="&#xc5;" horiz-adv-x="673" 
d="M600.5 101q17.5 -7 13.5 -47q4 -8 4 -18q0 -16 -13 -26t-30 -10q-15 0 -25.5 9.5t-10.5 27.5q-11 2 -22.5 17.5t-11.5 31.5q0 4 2 12q-10 5 -17.5 20.5t-10.5 32.5t-2 24q-13 6 -20.5 29.5t-5.5 40.5q-7 -3 -17 -3q-20 0 -37 12q-13 -13 -39 -13q-24 0 -34 12
q-13 -11 -28 -11q-12 0 -19 5q-7 -5 -21 -5q-12 0 -24 4t-19 11q-1 0 -5 -2q6 -19 6 -34q0 -23 -23 -40q4 -8 4 -19q0 -22 -15 -42t-29 -22q4 -9 4 -21q0 -27 -18 -49.5t-44 -22.5q-7 0 -11 1q-13 0 -20 8t-7 21q0 9 5 21q-1 4 -1 12q0 20 20 35q-1 3 -1 9q0 15 7.5 30.5
t19.5 20.5q-1 2 -1 9q0 17 8 39.5t18 25.5q-2 44 29 89q0 23 7 43.5t25 29.5q1 19 9 38t18 32q-3 11 -3 20q0 14 5.5 22.5t12.5 10.5q-1 4 -1 12q0 22 16 35l-1 6q0 15 12 27q-1 4 -1 11q0 18 9 36t20 24q18 25 38 25q9 0 23 -6q29 -1 42 -45q9 -11 13 -25.5t3 -26.5
q9 -6 13.5 -16t3.5 -21q10 -9 17.5 -28t7.5 -36q0 -8 -1 -11q7 -7 12.5 -20t5.5 -24q0 -6 -1 -9q13 -9 21.5 -28t12 -37.5t1.5 -25.5q2 -3 11 -14.5t14 -23t5 -21.5q0 -9 -2 -13q4 -5 9 -11.5t8 -11.5t3 -12t-1 -10q8 -8 14 -21t6 -25q0 -10 -4 -15q11 -8 17 -23t4 -30z
M408 332.5q7 1.5 12 -1.5q-2 6 -2 9q0 8 4 12q-9 7 -14.5 18t-4.5 22q-7 2 -12.5 10.5t-5.5 18.5q0 3 2 11q-21 13 -21 39q0 10 3 23q-1 1 -5 4.5t-3 11.5q-20 6 -19 32q-8 4 -13 15q2 -23 -18 -36q1 -11 -4 -25t-12 -21q1 -4 1 -13q0 -23 -19 -61q-5 -11 -8 -20
q-4 -10 -8.5 -20t-11.5 -15q0 -10 -4 -18l8 1q10 0 15 -5q3 5 12 5q6 0 9 -3q12 9 30 9q13 0 24 -4t18 -11q10 11 21 11q7 0 17 -6q2 6 9 7.5zM215 825q0 13 5 24.5t14 15.5q-4 8 -4 17q0 11 6.5 19t16.5 10q0 8 8 13.5t17 5.5q10 0 16 -7q5 10 16.5 17t23.5 7q10 0 18 -4
q11 0 19.5 -8t8.5 -15q21 -7 19 -24q13 -5 20 -22.5t4 -30.5q1 -4 1 -11q0 -14 -5.5 -28t-16.5 -23q-3 -12 -13.5 -22t-26.5 -15q-19 -14 -33 -14q-11 0 -24 7q-2 -1 -8 -1q-13 0 -26 7.5t-19 20.5q-15 3 -24.5 13.5t-9.5 23.5q0 5 1 8q-4 5 -4 16zM334 808q6 5 12 5
q0 4 3.5 8.5t6.5 6.5q-8 10 -8 21q0 6 1 9q-4 3 -7.5 9.5t-5.5 8.5q-5 -6 -15.5 -10.5t-18.5 -6.5q-1 -21 -20 -37q17 -5 23 -20h4q10 0 17 -5q2 6 8 11z" />
    <glyph glyph-name="Aringacute" unicode="&#x1fa;" horiz-adv-x="673" 
d="M600.5 101q17.5 -7 13.5 -47q4 -8 4 -18q0 -16 -13 -26t-30 -10q-15 0 -25.5 9.5t-10.5 27.5q-11 2 -22.5 17.5t-11.5 31.5q0 4 2 12q-10 5 -17.5 20.5t-10.5 32.5t-2 24q-13 6 -20.5 29.5t-5.5 40.5q-7 -3 -17 -3q-20 0 -37 12q-13 -13 -39 -13q-24 0 -34 12
q-13 -11 -28 -11q-12 0 -19 5q-7 -5 -21 -5q-12 0 -24 4t-19 11q-1 0 -5 -2q6 -19 6 -34q0 -23 -23 -40q4 -8 4 -19q0 -22 -15 -42t-29 -22q4 -9 4 -21q0 -27 -18 -49.5t-44 -22.5q-7 0 -11 1q-13 0 -20 8t-7 21q0 9 5 21q-1 4 -1 12q0 20 20 35q-1 3 -1 9q0 15 7.5 30.5
t19.5 20.5q-1 2 -1 9q0 17 8 39.5t18 25.5q-2 44 29 89q0 23 7 43.5t25 29.5q1 19 9 38t18 32q-3 11 -3 20q0 14 5.5 22.5t12.5 10.5q-1 4 -1 12q0 22 16 35l-1 6q0 15 12 27q-1 4 -1 11q0 18 9 36t20 24q18 25 38 25q9 0 23 -6q29 -1 42 -45q9 -11 13 -25.5t3 -26.5
q9 -6 13.5 -16t3.5 -21q10 -9 17.5 -28t7.5 -36q0 -8 -1 -11q7 -7 12.5 -20t5.5 -24q0 -6 -1 -9q13 -9 21.5 -28t12 -37.5t1.5 -25.5q2 -3 11 -14.5t14 -23t5 -21.5q0 -9 -2 -13q4 -5 9 -11.5t8 -11.5t3 -12t-1 -10q8 -8 14 -21t6 -25q0 -10 -4 -15q11 -8 17 -23t4 -30z
M408 332.5q7 1.5 12 -1.5q-2 6 -2 9q0 8 4 12q-9 7 -14.5 18t-4.5 22q-7 2 -12.5 10.5t-5.5 18.5q0 3 2 11q-21 13 -21 39q0 10 3 23q-1 1 -5 4.5t-3 11.5q-20 6 -19 32q-8 4 -13 15q2 -23 -18 -36q1 -11 -4 -25t-12 -21q1 -4 1 -13q0 -23 -19 -61q-5 -11 -8 -20
q-4 -10 -8.5 -20t-11.5 -15q0 -10 -4 -18l8 1q10 0 15 -5q3 5 12 5q6 0 9 -3q12 9 30 9q13 0 24 -4t18 -11q10 11 21 11q7 0 17 -6q2 6 9 7.5zM218 818q0 13 5 24.5t14 15.5q-4 8 -4 17q0 11 6.5 19t16.5 10q0 8 8 13.5t17 5.5q10 0 16 -7q5 10 16.5 17t23.5 7q10 0 18 -4
q11 0 19.5 -8t8.5 -15q21 -7 19 -24q13 -5 20 -22.5t4 -30.5q1 -4 1 -11q0 -14 -5.5 -28t-16.5 -23q-3 -12 -13.5 -22t-26.5 -15q-19 -14 -33 -14q-11 0 -24 7q-2 -1 -8 -1q-13 0 -26 7.5t-19 20.5q-15 3 -24.5 13.5t-9.5 23.5q0 5 1 8q-4 5 -4 16zM337 801q6 5 12 5
q0 4 3.5 8.5t6.5 6.5q-8 10 -8 21q0 6 1 9q-4 3 -7.5 9.5t-5.5 8.5q-5 -6 -15.5 -10.5t-18.5 -6.5q-1 -21 -20 -37q17 -5 23 -20h4q10 0 17 -5q2 6 8 11zM327 991q-13 -16 -25 -17q-13 -12 -26 -12t-23 10t-10 24q0 20 22 34q1 6 9 16q0 15 7.5 26t25.5 12q-1 12 6.5 22
t19.5 13q3 9 11.5 15.5t18.5 6.5q9 6 19 6q14 0 24.5 -12t10.5 -26q0 -19 -21 -26q-1 -13 -16 -20q-1 -13 -13 -26.5t-25 -15.5q-2 -14 -15 -30z" />
    <glyph glyph-name="Atilde" unicode="&#xc3;" horiz-adv-x="673" 
d="M600.5 101q17.5 -7 13.5 -47q4 -8 4 -18q0 -16 -13 -26t-30 -10q-15 0 -25.5 9.5t-10.5 27.5q-11 2 -22.5 17.5t-11.5 31.5q0 4 2 12q-10 5 -17.5 20.5t-10.5 32.5t-2 24q-13 6 -20.5 29.5t-5.5 40.5q-7 -3 -17 -3q-20 0 -37 12q-13 -13 -39 -13q-24 0 -34 12
q-13 -11 -28 -11q-12 0 -19 5q-7 -5 -21 -5q-12 0 -24 4t-19 11q-1 0 -5 -2q6 -19 6 -34q0 -23 -23 -40q4 -8 4 -19q0 -22 -15 -42t-29 -22q4 -9 4 -21q0 -27 -18 -49.5t-44 -22.5q-7 0 -11 1q-13 0 -20 8t-7 21q0 9 5 21q-1 4 -1 12q0 20 20 35q-1 3 -1 9q0 15 7.5 30.5
t19.5 20.5q-1 2 -1 9q0 17 8 39.5t18 25.5q-2 44 29 89q0 23 7 43.5t25 29.5q1 19 9 38t18 32q-3 11 -3 20q0 14 5.5 22.5t12.5 10.5q-1 4 -1 12q0 22 16 35l-1 6q0 15 12 27q-1 4 -1 11q0 18 9 36t20 24q18 25 38 25q9 0 23 -6q29 -1 42 -45q9 -11 13 -25.5t3 -26.5
q9 -6 13.5 -16t3.5 -21q10 -9 17.5 -28t7.5 -36q0 -8 -1 -11q7 -7 12.5 -20t5.5 -24q0 -6 -1 -9q13 -9 21.5 -28t12 -37.5t1.5 -25.5q2 -3 11 -14.5t14 -23t5 -21.5q0 -9 -2 -13q4 -5 9 -11.5t8 -11.5t3 -12t-1 -10q8 -8 14 -21t6 -25q0 -10 -4 -15q11 -8 17 -23t4 -30z
M408 332.5q7 1.5 12 -1.5q-2 6 -2 9q0 8 4 12q-9 7 -14.5 18t-4.5 22q-7 2 -12.5 10.5t-5.5 18.5q0 3 2 11q-21 13 -21 39q0 10 3 23q-1 1 -5 4.5t-3 11.5q-20 6 -19 32q-8 4 -13 15q2 -23 -18 -36q1 -11 -4 -25t-12 -21q1 -4 1 -13q0 -23 -19 -61q-5 -11 -8 -20
q-4 -10 -8.5 -20t-11.5 -15q0 -10 -4 -18l8 1q10 0 15 -5q3 5 12 5q6 0 9 -3q12 9 30 9q13 0 24 -4t18 -11q10 11 21 11q7 0 17 -6q2 6 9 7.5zM425 845q0 14 10 24t26 10q33 0 35 -35q6 -10 6 -20q0 -19 -18 -27q-1 -6 -5.5 -10.5l-5.5 -5.5q-3 -7 -13.5 -11.5t-20.5 -2.5
q-7 -11 -18 -16.5t-22 -5.5q-15 0 -21 7q-3 -1 -9 -1q-14 0 -23 10q-8 -2 -20 1.5t-17 11.5q-8 -2 -12 -2q-10 0 -17.5 5t-11.5 14q-3 -1 -9 -1q-1 -6 -8.5 -13.5t-15.5 -9.5q-14 -25 -42 -30q-11 -8 -23 -8q-13 0 -22.5 10t-9.5 22t9 22t27 14q-1 4 -1 11q0 23 20 36.5
t41 13.5q6 0 9 -1q8 7 24 7q18 0 35.5 -8.5t21.5 -22.5q10 2 11 2q6 0 14 -4h5q13 0 21 -8q10 2 13 2q10 0 17 -6q7 12 22 15q-2 8 -2 11z" />
    <glyph glyph-name="AE" unicode="&#xc6;" horiz-adv-x="872" 
d="M810.5 647.5q6.5 -8.5 6.5 -20.5q0 -16 -9.5 -28.5t-25.5 -12.5q-14 0 -27 8q-7 -8 -20 -8q-16 0 -28 9q-13 -5 -29 -5q-27 0 -42 9q-14 -7 -29 -7q-13 0 -24 4q-9 -4 -23 -4q-18 0 -31 8q-18 -11 -30 -12q6 -18 6 -35q0 -23 -10 -36q11 -20 11 -41q0 -16 -9 -34
q9 -10 9 -25q0 -13 -6 -22q8 5 20 5q10 0 14 -2q8 7 22 7q15 0 26 -10q12 3 20 3q10 0 15 -1q10 2 14 2q15 0 25 -9q6 5 17 5t14 -5q8 4 15 4t16 -4q12 6 23 6q17 0 28.5 -12t11.5 -26q0 -12 -8.5 -20.5t-26.5 -9.5q-10 -11 -29 -11q-18 0 -31 9q-10 -9 -29 -9q-16 0 -26 7
q-3 -5 -14 -5q-6 0 -11 3q-11 -8 -28 -8q-16 0 -25 4q-10 -4 -17 -4q-10 0 -19 6q-11 -6 -20 -4q8 -20 8 -28q0 -6 -5 -18q6 -10 6 -21q0 -9 -4 -16q5 -10 5 -20q0 -11 -6 -20q6 -12 6 -17t-8 -19q4 -5 4 -10q0 -7 -5 -12q8 -7 8 -21q0 -5 -2 -17h4q15 0 25 -9q11 8 34 8
q22 0 34 -5q16 8 33 8q19 0 29 -11q12 12 39 12q17 0 27 -7q8 3 14 3q16 0 26.5 -12.5t10.5 -28.5q0 -25 -24 -33q-4 -6 -13 -9.5t-19 -3.5q-20 0 -30 10q-7 -5 -28 -5q-14 0 -26.5 2t-16.5 6q-4 -10 -24 -10q-18 0 -30 7q-20 -12 -37 -12q-15 0 -26 8q-11 -17 -30 -17
q-17 0 -29.5 13t-8.5 32q-11 12 -11 38q0 10 1 14q-13 13 -13 41t10 40q-5 10 -5 20q0 4 2 12q-8 11 -8 23q-15 2 -22 6q-16 -8 -44 -8q-21 0 -31 7q-8 -4 -17 -4q-13 0 -24 11q-9 -9 -25 -9q-4 0 -12 2q-8 -13 -23 -18q-4 -13 -9 -22t-14 -15q1 -18 -6 -29t-23 -19
q3 -11 -3 -25.5t-20 -22.5q0 -13 -8.5 -25.5t-20.5 -17.5q1 -19 -10 -29t-27 -10q-15 0 -26.5 9.5t-11.5 25.5q0 6 1 10q-4 13 6 33.5t21 20.5q-2 12 4.5 23t17.5 16q1 14 11.5 31.5t21.5 25.5q-1 15 6 25.5t17 11.5q-1 7 3 15.5t12 14.5q-4 18 13.5 40t35.5 25q0 27 14 52
t36 35q3 21 20 29q2 20 7 32.5t19 18.5q2 12 11.5 26.5t19.5 18.5q3 17 18 26q0 20 16.5 37t32.5 18q-2 6 -2 10q0 16 10 30.5t29 15.5h4q7 0 15 -3q10 2 17 2q17 0 26 -8q13 4 32 4q23 0 38 -11q9 4 20 4q10 0 16 -5q8 6 29 6q26 0 43 -9q11 9 25 9q13 0 22 -4q9 6 23 6
q25 0 45 -14q11 0 17.5 -8.5zM381 313q8 0 19 -1.5t16 -1.5q-3 29 11 50q-6 11 -10 29.5t-4 36.5q0 30 13 40q-2 8 -6 25.5t-3 31.5l-7 -6q2 -16 -8 -28t-26 -14q2 -13 -5 -24t-19 -16q-1 -6 -2.5 -16.5t-5.5 -17t-13 -11.5q-1 -19 -9 -27t-26 -11q3 -17 -15 -35h5
q12 0 21 -6q8 2 14 2q14 0 22 -7q15 7 38 7z" />
    <glyph glyph-name="AEacute" unicode="&#x1fc;" horiz-adv-x="834" 
d="M810.5 647.5q6.5 -8.5 6.5 -20.5q0 -16 -9.5 -28.5t-25.5 -12.5q-14 0 -27 8q-7 -8 -20 -8q-16 0 -28 9q-13 -5 -29 -5q-27 0 -42 9q-14 -7 -29 -7q-13 0 -24 4q-9 -4 -23 -4q-18 0 -31 8q-18 -11 -30 -12q6 -18 6 -35q0 -23 -10 -36q11 -20 11 -41q0 -16 -9 -34
q9 -10 9 -25q0 -13 -6 -22q8 5 20 5q10 0 14 -2q8 7 22 7q15 0 26 -10q12 3 20 3q10 0 15 -1q10 2 14 2q15 0 25 -9q6 5 17 5t14 -5q8 4 15 4t16 -4q12 6 23 6q17 0 28.5 -12t11.5 -26q0 -12 -8.5 -20.5t-26.5 -9.5q-10 -11 -29 -11q-18 0 -31 9q-10 -9 -29 -9q-16 0 -26 7
q-3 -5 -14 -5q-6 0 -11 3q-11 -8 -28 -8q-16 0 -25 4q-10 -4 -17 -4q-10 0 -19 6q-11 -6 -20 -4q8 -20 8 -28q0 -6 -5 -18q6 -10 6 -21q0 -9 -4 -16q5 -10 5 -20q0 -11 -6 -20q6 -12 6 -17t-8 -19q4 -5 4 -10q0 -7 -5 -12q8 -7 8 -21q0 -5 -2 -17h4q15 0 25 -9q11 8 34 8
q22 0 34 -5q16 8 33 8q19 0 29 -11q12 12 39 12q17 0 27 -7q8 3 14 3q16 0 26.5 -12.5t10.5 -28.5q0 -25 -24 -33q-4 -6 -13 -9.5t-19 -3.5q-20 0 -30 10q-7 -5 -28 -5q-14 0 -26.5 2t-16.5 6q-4 -10 -24 -10q-18 0 -30 7q-20 -12 -37 -12q-15 0 -26 8q-11 -17 -30 -17
q-17 0 -29.5 13t-8.5 32q-11 12 -11 38q0 10 1 14q-13 13 -13 41t10 40q-5 10 -5 20q0 4 2 12q-8 11 -8 23q-15 2 -22 6q-16 -8 -44 -8q-21 0 -31 7q-8 -4 -17 -4q-13 0 -24 11q-9 -9 -25 -9q-4 0 -12 2q-8 -13 -23 -18q-4 -13 -9 -22t-14 -15q1 -18 -6 -29t-23 -19
q3 -11 -3 -25.5t-20 -22.5q0 -13 -8.5 -25.5t-20.5 -17.5q1 -19 -10 -29t-27 -10q-15 0 -26.5 9.5t-11.5 25.5q0 6 1 10q-4 13 6 33.5t21 20.5q-2 12 4.5 23t17.5 16q1 14 11.5 31.5t21.5 25.5q-1 15 6 25.5t17 11.5q-1 7 3 15.5t12 14.5q-4 18 13.5 40t35.5 25q0 27 14 52
t36 35q3 21 20 29q2 20 7 32.5t19 18.5q2 12 11.5 26.5t19.5 18.5q3 17 18 26q0 20 16.5 37t32.5 18q-2 6 -2 10q0 16 10 30.5t29 15.5h4q7 0 15 -3q10 2 17 2q17 0 26 -8q13 4 32 4q23 0 38 -11q9 4 20 4q10 0 16 -5q8 6 29 6q26 0 43 -9q11 9 25 9q13 0 22 -4q9 6 23 6
q25 0 45 -14q11 0 17.5 -8.5zM381 313q8 0 19 -1.5t16 -1.5q-3 29 11 50q-6 11 -10 29.5t-4 36.5q0 30 13 40q-2 8 -6 25.5t-3 31.5l-7 -6q2 -16 -8 -28t-26 -14q2 -13 -5 -24t-19 -16q-1 -6 -2.5 -16.5t-5.5 -17t-13 -11.5q-1 -19 -9 -27t-26 -11q3 -17 -15 -35h5
q12 0 21 -6q8 2 14 2q14 0 22 -7q15 7 38 7zM569 754q-13 -16 -25 -17q-13 -12 -26 -12t-23 10t-10 24q0 20 22 34q1 6 9 16q0 15 7.5 26t25.5 12q-1 12 6.5 22t19.5 13q3 9 11.5 15.5t18.5 6.5q9 6 19 6q14 0 24.5 -12t10.5 -26q0 -19 -21 -26q-1 -13 -16 -20
q-1 -13 -13 -26.5t-25 -15.5q-2 -14 -15 -30z" />
    <glyph glyph-name="B" unicode="B" horiz-adv-x="566" 
d="M515 193q0 -31 -13 -45q1 -3 1 -7q0 -13 -16 -17q2 -6 2 -9q0 -15 -16.5 -31.5t-29.5 -15.5q-7 -17 -17 -24.5t-26 -7.5q-7 0 -12 1q-2 -10 -22 -19.5t-41 -9.5q-12 0 -18 2q-7 -5 -19 -5q-10 0 -18 4q-11 -7 -28 -7q-18 0 -27 9q-12 -9 -30 -9q-23 0 -40 14t-14 35
q-34 11 -34 63q0 15 1 22q-8 22 -8 49q0 25 8 39q-5 11 -9 32t-4 41q0 33 12 44q-11 11 -11 29q0 8 3 15q-8 10 -8 22q0 15 9 24q-3 8 -3 16q0 7 3 14q-9 9 -9 33q0 18 5 40q-15 12 -15 44q0 15 3.5 29.5t9.5 24.5q-8 8 -13 21.5t-5 27.5q0 15 6 25q13 16 33 16
q13 0 23.5 -7t14.5 -19q22 10 38 10q15 0 29 -8q6 4 19 8t25 4q14 0 22 -7q9 5 20 5q15 0 34 -14q19 2 38 -5.5t30 -23.5q11 8 24 8q11 0 21 -5.5t16 -16.5q10 -5 18 -20.5t8 -27.5q8 1 14 -12.5t6 -28.5q0 -16 -7 -23q3 -7 3 -13q0 -7 -5 -11q7 -10 7 -23q0 -10 -4 -19.5
t-10 -15.5q1 -2 1 -6q0 -10 -11 -23q-6 -14 -13 -22t-20 -12q-8 -8 -34 -7q13 -1 18.5 -5t7 -7.5t2.5 -4.5q17 0 28.5 -9.5t14.5 -27.5q12 -7 19 -18.5t4 -22.5q13 -12 13 -38q0 -22 -10 -34q6 -7 6 -27zM175 428q0 -12 -5 -20q5 -9 5 -21q14 17 31 17q9 0 18 -6q7 10 24 10
t36 -8q12 10 35.5 15.5t35.5 3.5q10 13 30 26t30 15q-8 13 -8 30q0 24 9 37q-9 12 -14.5 32.5t-3.5 33.5q-6 -2 -11 -2q-10 0 -19.5 5t-14.5 14q-6 -2 -20 -2q-24 0 -34 8q-10 -14 -39 -14q-30 0 -53 14q-10 -10 -31 -10q-11 0 -25 4q8 -6 12.5 -25t4.5 -39t-3 -29
q10 -11 10 -41q0 -16 -5 -28q5 -7 5 -20zM429 178q-7 8 -7 18q0 5 1.5 12t2.5 13q-6 3 -12.5 22.5t-6.5 35.5q0 8 1 11q-12 0 -22.5 9.5t-16.5 21.5q-27 -10 -42 -10q-11 0 -28 5q-16 -11 -33 -11q-11 0 -22 4q-26 -13 -49 -13q-11 0 -23 3q8 -11 8 -45q0 -38 -8 -64
q10 -11 10 -34q0 -13 -4 -31q11 -1 19.5 -10t10.5 -20q6 2 10 2q8 0 14.5 -3t8.5 -7q10 10 26 10q8 0 18 -5q10 7 21 7q9 0 16 -3q5 9 16 14t23 5q9 0 15 -3q3 28 32 37q3 21 21 29z" />
    <glyph glyph-name="C" unicode="C" horiz-adv-x="617" 
d="M511 279.5q12 7.5 25 7.5q4 0 12 -2q29 -8 29 -34q0 -23 -20 -47q2 -8 2 -14q0 -13 -5.5 -26t-15.5 -24q-3 -16 -8.5 -27.5t-16.5 -26.5q-12 -16 -23.5 -22.5t-31.5 -12.5q-5 -14 -16 -25.5t-27 -11.5q-8 0 -17 3q-7 -8 -19.5 -12.5t-25.5 -4.5q-17 0 -27 7
q-12 -5 -31 -5q-25 0 -48 8t-36 25q-24 -2 -40 11q-14 8 -18 18q-37 18 -36 66q-18 12 -27 27.5t-14 39.5q-8 8 -8 21q0 6 1 10q-9 9 -9 24q0 7 3 14q-14 15 -14 43q0 25 11 39q-7 10 -7 22q0 9 5 19q-5 6 -5 24q0 20 6 40.5t15 27.5q-3 6 -3 17q0 16 5.5 30t15.5 15
q0 21 17 33q-1 14 10.5 31t26.5 23q3 22 18 37t33 17q5 9 18.5 15.5t26.5 6.5q10 0 17 -4q15 14 34 14q16 0 21 -8q8 2 14 2q18 0 27 -13q4 3 12 3q14 0 31.5 -7.5t20.5 -14.5q21 -4 38 -20.5t14 -33.5q14 -7 20 -19.5t4 -23.5q9 -7 12 -17.5t4 -12.5q20 -17 20 -43
q0 -5 -2 -13q1 -4 1 -10q0 -17 -12.5 -28.5t-28.5 -11.5t-28 12q-28 30 -31 60q-12 4 -19 15.5t-6 25.5q-9 6 -13.5 15.5t-3.5 19.5q-18 0 -28 11q-3 -1 -11 -1q-11 0 -24 3.5t-20 8.5q-4 -1 -12 -1q-11 0 -15 2q-13 -8 -25 -8q-4 0 -14 2q-11 -9 -21 -10q-2 -16 -8.5 -29
t-16.5 -15q2 -12 -4 -23.5t-17 -18.5q-1 -8 -5 -15.5t-10 -11.5q1 -5 2 -11.5t1 -15.5q0 -21 -18 -33q0 -13 -5 -21q5 -10 5 -20t-4 -18q6 -10 6 -19t-5 -21q-5 -13 -6 -24q9 -5 14 -14t5 -19q0 -11 -6 -20q8 -4 12 -14t4 -21t-4 -18q22 -12 30.5 -24.5t12.5 -39.5
q7 -3 16.5 -10t12.5 -12q17 1 35.5 -7.5t25.5 -22.5q6 5 19.5 8.5t26.5 3.5q14 0 19 -4q14 17 34 17q6 0 9 -1q16 13 25 18.5t21 8.5q1 15 12 29q1 8 6 19.5t10 17.5q-1 3 -1 10q0 13 7 28.5t16 23.5q4 11 16 18.5z" />
    <glyph glyph-name="Cacute" unicode="&#x106;" horiz-adv-x="627" 
d="M511 279.5q12 7.5 25 7.5q4 0 12 -2q29 -8 29 -34q0 -23 -20 -47q2 -8 2 -14q0 -13 -5.5 -26t-15.5 -24q-3 -16 -8.5 -27.5t-16.5 -26.5q-12 -16 -23.5 -22.5t-31.5 -12.5q-5 -14 -16 -25.5t-27 -11.5q-8 0 -17 3q-7 -8 -19.5 -12.5t-25.5 -4.5q-17 0 -27 7
q-12 -5 -31 -5q-25 0 -48 8t-36 25q-24 -2 -40 11q-14 8 -18 18q-37 18 -36 66q-18 12 -27 27.5t-14 39.5q-8 8 -8 21q0 6 1 10q-9 9 -9 24q0 7 3 14q-14 15 -14 43q0 25 11 39q-7 10 -7 22q0 9 5 19q-5 6 -5 24q0 20 6 40.5t15 27.5q-3 6 -3 17q0 16 5.5 30t15.5 15
q0 21 17 33q-1 14 10.5 31t26.5 23q3 22 18 37t33 17q5 9 18.5 15.5t26.5 6.5q10 0 17 -4q15 14 34 14q16 0 21 -8q8 2 14 2q18 0 27 -13q4 3 12 3q14 0 31.5 -7.5t20.5 -14.5q21 -4 38 -20.5t14 -33.5q14 -7 20 -19.5t4 -23.5q9 -7 12 -17.5t4 -12.5q20 -17 20 -43
q0 -5 -2 -13q1 -4 1 -10q0 -17 -12.5 -28.5t-28.5 -11.5t-28 12q-28 30 -31 60q-12 4 -19 15.5t-6 25.5q-9 6 -13.5 15.5t-3.5 19.5q-18 0 -28 11q-3 -1 -11 -1q-11 0 -24 3.5t-20 8.5q-4 -1 -12 -1q-11 0 -15 2q-13 -8 -25 -8q-4 0 -14 2q-11 -9 -21 -10q-2 -16 -8.5 -29
t-16.5 -15q2 -12 -4 -23.5t-17 -18.5q-1 -8 -5 -15.5t-10 -11.5q1 -5 2 -11.5t1 -15.5q0 -21 -18 -33q0 -13 -5 -21q5 -10 5 -20t-4 -18q6 -10 6 -19t-5 -21q-5 -13 -6 -24q9 -5 14 -14t5 -19q0 -11 -6 -20q8 -4 12 -14t4 -21t-4 -18q22 -12 30.5 -24.5t12.5 -39.5
q7 -3 16.5 -10t12.5 -12q17 1 35.5 -7.5t25.5 -22.5q6 5 19.5 8.5t26.5 3.5q14 0 19 -4q14 17 34 17q6 0 9 -1q16 13 25 18.5t21 8.5q1 15 12 29q1 8 6 19.5t10 17.5q-1 3 -1 10q0 13 7 28.5t16 23.5q4 11 16 18.5zM315 783q-13 -16 -25 -17q-13 -12 -26 -12t-23 10t-10 24
q0 20 22 34q1 6 9 16q0 15 7.5 26t25.5 12q-1 12 6.5 22t19.5 13q3 9 11.5 15.5t18.5 6.5q9 6 19 6q14 0 24.5 -12t10.5 -26q0 -19 -21 -26q-1 -13 -16 -20q-1 -13 -13 -26.5t-25 -15.5q-2 -14 -15 -30z" />
    <glyph glyph-name="Ccaron" unicode="&#x10c;" horiz-adv-x="625" 
d="M511 279.5q12 7.5 25 7.5q4 0 12 -2q29 -8 29 -34q0 -23 -20 -47q2 -8 2 -14q0 -13 -5.5 -26t-15.5 -24q-3 -16 -8.5 -27.5t-16.5 -26.5q-12 -16 -23.5 -22.5t-31.5 -12.5q-5 -14 -16 -25.5t-27 -11.5q-8 0 -17 3q-7 -8 -19.5 -12.5t-25.5 -4.5q-17 0 -27 7
q-12 -5 -31 -5q-25 0 -48 8t-36 25q-24 -2 -40 11q-14 8 -18 18q-37 18 -36 66q-18 12 -27 27.5t-14 39.5q-8 8 -8 21q0 6 1 10q-9 9 -9 24q0 7 3 14q-14 15 -14 43q0 25 11 39q-7 10 -7 22q0 9 5 19q-5 6 -5 24q0 20 6 40.5t15 27.5q-3 6 -3 17q0 16 5.5 30t15.5 15
q0 21 17 33q-1 14 10.5 31t26.5 23q3 22 18 37t33 17q5 9 18.5 15.5t26.5 6.5q10 0 17 -4q15 14 34 14q16 0 21 -8q8 2 14 2q18 0 27 -13q4 3 12 3q14 0 31.5 -7.5t20.5 -14.5q21 -4 38 -20.5t14 -33.5q14 -7 20 -19.5t4 -23.5q9 -7 12 -17.5t4 -12.5q20 -17 20 -43
q0 -5 -2 -13q1 -4 1 -10q0 -17 -12.5 -28.5t-28.5 -11.5t-28 12q-28 30 -31 60q-12 4 -19 15.5t-6 25.5q-9 6 -13.5 15.5t-3.5 19.5q-18 0 -28 11q-3 -1 -11 -1q-11 0 -24 3.5t-20 8.5q-4 -1 -12 -1q-11 0 -15 2q-13 -8 -25 -8q-4 0 -14 2q-11 -9 -21 -10q-2 -16 -8.5 -29
t-16.5 -15q2 -12 -4 -23.5t-17 -18.5q-1 -8 -5 -15.5t-10 -11.5q1 -5 2 -11.5t1 -15.5q0 -21 -18 -33q0 -13 -5 -21q5 -10 5 -20t-4 -18q6 -10 6 -19t-5 -21q-5 -13 -6 -24q9 -5 14 -14t5 -19q0 -11 -6 -20q8 -4 12 -14t4 -21t-4 -18q22 -12 30.5 -24.5t12.5 -39.5
q7 -3 16.5 -10t12.5 -12q17 1 35.5 -7.5t25.5 -22.5q6 5 19.5 8.5t26.5 3.5q14 0 19 -4q14 17 34 17q6 0 9 -1q16 13 25 18.5t21 8.5q1 15 12 29q1 8 6 19.5t10 17.5q-1 3 -1 10q0 13 7 28.5t16 23.5q4 11 16 18.5zM185.5 828q-11.5 13 -12.5 19q-8 11 -6 25q-4 5 -4 14
q0 11 8.5 21t21.5 11q19 1 25.5 -8t10.5 -30q7 -3 8 -9q13 0 22.5 -9t10.5 -22q6 -3 13.5 -10t9.5 -13q4 11 17 19q0 11 7 19.5t17 10.5q-3 13 4.5 25t21.5 16q8 20 28 20q14 0 25 -9.5t11 -22.5q0 -9 -6 -18q-2 -18 -17 -26q-1 -10 -10 -23t-19 -17q-2 -27 -41 -46
q-2 -11 -10.5 -20t-20.5 -9q-6 0 -14 3q-18 -3 -36 13t-16 34q-9 1 -16.5 7.5t-10.5 18.5q-10 3 -21.5 16z" />
    <glyph glyph-name="Ccedilla" unicode="&#xc7;" horiz-adv-x="627" 
d="M577 251q0 -23 -20 -47q2 -8 2 -14q0 -13 -5.5 -26t-15.5 -24q-3 -16 -8.5 -27.5t-16.5 -26.5q-12 -16 -23.5 -22.5t-31.5 -12.5q-5 -14 -16 -25.5t-27 -11.5q-8 0 -17 3l-2 -2q12 -9 18.5 -22.5t4.5 -28.5q5 -7 9 -18.5t4 -23.5q0 -24 -15 -32q5 -14 -7 -26t-26 -11
q-10 -15 -26 -15q-14 0 -25 10t-11 23q0 12 8 21q1 11 8.5 19.5t17.5 9.5l5 7q-7 8 -10 25q-13 2 -19 11l-8 -1q-7 0 -12 4q-11 5 -15 14.5t-2 20.5q-25 0 -48 8t-36 25q-24 -2 -40 11q-14 8 -18 18q-37 18 -36 66q-18 12 -27 27.5t-14 39.5q-8 8 -8 21q0 6 1 10q-9 9 -9 24
q0 7 3 14q-14 15 -14 43q0 25 11 39q-7 10 -7 22q0 9 5 19q-5 6 -5 24q0 20 6 40.5t15 27.5q-3 6 -3 17q0 16 5.5 30t15.5 15q0 21 17 33q-1 14 10.5 31t26.5 23q3 22 18 37t33 17q5 9 18.5 15.5t26.5 6.5q10 0 17 -4q15 14 34 14q16 0 21 -8q8 2 14 2q18 0 27 -13q4 3 12 3
q14 0 31.5 -7.5t20.5 -14.5q21 -4 38 -20.5t14 -33.5q14 -7 20 -19.5t4 -23.5q9 -7 12 -17.5t4 -12.5q20 -17 20 -43q0 -5 -2 -13q1 -4 1 -10q0 -17 -12.5 -28.5t-28.5 -11.5t-28 12q-28 30 -31 60q-12 4 -19 15.5t-6 25.5q-9 6 -13.5 15.5t-3.5 19.5q-18 0 -28 11
q-3 -1 -11 -1q-11 0 -24 3.5t-20 8.5q-4 -1 -12 -1q-11 0 -15 2q-13 -8 -25 -8q-4 0 -14 2q-11 -9 -21 -10q-2 -16 -8.5 -29t-16.5 -15q2 -12 -4 -23.5t-17 -18.5q-1 -8 -5 -15.5t-10 -11.5q1 -5 2 -11.5t1 -15.5q0 -21 -18 -33q0 -13 -5 -21q5 -10 5 -20t-4 -18
q6 -10 6 -19t-5 -21q-5 -13 -6 -24q9 -5 14 -14t5 -19q0 -11 -6 -20q8 -4 12 -14t4 -21t-4 -18q22 -12 30.5 -24.5t12.5 -39.5q7 -3 16.5 -10t12.5 -12q17 1 35.5 -7.5t25.5 -22.5q6 5 19.5 8.5t26.5 3.5q14 0 19 -4q14 17 34 17q6 0 9 -1q16 13 25 18.5t21 8.5q1 15 12 29
q1 8 6 19.5t10 17.5q-1 3 -1 10q0 13 7 28.5t16 23.5q4 11 16 18.5t25 7.5q4 0 12 -2q29 -8 29 -34z" />
    <glyph glyph-name="uni1E08" unicode="&#x1e08;" 
d="M338 799.5q-11 -6.5 -21 -6.5q-12 0 -19 8t-5 23q-2 8 -2 11q0 9 6 18t15 14q3 17 29 32q-4 9 -4 19q0 17 13.5 28.5t28.5 11.5q11 0 18.5 -7t7.5 -20l-1 -8q6 -12 6 -26q0 -18 -11 -28q-5 -37 -44 -51q-6 -12 -17 -18.5zM577 251q0 -23 -20 -47q2 -8 2 -14
q0 -13 -5.5 -26t-15.5 -24q-3 -16 -8.5 -27.5t-16.5 -26.5q-12 -16 -23.5 -22.5t-31.5 -12.5q-5 -14 -16 -25.5t-27 -11.5q-8 0 -17 3q-14 -15 -40 -17q15 -8 24.5 -23.5t6.5 -33.5q5 -7 9 -18.5t4 -23.5q0 -24 -15 -32q5 -14 -7 -26t-26 -11q-10 -15 -26 -15q-14 0 -25 10
t-11 23q0 12 8 21q1 11 8.5 19.5t17.5 9.5l5 7q-7 8 -10 25q-13 2 -19 11l-8 -1q-7 0 -12 4q-18 9 -18 29q0 17 14 28q-21 2 -39 10.5t-28 21.5q-24 -2 -40 11q-14 8 -18 18q-37 18 -36 66q-18 12 -27 27.5t-14 39.5q-8 8 -8 21q0 6 1 10q-9 9 -9 24q0 7 3 14q-14 15 -14 43
q0 25 11 39q-7 10 -7 22q0 9 5 19q-5 6 -5 24q0 20 6 40.5t15 27.5q-3 6 -3 17q0 16 5.5 30t15.5 15q0 21 17 33q-1 14 10.5 31t26.5 23q3 22 18 37t33 17q5 9 18.5 15.5t26.5 6.5q10 0 17 -4q15 14 34 14q16 0 21 -8q8 2 14 2q18 0 27 -13q4 3 12 3q14 0 31.5 -7.5
t20.5 -14.5q21 -4 38 -20.5t14 -33.5q14 -7 20 -19.5t4 -23.5q9 -7 12 -17.5t4 -12.5q20 -17 20 -43q0 -5 -2 -13q1 -4 1 -10q0 -17 -12.5 -28.5t-28.5 -11.5t-28 12q-28 30 -31 60q-12 4 -19 15.5t-6 25.5q-9 6 -13.5 15.5t-3.5 19.5q-18 0 -28 11q-3 -1 -11 -1
q-11 0 -24 3.5t-20 8.5q-4 -1 -12 -1q-11 0 -15 2q-13 -8 -25 -8q-4 0 -14 2q-11 -9 -21 -10q-2 -16 -8.5 -29t-16.5 -15q2 -12 -4 -23.5t-17 -18.5q-1 -8 -5 -15.5t-10 -11.5q1 -5 2 -11.5t1 -15.5q0 -21 -18 -33q0 -13 -5 -21q5 -10 5 -20t-4 -18q6 -10 6 -19t-5 -21
q-5 -13 -6 -24q9 -5 14 -14t5 -19q0 -11 -6 -20q8 -4 12 -14t4 -21t-4 -18q22 -12 30.5 -24.5t12.5 -39.5q7 -3 16.5 -10t12.5 -12q17 1 35.5 -7.5t25.5 -22.5q6 5 19.5 8.5t26.5 3.5q14 0 19 -4q14 17 34 17q6 0 9 -1q16 13 25 18.5t21 8.5q1 15 12 29q1 8 6 19.5t10 17.5
q-1 3 -1 10q0 13 7 28.5t16 23.5q4 11 16 18.5t25 7.5q4 0 12 -2q29 -8 29 -34z" />
    <glyph glyph-name="Ccircumflex" unicode="&#x108;" horiz-adv-x="625" 
d="M511 279.5q12 7.5 25 7.5q4 0 12 -2q29 -8 29 -34q0 -23 -20 -47q2 -8 2 -14q0 -13 -5.5 -26t-15.5 -24q-3 -16 -8.5 -27.5t-16.5 -26.5q-12 -16 -23.5 -22.5t-31.5 -12.5q-5 -14 -16 -25.5t-27 -11.5q-8 0 -17 3q-7 -8 -19.5 -12.5t-25.5 -4.5q-17 0 -27 7
q-12 -5 -31 -5q-25 0 -48 8t-36 25q-24 -2 -40 11q-14 8 -18 18q-37 18 -36 66q-18 12 -27 27.5t-14 39.5q-8 8 -8 21q0 6 1 10q-9 9 -9 24q0 7 3 14q-14 15 -14 43q0 25 11 39q-7 10 -7 22q0 9 5 19q-5 6 -5 24q0 20 6 40.5t15 27.5q-3 6 -3 17q0 16 5.5 30t15.5 15
q0 21 17 33q-1 14 10.5 31t26.5 23q3 22 18 37t33 17q5 9 18.5 15.5t26.5 6.5q10 0 17 -4q15 14 34 14q16 0 21 -8q8 2 14 2q18 0 27 -13q4 3 12 3q14 0 31.5 -7.5t20.5 -14.5q21 -4 38 -20.5t14 -33.5q14 -7 20 -19.5t4 -23.5q9 -7 12 -17.5t4 -12.5q20 -17 20 -43
q0 -5 -2 -13q1 -4 1 -10q0 -17 -12.5 -28.5t-28.5 -11.5t-28 12q-28 30 -31 60q-12 4 -19 15.5t-6 25.5q-9 6 -13.5 15.5t-3.5 19.5q-18 0 -28 11q-3 -1 -11 -1q-11 0 -24 3.5t-20 8.5q-4 -1 -12 -1q-11 0 -15 2q-13 -8 -25 -8q-4 0 -14 2q-11 -9 -21 -10q-2 -16 -8.5 -29
t-16.5 -15q2 -12 -4 -23.5t-17 -18.5q-1 -8 -5 -15.5t-10 -11.5q1 -5 2 -11.5t1 -15.5q0 -21 -18 -33q0 -13 -5 -21q5 -10 5 -20t-4 -18q6 -10 6 -19t-5 -21q-5 -13 -6 -24q9 -5 14 -14t5 -19q0 -11 -6 -20q8 -4 12 -14t4 -21t-4 -18q22 -12 30.5 -24.5t12.5 -39.5
q7 -3 16.5 -10t12.5 -12q17 1 35.5 -7.5t25.5 -22.5q6 5 19.5 8.5t26.5 3.5q14 0 19 -4q14 17 34 17q6 0 9 -1q16 13 25 18.5t21 8.5q1 15 12 29q1 8 6 19.5t10 17.5q-1 3 -1 10q0 13 7 28.5t16 23.5q4 11 16 18.5zM379 867.5q13 -13.5 14 -24.5q12 -5 20 -18.5t10 -24.5
q18 -11 18 -27q0 -12 -15 -21q-6 -3 -13 -3q-12 0 -21 8.5t-11 19.5q-9 4 -19 16.5t-12 21.5q-9 -1 -22 9t-15 19q-3 -11 -15 -24t-20 -14q-3 -9 -11 -19t-16 -12q-4 -12 -13.5 -21.5t-21.5 -9.5q-8 0 -19 6q-5 4 -8.5 11t-3.5 14q0 16 12 26q2 11 9 21.5t17 15.5
q1 10 8.5 17.5t18.5 9.5q4 13 14 17q1 5 7.5 9.5t12.5 6.5q3 9 12 16t18 7q10 0 17 -7q11 1 19 -9.5t8 -22.5q8 0 21 -13.5z" />
    <glyph glyph-name="Cdotaccent" unicode="&#x10a;" horiz-adv-x="627" 
d="M511 279.5q12 7.5 25 7.5q4 0 12 -2q29 -8 29 -34q0 -23 -20 -47q2 -8 2 -14q0 -13 -5.5 -26t-15.5 -24q-3 -16 -8.5 -27.5t-16.5 -26.5q-12 -16 -23.5 -22.5t-31.5 -12.5q-5 -14 -16 -25.5t-27 -11.5q-8 0 -17 3q-7 -8 -19.5 -12.5t-25.5 -4.5q-17 0 -27 7
q-12 -5 -31 -5q-25 0 -48 8t-36 25q-24 -2 -40 11q-14 8 -18 18q-37 18 -36 66q-18 12 -27 27.5t-14 39.5q-8 8 -8 21q0 6 1 10q-9 9 -9 24q0 7 3 14q-14 15 -14 43q0 25 11 39q-7 10 -7 22q0 9 5 19q-5 6 -5 24q0 20 6 40.5t15 27.5q-3 6 -3 17q0 16 5.5 30t15.5 15
q0 21 17 33q-1 14 10.5 31t26.5 23q3 22 18 37t33 17q5 9 18.5 15.5t26.5 6.5q10 0 17 -4q15 14 34 14q16 0 21 -8q8 2 14 2q18 0 27 -13q4 3 12 3q14 0 31.5 -7.5t20.5 -14.5q21 -4 38 -20.5t14 -33.5q14 -7 20 -19.5t4 -23.5q9 -7 12 -17.5t4 -12.5q20 -17 20 -43
q0 -5 -2 -13q1 -4 1 -10q0 -17 -12.5 -28.5t-28.5 -11.5t-28 12q-28 30 -31 60q-12 4 -19 15.5t-6 25.5q-9 6 -13.5 15.5t-3.5 19.5q-18 0 -28 11q-3 -1 -11 -1q-11 0 -24 3.5t-20 8.5q-4 -1 -12 -1q-11 0 -15 2q-13 -8 -25 -8q-4 0 -14 2q-11 -9 -21 -10q-2 -16 -8.5 -29
t-16.5 -15q2 -12 -4 -23.5t-17 -18.5q-1 -8 -5 -15.5t-10 -11.5q1 -5 2 -11.5t1 -15.5q0 -21 -18 -33q0 -13 -5 -21q5 -10 5 -20t-4 -18q6 -10 6 -19t-5 -21q-5 -13 -6 -24q9 -5 14 -14t5 -19q0 -11 -6 -20q8 -4 12 -14t4 -21t-4 -18q22 -12 30.5 -24.5t12.5 -39.5
q7 -3 16.5 -10t12.5 -12q17 1 35.5 -7.5t25.5 -22.5q6 5 19.5 8.5t26.5 3.5q14 0 19 -4q14 17 34 17q6 0 9 -1q16 13 25 18.5t21 8.5q1 15 12 29q1 8 6 19.5t10 17.5q-1 3 -1 10q0 13 7 28.5t16 23.5q4 11 16 18.5zM299 754q-15 0 -23 6q-13 6 -19.5 17t-6.5 24
q0 14 7.5 25.5t20.5 17.5q14 14 32 14q9 0 19 -5q19 -2 29 -15t10 -30t-10 -30t-28 -14q-11 -10 -31 -10z" />
    <glyph glyph-name="D" unicode="D" horiz-adv-x="627" 
d="M542.5 582q18.5 -18 17.5 -35q12 -7 21 -24.5t9 -33.5q0 -12 -6 -20q4 -12 4 -28t-5 -31q7 -14 7 -34q0 -19 -7.5 -35t-21.5 -22q-1 -10 -8 -23t-13 -19l1 -9q0 -18 -11 -28q-9 -9 -15 -11q1 -10 -7 -17.5t-21 -11.5q-2 -12 -8 -18t-19 -10q-3 -10 -11.5 -17.5
t-19.5 -9.5q-6 -16 -14.5 -21.5t-25.5 -5.5q-3 -33 -42 -47q-6 -10 -14.5 -14t-18 -6t-13.5 -3q-13 -11 -34 -20.5t-41 -9.5q-10 0 -19 3q-6 -9 -18.5 -15t-25.5 -6t-23 7q-37 0 -37 43q0 7 2 21q-16 14 -16 33q0 13 7 23q-5 12 -5 18q0 7 7 19q-13 23 -13 52q0 25 11 41
q-10 21 -10 47q0 31 14 59q-6 10 -10.5 26.5t-4.5 32.5q0 25 11 39q-7 9 -11.5 24t-4.5 30q0 20 8 31q-1 3 -1 9q0 12 5 20q-7 15 -5 42q-19 12 -19 34q0 11 6 21t17 15q4 10 14 16t21 6q14 0 25 -8q7 10 31 10q13 0 21.5 -3t9.5 -8q20 5 39 5q26 0 42 -8q9 6 21 6
q19 0 29 -12q8 2 13 2q16 0 30.5 -10t18.5 -25q10 5 19 5q13 0 24.5 -7t17.5 -16q13 0 23.5 -9.5t13.5 -25.5q20 -5 38.5 -23zM253.5 120q16.5 5 31.5 5q13 19 30 19q0 14 11.5 22.5t31.5 16.5q2 16 14.5 29t26.5 12q8 11 21 16q7 18 22 25q3 19 19 28q2 13 8 25.5t13 16.5
q2 18 8 35.5t16 20.5q-3 8 -3 16q0 5 2 15q-7 10 -7 44q0 18 3 27q-1 2 -6.5 8t-5.5 13q-7 2 -11 8t-6 8q-15 0 -26 11t-13 27q-8 -1 -19.5 3.5t-17.5 12.5q-12 -3 -30.5 4.5t-22.5 23.5q-3 -1 -11 -1q-14 0 -24 7q-9 -4 -21 -4q-20 0 -38 11q-17 -7 -35 -7q-20 0 -34 10
q-6 -3 -14 -3q-1 0 -1 -0.5v-0.5q4 -4 6.5 -16.5t2.5 -28.5q0 -40 -10 -51q5 -8 9 -29.5t4 -43.5q0 -30 -7 -44q7 -13 7 -36q0 -29 -12 -46q7 -20 9 -55l2 -23q1 -9 -1 -22t-2 -23t3 -21q2 -14 2 -21q0 -9 -3 -17q4 -5 8 -17t1 -20q11 6 22 6q17 0 25 -10q6 9 22.5 14z" />
    <glyph glyph-name="uni01C4" unicode="&#x1c4;" horiz-adv-x="1242" 
d="M542.5 582q18.5 -18 17.5 -35q12 -7 21 -24.5t9 -33.5q0 -12 -6 -20q4 -12 4 -28t-5 -31q7 -14 7 -34q0 -19 -7.5 -35t-21.5 -22q-1 -10 -8 -23t-13 -19l1 -9q0 -18 -11 -28q-9 -9 -15 -11q1 -10 -7 -17.5t-21 -11.5q-2 -12 -8 -18t-19 -10q-3 -10 -11.5 -17.5
t-19.5 -9.5q-6 -16 -14.5 -21.5t-25.5 -5.5q-3 -33 -42 -47q-6 -10 -14.5 -14t-18 -6t-13.5 -3q-13 -11 -34 -20.5t-41 -9.5q-10 0 -19 3q-6 -9 -18.5 -15t-25.5 -6t-23 7q-37 0 -37 43q0 7 2 21q-16 14 -16 33q0 13 7 23q-5 12 -5 18q0 7 7 19q-13 23 -13 52q0 25 11 41
q-10 21 -10 47q0 31 14 59q-6 10 -10.5 26.5t-4.5 32.5q0 25 11 39q-7 9 -11.5 24t-4.5 30q0 20 8 31q-1 3 -1 9q0 12 5 20q-7 15 -5 42q-19 12 -19 34q0 11 6 21t17 15q4 10 14 16t21 6q14 0 25 -8q7 10 31 10q13 0 21.5 -3t9.5 -8q20 5 39 5q26 0 42 -8q9 6 21 6
q19 0 29 -12q8 2 13 2q16 0 30.5 -10t18.5 -25q10 5 19 5q13 0 24.5 -7t17.5 -16q13 0 23.5 -9.5t13.5 -25.5q20 -5 38.5 -23zM253.5 120q16.5 5 31.5 5q13 19 30 19q0 14 11.5 22.5t31.5 16.5q2 16 14.5 29t26.5 12q8 11 21 16q7 18 22 25q3 19 19 28q2 13 8 25.5t13 16.5
q2 18 8 35.5t16 20.5q-3 8 -3 16q0 5 2 15q-7 10 -7 44q0 18 3 27q-1 2 -6.5 8t-5.5 13q-7 2 -11 8t-6 8q-15 0 -26 11t-13 27q-8 -1 -19.5 3.5t-17.5 12.5q-12 -3 -30.5 4.5t-22.5 23.5q-3 -1 -11 -1q-14 0 -24 7q-9 -4 -21 -4q-20 0 -38 11q-17 -7 -35 -7q-20 0 -34 10
q-6 -3 -14 -3q-1 0 -1 -0.5v-0.5q4 -4 6.5 -16.5t2.5 -28.5q0 -40 -10 -51q5 -8 9 -29.5t4 -43.5q0 -30 -7 -44q7 -13 7 -36q0 -29 -12 -46q7 -20 9 -55l2 -23q1 -9 -1 -22t-2 -23t3 -21q2 -14 2 -21q0 -9 -3 -17q4 -5 8 -17t1 -20q11 6 22 6q17 0 25 -10q6 9 22.5 14z
M1142 719q16 0 29 -11t13 -26t-11 -27q-2 -13 -12.5 -23.5t-23.5 -10.5q4 -35 -49 -58q-4 -27 -14 -45.5t-34 -18.5q0 -16 -16.5 -37t-32.5 -22q2 -9 -6.5 -19.5t-20.5 -11.5q1 -18 -16.5 -36.5t-33.5 -20.5q0 -18 -12.5 -33t-31.5 -22q-4 -10 -14 -22t-22 -17
q-9 -13 -15.5 -19.5t-18.5 -7.5q3 -10 -10 -25.5t-28 -16.5q1 -4 1 -10q0 -15 -7 -23t-16.5 -14.5t-14.5 -9.5q0 -25 -26 -44q5 0 15 2t16 2q9 0 13 -4q8 8 22 8q11 0 33 -6q14 7 31 7q12 0 20 -4q14 10 28 10q16 0 24 -10q13 13 39 13q24 0 37 -10q9 11 25 11q10 0 18 -4
q5 5 21 5q8 0 17 -2t13 -5q3 1 8 1q17 0 29.5 -13t12.5 -30q0 -9 -2 -13q-6 -12 -19.5 -18.5t-28.5 -6.5q-20 0 -33 11q-9 -4 -23 -2q-15 -12 -43 -12q-20 0 -29 8q-11 -14 -33 -14q-16 0 -30 6q-10 -9 -20 -9q-9 0 -21 10q-7 -6 -19 -6q-11 0 -20 4q-10 -8 -21 -8
q-9 0 -15 6q-12 -6 -29 -6q-9 0 -14 3q-4 -7 -19 -7q-12 0 -20 5q-9 -3 -20 -3q-17 0 -28 6q-9 -3 -19 -3q-24 0 -31 22q-5 10 -5 18q0 18 18 32q-1 16 12.5 35t29.5 26q1 19 14 35t32 27q-1 15 13 33t29 21q4 12 15.5 24t21.5 14q-4 11 12 28t27 15q5 12 17 24.5t21 12.5
q0 11 9 29t23 32t27 15q-1 9 7.5 25.5t20.5 27.5t24 8q-3 18 14.5 35.5t32.5 20.5q-2 18 22.5 36t26.5 20q-6 -4 -18 -4q-10 0 -18 4q-7 -5 -17 -5q-16 0 -27 8q-9 -13 -29 -13q-15 0 -25 7q-7 -7 -27 -7q-22 0 -31 8q-6 -7 -23 -7q-15 0 -23 5q-4 -5 -17 -5q-10 0 -21.5 3
t-18.5 8q-12 -11 -34 -11q-12 0 -23.5 4t-16.5 9q-13 -8 -32 -8q-20 0 -35 10t-15 27q0 37 38 37q15 0 31 -6q16 8 33 8q16 0 33 -7q5 4 18 6.5t25 2.5q13 0 20 -3q9 8 31 8q13 0 27.5 -3.5t24.5 -8.5q3 6 12 9t19 3q21 0 28 -9q11 10 34 10q17 0 26 -6q3 3 10 5t14 2
q10 0 13 -4q7 4 20 4q6 0 16 -2q8 8 18 8q6 0 24 -8q11 14 30 14zM772.5 821q-11.5 13 -12.5 19q-8 11 -6 25q-4 5 -4 14q0 11 8.5 21t21.5 11q19 1 25.5 -8t10.5 -30q7 -3 8 -9q13 0 22.5 -9t10.5 -22q6 -3 13.5 -10t9.5 -13q4 11 17 19q0 11 7 19.5t17 10.5q-3 13 4.5 25
t21.5 16q8 20 28 20q14 0 25 -9.5t11 -22.5q0 -9 -6 -18q-2 -18 -17 -26q-1 -10 -10 -23t-19 -17q-2 -27 -41 -46q-2 -11 -10.5 -20t-20.5 -9q-6 0 -14 3q-18 -3 -36 13t-16 34q-9 1 -16.5 7.5t-10.5 18.5q-10 3 -21.5 16z" />
    <glyph glyph-name="Eth" unicode="&#xd0;" horiz-adv-x="671" 
d="M616 439q0 -16 -5 -31q7 -14 7 -34q0 -19 -7.5 -35t-21.5 -22q-1 -10 -8 -23t-13 -19l1 -9q0 -18 -11 -28q-9 -9 -15 -11q1 -10 -7 -17.5t-21 -11.5q-2 -12 -8 -18t-19 -10q-3 -10 -11.5 -17.5t-19.5 -9.5q-6 -16 -14.5 -21.5t-25.5 -5.5q-3 -33 -42 -47
q-6 -10 -14.5 -14t-18 -6t-13.5 -3q-13 -11 -34 -20.5t-41 -9.5q-10 0 -19 3q-6 -9 -18.5 -15t-25.5 -6t-23 7q-37 0 -37 43q0 7 2 21q-16 14 -16 33q0 13 7 23q-5 12 -5 18q0 7 7 19q-13 23 -13 52q0 25 11 41q-10 21 -10 46q0 16 5 34q-9 1 -25 6q-1 -1 -5.5 -4t-16.5 -3
q-20 0 -32.5 12t-12.5 27q0 14 10.5 24t30.5 11q11 9 25 9q7 0 21 -4q-2 30 10 46q-7 9 -11.5 24t-4.5 30q0 20 8 31q-1 3 -1 9q0 12 5 20q-7 15 -5 42q-19 12 -19 34q0 11 6 21t17 15q4 10 14 16t21 6q14 0 25 -8q7 10 31 10q12 0 21 -3t10 -8q20 5 39 5q26 0 42 -8
q9 6 21 6q19 0 29 -12q8 2 13 2q16 0 30.5 -10t18.5 -25q10 5 19 5q13 0 24.5 -7t17.5 -16q13 0 23.5 -9.5t13.5 -25.5q20 -5 38.5 -23t17.5 -35q12 -7 21 -24.5t9 -33.5q0 -12 -6 -20q4 -12 4 -28zM518 368.5q6 17.5 16 20.5q-3 8 -3 16q0 5 2 15q-7 10 -7 44q0 18 3 27
q-1 2 -6.5 8t-5.5 13q-7 2 -11 8t-6 8q-15 0 -26 11t-13 27q-8 -1 -19.5 3.5t-17.5 12.5q-12 -3 -30.5 4.5t-22.5 23.5q-3 -1 -11 -1q-14 0 -24 7q-9 -4 -21 -4q-20 0 -38 11q-18 -7 -35 -7q-20 0 -34 10q-6 -3 -14 -3q-1 0 -1 -0.5v-0.5q4 -4 6.5 -16.5t2.5 -28.5
q0 -40 -10 -51q5 -8 9.5 -29.5t4.5 -43.5q0 -20 -5 -37l3 -1q8 5 19 5t24 -5q24 1 36 -7.5t12 -20.5q0 -14 -13 -26.5t-32 -13.5q-17 -9 -30 -9q-10 0 -19 3q-4 -11 -8 -14q7 -20 9 -55l2 -23q1 -9 -1 -22t-2 -23t3 -21q2 -14 2 -21q0 -9 -3 -17q4 -5 8 -17t1 -20q11 6 22 6
q17 0 25 -10q6 9 22.5 14t31.5 5q13 19 30 19q0 14 11.5 22.5t31.5 16.5q2 17 15 29.5t26 11.5q8 11 21 16q7 18 22 25q3 19 19 28q2 13 8 25.5t13 16.5q2 18 8 35.5z" />
    <glyph glyph-name="Dcaron" unicode="&#x10e;" horiz-adv-x="670" 
d="M542.5 582q18.5 -18 17.5 -35q12 -7 21 -24.5t9 -33.5q0 -12 -6 -20q4 -12 4 -28t-5 -31q7 -14 7 -34q0 -19 -7.5 -35t-21.5 -22q-1 -10 -8 -23t-13 -19l1 -9q0 -18 -11 -28q-9 -9 -15 -11q1 -10 -7 -17.5t-21 -11.5q-2 -12 -8 -18t-19 -10q-3 -10 -11.5 -17.5
t-19.5 -9.5q-6 -16 -14.5 -21.5t-25.5 -5.5q-3 -33 -42 -47q-6 -10 -14.5 -14t-18 -6t-13.5 -3q-13 -11 -34 -20.5t-41 -9.5q-10 0 -19 3q-6 -9 -18.5 -15t-25.5 -6t-23 7q-37 0 -37 43q0 7 2 21q-16 14 -16 33q0 13 7 23q-5 12 -5 18q0 7 7 19q-13 23 -13 52q0 25 11 41
q-10 21 -10 47q0 31 14 59q-6 10 -10.5 26.5t-4.5 32.5q0 25 11 39q-7 9 -11.5 24t-4.5 30q0 20 8 31q-1 3 -1 9q0 12 5 20q-7 15 -5 42q-19 12 -19 34q0 11 6 21t17 15q4 10 14 16t21 6q14 0 25 -8q7 10 31 10q13 0 21.5 -3t9.5 -8q20 5 39 5q26 0 42 -8q9 6 21 6
q19 0 29 -12q8 2 13 2q16 0 30.5 -10t18.5 -25q10 5 19 5q13 0 24.5 -7t17.5 -16q13 0 23.5 -9.5t13.5 -25.5q20 -5 38.5 -23zM253.5 120q16.5 5 31.5 5q13 19 30 19q0 14 11.5 22.5t31.5 16.5q2 16 14.5 29t26.5 12q8 11 21 16q7 18 22 25q3 19 19 28q2 13 8 25.5t13 16.5
q2 18 8 35.5t16 20.5q-3 8 -3 16q0 5 2 15q-7 10 -7 44q0 18 3 27q-1 2 -6.5 8t-5.5 13q-7 2 -11 8t-6 8q-15 0 -26 11t-13 27q-8 -1 -19.5 3.5t-17.5 12.5q-12 -3 -30.5 4.5t-22.5 23.5q-3 -1 -11 -1q-14 0 -24 7q-9 -4 -21 -4q-20 0 -38 11q-17 -7 -35 -7q-20 0 -34 10
q-6 -3 -14 -3q-1 0 -1 -0.5v-0.5q4 -4 6.5 -16.5t2.5 -28.5q0 -40 -10 -51q5 -8 9 -29.5t4 -43.5q0 -30 -7 -44q7 -13 7 -36q0 -29 -12 -46q7 -20 9 -55l2 -23q1 -9 -1 -22t-2 -23t3 -21q2 -14 2 -21q0 -9 -3 -17q4 -5 8 -17t1 -20q11 6 22 6q17 0 25 -10q6 9 22.5 14z
M189.5 824q-11.5 13 -12.5 19q-8 11 -6 25q-4 5 -4 14q0 11 8.5 21t21.5 11q19 1 25.5 -8t10.5 -30q7 -3 8 -9q13 0 22.5 -9t10.5 -22q6 -3 13.5 -10t9.5 -13q4 11 17 19q0 11 7 19.5t17 10.5q-3 13 4.5 25t21.5 16q8 20 28 20q14 0 25 -9.5t11 -22.5q0 -9 -6 -18
q-2 -18 -17 -26q-1 -10 -10 -23t-19 -17q-2 -27 -41 -46q-2 -11 -10.5 -20t-20.5 -9q-6 0 -14 3q-18 -3 -36 13t-16 34q-9 1 -16.5 7.5t-10.5 18.5q-10 3 -21.5 16z" />
    <glyph glyph-name="Dcroat" unicode="&#x110;" horiz-adv-x="671" 
d="M616 439q0 -16 -5 -31q7 -14 7 -34q0 -19 -7.5 -35t-21.5 -22q-1 -10 -8 -23t-13 -19l1 -9q0 -18 -11 -28q-9 -9 -15 -11q1 -10 -7 -17.5t-21 -11.5q-2 -12 -8 -18t-19 -10q-3 -10 -11.5 -17.5t-19.5 -9.5q-6 -16 -14.5 -21.5t-25.5 -5.5q-3 -33 -42 -47
q-6 -10 -14.5 -14t-18 -6t-13.5 -3q-13 -11 -34 -20.5t-41 -9.5q-10 0 -19 3q-6 -9 -18.5 -15t-25.5 -6t-23 7q-37 0 -37 43q0 7 2 21q-16 14 -16 33q0 13 7 23q-5 12 -5 18q0 7 7 19q-13 23 -13 52q0 25 11 41q-10 21 -10 46q0 16 5 34q-9 1 -25 6q-1 -1 -5.5 -4t-16.5 -3
q-20 0 -32.5 12t-12.5 27q0 14 10.5 24t30.5 11q11 9 25 9q7 0 21 -4q-2 30 10 46q-7 9 -11.5 24t-4.5 30q0 20 8 31q-1 3 -1 9q0 12 5 20q-7 15 -5 42q-19 12 -19 34q0 11 6 21t17 15q4 10 14 16t21 6q14 0 25 -8q7 10 31 10q12 0 21 -3t10 -8q20 5 39 5q26 0 42 -8
q9 6 21 6q19 0 29 -12q8 2 13 2q16 0 30.5 -10t18.5 -25q10 5 19 5q13 0 24.5 -7t17.5 -16q13 0 23.5 -9.5t13.5 -25.5q20 -5 38.5 -23t17.5 -35q12 -7 21 -24.5t9 -33.5q0 -12 -6 -20q4 -12 4 -28zM518 368.5q6 17.5 16 20.5q-3 8 -3 16q0 5 2 15q-7 10 -7 44q0 18 3 27
q-1 2 -6.5 8t-5.5 13q-7 2 -11 8t-6 8q-15 0 -26 11t-13 27q-8 -1 -19.5 3.5t-17.5 12.5q-12 -3 -30.5 4.5t-22.5 23.5q-3 -1 -11 -1q-14 0 -24 7q-9 -4 -21 -4q-20 0 -38 11q-18 -7 -35 -7q-20 0 -34 10q-6 -3 -14 -3q-1 0 -1 -0.5v-0.5q4 -4 6.5 -16.5t2.5 -28.5
q0 -40 -10 -51q5 -8 9.5 -29.5t4.5 -43.5q0 -20 -5 -37l3 -1q8 5 19 5t24 -5q24 1 36 -7.5t12 -20.5q0 -14 -13 -26.5t-32 -13.5q-17 -9 -30 -9q-10 0 -19 3q-4 -11 -8 -14q7 -20 9 -55l2 -23q1 -9 -1 -22t-2 -23t3 -21q2 -14 2 -21q0 -9 -3 -17q4 -5 8 -17t1 -20q11 6 22 6
q17 0 25 -10q6 9 22.5 14t31.5 5q13 19 30 19q0 14 11.5 22.5t31.5 16.5q2 17 15 29.5t26 11.5q8 11 21 16q7 18 22 25q3 19 19 28q2 13 8 25.5t13 16.5q2 18 8 35.5z" />
    <glyph glyph-name="uni1E0C" unicode="&#x1e0c;" horiz-adv-x="640" 
d="M542.5 582q18.5 -18 17.5 -35q12 -7 21 -24.5t9 -33.5q0 -12 -6 -20q4 -12 4 -28t-5 -31q7 -14 7 -34q0 -19 -7.5 -35t-21.5 -22q-1 -10 -8 -23t-13 -19l1 -9q0 -18 -11 -28q-9 -9 -15 -11q1 -10 -7 -17.5t-21 -11.5q-2 -12 -8 -18t-19 -10q-3 -10 -11.5 -17.5
t-19.5 -9.5q-6 -16 -14.5 -21.5t-25.5 -5.5q-3 -33 -42 -47q-6 -10 -14.5 -14t-18 -6t-13.5 -3q-13 -11 -34 -20.5t-41 -9.5q-10 0 -19 3q-6 -9 -18.5 -15t-25.5 -6t-23 7q-37 0 -37 43q0 7 2 21q-16 14 -16 33q0 13 7 23q-5 12 -5 18q0 7 7 19q-13 23 -13 52q0 25 11 41
q-10 21 -10 47q0 31 14 59q-6 10 -10.5 26.5t-4.5 32.5q0 25 11 39q-7 9 -11.5 24t-4.5 30q0 20 8 31q-1 3 -1 9q0 12 5 20q-7 15 -5 42q-19 12 -19 34q0 11 6 21t17 15q4 10 14 16t21 6q14 0 25 -8q7 10 31 10q13 0 21.5 -3t9.5 -8q20 5 39 5q26 0 42 -8q9 6 21 6
q19 0 29 -12q8 2 13 2q16 0 30.5 -10t18.5 -25q10 5 19 5q13 0 24.5 -7t17.5 -16q13 0 23.5 -9.5t13.5 -25.5q20 -5 38.5 -23zM253.5 120q16.5 5 31.5 5q13 19 30 19q0 14 11.5 22.5t31.5 16.5q2 16 14.5 29t26.5 12q8 11 21 16q7 18 22 25q3 19 19 28q2 13 8 25.5t13 16.5
q2 18 8 35.5t16 20.5q-3 8 -3 16q0 5 2 15q-7 10 -7 44q0 18 3 27q-1 2 -6.5 8t-5.5 13q-7 2 -11 8t-6 8q-15 0 -26 11t-13 27q-8 -1 -19.5 3.5t-17.5 12.5q-12 -3 -30.5 4.5t-22.5 23.5q-3 -1 -11 -1q-14 0 -24 7q-9 -4 -21 -4q-20 0 -38 11q-17 -7 -35 -7q-20 0 -34 10
q-6 -3 -14 -3q-1 0 -1 -0.5v-0.5q4 -4 6.5 -16.5t2.5 -28.5q0 -40 -10 -51q5 -8 9 -29.5t4 -43.5q0 -30 -7 -44q7 -13 7 -36q0 -29 -12 -46q7 -20 9 -55l2 -23q1 -9 -1 -22t-2 -23t3 -21q2 -14 2 -21q0 -9 -3 -17q4 -5 8 -17t1 -20q11 6 22 6q17 0 25 -10q6 9 22.5 14z
M324 -84q13 0 18 -4q22 -10 22 -34q0 -11 -6.5 -21t-17.5 -15q-11 -11 -26 -11q-6 0 -16 4q-16 1 -24 11.5t-8 25.5q0 14 8 24.5t23 11.5q9 8 27 8z" />
    <glyph glyph-name="uni1E0E" unicode="&#x1e0e;" horiz-adv-x="645" 
d="M542.5 582q18.5 -18 17.5 -35q12 -7 21 -24.5t9 -33.5q0 -12 -6 -20q4 -12 4 -28t-5 -31q7 -14 7 -34q0 -19 -7.5 -35t-21.5 -22q-1 -10 -8 -23t-13 -19l1 -9q0 -18 -11 -28q-9 -9 -15 -11q1 -10 -7 -17.5t-21 -11.5q-2 -12 -8 -18t-19 -10q-3 -10 -11.5 -17.5
t-19.5 -9.5q-6 -16 -14.5 -21.5t-25.5 -5.5q-3 -33 -42 -47q-6 -10 -14.5 -14t-18 -6t-13.5 -3q-13 -11 -34 -20.5t-41 -9.5q-10 0 -19 3q-6 -9 -18.5 -15t-25.5 -6t-23 7q-37 0 -37 43q0 7 2 21q-16 14 -16 33q0 13 7 23q-5 12 -5 18q0 7 7 19q-13 23 -13 52q0 25 11 41
q-10 21 -10 47q0 31 14 59q-6 10 -10.5 26.5t-4.5 32.5q0 25 11 39q-7 9 -11.5 24t-4.5 30q0 20 8 31q-1 3 -1 9q0 12 5 20q-7 15 -5 42q-19 12 -19 34q0 11 6 21t17 15q4 10 14 16t21 6q14 0 25 -8q7 10 31 10q13 0 21.5 -3t9.5 -8q20 5 39 5q26 0 42 -8q9 6 21 6
q19 0 29 -12q8 2 13 2q16 0 30.5 -10t18.5 -25q10 5 19 5q13 0 24.5 -7t17.5 -16q13 0 23.5 -9.5t13.5 -25.5q20 -5 38.5 -23zM253.5 120q16.5 5 31.5 5q13 19 30 19q0 14 11.5 22.5t31.5 16.5q2 16 14.5 29t26.5 12q8 11 21 16q7 18 22 25q3 19 19 28q2 13 8 25.5t13 16.5
q2 18 8 35.5t16 20.5q-3 8 -3 16q0 5 2 15q-7 10 -7 44q0 18 3 27q-1 2 -6.5 8t-5.5 13q-7 2 -11 8t-6 8q-15 0 -26 11t-13 27q-8 -1 -19.5 3.5t-17.5 12.5q-12 -3 -30.5 4.5t-22.5 23.5q-3 -1 -11 -1q-14 0 -24 7q-9 -4 -21 -4q-20 0 -38 11q-17 -7 -35 -7q-20 0 -34 10
q-6 -3 -14 -3q-1 0 -1 -0.5v-0.5q4 -4 6.5 -16.5t2.5 -28.5q0 -40 -10 -51q5 -8 9 -29.5t4 -43.5q0 -30 -7 -44q7 -13 7 -36q0 -29 -12 -46q7 -20 9 -55l2 -23q1 -9 -1 -22t-2 -23t3 -21q2 -14 2 -21q0 -9 -3 -17q4 -5 8 -17t1 -20q11 6 22 6q17 0 25 -10q6 9 22.5 14z
M164.5 -151q-4.5 -1 -16.5 -1q-21 0 -34.5 12t-13.5 27q0 14 11 24t33 12q9 9 27 9t32 -8q17 10 42 10q23 0 53 -8q27 5 48 5q28 0 39 -8q12 6 37 6q26 0 37 -7q5 1 13 1q16 0 26 -9.5t10 -22.5q0 -14 -10.5 -25t-29.5 -12q-18 -11 -34 -11q-12 0 -22 6q-8 -4 -24 -4
q-27 0 -35 9q-11 -3 -26 -3q-19 0 -35 6q-11 -4 -24 -4q-14 0 -31 5q-19 -10 -33 -10q-13 0 -30 7q-5 -5 -9.5 -6z" />
    <glyph glyph-name="uni01C5" unicode="&#x1c5;" horiz-adv-x="1102" 
d="M542.5 582q18.5 -18 17.5 -35q12 -7 21 -24.5t9 -33.5q0 -12 -6 -20q4 -12 4 -28t-5 -31q7 -14 7 -34q0 -19 -7.5 -35t-21.5 -22q-1 -10 -8 -23t-13 -19l1 -9q0 -18 -11 -28q-9 -9 -15 -11q1 -10 -7 -17.5t-21 -11.5q-2 -12 -8 -18t-19 -10q-3 -10 -11.5 -17.5
t-19.5 -9.5q-6 -16 -14.5 -21.5t-25.5 -5.5q-3 -33 -42 -47q-6 -10 -14.5 -14t-18 -6t-13.5 -3q-13 -11 -34 -20.5t-41 -9.5q-10 0 -19 3q-6 -9 -18.5 -15t-25.5 -6t-23 7q-37 0 -37 43q0 7 2 21q-16 14 -16 33q0 13 7 23q-5 12 -5 18q0 7 7 19q-13 23 -13 52q0 25 11 41
q-10 21 -10 47q0 31 14 59q-6 10 -10.5 26.5t-4.5 32.5q0 25 11 39q-7 9 -11.5 24t-4.5 30q0 20 8 31q-1 3 -1 9q0 12 5 20q-7 15 -5 42q-19 12 -19 34q0 11 6 21t17 15q4 10 14 16t21 6q14 0 25 -8q7 10 31 10q13 0 21.5 -3t9.5 -8q20 5 39 5q26 0 42 -8q9 6 21 6
q19 0 29 -12q8 2 13 2q16 0 30.5 -10t18.5 -25q10 5 19 5q13 0 24.5 -7t17.5 -16q13 0 23.5 -9.5t13.5 -25.5q20 -5 38.5 -23zM253.5 120q16.5 5 31.5 5q13 19 30 19q0 14 11.5 22.5t31.5 16.5q2 16 14.5 29t26.5 12q8 11 21 16q7 18 22 25q3 19 19 28q2 13 8 25.5t13 16.5
q2 18 8 35.5t16 20.5q-3 8 -3 16q0 5 2 15q-7 10 -7 44q0 18 3 27q-1 2 -6.5 8t-5.5 13q-7 2 -11 8t-6 8q-15 0 -26 11t-13 27q-8 -1 -19.5 3.5t-17.5 12.5q-12 -3 -30.5 4.5t-22.5 23.5q-3 -1 -11 -1q-14 0 -24 7q-9 -4 -21 -4q-20 0 -38 11q-17 -7 -35 -7q-20 0 -34 10
q-6 -3 -14 -3q-1 0 -1 -0.5v-0.5q4 -4 6.5 -16.5t2.5 -28.5q0 -40 -10 -51q5 -8 9 -29.5t4 -43.5q0 -30 -7 -44q7 -13 7 -36q0 -29 -12 -46q7 -20 9 -55l2 -23q1 -9 -1 -22t-2 -23t3 -21q2 -14 2 -21q0 -9 -3 -17q4 -5 8 -17t1 -20q11 6 22 6q17 0 25 -10q6 9 22.5 14z
M1001 108q18 -1 28 -13.5t10 -29.5q0 -15 -8.5 -27t-24.5 -14q-12 -9 -25 -9q-10 0 -21.5 4t-14.5 5q-16 -11 -41 -11q-9 0 -21 4q-16 -9 -29 -9q-18 0 -30 16q-5 -7 -17.5 -11t-26.5 -4q-18 0 -30 6q-19 -11 -47 -11q-20 0 -31 5q-16 -8 -32 -8q-11 0 -28 6q-27 11 -27 38
q0 14 8.5 28.5t22.5 22.5q1 26 16 48.5t33 29.5q6 24 50 48q1 11 20 35.5t31 28.5q1 12 15 28t27 21q6 17 21.5 31.5t27.5 13.5q3 10 12 19t16 10q-1 8 9.5 19.5t22.5 18.5q-10 -4 -31 -8t-40 -4q-23 0 -34 5q-6 -6 -17 -9t-23 -3q-21 0 -29 7q-7 -6 -21 -10.5t-28 -4.5
q-23 0 -34 12q-4 -1 -10 -1q-18 0 -30 12.5t-12 29.5q0 9 5 19q7 12 22.5 19.5t32.5 7.5q16 0 26 -7q11 9 33 9q23 0 30 -12q22 15 43 15q16 0 35 -10q15 12 34 12q13 0 23 -5q11 11 30 11q12 0 18 -2q18 3 21 3q6 0 9 -1q3 4 10 4q9 0 17 -5q3 4 11 4q6 0 11 -3t6 -8
q23 -4 23 -25q0 -8 -4.5 -16t-12.5 -13q-4 -24 -20.5 -39t-34.5 -15q2 -14 -11.5 -29t-32.5 -22q-9 -20 -27.5 -38t-27.5 -18q1 -19 -14 -37.5t-30 -20.5q0 -14 -14 -29t-27 -19q-4 -15 -19 -32.5t-27 -24.5q-1 -14 -15.5 -30t-28.5 -20q0 -1 -1 -1t-1 -1q20 0 24 -2
q11 10 24 10q4 0 12 -2q17 16 39 16q16 0 32 -9q8 11 31 11q15 0 29.5 -5t21.5 -13q10 10 30 10t36 -8q7 6 22 6zM708.5 670q-11.5 13 -12.5 19q-8 11 -6 25q-4 5 -4 14q0 11 8.5 21t21.5 11q19 1 25.5 -8t10.5 -30q7 -3 8 -9q13 0 22.5 -9t10.5 -22q6 -3 13.5 -10t9.5 -13
q4 11 17 19q0 11 7 19.5t17 10.5q-3 13 4.5 25t21.5 16q8 20 28 20q14 0 25 -9.5t11 -22.5q0 -9 -6 -18q-2 -18 -17 -26q-1 -10 -10 -23t-19 -17q-2 -27 -41 -46q-2 -11 -10.5 -20t-20.5 -9q-6 0 -14 3q-18 -3 -36 13t-16 34q-9 1 -16.5 7.5t-10.5 18.5q-10 3 -21.5 16z" />
    <glyph glyph-name="E" unicode="E" horiz-adv-x="520" 
d="M424 709q23 0 46 -15q11 0 18 -9t7 -22q0 -17 -10 -30t-28 -13q-13 0 -28 8q-8 -8 -21 -8q-14 0 -29 10q-10 -5 -30 -5q-29 0 -45 9q-15 -7 -31 -7q-13 0 -25 4q-13 -5 -25 -5q-16 0 -32 9q-18 -10 -32 -12q7 -17 7 -37q0 -25 -11 -40q12 -19 12 -42q0 -18 -9 -36
q9 -10 9 -25q0 -10 -7 -24q9 5 22 5q10 0 14 -2q11 8 24 8t26 -11q12 3 20 3q5 0 17 -2q12 2 17 2q17 0 25 -8q8 5 18 5q12 0 15 -5q9 3 14 3q7 0 19 -4q13 7 25 7q17 0 29 -12.5t12 -27.5q0 -13 -9 -22t-28 -10q-9 -12 -30 -12q-19 0 -34 10q-10 -10 -29 -10q-17 0 -28 8
q-8 -6 -17 -6q-6 0 -10 4q-11 -10 -30 -10q-14 0 -26 6q-10 -5 -17 -5q-10 0 -20 7q-7 -4 -11 -5t-11 0q9 -18 9 -28q0 -9 -6 -21q7 -8 7 -20q0 -9 -5 -19q7 -8 7 -21q0 -12 -7 -20q6 -12 6 -19q0 -6 -8 -20q4 -4 4 -11q0 -9 -6 -12q10 -9 10 -23q0 -5 -2 -17l6 1
q11 0 23 -10q15 11 39 11q9 0 19 -2q6 7 17 11t24 4q21 0 32 -9q6 10 21 16t30 6q11 0 18 -3q11 6 20 6q16 0 28 -13t12 -30q0 -21 -19 -33q-4 -8 -16 -13.5t-26 -5.5t-22 5q-8 -8 -21 -13.5t-26 -5.5q-20 0 -31 11q-17 -18 -44 -18q-5 0 -17 2q-20 -12 -39 -12q-15 0 -26 8
q-11 -17 -32 -17q-18 0 -31.5 14t-9.5 33q-6 6 -9 18t-3 24q0 9 1 13q-13 13 -13 44q0 13 3 24.5t7 16.5q-5 10 -5 21q0 5 2 13q-9 9 -9 24q0 14 7 22q-5 10 -5 18q0 11 7 21q-8 18 -8 35q0 21 13 40q-6 13 -10.5 32t-4.5 36q0 32 15 44q-5 22 -5 23q-6 24 -6 34q0 15 7 36
q-5 7 -8 23t-2 23q-12 12 -12 29q0 13 8.5 24.5t22.5 15.5q7 7 19 11.5t25 4.5q17 0 29 -9q17 5 34 5q24 0 39 -11q9 4 21 4q11 0 17 -5q6 5 29 5q30 0 47 -10q11 11 27 11q10 0 23 -5q10 7 26 7z" />
    <glyph glyph-name="Eacute" unicode="&#xc9;" horiz-adv-x="560" 
d="M424 709q23 0 46 -15q11 0 18 -9t7 -22q0 -17 -10 -30t-28 -13q-13 0 -28 8q-8 -8 -21 -8q-14 0 -29 10q-10 -5 -30 -5q-29 0 -45 9q-15 -7 -31 -7q-13 0 -25 4q-13 -5 -25 -5q-16 0 -32 9q-18 -10 -32 -12q7 -17 7 -37q0 -25 -11 -40q12 -19 12 -42q0 -18 -9 -36
q9 -10 9 -25q0 -10 -7 -24q9 5 22 5q10 0 14 -2q11 8 24 8t26 -11q12 3 20 3q5 0 17 -2q12 2 17 2q17 0 25 -8q8 5 18 5q12 0 15 -5q9 3 14 3q7 0 19 -4q13 7 25 7q17 0 29 -12.5t12 -27.5q0 -13 -9 -22t-28 -10q-9 -12 -30 -12q-19 0 -34 10q-10 -10 -29 -10q-17 0 -28 8
q-8 -6 -17 -6q-6 0 -10 4q-11 -10 -30 -10q-14 0 -26 6q-10 -5 -17 -5q-10 0 -20 7q-7 -4 -11 -5t-11 0q9 -18 9 -28q0 -9 -6 -21q7 -8 7 -20q0 -9 -5 -19q7 -8 7 -21q0 -12 -7 -20q6 -12 6 -19q0 -6 -8 -20q4 -4 4 -11q0 -9 -6 -12q10 -9 10 -23q0 -5 -2 -17l6 1
q11 0 23 -10q15 11 39 11q9 0 19 -2q6 7 17 11t24 4q21 0 32 -9q6 10 21 16t30 6q11 0 18 -3q11 6 20 6q16 0 28 -13t12 -30q0 -21 -19 -33q-4 -8 -16 -13.5t-26 -5.5t-22 5q-8 -8 -21 -13.5t-26 -5.5q-20 0 -31 11q-17 -18 -44 -18q-5 0 -17 2q-20 -12 -39 -12q-15 0 -26 8
q-11 -17 -32 -17q-18 0 -31.5 14t-9.5 33q-6 6 -9 18t-3 24q0 9 1 13q-13 13 -13 44q0 13 3 24.5t7 16.5q-5 10 -5 21q0 5 2 13q-9 9 -9 24q0 14 7 22q-5 10 -5 18q0 11 7 21q-8 18 -8 35q0 21 13 40q-6 13 -10.5 32t-4.5 36q0 32 15 44q-5 22 -5 23q-6 24 -6 34q0 15 7 36
q-5 7 -8 23t-2 23q-12 12 -12 29q0 13 8.5 24.5t22.5 15.5q7 7 19 11.5t25 4.5q17 0 29 -9q17 5 34 5q24 0 39 -11q9 4 21 4q11 0 17 -5q6 5 29 5q30 0 47 -10q11 11 27 11q10 0 23 -5q10 7 26 7zM282 762q-13 -16 -25 -17q-13 -12 -26 -12t-23 10t-10 24q0 20 22 34
q1 6 9 16q0 15 7.5 26t25.5 12q-1 12 6.5 22t19.5 13q3 9 11.5 15.5t18.5 6.5q9 6 19 6q14 0 24.5 -12t10.5 -26q0 -19 -21 -26q-1 -13 -16 -20q-1 -13 -13 -26.5t-25 -15.5q-2 -14 -15 -30z" />
    <glyph glyph-name="Ebreve" unicode="&#x114;" horiz-adv-x="559" 
d="M424 709q23 0 46 -15q11 0 18 -9t7 -22q0 -17 -10 -30t-28 -13q-13 0 -28 8q-8 -8 -21 -8q-14 0 -29 10q-10 -5 -30 -5q-29 0 -45 9q-15 -7 -31 -7q-13 0 -25 4q-13 -5 -25 -5q-16 0 -32 9q-18 -10 -32 -12q7 -17 7 -37q0 -25 -11 -40q12 -19 12 -42q0 -18 -9 -36
q9 -10 9 -25q0 -10 -7 -24q9 5 22 5q10 0 14 -2q11 8 24 8t26 -11q12 3 20 3q5 0 17 -2q12 2 17 2q17 0 25 -8q8 5 18 5q12 0 15 -5q9 3 14 3q7 0 19 -4q13 7 25 7q17 0 29 -12.5t12 -27.5q0 -13 -9 -22t-28 -10q-9 -12 -30 -12q-19 0 -34 10q-10 -10 -29 -10q-17 0 -28 8
q-8 -6 -17 -6q-6 0 -10 4q-11 -10 -30 -10q-14 0 -26 6q-10 -5 -17 -5q-10 0 -20 7q-7 -4 -11 -5t-11 0q9 -18 9 -28q0 -9 -6 -21q7 -8 7 -20q0 -9 -5 -19q7 -8 7 -21q0 -12 -7 -20q6 -12 6 -19q0 -6 -8 -20q4 -4 4 -11q0 -9 -6 -12q10 -9 10 -23q0 -5 -2 -17l6 1
q11 0 23 -10q15 11 39 11q9 0 19 -2q6 7 17 11t24 4q21 0 32 -9q6 10 21 16t30 6q11 0 18 -3q11 6 20 6q16 0 28 -13t12 -30q0 -21 -19 -33q-4 -8 -16 -13.5t-26 -5.5t-22 5q-8 -8 -21 -13.5t-26 -5.5q-20 0 -31 11q-17 -18 -44 -18q-5 0 -17 2q-20 -12 -39 -12q-15 0 -26 8
q-11 -17 -32 -17q-18 0 -31.5 14t-9.5 33q-6 6 -9 18t-3 24q0 9 1 13q-13 13 -13 44q0 13 3 24.5t7 16.5q-5 10 -5 21q0 5 2 13q-9 9 -9 24q0 14 7 22q-5 10 -5 18q0 11 7 21q-8 18 -8 35q0 21 13 40q-6 13 -10.5 32t-4.5 36q0 32 15 44q-5 22 -5 23q-6 24 -6 34q0 15 7 36
q-5 7 -8 23t-2 23q-12 12 -12 29q0 13 8.5 24.5t22.5 15.5q7 7 19 11.5t25 4.5q17 0 29 -9q17 5 34 5q24 0 39 -11q9 4 21 4q11 0 17 -5q6 5 29 5q30 0 47 -10q11 11 27 11q10 0 23 -5q10 7 26 7zM138 808.5q-15 16.5 -14 38.5q-6 11 -6 20q0 15 13 25t29 10q14 0 24 -8.5
t10 -26.5q16 -10 24.5 -16.5t11.5 -17.5q8 2 13 2q11 0 22 -3.5t16 -8.5q24 18 61 19q-1 3 -1 8q0 10 6 19t16 14q1 15 12.5 24.5t25.5 9.5q15 0 27 -12q9 -10 9 -29q0 -12 -4.5 -24t-12.5 -19q2 -11 -10 -26.5t-32 -27.5t-40 -14q-7 -7 -23 -12.5t-31 -5.5q-16 0 -23 7
q-7 -5 -22 -5q-21 0 -29 7q-12 -3 -23 5.5t-16 23.5q-18 7 -33 23.5z" />
    <glyph glyph-name="Ecaron" unicode="&#x11a;" horiz-adv-x="560" 
d="M424 709q23 0 46 -15q11 0 18 -9t7 -22q0 -17 -10 -30t-28 -13q-13 0 -28 8q-8 -8 -21 -8q-14 0 -29 10q-10 -5 -30 -5q-29 0 -45 9q-15 -7 -31 -7q-13 0 -25 4q-13 -5 -25 -5q-16 0 -32 9q-18 -10 -32 -12q7 -17 7 -37q0 -25 -11 -40q12 -19 12 -42q0 -18 -9 -36
q9 -10 9 -25q0 -10 -7 -24q9 5 22 5q10 0 14 -2q11 8 24 8t26 -11q12 3 20 3q5 0 17 -2q12 2 17 2q17 0 25 -8q8 5 18 5q12 0 15 -5q9 3 14 3q7 0 19 -4q13 7 25 7q17 0 29 -12.5t12 -27.5q0 -13 -9 -22t-28 -10q-9 -12 -30 -12q-19 0 -34 10q-10 -10 -29 -10q-17 0 -28 8
q-8 -6 -17 -6q-6 0 -10 4q-11 -10 -30 -10q-14 0 -26 6q-10 -5 -17 -5q-10 0 -20 7q-7 -4 -11 -5t-11 0q9 -18 9 -28q0 -9 -6 -21q7 -8 7 -20q0 -9 -5 -19q7 -8 7 -21q0 -12 -7 -20q6 -12 6 -19q0 -6 -8 -20q4 -4 4 -11q0 -9 -6 -12q10 -9 10 -23q0 -5 -2 -17l6 1
q11 0 23 -10q15 11 39 11q9 0 19 -2q6 7 17 11t24 4q21 0 32 -9q6 10 21 16t30 6q11 0 18 -3q11 6 20 6q16 0 28 -13t12 -30q0 -21 -19 -33q-4 -8 -16 -13.5t-26 -5.5t-22 5q-8 -8 -21 -13.5t-26 -5.5q-20 0 -31 11q-17 -18 -44 -18q-5 0 -17 2q-20 -12 -39 -12q-15 0 -26 8
q-11 -17 -32 -17q-18 0 -31.5 14t-9.5 33q-6 6 -9 18t-3 24q0 9 1 13q-13 13 -13 44q0 13 3 24.5t7 16.5q-5 10 -5 21q0 5 2 13q-9 9 -9 24q0 14 7 22q-5 10 -5 18q0 11 7 21q-8 18 -8 35q0 21 13 40q-6 13 -10.5 32t-4.5 36q0 32 15 44q-5 22 -5 23q-6 24 -6 34q0 15 7 36
q-5 7 -8 23t-2 23q-12 12 -12 29q0 13 8.5 24.5t22.5 15.5q7 7 19 11.5t25 4.5q17 0 29 -9q17 5 34 5q24 0 39 -11q9 4 21 4q11 0 17 -5q6 5 29 5q30 0 47 -10q11 11 27 11q10 0 23 -5q10 7 26 7zM176.5 839q-11.5 13 -12.5 19q-8 11 -6 25q-4 5 -4 14q0 11 8.5 21t21.5 11
q19 1 25.5 -8t10.5 -30q7 -3 8 -9q13 0 22.5 -9t10.5 -22q6 -3 13.5 -10t9.5 -13q4 11 17 19q0 11 7 19.5t17 10.5q-3 13 4.5 25t21.5 16q8 20 28 20q14 0 25 -9.5t11 -22.5q0 -9 -6 -18q-2 -18 -17 -26q-1 -10 -10 -23t-19 -17q-2 -27 -41 -46q-2 -11 -10.5 -20t-20.5 -9
q-6 0 -14 3q-18 -3 -36 13t-16 34q-9 1 -16.5 7.5t-10.5 18.5q-10 3 -21.5 16z" />
    <glyph glyph-name="uni1E1C" unicode="&#x1e1c;" horiz-adv-x="560" 
d="M237 783.5q-12 13.5 -11 31.5q-5 10 -5 16q0 12 10 19.5t23 7.5q12 0 20 -7.5t8 -21.5q24 -12 27 -26q3 1 10 1q21 0 31 -8q18 12 50 15q-2 9 2 19t13 13q2 12 11 19.5t21 7.5q13 0 22 -9q6 -7 6 -21q0 -24 -14 -36q1 -9 -8.5 -22t-25 -22.5t-30.5 -10.5q-7 -5 -20 -9.5
t-25 -4.5q-13 0 -18 5q-4 -4 -18 -4q-16 0 -22 5q-10 -1 -19 5.5t-12 18.5q-14 5 -26 18.5zM488 685q7 -9 7 -22q0 -17 -10 -30t-28 -13q-13 0 -28 8q-8 -8 -21 -8q-14 0 -29 10q-10 -5 -30 -5q-29 0 -45 9q-15 -7 -31 -7q-13 0 -25 4q-13 -5 -25 -5q-16 0 -32 9
q-18 -10 -32 -12q7 -17 7 -37q0 -25 -11 -40q12 -19 12 -42q0 -18 -9 -36q9 -10 9 -25q0 -10 -7 -24q9 5 22 5q10 0 14 -2q11 8 24 8t26 -11q12 3 20 3q5 0 17 -2q12 2 17 2q17 0 25 -8q8 5 18 5q12 0 15 -5q9 3 14 3q7 0 19 -4q13 7 25 7q17 0 29 -12.5t12 -27.5
q0 -13 -9 -22t-28 -10q-9 -12 -30 -12q-19 0 -34 10q-10 -10 -29 -10q-17 0 -28 8q-8 -6 -17 -6q-6 0 -10 4q-11 -10 -30 -10q-14 0 -26 6q-10 -5 -17 -5q-10 0 -20 7q-7 -4 -11 -5t-11 0q9 -18 9 -28q0 -9 -6 -21q7 -8 7 -20q0 -9 -5 -19q7 -8 7 -21q0 -12 -7 -20
q6 -12 6 -19q0 -6 -8 -20q4 -4 4 -11q0 -9 -6 -12q10 -9 10 -23q0 -5 -2 -17l6 1q11 0 23 -10q15 11 39 11q9 0 19 -2q6 7 17 11t24 4q21 0 32 -9q6 10 21 16t30 6q11 0 18 -3q11 6 20 6q16 0 28 -13t12 -30q0 -21 -19 -33q-4 -8 -16 -13.5t-26 -5.5t-22 5q-7 -9 -22 -14.5
t-29 -4.5q15 -18 12 -40q5 -7 9 -18.5t4 -23.5q0 -24 -15 -32q5 -14 -7 -26t-26 -11q-10 -15 -26 -15q-14 0 -25 10t-11 23q0 12 8 21q1 11 8.5 19.5t17.5 9.5l5 7q-7 8 -10 25q-13 2 -19 11l-8 -1q-7 0 -12 4q-14 7 -17 22q-5 -2 -16 -2q-14 0 -25 8q-11 -17 -32 -17
q-18 0 -31.5 14t-9.5 33q-6 6 -9 18t-3 24q0 9 1 13q-13 13 -13 44q0 13 3 24.5t7 16.5q-5 10 -5 21q0 5 2 13q-9 9 -9 24q0 14 7 22q-5 10 -5 18q0 11 7 21q-8 18 -8 35q0 21 13 40q-6 13 -10.5 32t-4.5 36q0 32 15 44q-5 22 -5 23q-6 24 -6 34q0 15 7 36q-5 7 -8 23t-2 23
q-12 12 -12 29q0 13 8.5 24.5t22.5 15.5q7 7 19 11.5t25 4.5q17 0 29 -9q17 5 34 5q24 0 39 -11q9 4 21 4q11 0 17 -5q6 5 29 5q30 0 47 -10q11 11 27 11q10 0 23 -5q10 7 26 7q23 0 46 -15q11 0 18 -9z" />
    <glyph glyph-name="Ecircumflex" unicode="&#xca;" horiz-adv-x="559" 
d="M424 709q23 0 46 -15q11 0 18 -9t7 -22q0 -17 -10 -30t-28 -13q-13 0 -28 8q-8 -8 -21 -8q-14 0 -29 10q-10 -5 -30 -5q-29 0 -45 9q-15 -7 -31 -7q-13 0 -25 4q-13 -5 -25 -5q-16 0 -32 9q-18 -10 -32 -12q7 -17 7 -37q0 -25 -11 -40q12 -19 12 -42q0 -18 -9 -36
q9 -10 9 -25q0 -10 -7 -24q9 5 22 5q10 0 14 -2q11 8 24 8t26 -11q12 3 20 3q5 0 17 -2q12 2 17 2q17 0 25 -8q8 5 18 5q12 0 15 -5q9 3 14 3q7 0 19 -4q13 7 25 7q17 0 29 -12.5t12 -27.5q0 -13 -9 -22t-28 -10q-9 -12 -30 -12q-19 0 -34 10q-10 -10 -29 -10q-17 0 -28 8
q-8 -6 -17 -6q-6 0 -10 4q-11 -10 -30 -10q-14 0 -26 6q-10 -5 -17 -5q-10 0 -20 7q-7 -4 -11 -5t-11 0q9 -18 9 -28q0 -9 -6 -21q7 -8 7 -20q0 -9 -5 -19q7 -8 7 -21q0 -12 -7 -20q6 -12 6 -19q0 -6 -8 -20q4 -4 4 -11q0 -9 -6 -12q10 -9 10 -23q0 -5 -2 -17l6 1
q11 0 23 -10q15 11 39 11q9 0 19 -2q6 7 17 11t24 4q21 0 32 -9q6 10 21 16t30 6q11 0 18 -3q11 6 20 6q16 0 28 -13t12 -30q0 -21 -19 -33q-4 -8 -16 -13.5t-26 -5.5t-22 5q-8 -8 -21 -13.5t-26 -5.5q-20 0 -31 11q-17 -18 -44 -18q-5 0 -17 2q-20 -12 -39 -12q-15 0 -26 8
q-11 -17 -32 -17q-18 0 -31.5 14t-9.5 33q-6 6 -9 18t-3 24q0 9 1 13q-13 13 -13 44q0 13 3 24.5t7 16.5q-5 10 -5 21q0 5 2 13q-9 9 -9 24q0 14 7 22q-5 10 -5 18q0 11 7 21q-8 18 -8 35q0 21 13 40q-6 13 -10.5 32t-4.5 36q0 32 15 44q-5 22 -5 23q-6 24 -6 34q0 15 7 36
q-5 7 -8 23t-2 23q-12 12 -12 29q0 13 8.5 24.5t22.5 15.5q7 7 19 11.5t25 4.5q17 0 29 -9q17 5 34 5q24 0 39 -11q9 4 21 4q11 0 17 -5q6 5 29 5q30 0 47 -10q11 11 27 11q10 0 23 -5q10 7 26 7zM353 883.5q13 -13.5 14 -24.5q12 -5 20 -18.5t10 -24.5q18 -11 18 -27
q0 -12 -15 -21q-6 -3 -13 -3q-12 0 -21 8.5t-11 19.5q-9 4 -19 16.5t-12 21.5q-9 -1 -22 9t-15 19q-3 -11 -15 -24t-20 -14q-3 -9 -11 -19t-16 -12q-4 -12 -13.5 -21.5t-21.5 -9.5q-8 0 -19 6q-5 4 -8.5 11t-3.5 14q0 16 12 26q2 11 9 21.5t17 15.5q1 10 8.5 17.5t18.5 9.5
q4 13 14 17q1 5 7.5 9.5t12.5 6.5q3 9 12 16t18 7q10 0 17 -7q11 1 19 -9.5t8 -22.5q8 0 21 -13.5z" />
    <glyph glyph-name="uni1EBE" unicode="&#x1ebe;" horiz-adv-x="559" 
d="M424 709q23 0 46 -15q11 0 18 -9t7 -22q0 -17 -10 -30t-28 -13q-13 0 -28 8q-8 -8 -21 -8q-14 0 -29 10q-10 -5 -30 -5q-29 0 -45 9q-15 -7 -31 -7q-13 0 -25 4q-13 -5 -25 -5q-16 0 -32 9q-18 -10 -32 -12q7 -17 7 -37q0 -25 -11 -40q12 -19 12 -42q0 -18 -9 -36
q9 -10 9 -25q0 -10 -7 -24q9 5 22 5q10 0 14 -2q11 8 24 8t26 -11q12 3 20 3q5 0 17 -2q12 2 17 2q17 0 25 -8q8 5 18 5q12 0 15 -5q9 3 14 3q7 0 19 -4q13 7 25 7q17 0 29 -12.5t12 -27.5q0 -13 -9 -22t-28 -10q-9 -12 -30 -12q-19 0 -34 10q-10 -10 -29 -10q-17 0 -28 8
q-8 -6 -17 -6q-6 0 -10 4q-11 -10 -30 -10q-14 0 -26 6q-10 -5 -17 -5q-10 0 -20 7q-7 -4 -11 -5t-11 0q9 -18 9 -28q0 -9 -6 -21q7 -8 7 -20q0 -9 -5 -19q7 -8 7 -21q0 -12 -7 -20q6 -12 6 -19q0 -6 -8 -20q4 -4 4 -11q0 -9 -6 -12q10 -9 10 -23q0 -5 -2 -17l6 1
q11 0 23 -10q15 11 39 11q9 0 19 -2q6 7 17 11t24 4q21 0 32 -9q6 10 21 16t30 6q11 0 18 -3q11 6 20 6q16 0 28 -13t12 -30q0 -21 -19 -33q-4 -8 -16 -13.5t-26 -5.5t-22 5q-8 -8 -21 -13.5t-26 -5.5q-20 0 -31 11q-17 -18 -44 -18q-5 0 -17 2q-20 -12 -39 -12q-15 0 -26 8
q-11 -17 -32 -17q-18 0 -31.5 14t-9.5 33q-6 6 -9 18t-3 24q0 9 1 13q-13 13 -13 44q0 13 3 24.5t7 16.5q-5 10 -5 21q0 5 2 13q-9 9 -9 24q0 14 7 22q-5 10 -5 18q0 11 7 21q-8 18 -8 35q0 21 13 40q-6 13 -10.5 32t-4.5 36q0 32 15 44q-5 22 -5 23q-6 24 -6 34q0 15 7 36
q-5 7 -8 23t-2 23q-12 12 -12 29q0 13 8.5 24.5t22.5 15.5q7 7 19 11.5t25 4.5q17 0 29 -9q17 5 34 5q24 0 39 -11q9 4 21 4q11 0 17 -5q6 5 29 5q30 0 47 -10q11 11 27 11q10 0 23 -5q10 7 26 7zM350 870.5q13 -13.5 14 -24.5q12 -5 20 -18.5t10 -24.5q18 -11 18 -27
q0 -12 -15 -21q-6 -3 -13 -3q-12 0 -21 8.5t-11 19.5q-9 4 -19 16.5t-12 21.5q-9 -1 -22 9t-15 19q-3 -11 -15 -24t-20 -14q-3 -9 -11 -19t-16 -12q-4 -12 -13.5 -21.5t-21.5 -9.5q-8 0 -19 6q-5 4 -8.5 11t-3.5 14q0 16 12 26q2 11 9 21.5t17 15.5q1 10 8.5 17.5t18.5 9.5
q4 13 14 17q1 5 7.5 9.5t12.5 6.5q3 9 12 16t18 7q10 0 17 -7q11 1 19 -9.5t8 -22.5q8 0 21 -13.5zM494 988q0 -18 -11 -28q-5 -37 -44 -51q-6 -12 -17 -18.5t-21 -6.5q-12 0 -19 8t-5 23q-2 8 -2 11q0 9 6 18t15 14q3 17 29 32q-4 9 -4 19q0 17 13.5 28.5t28.5 11.5
q11 0 18.5 -7t7.5 -20l-1 -8q6 -12 6 -26z" />
    <glyph glyph-name="uni1EC6" unicode="&#x1ec6;" horiz-adv-x="559" 
d="M424 709q23 0 46 -15q11 0 18 -9t7 -22q0 -17 -10 -30t-28 -13q-13 0 -28 8q-8 -8 -21 -8q-14 0 -29 10q-10 -5 -30 -5q-29 0 -45 9q-15 -7 -31 -7q-13 0 -25 4q-13 -5 -25 -5q-16 0 -32 9q-18 -10 -32 -12q7 -17 7 -37q0 -25 -11 -40q12 -19 12 -42q0 -18 -9 -36
q9 -10 9 -25q0 -10 -7 -24q9 5 22 5q10 0 14 -2q11 8 24 8t26 -11q12 3 20 3q5 0 17 -2q12 2 17 2q17 0 25 -8q8 5 18 5q12 0 15 -5q9 3 14 3q7 0 19 -4q13 7 25 7q17 0 29 -12.5t12 -27.5q0 -13 -9 -22t-28 -10q-9 -12 -30 -12q-19 0 -34 10q-10 -10 -29 -10q-17 0 -28 8
q-8 -6 -17 -6q-6 0 -10 4q-11 -10 -30 -10q-14 0 -26 6q-10 -5 -17 -5q-10 0 -20 7q-7 -4 -11 -5t-11 0q9 -18 9 -28q0 -9 -6 -21q7 -8 7 -20q0 -9 -5 -19q7 -8 7 -21q0 -12 -7 -20q6 -12 6 -19q0 -6 -8 -20q4 -4 4 -11q0 -9 -6 -12q10 -9 10 -23q0 -5 -2 -17l6 1
q11 0 23 -10q15 11 39 11q9 0 19 -2q6 7 17 11t24 4q21 0 32 -9q6 10 21 16t30 6q11 0 18 -3q11 6 20 6q16 0 28 -13t12 -30q0 -21 -19 -33q-4 -8 -16 -13.5t-26 -5.5t-22 5q-8 -8 -21 -13.5t-26 -5.5q-20 0 -31 11q-17 -18 -44 -18q-5 0 -17 2q-20 -12 -39 -12q-15 0 -26 8
q-11 -17 -32 -17q-18 0 -31.5 14t-9.5 33q-6 6 -9 18t-3 24q0 9 1 13q-13 13 -13 44q0 13 3 24.5t7 16.5q-5 10 -5 21q0 5 2 13q-9 9 -9 24q0 14 7 22q-5 10 -5 18q0 11 7 21q-8 18 -8 35q0 21 13 40q-6 13 -10.5 32t-4.5 36q0 32 15 44q-5 22 -5 23q-6 24 -6 34q0 15 7 36
q-5 7 -8 23t-2 23q-12 12 -12 29q0 13 8.5 24.5t22.5 15.5q7 7 19 11.5t25 4.5q17 0 29 -9q17 5 34 5q24 0 39 -11q9 4 21 4q11 0 17 -5q6 5 29 5q30 0 47 -10q11 11 27 11q10 0 23 -5q10 7 26 7zM321 -68q13 0 18 -4q22 -10 22 -34q0 -11 -6.5 -21t-17.5 -15
q-11 -11 -26 -11q-6 0 -16 4q-16 1 -24 11.5t-8 25.5q0 14 8 24.5t23 11.5q9 8 27 8zM373 876.5q13 -13.5 14 -24.5q12 -5 20 -18.5t10 -24.5q18 -11 18 -27q0 -12 -15 -21q-6 -3 -13 -3q-12 0 -21 8.5t-11 19.5q-9 4 -19 16.5t-12 21.5q-9 -1 -22 9t-15 19q-3 -11 -15 -24
t-20 -14q-3 -9 -11 -19t-16 -12q-4 -12 -13.5 -21.5t-21.5 -9.5q-8 0 -19 6q-5 4 -8.5 11t-3.5 14q0 16 12 26q2 11 9 21.5t17 15.5q1 10 8.5 17.5t18.5 9.5q4 13 14 17q1 5 7.5 9.5t12.5 6.5q3 9 12 16t18 7q10 0 17 -7q11 1 19 -9.5t8 -22.5q8 0 21 -13.5z" />
    <glyph glyph-name="uni1EC0" unicode="&#x1ec0;" horiz-adv-x="558" 
d="M424 709q23 0 46 -15q11 0 18 -9t7 -22q0 -17 -10 -30t-28 -13q-13 0 -28 8q-8 -8 -21 -8q-14 0 -29 10q-10 -5 -30 -5q-29 0 -45 9q-15 -7 -31 -7q-13 0 -25 4q-13 -5 -25 -5q-16 0 -32 9q-18 -10 -32 -12q7 -17 7 -37q0 -25 -11 -40q12 -19 12 -42q0 -18 -9 -36
q9 -10 9 -25q0 -10 -7 -24q9 5 22 5q10 0 14 -2q11 8 24 8t26 -11q12 3 20 3q5 0 17 -2q12 2 17 2q17 0 25 -8q8 5 18 5q12 0 15 -5q9 3 14 3q7 0 19 -4q13 7 25 7q17 0 29 -12.5t12 -27.5q0 -13 -9 -22t-28 -10q-9 -12 -30 -12q-19 0 -34 10q-10 -10 -29 -10q-17 0 -28 8
q-8 -6 -17 -6q-6 0 -10 4q-11 -10 -30 -10q-14 0 -26 6q-10 -5 -17 -5q-10 0 -20 7q-7 -4 -11 -5t-11 0q9 -18 9 -28q0 -9 -6 -21q7 -8 7 -20q0 -9 -5 -19q7 -8 7 -21q0 -12 -7 -20q6 -12 6 -19q0 -6 -8 -20q4 -4 4 -11q0 -9 -6 -12q10 -9 10 -23q0 -5 -2 -17l6 1
q11 0 23 -10q15 11 39 11q9 0 19 -2q6 7 17 11t24 4q21 0 32 -9q6 10 21 16t30 6q11 0 18 -3q11 6 20 6q16 0 28 -13t12 -30q0 -21 -19 -33q-4 -8 -16 -13.5t-26 -5.5t-22 5q-8 -8 -21 -13.5t-26 -5.5q-20 0 -31 11q-17 -18 -44 -18q-5 0 -17 2q-20 -12 -39 -12q-15 0 -26 8
q-11 -17 -32 -17q-18 0 -31.5 14t-9.5 33q-6 6 -9 18t-3 24q0 9 1 13q-13 13 -13 44q0 13 3 24.5t7 16.5q-5 10 -5 21q0 5 2 13q-9 9 -9 24q0 14 7 22q-5 10 -5 18q0 11 7 21q-8 18 -8 35q0 21 13 40q-6 13 -10.5 32t-4.5 36q0 32 15 44q-5 22 -5 23q-6 24 -6 34q0 15 7 36
q-5 7 -8 23t-2 23q-12 12 -12 29q0 13 8.5 24.5t22.5 15.5q7 7 19 11.5t25 4.5q17 0 29 -9q17 5 34 5q24 0 39 -11q9 4 21 4q11 0 17 -5q6 5 29 5q30 0 47 -10q11 11 27 11q10 0 23 -5q10 7 26 7zM352 891.5q13 -13.5 14 -24.5q12 -5 20 -18.5t10 -24.5q18 -11 18 -27
q0 -12 -15 -21q-6 -3 -13 -3q-12 0 -21 8.5t-11 19.5q-9 4 -19 16.5t-12 21.5q-9 -1 -22 9t-15 19q-3 -11 -15 -24t-20 -14q-3 -9 -11 -19t-16 -12q-4 -12 -13.5 -21.5t-21.5 -9.5q-8 0 -19 6q-5 4 -8.5 11t-3.5 14q0 16 12 26q2 11 9 21.5t17 15.5q1 10 8.5 17.5t18.5 9.5
q4 13 14 17q1 5 7.5 9.5t12.5 6.5q3 9 12 16t18 7q10 0 17 -7q11 1 19 -9.5t8 -22.5q8 0 21 -13.5zM464.5 973.5q9.5 -14.5 9.5 -29.5q0 -20 -14 -28q-8 -5 -17 -5q-11 0 -28 12q-19 4 -34 23q-14 18 -12 44q-17 14 -21 36q-22 8 -22 30q0 15 10.5 27.5t25.5 12.5
q12 0 23 -10q33 -4 33 -33l-1 -8q10 -10 15 -21.5t9 -30.5q14 -5 23.5 -19.5z" />
    <glyph glyph-name="uni1EC2" unicode="&#x1ec2;" horiz-adv-x="559" 
d="M424 709q23 0 46 -15q11 0 18 -9t7 -22q0 -17 -10 -30t-28 -13q-13 0 -28 8q-8 -8 -21 -8q-14 0 -29 10q-10 -5 -30 -5q-29 0 -45 9q-15 -7 -31 -7q-13 0 -25 4q-13 -5 -25 -5q-16 0 -32 9q-18 -10 -32 -12q7 -17 7 -37q0 -25 -11 -40q12 -19 12 -42q0 -18 -9 -36
q9 -10 9 -25q0 -10 -7 -24q9 5 22 5q10 0 14 -2q11 8 24 8t26 -11q12 3 20 3q5 0 17 -2q12 2 17 2q17 0 25 -8q8 5 18 5q12 0 15 -5q9 3 14 3q7 0 19 -4q13 7 25 7q17 0 29 -12.5t12 -27.5q0 -13 -9 -22t-28 -10q-9 -12 -30 -12q-19 0 -34 10q-10 -10 -29 -10q-17 0 -28 8
q-8 -6 -17 -6q-6 0 -10 4q-11 -10 -30 -10q-14 0 -26 6q-10 -5 -17 -5q-10 0 -20 7q-7 -4 -11 -5t-11 0q9 -18 9 -28q0 -9 -6 -21q7 -8 7 -20q0 -9 -5 -19q7 -8 7 -21q0 -12 -7 -20q6 -12 6 -19q0 -6 -8 -20q4 -4 4 -11q0 -9 -6 -12q10 -9 10 -23q0 -5 -2 -17l6 1
q11 0 23 -10q15 11 39 11q9 0 19 -2q6 7 17 11t24 4q21 0 32 -9q6 10 21 16t30 6q11 0 18 -3q11 6 20 6q16 0 28 -13t12 -30q0 -21 -19 -33q-4 -8 -16 -13.5t-26 -5.5t-22 5q-8 -8 -21 -13.5t-26 -5.5q-20 0 -31 11q-17 -18 -44 -18q-5 0 -17 2q-20 -12 -39 -12q-15 0 -26 8
q-11 -17 -32 -17q-18 0 -31.5 14t-9.5 33q-6 6 -9 18t-3 24q0 9 1 13q-13 13 -13 44q0 13 3 24.5t7 16.5q-5 10 -5 21q0 5 2 13q-9 9 -9 24q0 14 7 22q-5 10 -5 18q0 11 7 21q-8 18 -8 35q0 21 13 40q-6 13 -10.5 32t-4.5 36q0 32 15 44q-5 22 -5 23q-6 24 -6 34q0 15 7 36
q-5 7 -8 23t-2 23q-12 12 -12 29q0 13 8.5 24.5t22.5 15.5q7 7 19 11.5t25 4.5q17 0 29 -9q17 5 34 5q24 0 39 -11q9 4 21 4q11 0 17 -5q6 5 29 5q30 0 47 -10q11 11 27 11q10 0 23 -5q10 7 26 7zM363 893.5q13 -13.5 14 -24.5q12 -5 20 -18.5t10 -24.5q18 -11 18 -27
q0 -12 -15 -21q-6 -3 -13 -3q-12 0 -21 8.5t-11 19.5q-9 4 -19 16.5t-12 21.5q-9 -1 -22 9t-15 19q-3 -11 -15 -24t-20 -14q-3 -9 -11 -19t-16 -12q-4 -12 -13.5 -21.5t-21.5 -9.5q-8 0 -19 6q-5 4 -8.5 11t-3.5 14q0 16 12 26q2 11 9 21.5t17 15.5q1 10 8.5 17.5t18.5 9.5
q4 13 14 17q1 5 7.5 9.5t12.5 6.5q3 9 12 16t18 7q10 0 17 -7q11 1 19 -9.5t8 -22.5q8 0 21 -13.5zM369 1011q-7 0 -12 3q-15 8 -15 25q0 14 10.5 25.5t25.5 10.5q10 5 19 5q14 0 20 -8q17 0 33 -17.5t13 -39.5q5 -5 8 -14t3 -18q0 -18 -13 -26q4 -13 -6.5 -27.5
t-23.5 -13.5q-10 -15 -27 -15q-14 0 -26 9t-12 21q0 9 7 16q1 10 7.5 17t15.5 9l5 6q-7 7 -9 22q-11 3 -18 10h-5z" />
    <glyph glyph-name="uni1EC4" unicode="&#x1ec4;" horiz-adv-x="558" 
d="M424 709q23 0 46 -15q11 0 18 -9t7 -22q0 -17 -10 -30t-28 -13q-13 0 -28 8q-8 -8 -21 -8q-14 0 -29 10q-10 -5 -30 -5q-29 0 -45 9q-15 -7 -31 -7q-13 0 -25 4q-13 -5 -25 -5q-16 0 -32 9q-18 -10 -32 -12q7 -17 7 -37q0 -25 -11 -40q12 -19 12 -42q0 -18 -9 -36
q9 -10 9 -25q0 -10 -7 -24q9 5 22 5q10 0 14 -2q11 8 24 8t26 -11q12 3 20 3q5 0 17 -2q12 2 17 2q17 0 25 -8q8 5 18 5q12 0 15 -5q9 3 14 3q7 0 19 -4q13 7 25 7q17 0 29 -12.5t12 -27.5q0 -13 -9 -22t-28 -10q-9 -12 -30 -12q-19 0 -34 10q-10 -10 -29 -10q-17 0 -28 8
q-8 -6 -17 -6q-6 0 -10 4q-11 -10 -30 -10q-14 0 -26 6q-10 -5 -17 -5q-10 0 -20 7q-7 -4 -11 -5t-11 0q9 -18 9 -28q0 -9 -6 -21q7 -8 7 -20q0 -9 -5 -19q7 -8 7 -21q0 -12 -7 -20q6 -12 6 -19q0 -6 -8 -20q4 -4 4 -11q0 -9 -6 -12q10 -9 10 -23q0 -5 -2 -17l6 1
q11 0 23 -10q15 11 39 11q9 0 19 -2q6 7 17 11t24 4q21 0 32 -9q6 10 21 16t30 6q11 0 18 -3q11 6 20 6q16 0 28 -13t12 -30q0 -21 -19 -33q-4 -8 -16 -13.5t-26 -5.5t-22 5q-8 -8 -21 -13.5t-26 -5.5q-20 0 -31 11q-17 -18 -44 -18q-5 0 -17 2q-20 -12 -39 -12q-15 0 -26 8
q-11 -17 -32 -17q-18 0 -31.5 14t-9.5 33q-6 6 -9 18t-3 24q0 9 1 13q-13 13 -13 44q0 13 3 24.5t7 16.5q-5 10 -5 21q0 5 2 13q-9 9 -9 24q0 14 7 22q-5 10 -5 18q0 11 7 21q-8 18 -8 35q0 21 13 40q-6 13 -10.5 32t-4.5 36q0 32 15 44q-5 22 -5 23q-6 24 -6 34q0 15 7 36
q-5 7 -8 23t-2 23q-12 12 -12 29q0 13 8.5 24.5t22.5 15.5q7 7 19 11.5t25 4.5q17 0 29 -9q17 5 34 5q24 0 39 -11q9 4 21 4q11 0 17 -5q6 5 29 5q30 0 47 -10q11 11 27 11q10 0 23 -5q10 7 26 7zM362 868.5q13 -13.5 14 -24.5q12 -5 20 -18.5t10 -24.5q18 -11 18 -27
q0 -12 -15 -21q-6 -3 -13 -3q-12 0 -21 8.5t-11 19.5q-9 4 -19 16.5t-12 21.5q-9 -1 -22 9t-15 19q-3 -11 -15 -24t-20 -14q-3 -9 -11 -19t-16 -12q-4 -12 -13.5 -21.5t-21.5 -9.5q-8 0 -19 6q-5 4 -8.5 11t-3.5 14q0 16 12 26q2 11 9 21.5t17 15.5q1 10 8.5 17.5t18.5 9.5
q4 13 14 17q1 5 7.5 9.5t12.5 6.5q3 9 12 16t18 7q10 0 17 -7q11 1 19 -9.5t8 -22.5q8 0 21 -13.5zM245 977q-8 0 -11 4q-4 -4 -12 -6t-13 1q1 -5 -6.5 -12.5t-13.5 -9.5q-3 -12 -12.5 -18.5t-20.5 -6.5t-20 6q-14 11 -14 26q0 13 11 26q3 32 35 44q4 5 17.5 10t23.5 6
q3 2 12 2q12 0 24 -4.5t13 -11.5q6 2 11 2q9 0 16 -4t10 -11q17 1 45 -15q6 8 21 14t23 4q0 20 15 36q10 11 24 11t25 -10t11 -25q0 -3 -2 -11q2 -51 -52 -67q-10 -8 -27.5 -13t-35.5 -5q-17 0 -26 4q-11 -1 -20.5 4.5t-11.5 13.5q-5 -1 -15.5 5t-13.5 12q-3 -1 -10 -1z" />
    <glyph glyph-name="uni0204" unicode="&#x204;" 
d="M424 709q23 0 46 -15q11 0 18 -9t7 -22q0 -17 -10 -30t-28 -13q-13 0 -28 8q-8 -8 -21 -8q-14 0 -29 10q-10 -5 -30 -5q-29 0 -45 9q-15 -7 -31 -7q-13 0 -25 4q-13 -5 -25 -5q-16 0 -32 9q-18 -10 -32 -12q7 -17 7 -37q0 -25 -11 -40q12 -19 12 -42q0 -18 -9 -36
q9 -10 9 -25q0 -10 -7 -24q9 5 22 5q10 0 14 -2q11 8 24 8t26 -11q12 3 20 3q5 0 17 -2q12 2 17 2q17 0 25 -8q8 5 18 5q12 0 15 -5q9 3 14 3q7 0 19 -4q13 7 25 7q17 0 29 -12.5t12 -27.5q0 -13 -9 -22t-28 -10q-9 -12 -30 -12q-19 0 -34 10q-10 -10 -29 -10q-17 0 -28 8
q-8 -6 -17 -6q-6 0 -10 4q-11 -10 -30 -10q-14 0 -26 6q-10 -5 -17 -5q-10 0 -20 7q-7 -4 -11 -5t-11 0q9 -18 9 -28q0 -9 -6 -21q7 -8 7 -20q0 -9 -5 -19q7 -8 7 -21q0 -12 -7 -20q6 -12 6 -19q0 -6 -8 -20q4 -4 4 -11q0 -9 -6 -12q10 -9 10 -23q0 -5 -2 -17l6 1
q11 0 23 -10q15 11 39 11q9 0 19 -2q6 7 17 11t24 4q21 0 32 -9q6 10 21 16t30 6q11 0 18 -3q11 6 20 6q16 0 28 -13t12 -30q0 -21 -19 -33q-4 -8 -16 -13.5t-26 -5.5t-22 5q-8 -8 -21 -13.5t-26 -5.5q-20 0 -31 11q-17 -18 -44 -18q-5 0 -17 2q-20 -12 -39 -12q-15 0 -26 8
q-11 -17 -32 -17q-18 0 -31.5 14t-9.5 33q-6 6 -9 18t-3 24q0 9 1 13q-13 13 -13 44q0 13 3 24.5t7 16.5q-5 10 -5 21q0 5 2 13q-9 9 -9 24q0 14 7 22q-5 10 -5 18q0 11 7 21q-8 18 -8 35q0 21 13 40q-6 13 -10.5 32t-4.5 36q0 32 15 44q-5 22 -5 23q-6 24 -6 34q0 15 7 36
q-5 7 -8 23t-2 23q-12 12 -12 29q0 13 8.5 24.5t22.5 15.5q7 7 19 11.5t25 4.5q17 0 29 -9q17 5 34 5q24 0 39 -11q9 4 21 4q11 0 17 -5q6 5 29 5q30 0 47 -10q11 11 27 11q10 0 23 -5q10 7 26 7zM233 903q0 14 7.5 22.5t19.5 8.5q21 0 46 -29q12 -4 26 -17.5t20 -26.5
q12 -3 24.5 -11.5t16.5 -18.5q14 -17 14 -31q0 -13 -14 -23q-11 -8 -21 -8q-8 0 -17 5t-18 11q-16 0 -32 7.5t-19 23.5q-17 5 -23.5 15.5t-8.5 26.5q-21 21 -21 45zM56 903q0 14 7.5 22.5t19.5 8.5q21 0 46 -29q12 -4 26 -17.5t20 -26.5q12 -3 24.5 -11.5t16.5 -18.5
q14 -17 14 -31q0 -13 -14 -23q-11 -8 -21 -8q-8 0 -17 5t-18 11q-16 0 -32 7.5t-19 23.5q-17 5 -23.5 15.5t-8.5 26.5q-21 21 -21 45z" />
    <glyph glyph-name="Edieresis" unicode="&#xcb;" horiz-adv-x="559" 
d="M424 709q23 0 46 -15q11 0 18 -9t7 -22q0 -17 -10 -30t-28 -13q-13 0 -28 8q-8 -8 -21 -8q-14 0 -29 10q-10 -5 -30 -5q-29 0 -45 9q-15 -7 -31 -7q-13 0 -25 4q-13 -5 -25 -5q-16 0 -32 9q-18 -10 -32 -12q7 -17 7 -37q0 -25 -11 -40q12 -19 12 -42q0 -18 -9 -36
q9 -10 9 -25q0 -10 -7 -24q9 5 22 5q10 0 14 -2q11 8 24 8t26 -11q12 3 20 3q5 0 17 -2q12 2 17 2q17 0 25 -8q8 5 18 5q12 0 15 -5q9 3 14 3q7 0 19 -4q13 7 25 7q17 0 29 -12.5t12 -27.5q0 -13 -9 -22t-28 -10q-9 -12 -30 -12q-19 0 -34 10q-10 -10 -29 -10q-17 0 -28 8
q-8 -6 -17 -6q-6 0 -10 4q-11 -10 -30 -10q-14 0 -26 6q-10 -5 -17 -5q-10 0 -20 7q-7 -4 -11 -5t-11 0q9 -18 9 -28q0 -9 -6 -21q7 -8 7 -20q0 -9 -5 -19q7 -8 7 -21q0 -12 -7 -20q6 -12 6 -19q0 -6 -8 -20q4 -4 4 -11q0 -9 -6 -12q10 -9 10 -23q0 -5 -2 -17l6 1
q11 0 23 -10q15 11 39 11q9 0 19 -2q6 7 17 11t24 4q21 0 32 -9q6 10 21 16t30 6q11 0 18 -3q11 6 20 6q16 0 28 -13t12 -30q0 -21 -19 -33q-4 -8 -16 -13.5t-26 -5.5t-22 5q-8 -8 -21 -13.5t-26 -5.5q-20 0 -31 11q-17 -18 -44 -18q-5 0 -17 2q-20 -12 -39 -12q-15 0 -26 8
q-11 -17 -32 -17q-18 0 -31.5 14t-9.5 33q-6 6 -9 18t-3 24q0 9 1 13q-13 13 -13 44q0 13 3 24.5t7 16.5q-5 10 -5 21q0 5 2 13q-9 9 -9 24q0 14 7 22q-5 10 -5 18q0 11 7 21q-8 18 -8 35q0 21 13 40q-6 13 -10.5 32t-4.5 36q0 32 15 44q-5 22 -5 23q-6 24 -6 34q0 15 7 36
q-5 7 -8 23t-2 23q-12 12 -12 29q0 13 8.5 24.5t22.5 15.5q7 7 19 11.5t25 4.5q17 0 29 -9q17 5 34 5q24 0 39 -11q9 4 21 4q11 0 17 -5q6 5 29 5q30 0 47 -10q11 11 27 11q10 0 23 -5q10 7 26 7zM358 766q-12 0 -21.5 8.5t-9.5 19.5q0 12 12 24q1 21 22 31q12 16 28 16
q15 0 27 -12t12 -27q0 -16 -16 -28q1 -10 -5.5 -15t-16.5 -5l-8 1q-10 -13 -24 -13zM153 796q0 -14 12 -23t27 -9q16 0 27 9t11 27q0 6 -1 9q4 8 4 17q0 15 -12 23.5t-27 8.5q-17 0 -27.5 -10t-7.5 -30q-6 -12 -6 -22z" />
    <glyph glyph-name="Edotaccent" unicode="&#x116;" horiz-adv-x="560" 
d="M424 709q23 0 46 -15q11 0 18 -9t7 -22q0 -17 -10 -30t-28 -13q-13 0 -28 8q-8 -8 -21 -8q-14 0 -29 10q-10 -5 -30 -5q-29 0 -45 9q-15 -7 -31 -7q-13 0 -25 4q-13 -5 -25 -5q-16 0 -32 9q-18 -10 -32 -12q7 -17 7 -37q0 -25 -11 -40q12 -19 12 -42q0 -18 -9 -36
q9 -10 9 -25q0 -10 -7 -24q9 5 22 5q10 0 14 -2q11 8 24 8t26 -11q12 3 20 3q5 0 17 -2q12 2 17 2q17 0 25 -8q8 5 18 5q12 0 15 -5q9 3 14 3q7 0 19 -4q13 7 25 7q17 0 29 -12.5t12 -27.5q0 -13 -9 -22t-28 -10q-9 -12 -30 -12q-19 0 -34 10q-10 -10 -29 -10q-17 0 -28 8
q-8 -6 -17 -6q-6 0 -10 4q-11 -10 -30 -10q-14 0 -26 6q-10 -5 -17 -5q-10 0 -20 7q-7 -4 -11 -5t-11 0q9 -18 9 -28q0 -9 -6 -21q7 -8 7 -20q0 -9 -5 -19q7 -8 7 -21q0 -12 -7 -20q6 -12 6 -19q0 -6 -8 -20q4 -4 4 -11q0 -9 -6 -12q10 -9 10 -23q0 -5 -2 -17l6 1
q11 0 23 -10q15 11 39 11q9 0 19 -2q6 7 17 11t24 4q21 0 32 -9q6 10 21 16t30 6q11 0 18 -3q11 6 20 6q16 0 28 -13t12 -30q0 -21 -19 -33q-4 -8 -16 -13.5t-26 -5.5t-22 5q-8 -8 -21 -13.5t-26 -5.5q-20 0 -31 11q-17 -18 -44 -18q-5 0 -17 2q-20 -12 -39 -12q-15 0 -26 8
q-11 -17 -32 -17q-18 0 -31.5 14t-9.5 33q-6 6 -9 18t-3 24q0 9 1 13q-13 13 -13 44q0 13 3 24.5t7 16.5q-5 10 -5 21q0 5 2 13q-9 9 -9 24q0 14 7 22q-5 10 -5 18q0 11 7 21q-8 18 -8 35q0 21 13 40q-6 13 -10.5 32t-4.5 36q0 32 15 44q-5 22 -5 23q-6 24 -6 34q0 15 7 36
q-5 7 -8 23t-2 23q-12 12 -12 29q0 13 8.5 24.5t22.5 15.5q7 7 19 11.5t25 4.5q17 0 29 -9q17 5 34 5q24 0 39 -11q9 4 21 4q11 0 17 -5q6 5 29 5q30 0 47 -10q11 11 27 11q10 0 23 -5q10 7 26 7zM283 767q-15 0 -23 6q-13 6 -19.5 17t-6.5 24q0 14 7.5 25.5t20.5 17.5
q14 14 32 14q9 0 19 -5q19 -2 29 -15t10 -30t-10 -30t-28 -14q-11 -10 -31 -10z" />
    <glyph glyph-name="uni1EB8" unicode="&#x1eb8;" horiz-adv-x="550" 
d="M424 709q23 0 46 -15q11 0 18 -9t7 -22q0 -17 -10 -30t-28 -13q-13 0 -28 8q-8 -8 -21 -8q-14 0 -29 10q-10 -5 -30 -5q-29 0 -45 9q-15 -7 -31 -7q-13 0 -25 4q-13 -5 -25 -5q-16 0 -32 9q-18 -10 -32 -12q7 -17 7 -37q0 -25 -11 -40q12 -19 12 -42q0 -18 -9 -36
q9 -10 9 -25q0 -10 -7 -24q9 5 22 5q10 0 14 -2q11 8 24 8t26 -11q12 3 20 3q5 0 17 -2q12 2 17 2q17 0 25 -8q8 5 18 5q12 0 15 -5q9 3 14 3q7 0 19 -4q13 7 25 7q17 0 29 -12.5t12 -27.5q0 -13 -9 -22t-28 -10q-9 -12 -30 -12q-19 0 -34 10q-10 -10 -29 -10q-17 0 -28 8
q-8 -6 -17 -6q-6 0 -10 4q-11 -10 -30 -10q-14 0 -26 6q-10 -5 -17 -5q-10 0 -20 7q-7 -4 -11 -5t-11 0q9 -18 9 -28q0 -9 -6 -21q7 -8 7 -20q0 -9 -5 -19q7 -8 7 -21q0 -12 -7 -20q6 -12 6 -19q0 -6 -8 -20q4 -4 4 -11q0 -9 -6 -12q10 -9 10 -23q0 -5 -2 -17l6 1
q11 0 23 -10q15 11 39 11q9 0 19 -2q6 7 17 11t24 4q21 0 32 -9q6 10 21 16t30 6q11 0 18 -3q11 6 20 6q16 0 28 -13t12 -30q0 -21 -19 -33q-4 -8 -16 -13.5t-26 -5.5t-22 5q-8 -8 -21 -13.5t-26 -5.5q-20 0 -31 11q-17 -18 -44 -18q-5 0 -17 2q-20 -12 -39 -12q-15 0 -26 8
q-11 -17 -32 -17q-18 0 -31.5 14t-9.5 33q-6 6 -9 18t-3 24q0 9 1 13q-13 13 -13 44q0 13 3 24.5t7 16.5q-5 10 -5 21q0 5 2 13q-9 9 -9 24q0 14 7 22q-5 10 -5 18q0 11 7 21q-8 18 -8 35q0 21 13 40q-6 13 -10.5 32t-4.5 36q0 32 15 44q-5 22 -5 23q-6 24 -6 34q0 15 7 36
q-5 7 -8 23t-2 23q-12 12 -12 29q0 13 8.5 24.5t22.5 15.5q7 7 19 11.5t25 4.5q17 0 29 -9q17 5 34 5q24 0 39 -11q9 4 21 4q11 0 17 -5q6 5 29 5q30 0 47 -10q11 11 27 11q10 0 23 -5q10 7 26 7zM280 -46q13 0 18 -4q22 -10 22 -34q0 -11 -6.5 -21t-17.5 -15
q-11 -11 -26 -11q-6 0 -16 4q-16 1 -24 11.5t-8 25.5q0 14 8 24.5t23 11.5q9 8 27 8z" />
    <glyph glyph-name="Egrave" unicode="&#xc8;" horiz-adv-x="560" 
d="M424 709q23 0 46 -15q11 0 18 -9t7 -22q0 -17 -10 -30t-28 -13q-13 0 -28 8q-8 -8 -21 -8q-14 0 -29 10q-10 -5 -30 -5q-29 0 -45 9q-15 -7 -31 -7q-13 0 -25 4q-13 -5 -25 -5q-16 0 -32 9q-18 -10 -32 -12q7 -17 7 -37q0 -25 -11 -40q12 -19 12 -42q0 -18 -9 -36
q9 -10 9 -25q0 -10 -7 -24q9 5 22 5q10 0 14 -2q11 8 24 8t26 -11q12 3 20 3q5 0 17 -2q12 2 17 2q17 0 25 -8q8 5 18 5q12 0 15 -5q9 3 14 3q7 0 19 -4q13 7 25 7q17 0 29 -12.5t12 -27.5q0 -13 -9 -22t-28 -10q-9 -12 -30 -12q-19 0 -34 10q-10 -10 -29 -10q-17 0 -28 8
q-8 -6 -17 -6q-6 0 -10 4q-11 -10 -30 -10q-14 0 -26 6q-10 -5 -17 -5q-10 0 -20 7q-7 -4 -11 -5t-11 0q9 -18 9 -28q0 -9 -6 -21q7 -8 7 -20q0 -9 -5 -19q7 -8 7 -21q0 -12 -7 -20q6 -12 6 -19q0 -6 -8 -20q4 -4 4 -11q0 -9 -6 -12q10 -9 10 -23q0 -5 -2 -17l6 1
q11 0 23 -10q15 11 39 11q9 0 19 -2q6 7 17 11t24 4q21 0 32 -9q6 10 21 16t30 6q11 0 18 -3q11 6 20 6q16 0 28 -13t12 -30q0 -21 -19 -33q-4 -8 -16 -13.5t-26 -5.5t-22 5q-8 -8 -21 -13.5t-26 -5.5q-20 0 -31 11q-17 -18 -44 -18q-5 0 -17 2q-20 -12 -39 -12q-15 0 -26 8
q-11 -17 -32 -17q-18 0 -31.5 14t-9.5 33q-6 6 -9 18t-3 24q0 9 1 13q-13 13 -13 44q0 13 3 24.5t7 16.5q-5 10 -5 21q0 5 2 13q-9 9 -9 24q0 14 7 22q-5 10 -5 18q0 11 7 21q-8 18 -8 35q0 21 13 40q-6 13 -10.5 32t-4.5 36q0 32 15 44q-5 22 -5 23q-6 24 -6 34q0 15 7 36
q-5 7 -8 23t-2 23q-12 12 -12 29q0 13 8.5 24.5t22.5 15.5q7 7 19 11.5t25 4.5q17 0 29 -9q17 5 34 5q24 0 39 -11q9 4 21 4q11 0 17 -5q6 5 29 5q30 0 47 -10q11 11 27 11q10 0 23 -5q10 7 26 7zM186 894q0 14 7.5 22.5t19.5 8.5q21 0 46 -29q12 -4 26 -17.5t20 -26.5
q12 -3 24.5 -11.5t16.5 -18.5q14 -17 14 -31q0 -13 -14 -23q-11 -8 -21 -8q-8 0 -17 5t-18 11q-16 0 -32 7.5t-19 23.5q-17 5 -23.5 15.5t-8.5 26.5q-21 21 -21 45z" />
    <glyph glyph-name="uni1EBA" unicode="&#x1eba;" horiz-adv-x="558" 
d="M424 709q23 0 46 -15q11 0 18 -9t7 -22q0 -17 -10 -30t-28 -13q-13 0 -28 8q-8 -8 -21 -8q-14 0 -29 10q-10 -5 -30 -5q-29 0 -45 9q-15 -7 -31 -7q-13 0 -25 4q-13 -5 -25 -5q-16 0 -32 9q-18 -10 -32 -12q7 -17 7 -37q0 -25 -11 -40q12 -19 12 -42q0 -18 -9 -36
q9 -10 9 -25q0 -10 -7 -24q9 5 22 5q10 0 14 -2q11 8 24 8t26 -11q12 3 20 3q5 0 17 -2q12 2 17 2q17 0 25 -8q8 5 18 5q12 0 15 -5q9 3 14 3q7 0 19 -4q13 7 25 7q17 0 29 -12.5t12 -27.5q0 -13 -9 -22t-28 -10q-9 -12 -30 -12q-19 0 -34 10q-10 -10 -29 -10q-17 0 -28 8
q-8 -6 -17 -6q-6 0 -10 4q-11 -10 -30 -10q-14 0 -26 6q-10 -5 -17 -5q-10 0 -20 7q-7 -4 -11 -5t-11 0q9 -18 9 -28q0 -9 -6 -21q7 -8 7 -20q0 -9 -5 -19q7 -8 7 -21q0 -12 -7 -20q6 -12 6 -19q0 -6 -8 -20q4 -4 4 -11q0 -9 -6 -12q10 -9 10 -23q0 -5 -2 -17l6 1
q11 0 23 -10q15 11 39 11q9 0 19 -2q6 7 17 11t24 4q21 0 32 -9q6 10 21 16t30 6q11 0 18 -3q11 6 20 6q16 0 28 -13t12 -30q0 -21 -19 -33q-4 -8 -16 -13.5t-26 -5.5t-22 5q-8 -8 -21 -13.5t-26 -5.5q-20 0 -31 11q-17 -18 -44 -18q-5 0 -17 2q-20 -12 -39 -12q-15 0 -26 8
q-11 -17 -32 -17q-18 0 -31.5 14t-9.5 33q-6 6 -9 18t-3 24q0 9 1 13q-13 13 -13 44q0 13 3 24.5t7 16.5q-5 10 -5 21q0 5 2 13q-9 9 -9 24q0 14 7 22q-5 10 -5 18q0 11 7 21q-8 18 -8 35q0 21 13 40q-6 13 -10.5 32t-4.5 36q0 32 15 44q-5 22 -5 23q-6 24 -6 34q0 15 7 36
q-5 7 -8 23t-2 23q-12 12 -12 29q0 13 8.5 24.5t22.5 15.5q7 7 19 11.5t25 4.5q17 0 29 -9q17 5 34 5q24 0 39 -11q9 4 21 4q11 0 17 -5q6 5 29 5q30 0 47 -10q11 11 27 11q10 0 23 -5q10 7 26 7zM272 826q-7 0 -12 3q-15 8 -15 25q0 14 10.5 25.5t25.5 10.5q10 5 19 5
q14 0 20 -8q17 0 33 -17.5t13 -39.5q5 -5 8 -14t3 -18q0 -18 -13 -26q4 -13 -6.5 -27.5t-23.5 -13.5q-10 -15 -27 -15q-14 0 -26 9t-12 21q0 9 7 16q1 10 7.5 17t15.5 9l5 6q-7 7 -9 22q-11 3 -18 10h-5z" />
    <glyph glyph-name="uni0206" unicode="&#x206;" 
d="M424 709q23 0 46 -15q11 0 18 -9t7 -22q0 -17 -10 -30t-28 -13q-13 0 -28 8q-8 -8 -21 -8q-14 0 -29 10q-10 -5 -30 -5q-29 0 -45 9q-15 -7 -31 -7q-13 0 -25 4q-13 -5 -25 -5q-16 0 -32 9q-18 -10 -32 -12q7 -17 7 -37q0 -25 -11 -40q12 -19 12 -42q0 -18 -9 -36
q9 -10 9 -25q0 -10 -7 -24q9 5 22 5q10 0 14 -2q11 8 24 8t26 -11q12 3 20 3q5 0 17 -2q12 2 17 2q17 0 25 -8q8 5 18 5q12 0 15 -5q9 3 14 3q7 0 19 -4q13 7 25 7q17 0 29 -12.5t12 -27.5q0 -13 -9 -22t-28 -10q-9 -12 -30 -12q-19 0 -34 10q-10 -10 -29 -10q-17 0 -28 8
q-8 -6 -17 -6q-6 0 -10 4q-11 -10 -30 -10q-14 0 -26 6q-10 -5 -17 -5q-10 0 -20 7q-7 -4 -11 -5t-11 0q9 -18 9 -28q0 -9 -6 -21q7 -8 7 -20q0 -9 -5 -19q7 -8 7 -21q0 -12 -7 -20q6 -12 6 -19q0 -6 -8 -20q4 -4 4 -11q0 -9 -6 -12q10 -9 10 -23q0 -5 -2 -17l6 1
q11 0 23 -10q15 11 39 11q9 0 19 -2q6 7 17 11t24 4q21 0 32 -9q6 10 21 16t30 6q11 0 18 -3q11 6 20 6q16 0 28 -13t12 -30q0 -21 -19 -33q-4 -8 -16 -13.5t-26 -5.5t-22 5q-8 -8 -21 -13.5t-26 -5.5q-20 0 -31 11q-17 -18 -44 -18q-5 0 -17 2q-20 -12 -39 -12q-15 0 -26 8
q-11 -17 -32 -17q-18 0 -31.5 14t-9.5 33q-6 6 -9 18t-3 24q0 9 1 13q-13 13 -13 44q0 13 3 24.5t7 16.5q-5 10 -5 21q0 5 2 13q-9 9 -9 24q0 14 7 22q-5 10 -5 18q0 11 7 21q-8 18 -8 35q0 21 13 40q-6 13 -10.5 32t-4.5 36q0 32 15 44q-5 22 -5 23q-6 24 -6 34q0 15 7 36
q-5 7 -8 23t-2 23q-12 12 -12 29q0 13 8.5 24.5t22.5 15.5q7 7 19 11.5t25 4.5q17 0 29 -9q17 5 34 5q24 0 39 -11q9 4 21 4q11 0 17 -5q6 5 29 5q30 0 47 -10q11 11 27 11q10 0 23 -5q10 7 26 7zM429 845.5q15 -16.5 14 -38.5q6 -10 6 -20q0 -15 -13 -25t-29 -10
q-14 0 -24 9t-10 26q-16 10 -24.5 16.5t-11.5 17.5q-8 -2 -13 -2q-11 0 -22 3.5t-16 8.5q-24 -18 -61 -19q1 -3 1 -8q0 -10 -6 -19t-16 -14q-1 -15 -12.5 -24.5t-25.5 -9.5q-15 0 -27 12q-9 11 -9 29q0 12 4.5 24t12.5 19q-2 11 10 26.5t32 27.5t40 14q7 7 23 12.5t31 5.5
q16 0 23 -7q7 5 22 5q21 0 29 -7q12 3 23 -5.5t16 -23.5q18 -7 33 -23.5z" />
    <glyph glyph-name="Emacron" unicode="&#x112;" horiz-adv-x="559" 
d="M424 709q23 0 46 -15q11 0 18 -9t7 -22q0 -17 -10 -30t-28 -13q-13 0 -28 8q-8 -8 -21 -8q-14 0 -29 10q-10 -5 -30 -5q-29 0 -45 9q-15 -7 -31 -7q-13 0 -25 4q-13 -5 -25 -5q-16 0 -32 9q-18 -10 -32 -12q7 -17 7 -37q0 -25 -11 -40q12 -19 12 -42q0 -18 -9 -36
q9 -10 9 -25q0 -10 -7 -24q9 5 22 5q10 0 14 -2q11 8 24 8t26 -11q12 3 20 3q5 0 17 -2q12 2 17 2q17 0 25 -8q8 5 18 5q12 0 15 -5q9 3 14 3q7 0 19 -4q13 7 25 7q17 0 29 -12.5t12 -27.5q0 -13 -9 -22t-28 -10q-9 -12 -30 -12q-19 0 -34 10q-10 -10 -29 -10q-17 0 -28 8
q-8 -6 -17 -6q-6 0 -10 4q-11 -10 -30 -10q-14 0 -26 6q-10 -5 -17 -5q-10 0 -20 7q-7 -4 -11 -5t-11 0q9 -18 9 -28q0 -9 -6 -21q7 -8 7 -20q0 -9 -5 -19q7 -8 7 -21q0 -12 -7 -20q6 -12 6 -19q0 -6 -8 -20q4 -4 4 -11q0 -9 -6 -12q10 -9 10 -23q0 -5 -2 -17l6 1
q11 0 23 -10q15 11 39 11q9 0 19 -2q6 7 17 11t24 4q21 0 32 -9q6 10 21 16t30 6q11 0 18 -3q11 6 20 6q16 0 28 -13t12 -30q0 -21 -19 -33q-4 -8 -16 -13.5t-26 -5.5t-22 5q-8 -8 -21 -13.5t-26 -5.5q-20 0 -31 11q-17 -18 -44 -18q-5 0 -17 2q-20 -12 -39 -12q-15 0 -26 8
q-11 -17 -32 -17q-18 0 -31.5 14t-9.5 33q-6 6 -9 18t-3 24q0 9 1 13q-13 13 -13 44q0 13 3 24.5t7 16.5q-5 10 -5 21q0 5 2 13q-9 9 -9 24q0 14 7 22q-5 10 -5 18q0 11 7 21q-8 18 -8 35q0 21 13 40q-6 13 -10.5 32t-4.5 36q0 32 15 44q-5 22 -5 23q-6 24 -6 34q0 15 7 36
q-5 7 -8 23t-2 23q-12 12 -12 29q0 13 8.5 24.5t22.5 15.5q7 7 19 11.5t25 4.5q17 0 29 -9q17 5 34 5q24 0 39 -11q9 4 21 4q11 0 17 -5q6 5 29 5q30 0 47 -10q11 11 27 11q10 0 23 -5q10 7 26 7zM153.5 769q-4.5 -1 -16.5 -1q-21 0 -34.5 12t-13.5 27q0 14 11 24t33 12
q9 9 27 9t32 -8q17 10 42 10q23 0 53 -8q28 5 48 5q28 0 39 -8q12 6 37 6q27 0 37 -7q5 1 13 1q16 0 26 -9.5t10 -22.5q0 -14 -10.5 -25t-29.5 -12q-18 -11 -34 -11q-11 0 -22 6q-8 -4 -24 -4q-27 0 -35 9q-10 -3 -26 -3q-19 0 -35 6q-11 -4 -24 -4q-14 0 -31 5
q-19 -10 -33 -10q-13 0 -30 7q-5 -5 -9.5 -6z" />
    <glyph glyph-name="uni1E16" unicode="&#x1e16;" horiz-adv-x="530" 
d="M424 709q23 0 46 -15q11 0 18 -9t7 -22q0 -17 -10 -30t-28 -13q-13 0 -28 8q-8 -8 -21 -8q-14 0 -29 10q-10 -5 -30 -5q-29 0 -45 9q-15 -7 -31 -7q-13 0 -25 4q-13 -5 -25 -5q-16 0 -32 9q-18 -10 -32 -12q7 -17 7 -37q0 -25 -11 -40q12 -19 12 -42q0 -18 -9 -36
q9 -10 9 -25q0 -10 -7 -24q9 5 22 5q10 0 14 -2q11 8 24 8t26 -11q12 3 20 3q5 0 17 -2q12 2 17 2q17 0 25 -8q8 5 18 5q12 0 15 -5q9 3 14 3q7 0 19 -4q13 7 25 7q17 0 29 -12.5t12 -27.5q0 -13 -9 -22t-28 -10q-9 -12 -30 -12q-19 0 -34 10q-10 -10 -29 -10q-17 0 -28 8
q-8 -6 -17 -6q-6 0 -10 4q-11 -10 -30 -10q-14 0 -26 6q-10 -5 -17 -5q-10 0 -20 7q-7 -4 -11 -5t-11 0q9 -18 9 -28q0 -9 -6 -21q7 -8 7 -20q0 -9 -5 -19q7 -8 7 -21q0 -12 -7 -20q6 -12 6 -19q0 -6 -8 -20q4 -4 4 -11q0 -9 -6 -12q10 -9 10 -23q0 -5 -2 -17l6 1
q11 0 23 -10q15 11 39 11q9 0 19 -2q6 7 17 11t24 4q21 0 32 -9q6 10 21 16t30 6q11 0 18 -3q11 6 20 6q16 0 28 -13t12 -30q0 -21 -19 -33q-4 -8 -16 -13.5t-26 -5.5t-22 5q-8 -8 -21 -13.5t-26 -5.5q-20 0 -31 11q-17 -18 -44 -18q-5 0 -17 2q-20 -12 -39 -12q-15 0 -26 8
q-11 -17 -32 -17q-18 0 -31.5 14t-9.5 33q-6 6 -9 18t-3 24q0 9 1 13q-13 13 -13 44q0 13 3 24.5t7 16.5q-5 10 -5 21q0 5 2 13q-9 9 -9 24q0 14 7 22q-5 10 -5 18q0 11 7 21q-8 18 -8 35q0 21 13 40q-6 13 -10.5 32t-4.5 36q0 32 15 44q-5 22 -5 23q-6 24 -6 34q0 15 7 36
q-5 7 -8 23t-2 23q-12 12 -12 29q0 13 8.5 24.5t22.5 15.5q7 7 19 11.5t25 4.5q17 0 29 -9q17 5 34 5q24 0 39 -11q9 4 21 4q11 0 17 -5q6 5 29 5q30 0 47 -10q11 11 27 11q10 0 23 -5q10 7 26 7zM162 755q-17 0 -27 11.5t-10 26.5q0 12 7 21.5t20 13.5q13 14 28 14
q13 0 28 -11q9 6 26 6q15 0 28 -5q13 10 28 10q14 0 24 -8q10 9 26 9q11 0 19 -5q10 4 16 4q9 0 18 -5t14 -14q22 -10 22 -31q0 -16 -11.5 -29t-26.5 -13q-13 0 -25 12l-9 -1q-4 0 -12 2q-15 -10 -28 -10q-14 0 -26 10q-16 -11 -33 -11q-15 0 -25 8q-16 -4 -25 -4
q-12 0 -25 5q-9 -6 -21 -6zM359 989q0 -18 -11 -28q-5 -37 -44 -51q-6 -12 -17 -18.5t-21 -6.5q-12 0 -19 8t-5 23q-2 8 -2 11q0 9 6 18t15 14q3 17 29 32q-4 9 -4 19q0 17 13.5 28.5t28.5 11.5q11 0 18.5 -7t7.5 -20l-1 -8q6 -12 6 -26z" />
    <glyph glyph-name="uni1E14" unicode="&#x1e14;" 
d="M424 709q23 0 46 -15q11 0 18 -9t7 -22q0 -17 -10 -30t-28 -13q-13 0 -28 8q-8 -8 -21 -8q-14 0 -29 10q-10 -5 -30 -5q-29 0 -45 9q-15 -7 -31 -7q-13 0 -25 4q-13 -5 -25 -5q-16 0 -32 9q-18 -10 -32 -12q7 -17 7 -37q0 -25 -11 -40q12 -19 12 -42q0 -18 -9 -36
q9 -10 9 -25q0 -10 -7 -24q9 5 22 5q10 0 14 -2q11 8 24 8t26 -11q12 3 20 3q5 0 17 -2q12 2 17 2q17 0 25 -8q8 5 18 5q12 0 15 -5q9 3 14 3q7 0 19 -4q13 7 25 7q17 0 29 -12.5t12 -27.5q0 -13 -9 -22t-28 -10q-9 -12 -30 -12q-19 0 -34 10q-10 -10 -29 -10q-17 0 -28 8
q-8 -6 -17 -6q-6 0 -10 4q-11 -10 -30 -10q-14 0 -26 6q-10 -5 -17 -5q-10 0 -20 7q-7 -4 -11 -5t-11 0q9 -18 9 -28q0 -9 -6 -21q7 -8 7 -20q0 -9 -5 -19q7 -8 7 -21q0 -12 -7 -20q6 -12 6 -19q0 -6 -8 -20q4 -4 4 -11q0 -9 -6 -12q10 -9 10 -23q0 -5 -2 -17l6 1
q11 0 23 -10q15 11 39 11q9 0 19 -2q6 7 17 11t24 4q21 0 32 -9q6 10 21 16t30 6q11 0 18 -3q11 6 20 6q16 0 28 -13t12 -30q0 -21 -19 -33q-4 -8 -16 -13.5t-26 -5.5t-22 5q-8 -8 -21 -13.5t-26 -5.5q-20 0 -31 11q-17 -18 -44 -18q-5 0 -17 2q-20 -12 -39 -12q-15 0 -26 8
q-11 -17 -32 -17q-18 0 -31.5 14t-9.5 33q-6 6 -9 18t-3 24q0 9 1 13q-13 13 -13 44q0 13 3 24.5t7 16.5q-5 10 -5 21q0 5 2 13q-9 9 -9 24q0 14 7 22q-5 10 -5 18q0 11 7 21q-8 18 -8 35q0 21 13 40q-6 13 -10.5 32t-4.5 36q0 32 15 44q-5 22 -5 23q-6 24 -6 34q0 15 7 36
q-5 7 -8 23t-2 23q-12 12 -12 29q0 13 8.5 24.5t22.5 15.5q7 7 19 11.5t25 4.5q17 0 29 -9q17 5 34 5q24 0 39 -11q9 4 21 4q11 0 17 -5q6 5 29 5q30 0 47 -10q11 11 27 11q10 0 23 -5q10 7 26 7zM178 753q-17 0 -27 11.5t-10 26.5q0 12 7 21.5t20 13.5q13 14 28 14
q13 0 28 -11q9 6 26 6q15 0 28 -5q13 10 28 10q14 0 24 -8q10 9 26 9q11 0 19 -5q10 4 16 4q9 0 18 -5t14 -14q22 -10 22 -31q0 -16 -11.5 -29t-26.5 -13q-13 0 -25 12l-9 -1q-4 0 -12 2q-15 -10 -28 -10q-14 0 -26 10q-16 -11 -33 -11q-15 0 -25 8q-16 -4 -25 -4
q-12 0 -25 5q-9 -6 -21 -6zM350.5 927.5q9.5 -14.5 9.5 -29.5q0 -20 -14 -28q-8 -5 -17 -5q-11 0 -28 12q-19 4 -34 23q-14 18 -12 44q-17 14 -21 36q-22 8 -22 30q0 15 10.5 27.5t25.5 12.5q12 0 23 -10q33 -4 33 -33l-1 -8q10 -10 15 -21.5t9 -30.5q14 -5 23.5 -19.5z" />
    <glyph glyph-name="Eogonek" unicode="&#x118;" horiz-adv-x="561" 
d="M488 685q7 -9 7 -22q0 -17 -10 -30t-28 -13q-13 0 -28 8q-8 -8 -21 -8q-14 0 -29 10q-10 -5 -30 -5q-29 0 -45 9q-15 -7 -31 -7q-13 0 -25 4q-13 -5 -25 -5q-16 0 -32 9q-18 -10 -32 -12q7 -17 7 -37q0 -25 -11 -40q12 -19 12 -42q0 -18 -9 -36q9 -10 9 -25q0 -10 -7 -24
q9 5 22 5q10 0 14 -2q11 8 24 8t26 -11q12 3 20 3q5 0 17 -2q12 2 17 2q17 0 25 -8q8 5 18 5q12 0 15 -5q9 3 14 3q7 0 19 -4q13 7 25 7q17 0 29 -12.5t12 -27.5q0 -13 -9 -22t-28 -10q-9 -12 -30 -12q-19 0 -34 10q-10 -10 -29 -10q-17 0 -28 8q-8 -6 -17 -6q-6 0 -10 4
q-11 -10 -30 -10q-14 0 -26 6q-10 -5 -17 -5q-10 0 -20 7q-7 -4 -11 -5t-11 0q9 -18 9 -28q0 -9 -6 -21q7 -8 7 -20q0 -9 -5 -19q7 -8 7 -21q0 -12 -7 -20q6 -12 6 -19q0 -6 -8 -20q4 -4 4 -11q0 -9 -6 -12q10 -9 10 -23q0 -5 -2 -17l6 1q11 0 23 -10q15 11 39 11q9 0 19 -2
q6 7 17 11t24 4q21 0 32 -9q6 10 21 16t30 6q11 0 18 -3q11 6 20 6q17 0 28.5 -13.5t11.5 -29.5q0 -19 -15 -30q1 -14 -11 -24t-28 -12q-4 -9 -12 -13.5t-17 -1.5q0 -19 -13 -31q8 -5 14.5 -15t6.5 -17q7 -2 8 -4q8 3 17 3q16 0 29.5 -6.5t17.5 -18.5q1 -4 1 -10
q0 -13 -10 -19t-24 -6q-6 0 -16 2q-7 -4 -17 -4q-17 0 -30 13q-12 -2 -21.5 6t-9.5 22q0 6 1 9q-9 2 -16 11t-7 18l2 8q-4 10 -4 18q0 12 4.5 22t11.5 14v0.5t-1 0.5q-14 2 -22 10q-17 -18 -44 -18q-5 0 -17 2q-20 -12 -39 -12q-15 0 -26 8q-11 -17 -32 -17q-18 0 -31.5 14
t-9.5 33q-6 6 -9 18t-3 24q0 9 1 13q-13 13 -13 44q0 13 3 24.5t7 16.5q-5 10 -5 21q0 5 2 13q-9 9 -9 24q0 14 7 22q-5 10 -5 18q0 11 7 21q-8 18 -8 35q0 21 13 40q-6 13 -10.5 32t-4.5 36q0 32 15 44q-5 22 -5 23q-6 24 -6 34q0 15 7 36q-5 7 -8 23t-2 23q-12 12 -12 29
q0 13 8.5 24.5t22.5 15.5q7 7 19 11.5t25 4.5q17 0 29 -9q17 5 34 5q24 0 39 -11q9 4 21 4q11 0 17 -5q6 5 29 5q30 0 47 -10q11 11 27 11q10 0 23 -5q10 7 26 7q23 0 46 -15q11 0 18 -9z" />
    <glyph glyph-name="uni1EBC" unicode="&#x1ebc;" horiz-adv-x="559" 
d="M424 709q23 0 46 -15q11 0 18 -9t7 -22q0 -17 -10 -30t-28 -13q-13 0 -28 8q-8 -8 -21 -8q-14 0 -29 10q-10 -5 -30 -5q-29 0 -45 9q-15 -7 -31 -7q-13 0 -25 4q-13 -5 -25 -5q-16 0 -32 9q-18 -10 -32 -12q7 -17 7 -37q0 -25 -11 -40q12 -19 12 -42q0 -18 -9 -36
q9 -10 9 -25q0 -10 -7 -24q9 5 22 5q10 0 14 -2q11 8 24 8t26 -11q12 3 20 3q5 0 17 -2q12 2 17 2q17 0 25 -8q8 5 18 5q12 0 15 -5q9 3 14 3q7 0 19 -4q13 7 25 7q17 0 29 -12.5t12 -27.5q0 -13 -9 -22t-28 -10q-9 -12 -30 -12q-19 0 -34 10q-10 -10 -29 -10q-17 0 -28 8
q-8 -6 -17 -6q-6 0 -10 4q-11 -10 -30 -10q-14 0 -26 6q-10 -5 -17 -5q-10 0 -20 7q-7 -4 -11 -5t-11 0q9 -18 9 -28q0 -9 -6 -21q7 -8 7 -20q0 -9 -5 -19q7 -8 7 -21q0 -12 -7 -20q6 -12 6 -19q0 -6 -8 -20q4 -4 4 -11q0 -9 -6 -12q10 -9 10 -23q0 -5 -2 -17l6 1
q11 0 23 -10q15 11 39 11q9 0 19 -2q6 7 17 11t24 4q21 0 32 -9q6 10 21 16t30 6q11 0 18 -3q11 6 20 6q16 0 28 -13t12 -30q0 -21 -19 -33q-4 -8 -16 -13.5t-26 -5.5t-22 5q-8 -8 -21 -13.5t-26 -5.5q-20 0 -31 11q-17 -18 -44 -18q-5 0 -17 2q-20 -12 -39 -12q-15 0 -26 8
q-11 -17 -32 -17q-18 0 -31.5 14t-9.5 33q-6 6 -9 18t-3 24q0 9 1 13q-13 13 -13 44q0 13 3 24.5t7 16.5q-5 10 -5 21q0 5 2 13q-9 9 -9 24q0 14 7 22q-5 10 -5 18q0 11 7 21q-8 18 -8 35q0 21 13 40q-6 13 -10.5 32t-4.5 36q0 32 15 44q-5 22 -5 23q-6 24 -6 34q0 15 7 36
q-5 7 -8 23t-2 23q-12 12 -12 29q0 13 8.5 24.5t22.5 15.5q7 7 19 11.5t25 4.5q17 0 29 -9q17 5 34 5q24 0 39 -11q9 4 21 4q11 0 17 -5q6 5 29 5q30 0 47 -10q11 11 27 11q10 0 23 -5q10 7 26 7zM376 870q0 14 10 24t26 10q33 0 35 -35q6 -10 6 -20q0 -19 -18 -27
q-1 -6 -5.5 -10.5l-5.5 -5.5q-3 -7 -13.5 -11.5t-20.5 -2.5q-7 -11 -18 -16.5t-22 -5.5q-15 0 -21 7q-3 -1 -9 -1q-14 0 -23 10q-8 -2 -20 1.5t-17 11.5q-8 -2 -12 -2q-10 0 -17.5 5t-11.5 14q-3 -1 -9 -1q-1 -6 -8.5 -13.5t-15.5 -9.5q-14 -25 -42 -30q-11 -8 -23 -8
q-13 0 -22.5 10t-9.5 22t9 22t27 14q-1 4 -1 11q0 23 20 36.5t41 13.5q6 0 9 -1q8 7 24 7q18 0 35.5 -8.5t21.5 -22.5q10 2 11 2q6 0 14 -4h5q13 0 21 -8q10 2 13 2q10 0 17 -6q7 12 22 15q-2 8 -2 11z" />
    <glyph glyph-name="F" unicode="F" horiz-adv-x="602" 
d="M485 725q11 0 22 -3t16 -7q18 1 29 -10t11 -27q0 -17 -12.5 -30t-35.5 -13q-11 0 -23 3q-11 -10 -27 -10q-17 0 -28 10q-12 -9 -26 -9q-12 0 -21 4q-11 -8 -24 -8q-12 0 -21 6q-12 -6 -22 -6q-15 0 -32 11q-18 -14 -38 -14q-16 0 -29 9q-9 -9 -19.5 -12t-28.5 -2
q11 -14 11 -33q0 -18 -13 -42q14 -13 14 -32q0 -16 -12 -46q13 -16 13 -27q0 -9 -8 -23q3 -5 5 -16q14 2 20 2q17 0 28 -8q8 3 20 3q15 0 25 -3q8 9 27 9q22 0 32 -9q13 8 32 8q18 0 31 -7q4 5 13.5 8.5t19.5 3.5q17 0 25 -8q14 -4 21.5 -14t7.5 -23q0 -17 -11.5 -30.5
t-28.5 -13.5q-10 0 -18 4q-10 -7 -22 -7q-10 0 -20 5q-15 -9 -44 -9q-22 0 -34 6q-14 -8 -27 -8q-10 0 -26 6q-16 -6 -27 -6q-14 0 -28 11q-6 -7 -21 -12q9 -9 9 -30t-11 -34q8 -11 13 -26t5 -29q0 -15 -6 -27q5 -7 5 -19q0 -16 -11 -29q14 -14 14 -32q0 -17 -11 -31
q1 -3 1 -9q0 -19 -12.5 -29.5t-28.5 -10.5q-13 0 -22 6q-22 12 -22 36q0 16 11 29q-13 13 -13 41q0 16 4 24q-8 13 -8 33q0 11 3 21t7 14q-8 12 -8 41q0 26 7 33q-5 5 -8 16t-3 22t3 17q-11 14 -11 33q0 17 10 25q-8 13 -8 33t7 28q-7 7 -7 23q0 19 10 30q-15 18 -15 39
q0 22 13 38q-8 8 -8 27q0 21 7 38q-2 6 -2 17q0 25 25 28q13 13 38 13q15 0 24 -4q7 6 19.5 9.5t24.5 3.5q16 0 23 -5q20 10 48 10q21 0 33 -8q8 3 16 3q10 0 17 -4q10 7 23 7q9 0 17 -4q13 8 36 8q13 0 20 -3q7 7 26 7z" />
    <glyph glyph-name="G" unicode="G" horiz-adv-x="663" 
d="M612 287q0 -6 -2 -14q4 -12 4 -19q0 -17 -10 -27q2 -8 2 -16q0 -12 -3.5 -24t-10.5 -19q2 -8 2 -13q0 -17 -9.5 -34.5t-23.5 -22.5q0 -23 -13.5 -39t-37.5 -17q-6 -10 -27.5 -20t-33.5 -8q-13 -14 -27 -14q-15 0 -29 12q-3 -2 -13 -2q-18 0 -33 9q-5 4 -15 2
q-3 -2 -10 -2q-18 0 -35 20q-18 -1 -31.5 10.5t-15.5 21.5q-17 -2 -31.5 7t-18.5 25q-24 3 -41.5 21t-18.5 42q-10 3 -18 11t-8 15q-15 12 -15 30q0 9 2 14q-10 10 -14.5 27t-4.5 34q-9 8 -13 24t-3 33q-3 11 -3 23q0 24 11 38q-5 8 -5 22q0 12 5 22t12 12q-1 5 -1 16
q0 19 7.5 36t18.5 25q-2 14 5 31t20.5 30t30.5 13q1 18 12.5 33.5t26.5 16.5q6 11 21 18t31 7q8 0 12 -1q4 9 19 13.5t33 4.5q25 0 31 -7q7 4 20 4q20 0 41.5 -8.5t25.5 -20.5q10 2 14 2q19 0 32.5 -13t15.5 -34q15 2 23.5 -9.5t8.5 -26.5q0 -8 -2 -11q10 -7 17 -20t7 -25
q0 -15 -12 -23q-3 -11 -12 -16.5t-21 -5.5q-13 0 -23 6.5t-14 17.5q-14 4 -22.5 17t-6.5 28q-8 7 -14.5 17.5t-6.5 19.5q-8 -2 -11 -2q-9 0 -15.5 4t-8.5 10q-6 -3 -12 -3q-13 0 -26 11l-17 -1q-8 0 -17 4q-5 -11 -15 -17t-22 -6q-9 0 -14 2q-7 -16 -13.5 -25t-15.5 -12
q-5 -18 -31 -27q-5 -21 -10 -32t-19 -23q1 -3 1 -11q0 -14 -6.5 -30t-15.5 -27q4 -12 4 -28q0 -22 -11 -46q12 -6 15 -13.5t2.5 -16.5t-0.5 -13q11 -11 15.5 -28.5t2.5 -28.5q21 -16 29.5 -27t12.5 -32q11 2 29 -12t17 -24q15 -1 30.5 -11.5t23.5 -25.5q5 3 12 3q10 0 24 -5
t23 -11q4 2 15 2q17 0 24 -3q11 8 24 8q6 0 16 -4q19 11 31 10q-2 39 23 47q-4 7 -4 16q0 19 15 32q-4 20 -4 28q0 15 11 25q-6 6 -6 12q0 8 6 12q-14 8 -14 24q0 6 1 9q-8 -2 -10 -2q-9 0 -24 11q-6 -10 -26 -10q-10 0 -16 3q-7 -7 -21 -7q-18 0 -26 9q-14 -10 -38 -10
l-18 1q-15 1 -25.5 14.5t-10.5 30.5q0 22 25.5 36t56.5 14q23 0 34 -7q8 5 23.5 8.5t31.5 3.5q18 0 32 -6q11 4 23 4q24 0 36 -18q41 -8 39 -65q13 -19 13 -43z" />
    <glyph glyph-name="Gbreve" unicode="&#x11e;" horiz-adv-x="663" 
d="M612 287q0 -6 -2 -14q4 -12 4 -19q0 -17 -10 -27q2 -8 2 -16q0 -12 -3.5 -24t-10.5 -19q2 -8 2 -13q0 -17 -9.5 -34.5t-23.5 -22.5q0 -23 -13.5 -39t-37.5 -17q-6 -10 -27.5 -20t-33.5 -8q-13 -14 -27 -14q-15 0 -29 12q-3 -2 -13 -2q-18 0 -33 9q-5 4 -15 2
q-3 -2 -10 -2q-18 0 -35 20q-18 -1 -31.5 10.5t-15.5 21.5q-17 -2 -31.5 7t-18.5 25q-24 3 -41.5 21t-18.5 42q-10 3 -18 11t-8 15q-15 12 -15 30q0 9 2 14q-10 10 -14.5 27t-4.5 34q-9 8 -13 24t-3 33q-3 11 -3 23q0 24 11 38q-5 8 -5 22q0 12 5 22t12 12q-1 5 -1 16
q0 19 7.5 36t18.5 25q-2 14 5 31t20.5 30t30.5 13q1 18 12.5 33.5t26.5 16.5q6 11 21 18t31 7q8 0 12 -1q4 9 19 13.5t33 4.5q25 0 31 -7q7 4 20 4q20 0 41.5 -8.5t25.5 -20.5q10 2 14 2q19 0 32.5 -13t15.5 -34q15 2 23.5 -9.5t8.5 -26.5q0 -8 -2 -11q10 -7 17 -20t7 -25
q0 -15 -12 -23q-3 -11 -12 -16.5t-21 -5.5q-13 0 -23 6.5t-14 17.5q-14 4 -22.5 17t-6.5 28q-8 7 -14.5 17.5t-6.5 19.5q-8 -2 -11 -2q-9 0 -15.5 4t-8.5 10q-6 -3 -12 -3q-13 0 -26 11l-17 -1q-8 0 -17 4q-5 -11 -15 -17t-22 -6q-9 0 -14 2q-7 -16 -13.5 -25t-15.5 -12
q-5 -18 -31 -27q-5 -21 -10 -32t-19 -23q1 -3 1 -11q0 -14 -6.5 -30t-15.5 -27q4 -12 4 -28q0 -22 -11 -46q12 -6 15 -13.5t2.5 -16.5t-0.5 -13q11 -11 15.5 -28.5t2.5 -28.5q21 -16 29.5 -27t12.5 -32q11 2 29 -12t17 -24q15 -1 30.5 -11.5t23.5 -25.5q5 3 12 3q10 0 24 -5
t23 -11q4 2 15 2q17 0 24 -3q11 8 24 8q6 0 16 -4q19 11 31 10q-2 39 23 47q-4 7 -4 16q0 19 15 32q-4 20 -4 28q0 15 11 25q-6 6 -6 12q0 8 6 12q-14 8 -14 24q0 6 1 9q-8 -2 -10 -2q-9 0 -24 11q-6 -10 -26 -10q-10 0 -16 3q-7 -7 -21 -7q-18 0 -26 9q-14 -10 -38 -10
l-18 1q-15 1 -25.5 14.5t-10.5 30.5q0 22 25.5 36t56.5 14q23 0 34 -7q8 5 23.5 8.5t31.5 3.5q18 0 32 -6q11 4 23 4q24 0 36 -18q41 -8 39 -65q13 -19 13 -43zM184 809.5q-15 16.5 -14 38.5q-6 11 -6 20q0 15 13 25t29 10q14 0 24 -8.5t10 -26.5q16 -10 24.5 -16.5
t11.5 -17.5q8 2 13 2q11 0 22 -3.5t16 -8.5q24 18 61 19q-1 3 -1 8q0 10 6 19t16 14q1 15 12.5 24.5t25.5 9.5q15 0 27 -12q9 -10 9 -29q0 -12 -4.5 -24t-12.5 -19q2 -11 -10 -26.5t-32 -27.5t-40 -14q-7 -7 -23 -12.5t-31 -5.5q-16 0 -23 7q-7 -5 -22 -5q-21 0 -29 7
q-12 -3 -23 5.5t-16 23.5q-18 7 -33 23.5z" />
    <glyph glyph-name="Gcaron" unicode="&#x1e6;" horiz-adv-x="663" 
d="M612 287q0 -6 -2 -14q4 -12 4 -19q0 -17 -10 -27q2 -8 2 -16q0 -12 -3.5 -24t-10.5 -19q2 -8 2 -13q0 -17 -9.5 -34.5t-23.5 -22.5q0 -23 -13.5 -39t-37.5 -17q-6 -10 -27.5 -20t-33.5 -8q-13 -14 -27 -14q-15 0 -29 12q-3 -2 -13 -2q-18 0 -33 9q-5 4 -15 2
q-3 -2 -10 -2q-18 0 -35 20q-18 -1 -31.5 10.5t-15.5 21.5q-17 -2 -31.5 7t-18.5 25q-24 3 -41.5 21t-18.5 42q-10 3 -18 11t-8 15q-15 12 -15 30q0 9 2 14q-10 10 -14.5 27t-4.5 34q-9 8 -13 24t-3 33q-3 11 -3 23q0 24 11 38q-5 8 -5 22q0 12 5 22t12 12q-1 5 -1 16
q0 19 7.5 36t18.5 25q-2 14 5 31t20.5 30t30.5 13q1 18 12.5 33.5t26.5 16.5q6 11 21 18t31 7q8 0 12 -1q4 9 19 13.5t33 4.5q25 0 31 -7q7 4 20 4q20 0 41.5 -8.5t25.5 -20.5q10 2 14 2q19 0 32.5 -13t15.5 -34q15 2 23.5 -9.5t8.5 -26.5q0 -8 -2 -11q10 -7 17 -20t7 -25
q0 -15 -12 -23q-3 -11 -12 -16.5t-21 -5.5q-13 0 -23 6.5t-14 17.5q-14 4 -22.5 17t-6.5 28q-8 7 -14.5 17.5t-6.5 19.5q-8 -2 -11 -2q-9 0 -15.5 4t-8.5 10q-6 -3 -12 -3q-13 0 -26 11l-17 -1q-8 0 -17 4q-5 -11 -15 -17t-22 -6q-9 0 -14 2q-7 -16 -13.5 -25t-15.5 -12
q-5 -18 -31 -27q-5 -21 -10 -32t-19 -23q1 -3 1 -11q0 -14 -6.5 -30t-15.5 -27q4 -12 4 -28q0 -22 -11 -46q12 -6 15 -13.5t2.5 -16.5t-0.5 -13q11 -11 15.5 -28.5t2.5 -28.5q21 -16 29.5 -27t12.5 -32q11 2 29 -12t17 -24q15 -1 30.5 -11.5t23.5 -25.5q5 3 12 3q10 0 24 -5
t23 -11q4 2 15 2q17 0 24 -3q11 8 24 8q6 0 16 -4q19 11 31 10q-2 39 23 47q-4 7 -4 16q0 19 15 32q-4 20 -4 28q0 15 11 25q-6 6 -6 12q0 8 6 12q-14 8 -14 24q0 6 1 9q-8 -2 -10 -2q-9 0 -24 11q-6 -10 -26 -10q-10 0 -16 3q-7 -7 -21 -7q-18 0 -26 9q-14 -10 -38 -10
l-18 1q-15 1 -25.5 14.5t-10.5 30.5q0 22 25.5 36t56.5 14q23 0 34 -7q8 5 23.5 8.5t31.5 3.5q18 0 32 -6q11 4 23 4q24 0 36 -18q41 -8 39 -65q13 -19 13 -43zM199.5 823q-11.5 13 -12.5 19q-8 11 -6 25q-4 5 -4 14q0 11 8.5 21t21.5 11q19 1 25.5 -8t10.5 -30q7 -3 8 -9
q13 0 22.5 -9t10.5 -22q6 -3 13.5 -10t9.5 -13q4 11 17 19q0 11 7 19.5t17 10.5q-3 13 4.5 25t21.5 16q8 20 28 20q14 0 25 -9.5t11 -22.5q0 -9 -6 -18q-2 -18 -17 -26q-1 -10 -10 -23t-19 -17q-2 -27 -41 -46q-2 -11 -10.5 -20t-20.5 -9q-6 0 -14 3q-18 -3 -36 13t-16 34
q-9 1 -16.5 7.5t-10.5 18.5q-10 3 -21.5 16z" />
    <glyph glyph-name="Gcircumflex" unicode="&#x11c;" horiz-adv-x="661" 
d="M612 287q0 -6 -2 -14q4 -12 4 -19q0 -17 -10 -27q2 -8 2 -16q0 -12 -3.5 -24t-10.5 -19q2 -8 2 -13q0 -17 -9.5 -34.5t-23.5 -22.5q0 -23 -13.5 -39t-37.5 -17q-6 -10 -27.5 -20t-33.5 -8q-13 -14 -27 -14q-15 0 -29 12q-3 -2 -13 -2q-18 0 -33 9q-5 4 -15 2
q-3 -2 -10 -2q-18 0 -35 20q-18 -1 -31.5 10.5t-15.5 21.5q-17 -2 -31.5 7t-18.5 25q-24 3 -41.5 21t-18.5 42q-10 3 -18 11t-8 15q-15 12 -15 30q0 9 2 14q-10 10 -14.5 27t-4.5 34q-9 8 -13 24t-3 33q-3 11 -3 23q0 24 11 38q-5 8 -5 22q0 12 5 22t12 12q-1 5 -1 16
q0 19 7.5 36t18.5 25q-2 14 5 31t20.5 30t30.5 13q1 18 12.5 33.5t26.5 16.5q6 11 21 18t31 7q8 0 12 -1q4 9 19 13.5t33 4.5q25 0 31 -7q7 4 20 4q20 0 41.5 -8.5t25.5 -20.5q10 2 14 2q19 0 32.5 -13t15.5 -34q15 2 23.5 -9.5t8.5 -26.5q0 -8 -2 -11q10 -7 17 -20t7 -25
q0 -15 -12 -23q-3 -11 -12 -16.5t-21 -5.5q-13 0 -23 6.5t-14 17.5q-14 4 -22.5 17t-6.5 28q-8 7 -14.5 17.5t-6.5 19.5q-8 -2 -11 -2q-9 0 -15.5 4t-8.5 10q-6 -3 -12 -3q-13 0 -26 11l-17 -1q-8 0 -17 4q-5 -11 -15 -17t-22 -6q-9 0 -14 2q-7 -16 -13.5 -25t-15.5 -12
q-5 -18 -31 -27q-5 -21 -10 -32t-19 -23q1 -3 1 -11q0 -14 -6.5 -30t-15.5 -27q4 -12 4 -28q0 -22 -11 -46q12 -6 15 -13.5t2.5 -16.5t-0.5 -13q11 -11 15.5 -28.5t2.5 -28.5q21 -16 29.5 -27t12.5 -32q11 2 29 -12t17 -24q15 -1 30.5 -11.5t23.5 -25.5q5 3 12 3q10 0 24 -5
t23 -11q4 2 15 2q17 0 24 -3q11 8 24 8q6 0 16 -4q19 11 31 10q-2 39 23 47q-4 7 -4 16q0 19 15 32q-4 20 -4 28q0 15 11 25q-6 6 -6 12q0 8 6 12q-14 8 -14 24q0 6 1 9q-8 -2 -10 -2q-9 0 -24 11q-6 -10 -26 -10q-10 0 -16 3q-7 -7 -21 -7q-18 0 -26 9q-14 -10 -38 -10
l-18 1q-15 1 -25.5 14.5t-10.5 30.5q0 22 25.5 36t56.5 14q23 0 34 -7q8 5 23.5 8.5t31.5 3.5q18 0 32 -6q11 4 23 4q24 0 36 -18q41 -8 39 -65q13 -19 13 -43zM398 857.5q13 -13.5 14 -24.5q12 -5 20 -18.5t10 -24.5q18 -11 18 -27q0 -12 -15 -21q-6 -3 -13 -3
q-12 0 -21 8.5t-11 19.5q-9 4 -19 16.5t-12 21.5q-9 -1 -22 9t-15 19q-3 -11 -15 -24t-20 -14q-3 -9 -11 -19t-16 -12q-4 -12 -13.5 -21.5t-21.5 -9.5q-8 0 -19 6q-5 4 -8.5 11t-3.5 14q0 16 12 26q2 11 9 21.5t17 15.5q1 10 8.5 17.5t18.5 9.5q4 13 14 17q1 5 7.5 9.5
t12.5 6.5q3 9 12 16t18 7q10 0 17 -7q11 1 19 -9.5t8 -22.5q8 0 21 -13.5z" />
    <glyph glyph-name="Gcommaaccent" unicode="&#x122;" horiz-adv-x="665" 
d="M606 211q0 -12 -3.5 -24t-10.5 -19q2 -8 2 -13q0 -17 -9.5 -34.5t-23.5 -22.5q0 -23 -13.5 -39t-37.5 -17q-6 -10 -27.5 -20t-33.5 -8l-4 -4q3 -4 3 -12q3 -8 3 -16q0 -13 -5.5 -26.5t-11.5 -17.5q4 -5 -3 -23t-19.5 -33.5t-21.5 -15.5q-7 -18 -15.5 -27t-22.5 -11
q-21 -15 -40 -15q-12 0 -20.5 6.5t-12.5 17.5q-1 3 -1 8q0 16 13 30t35 14q-1 11 8 25.5t19 13.5q-3 3 -3 9q0 12 9 31.5t18 27.5q0 7 5 14q-16 -1 -35 9q-5 4 -15 2q-3 -2 -10 -2q-18 0 -35 20q-18 -1 -31.5 10.5t-15.5 21.5q-17 -2 -31.5 7t-18.5 25q-24 3 -41.5 21
t-18.5 42q-10 3 -18 11t-8 15q-15 12 -15 30q0 9 2 14q-10 10 -14.5 27t-4.5 34q-9 8 -13 24t-3 33q-3 11 -3 23q0 24 11 38q-5 8 -5 22q0 12 5 22t12 12q-1 5 -1 16q0 19 7.5 36t18.5 25q-2 14 5 31t20.5 30t30.5 13q1 18 12.5 33.5t26.5 16.5q6 11 21 18t31 7q8 0 12 -1
q4 9 19 13.5t33 4.5q25 0 31 -7q7 4 20 4q20 0 41.5 -8.5t25.5 -20.5q10 2 14 2q19 0 32.5 -13t15.5 -34q15 2 23.5 -9.5t8.5 -26.5q0 -8 -2 -11q10 -7 17 -20t7 -25q0 -15 -12 -23q-3 -11 -12 -16.5t-21 -5.5q-13 0 -23 6.5t-14 17.5q-14 4 -22.5 17t-6.5 28
q-8 7 -14.5 17.5t-6.5 19.5q-8 -2 -11 -2q-9 0 -15.5 4t-8.5 10q-6 -3 -12 -3q-13 0 -26 11l-17 -1q-8 0 -17 4q-5 -11 -15 -17t-22 -6q-9 0 -14 2q-7 -16 -13.5 -25t-15.5 -12q-5 -18 -31 -27q-5 -21 -10 -32t-19 -23q1 -3 1 -11q0 -14 -6.5 -30t-15.5 -27q4 -12 4 -28
q0 -22 -11 -46q12 -6 15 -13.5t2.5 -16.5t-0.5 -13q11 -11 15.5 -28.5t2.5 -28.5q21 -16 29.5 -27t12.5 -32q11 2 29 -12t17 -24q15 -1 30.5 -11.5t23.5 -25.5q5 3 12 3q10 0 24 -5t23 -11q4 2 15 2q17 0 24 -3q11 8 24 8q6 0 16 -4q19 11 31 10q-2 39 23 47q-4 7 -4 16
q0 19 15 32q-4 20 -4 28q0 15 11 25q-6 6 -6 12q0 8 6 12q-14 8 -14 24q0 6 1 9q-8 -2 -10 -2q-9 0 -24 11q-6 -10 -26 -10q-10 0 -16 3q-7 -7 -21 -7q-18 0 -26 9q-14 -10 -38 -10l-18 1q-15 1 -25.5 14.5t-10.5 30.5q0 22 25.5 36t56.5 14q23 0 34 -7q8 5 23.5 8.5
t31.5 3.5q18 0 32 -6q11 4 23 4q24 0 36 -18q41 -8 39 -65q13 -19 13 -43q0 -6 -2 -14q4 -12 4 -19q0 -17 -10 -27q2 -8 2 -16z" />
    <glyph glyph-name="Gdotaccent" unicode="&#x120;" horiz-adv-x="663" 
d="M612 287q0 -6 -2 -14q4 -12 4 -19q0 -17 -10 -27q2 -8 2 -16q0 -12 -3.5 -24t-10.5 -19q2 -8 2 -13q0 -17 -9.5 -34.5t-23.5 -22.5q0 -23 -13.5 -39t-37.5 -17q-6 -10 -27.5 -20t-33.5 -8q-13 -14 -27 -14q-15 0 -29 12q-3 -2 -13 -2q-18 0 -33 9q-5 4 -15 2
q-3 -2 -10 -2q-18 0 -35 20q-18 -1 -31.5 10.5t-15.5 21.5q-17 -2 -31.5 7t-18.5 25q-24 3 -41.5 21t-18.5 42q-10 3 -18 11t-8 15q-15 12 -15 30q0 9 2 14q-10 10 -14.5 27t-4.5 34q-9 8 -13 24t-3 33q-3 11 -3 23q0 24 11 38q-5 8 -5 22q0 12 5 22t12 12q-1 5 -1 16
q0 19 7.5 36t18.5 25q-2 14 5 31t20.5 30t30.5 13q1 18 12.5 33.5t26.5 16.5q6 11 21 18t31 7q8 0 12 -1q4 9 19 13.5t33 4.5q25 0 31 -7q7 4 20 4q20 0 41.5 -8.5t25.5 -20.5q10 2 14 2q19 0 32.5 -13t15.5 -34q15 2 23.5 -9.5t8.5 -26.5q0 -8 -2 -11q10 -7 17 -20t7 -25
q0 -15 -12 -23q-3 -11 -12 -16.5t-21 -5.5q-13 0 -23 6.5t-14 17.5q-14 4 -22.5 17t-6.5 28q-8 7 -14.5 17.5t-6.5 19.5q-8 -2 -11 -2q-9 0 -15.5 4t-8.5 10q-6 -3 -12 -3q-13 0 -26 11l-17 -1q-8 0 -17 4q-5 -11 -15 -17t-22 -6q-9 0 -14 2q-7 -16 -13.5 -25t-15.5 -12
q-5 -18 -31 -27q-5 -21 -10 -32t-19 -23q1 -3 1 -11q0 -14 -6.5 -30t-15.5 -27q4 -12 4 -28q0 -22 -11 -46q12 -6 15 -13.5t2.5 -16.5t-0.5 -13q11 -11 15.5 -28.5t2.5 -28.5q21 -16 29.5 -27t12.5 -32q11 2 29 -12t17 -24q15 -1 30.5 -11.5t23.5 -25.5q5 3 12 3q10 0 24 -5
t23 -11q4 2 15 2q17 0 24 -3q11 8 24 8q6 0 16 -4q19 11 31 10q-2 39 23 47q-4 7 -4 16q0 19 15 32q-4 20 -4 28q0 15 11 25q-6 6 -6 12q0 8 6 12q-14 8 -14 24q0 6 1 9q-8 -2 -10 -2q-9 0 -24 11q-6 -10 -26 -10q-10 0 -16 3q-7 -7 -21 -7q-18 0 -26 9q-14 -10 -38 -10
l-18 1q-15 1 -25.5 14.5t-10.5 30.5q0 22 25.5 36t56.5 14q23 0 34 -7q8 5 23.5 8.5t31.5 3.5q18 0 32 -6q11 4 23 4q24 0 36 -18q41 -8 39 -65q13 -19 13 -43zM335 764q-15 0 -23 6q-13 6 -19.5 17t-6.5 24q0 14 7.5 25.5t20.5 17.5q14 14 32 14q9 0 19 -5q19 -2 29 -15
t10 -30t-10 -30t-28 -14q-11 -10 -31 -10z" />
    <glyph glyph-name="uni1E20" unicode="&#x1e20;" 
d="M612 287q0 -6 -2 -14q4 -12 4 -19q0 -17 -10 -27q2 -8 2 -16q0 -12 -3.5 -24t-10.5 -19q2 -8 2 -13q0 -17 -9.5 -34.5t-23.5 -22.5q0 -23 -13.5 -39t-37.5 -17q-6 -10 -27.5 -20t-33.5 -8q-13 -14 -27 -14q-15 0 -29 12q-3 -2 -13 -2q-18 0 -33 9q-5 4 -15 2
q-3 -2 -10 -2q-18 0 -35 20q-18 -1 -31.5 10.5t-15.5 21.5q-17 -2 -31.5 7t-18.5 25q-24 3 -41.5 21t-18.5 42q-10 3 -18 11t-8 15q-15 12 -15 30q0 9 2 14q-10 10 -14.5 27t-4.5 34q-9 8 -13 24t-3 33q-3 11 -3 23q0 24 11 38q-5 8 -5 22q0 12 5 22t12 12q-1 5 -1 16
q0 19 7.5 36t18.5 25q-2 14 5 31t20.5 30t30.5 13q1 18 12.5 33.5t26.5 16.5q6 11 21 18t31 7q8 0 12 -1q4 9 19 13.5t33 4.5q25 0 31 -7q7 4 20 4q20 0 41.5 -8.5t25.5 -20.5q10 2 14 2q19 0 32.5 -13t15.5 -34q15 2 23.5 -9.5t8.5 -26.5q0 -8 -2 -11q10 -7 17 -20t7 -25
q0 -15 -12 -23q-3 -11 -12 -16.5t-21 -5.5q-13 0 -23 6.5t-14 17.5q-14 4 -22.5 17t-6.5 28q-8 7 -14.5 17.5t-6.5 19.5q-8 -2 -11 -2q-9 0 -15.5 4t-8.5 10q-6 -3 -12 -3q-13 0 -26 11l-17 -1q-8 0 -17 4q-5 -11 -15 -17t-22 -6q-9 0 -14 2q-7 -16 -13.5 -25t-15.5 -12
q-5 -18 -31 -27q-5 -21 -10 -32t-19 -23q1 -3 1 -11q0 -14 -6.5 -30t-15.5 -27q4 -12 4 -28q0 -22 -11 -46q12 -6 15 -13.5t2.5 -16.5t-0.5 -13q11 -11 15.5 -28.5t2.5 -28.5q21 -16 29.5 -27t12.5 -32q11 2 29 -12t17 -24q15 -1 30.5 -11.5t23.5 -25.5q5 3 12 3q10 0 24 -5
t23 -11q4 2 15 2q17 0 24 -3q11 8 24 8q6 0 16 -4q19 11 31 10q-2 39 23 47q-4 7 -4 16q0 19 15 32q-4 20 -4 28q0 15 11 25q-6 6 -6 12q0 8 6 12q-14 8 -14 24q0 6 1 9q-8 -2 -10 -2q-9 0 -24 11q-6 -10 -26 -10q-10 0 -16 3q-7 -7 -21 -7q-18 0 -26 9q-14 -10 -38 -10
l-18 1q-15 1 -25.5 14.5t-10.5 30.5q0 22 25.5 36t56.5 14q23 0 34 -7q8 5 23.5 8.5t31.5 3.5q18 0 32 -6q11 4 23 4q24 0 36 -18q41 -8 39 -65q13 -19 13 -43zM219 742q-17 0 -27 11.5t-10 26.5q0 12 7 21.5t20 13.5q13 14 28 14q13 0 28 -11q9 6 26 6q15 0 28 -5
q13 10 28 10q14 0 24 -8q10 9 26 9q11 0 19 -5q10 4 16 4q9 0 18 -5t14 -14q22 -10 22 -31q0 -16 -11.5 -29t-26.5 -13q-13 0 -25 12l-9 -1q-4 0 -12 2q-15 -10 -28 -10q-14 0 -26 10q-16 -11 -33 -11q-15 0 -25 8q-16 -4 -25 -4q-12 0 -25 5q-9 -6 -21 -6z" />
    <glyph glyph-name="H" unicode="H" horiz-adv-x="633" 
d="M552 437q0 -5 -1.5 -8.5t-2.5 -4.5q20 0 29 -10t9 -26t-9 -29.5t-21 -12.5q3 -7 3 -23q0 -25 -8 -30q9 -10 9 -36q0 -15 -3.5 -28.5t-9.5 -18.5q9 -10 9 -35q0 -16 -5 -21q5 -10 5 -23q0 -23 -9 -37q8 -13 8 -27q0 -13 -5 -19q-1 -19 -11 -33.5t-27 -14.5q-7 0 -19 5
q-21 10 -21 45q0 18 3 31q-7 18 -7 41q0 27 10 48q-12 18 -12 44q0 21 9 31q-4 4 -4 22q0 17 4 22q-5 17 -5 46q0 9 1 11q-8 -4 -13 -4q-10 0 -15 7q-9 -6 -17 -6q-9 0 -17 7q-12 -6 -25 -6q-12 0 -20 6q-10 -4 -27 -4q-19 0 -27 5q-18 -6 -33 -6q-14 0 -23 6q-17 -7 -34 -7
q-19 0 -38 10q8 -12 8 -31q0 -15 -4 -28q11 -16 11 -32q0 -12 -6 -26q8 -13 8 -33q0 -19 -7 -29q12 -24 12 -39q0 -14 -10 -31q7 -12 7 -36q0 -16 -5 -25q0 -18 -11 -28t-27 -10q-17 0 -29 9.5t-12 25.5q0 7 3 16q-12 15 -12 34q0 10 4 18.5t11 12.5q-4 7 -7.5 23.5
t-3.5 30.5q0 19 5 24q-6 4 -9.5 13t-3.5 19q0 15 7 24q-7 15 -7 31q0 8 1 12q-3 11 -3 22q0 13 3 26q-8 21 -8 49t9 37q-7 14 -7 34q0 17 4 26q-8 11 -8 29q0 15 4 24q-3 6 -5.5 17t-2.5 22q0 24 10 35q-4 8 -4 12q0 6 4 10q-11 12 -11 26q0 16 14 28t31 12q11 0 20.5 -7
t13.5 -22q15 -13 15 -30q0 -8 -5 -18q5 -6 5 -17q0 -9 -4 -17t-9 -11q14 -12 14 -31q0 -16 -11 -27q13 -12 13 -27q0 -11 -7 -25q10 -13 10 -30q0 -12 -4 -17q15 8 36 8q23 0 32 -10q25 9 42 9q19 0 32 -9q8 4 21 7t25 3q18 0 26 -8q13 9 33 9q27 0 43 -15q-3 8 -3 22
q0 20 5 22q-6 12 -6 25t6 19q-2 8 -2 13q0 11 3 18q-8 11 -8 24q0 9 5 19q-5 10 -5 18q0 14 10 19q-3 11 -3 17q0 9 4 20q-7 13 -7 24q0 15 12 25.5t28 10.5q12 0 22 -7.5t14 -21.5q13 -9 13 -32q0 -19 -8 -37q6 -9 6 -33q0 -18 -4 -25q4 -7 4 -19q0 -16 -5 -26q5 -5 5 -13
q0 -11 -6 -17q3 -9 3 -16q0 -14 -10 -25q3 -6 3 -10z" />
    <glyph glyph-name="Hbar" unicode="&#x126;" horiz-adv-x="663" 
d="M621 583.5q12 -11.5 12 -27.5q0 -14 -8.5 -25t-23.5 -14q-4 -4 -15.5 -7t-23.5 -3q0 -11 -6 -19q3 -9 3 -16q0 -14 -10 -25q3 -6 3 -10q0 -5 -1.5 -8.5t-2.5 -4.5q20 0 29 -10t9 -26t-9 -29.5t-21 -12.5q3 -7 3 -23q0 -25 -8 -30q9 -10 9 -36q0 -15 -3.5 -28.5
t-9.5 -18.5q9 -10 9 -35q0 -16 -5 -21q5 -10 5 -23q0 -23 -9 -37q8 -13 8 -27q0 -13 -5 -19q-1 -19 -11 -33.5t-27 -14.5q-7 0 -19 5q-21 10 -21 45q0 18 3 31q-7 18 -7 41q0 27 10 48q-12 18 -12 44q0 21 9 31q-4 4 -4 22q0 17 4 22q-5 17 -5 46q0 9 1 11q-8 -4 -13 -4
q-10 0 -15 7q-9 -6 -17 -6q-9 0 -17 7q-12 -6 -25 -6q-12 0 -20 6q-10 -4 -27 -4q-19 0 -27 5q-18 -6 -33 -6q-14 0 -23 6q-17 -7 -34 -7q-19 0 -38 10q8 -12 8 -31q0 -15 -4 -28q11 -16 11 -32q0 -12 -6 -26q8 -13 8 -33q0 -19 -7 -29q12 -24 12 -39q0 -14 -10 -31
q7 -12 7 -36q0 -16 -5 -25q0 -18 -11 -28t-27 -10q-17 0 -29 9.5t-12 25.5q0 7 3 16q-12 15 -12 34q0 10 4 18.5t11 12.5q-4 7 -7.5 23.5t-3.5 30.5q0 19 5 24q-6 4 -9.5 13t-3.5 19q0 15 7 24q-7 15 -7 31q0 8 1 12q-3 11 -3 22q0 13 3 26q-8 21 -8 49t9 37q-7 14 -7 34
q0 17 4 26q-4 5 -7 15q-21 3 -31 15q-14 0 -21.5 9.5t-7.5 23.5q0 16 9 27.5t26 11.5q9 0 20 -4q2 19 10 29q-4 8 -4 12q0 6 4 10q-11 12 -11 26q0 16 14 28t31 12q11 0 20.5 -7t13.5 -22q15 -13 15 -30q0 -8 -5 -18q5 -6 5 -16q0 -8 -3 -16q10 -2 14 -4q7 2 20 2
q14 0 26 -6q9 3 22 3q12 0 36 -4q14 14 36 14q12 0 24 -6q11 7 26 7q16 0 29 -9q9 3 20 3q14 0 23 -4l14 5q0 8 3 14t7 8q-3 11 -3 17q0 9 4 20q-7 13 -7 24q0 15 12 25.5t28 10.5q12 0 22 -7.5t14 -21.5q13 -9 13 -32q0 -19 -8 -37q5 -7 5 -22q16 0 25 -3q23 -1 35 -12.5z
M473 445q0 20 5 22q-6 12 -6 25q0 9 2 13q-15 2 -28 11q-5 -2 -15 -2q-13 0 -22 4q-11 -7 -28 -7q-10 0 -19 3q-19 -12 -36 -12q-16 0 -38 12q-9 -6 -23 -6t-32 8q-14 -6 -28 -6q-12 0 -21 4q3 -7 3 -13q0 -9 -7 -25q10 -13 10 -30q0 -12 -4 -17q15 8 36 8q23 0 32 -10
q25 9 42 9q19 0 32 -9q8 4 21 7t25 3q18 0 26 -8q13 9 33 9q27 0 43 -15q-3 8 -3 22z" />
    <glyph glyph-name="uni1E2A" unicode="&#x1e2a;" horiz-adv-x="670" 
d="M552 437q0 -5 -1.5 -8.5t-2.5 -4.5q20 0 29 -10t9 -26t-9 -29.5t-21 -12.5q3 -7 3 -23q0 -25 -8 -30q9 -10 9 -36q0 -15 -3.5 -28.5t-9.5 -18.5q9 -10 9 -35q0 -16 -5 -21q5 -10 5 -23q0 -23 -9 -37q8 -13 8 -27q0 -13 -5 -19q-1 -19 -11 -33.5t-27 -14.5q-7 0 -19 5
q-21 10 -21 45q0 18 3 31q-7 18 -7 41q0 27 10 48q-12 18 -12 44q0 21 9 31q-4 4 -4 22q0 17 4 22q-5 17 -5 46q0 9 1 11q-8 -4 -13 -4q-10 0 -15 7q-9 -6 -17 -6q-9 0 -17 7q-12 -6 -25 -6q-12 0 -20 6q-10 -4 -27 -4q-19 0 -27 5q-18 -6 -33 -6q-14 0 -23 6q-17 -7 -34 -7
q-19 0 -38 10q8 -12 8 -31q0 -15 -4 -28q11 -16 11 -32q0 -12 -6 -26q8 -13 8 -33q0 -19 -7 -29q12 -24 12 -39q0 -14 -10 -31q7 -12 7 -36q0 -16 -5 -25q0 -18 -11 -28t-27 -10q-17 0 -29 9.5t-12 25.5q0 7 3 16q-12 15 -12 34q0 10 4 18.5t11 12.5q-4 7 -7.5 23.5
t-3.5 30.5q0 19 5 24q-6 4 -9.5 13t-3.5 19q0 15 7 24q-7 15 -7 31q0 8 1 12q-3 11 -3 22q0 13 3 26q-8 21 -8 49t9 37q-7 14 -7 34q0 17 4 26q-8 11 -8 29q0 15 4 24q-3 6 -5.5 17t-2.5 22q0 24 10 35q-4 8 -4 12q0 6 4 10q-11 12 -11 26q0 16 14 28t31 12q11 0 20.5 -7
t13.5 -22q15 -13 15 -30q0 -8 -5 -18q5 -6 5 -17q0 -9 -4 -17t-9 -11q14 -12 14 -31q0 -16 -11 -27q13 -12 13 -27q0 -11 -7 -25q10 -13 10 -30q0 -12 -4 -17q15 8 36 8q23 0 32 -10q25 9 42 9q19 0 32 -9q8 4 21 7t25 3q18 0 26 -8q13 9 33 9q27 0 43 -15q-3 8 -3 22
q0 20 5 22q-6 12 -6 25t6 19q-2 8 -2 13q0 11 3 18q-8 11 -8 24q0 9 5 19q-5 10 -5 18q0 14 10 19q-3 11 -3 17q0 9 4 20q-7 13 -7 24q0 15 12 25.5t28 10.5q12 0 22 -7.5t14 -21.5q13 -9 13 -32q0 -19 -8 -37q6 -9 6 -33q0 -18 -4 -25q4 -7 4 -19q0 -16 -5 -26q5 -5 5 -13
q0 -11 -6 -17q3 -9 3 -16q0 -14 -10 -25q3 -6 3 -10zM483 -84q0 -17 -12 -27l-2 -4q-3 -3 -7 -8.5t-8 -7.5q-1 -11 -10.5 -21.5t-12.5 -14.5q-5 -7 -22 -16q-12 -7 -23 -7q-10 -4 -15 -4l-7 -3q-11 -11 -25 -11q-23 0 -37 5q-19 -1 -31.5 1.5t-19.5 15.5q-3 -1 -8 -1
q-15 0 -26 11q-6 6 -12 15t-8 16q-11 12 -9 28q-15 12 -15 27t12.5 26.5t27.5 11.5q18 0 29 -18q9 -6 11.5 -12.5t4 -15t2.5 -14.5q2 -2 2 -4q10 2 20 -2t16 -12q10 0 17 -4h4q6 0 10 -1q11 9 23 9q7 5 20 5q2 2 5 2q2 3 5 5l-1 7q0 14 10 24q3 3 11 6t10 5q4 12 13.5 18
t21.5 6q11 0 20 -6q16 -11 16 -30z" />
    <glyph glyph-name="Hcircumflex" unicode="&#x124;" horiz-adv-x="662" 
d="M552 437q0 -5 -1.5 -8.5t-2.5 -4.5q20 0 29 -10t9 -26t-9 -29.5t-21 -12.5q3 -7 3 -23q0 -25 -8 -30q9 -10 9 -36q0 -15 -3.5 -28.5t-9.5 -18.5q9 -10 9 -35q0 -16 -5 -21q5 -10 5 -23q0 -23 -9 -37q8 -13 8 -27q0 -13 -5 -19q-1 -19 -11 -33.5t-27 -14.5q-7 0 -19 5
q-21 10 -21 45q0 18 3 31q-7 18 -7 41q0 27 10 48q-12 18 -12 44q0 21 9 31q-4 4 -4 22q0 17 4 22q-5 17 -5 46q0 9 1 11q-8 -4 -13 -4q-10 0 -15 7q-9 -6 -17 -6q-9 0 -17 7q-12 -6 -25 -6q-12 0 -20 6q-10 -4 -27 -4q-19 0 -27 5q-18 -6 -33 -6q-14 0 -23 6q-17 -7 -34 -7
q-19 0 -38 10q8 -12 8 -31q0 -15 -4 -28q11 -16 11 -32q0 -12 -6 -26q8 -13 8 -33q0 -19 -7 -29q12 -24 12 -39q0 -14 -10 -31q7 -12 7 -36q0 -16 -5 -25q0 -18 -11 -28t-27 -10q-17 0 -29 9.5t-12 25.5q0 7 3 16q-12 15 -12 34q0 10 4 18.5t11 12.5q-4 7 -7.5 23.5
t-3.5 30.5q0 19 5 24q-6 4 -9.5 13t-3.5 19q0 15 7 24q-7 15 -7 31q0 8 1 12q-3 11 -3 22q0 13 3 26q-8 21 -8 49t9 37q-7 14 -7 34q0 17 4 26q-8 11 -8 29q0 15 4 24q-3 6 -5.5 17t-2.5 22q0 24 10 35q-4 8 -4 12q0 6 4 10q-11 12 -11 26q0 16 14 28t31 12q11 0 20.5 -7
t13.5 -22q15 -13 15 -30q0 -8 -5 -18q5 -6 5 -17q0 -9 -4 -17t-9 -11q14 -12 14 -31q0 -16 -11 -27q13 -12 13 -27q0 -11 -7 -25q10 -13 10 -30q0 -12 -4 -17q15 8 36 8q23 0 32 -10q25 9 42 9q19 0 32 -9q8 4 21 7t25 3q18 0 26 -8q13 9 33 9q27 0 43 -15q-3 8 -3 22
q0 20 5 22q-6 12 -6 25t6 19q-2 8 -2 13q0 11 3 18q-8 11 -8 24q0 9 5 19q-5 10 -5 18q0 14 10 19q-3 11 -3 17q0 9 4 20q-7 13 -7 24q0 15 12 25.5t28 10.5q12 0 22 -7.5t14 -21.5q13 -9 13 -32q0 -19 -8 -37q6 -9 6 -33q0 -18 -4 -25q4 -7 4 -19q0 -16 -5 -26q5 -5 5 -13
q0 -11 -6 -17q3 -9 3 -16q0 -14 -10 -25q3 -6 3 -10zM406 847.5q13 -13.5 14 -24.5q12 -5 20 -18.5t10 -24.5q18 -11 18 -27q0 -12 -15 -21q-6 -3 -13 -3q-12 0 -21 8.5t-11 19.5q-9 4 -19 16.5t-12 21.5q-9 -1 -22 9t-15 19q-3 -11 -15 -24t-20 -14q-3 -9 -11 -19t-16 -12
q-4 -12 -13.5 -21.5t-21.5 -9.5q-8 0 -19 6q-5 4 -8.5 11t-3.5 14q0 16 12 26q2 11 9 21.5t17 15.5q1 10 8.5 17.5t18.5 9.5q4 13 14 17q1 5 7.5 9.5t12.5 6.5q3 9 12 16t18 7q10 0 17 -7q11 1 19 -9.5t8 -22.5q8 0 21 -13.5z" />
    <glyph glyph-name="uni1E24" unicode="&#x1e24;" horiz-adv-x="660" 
d="M552 437q0 -5 -1.5 -8.5t-2.5 -4.5q20 0 29 -10t9 -26t-9 -29.5t-21 -12.5q3 -7 3 -23q0 -25 -8 -30q9 -10 9 -36q0 -15 -3.5 -28.5t-9.5 -18.5q9 -10 9 -35q0 -16 -5 -21q5 -10 5 -23q0 -23 -9 -37q8 -13 8 -27q0 -13 -5 -19q-1 -19 -11 -33.5t-27 -14.5q-7 0 -19 5
q-21 10 -21 45q0 18 3 31q-7 18 -7 41q0 27 10 48q-12 18 -12 44q0 21 9 31q-4 4 -4 22q0 17 4 22q-5 17 -5 46q0 9 1 11q-8 -4 -13 -4q-10 0 -15 7q-9 -6 -17 -6q-9 0 -17 7q-12 -6 -25 -6q-12 0 -20 6q-10 -4 -27 -4q-19 0 -27 5q-18 -6 -33 -6q-14 0 -23 6q-17 -7 -34 -7
q-19 0 -38 10q8 -12 8 -31q0 -15 -4 -28q11 -16 11 -32q0 -12 -6 -26q8 -13 8 -33q0 -19 -7 -29q12 -24 12 -39q0 -14 -10 -31q7 -12 7 -36q0 -16 -5 -25q0 -18 -11 -28t-27 -10q-17 0 -29 9.5t-12 25.5q0 7 3 16q-12 15 -12 34q0 10 4 18.5t11 12.5q-4 7 -7.5 23.5
t-3.5 30.5q0 19 5 24q-6 4 -9.5 13t-3.5 19q0 15 7 24q-7 15 -7 31q0 8 1 12q-3 11 -3 22q0 13 3 26q-8 21 -8 49t9 37q-7 14 -7 34q0 17 4 26q-8 11 -8 29q0 15 4 24q-3 6 -5.5 17t-2.5 22q0 24 10 35q-4 8 -4 12q0 6 4 10q-11 12 -11 26q0 16 14 28t31 12q11 0 20.5 -7
t13.5 -22q15 -13 15 -30q0 -8 -5 -18q5 -6 5 -17q0 -9 -4 -17t-9 -11q14 -12 14 -31q0 -16 -11 -27q13 -12 13 -27q0 -11 -7 -25q10 -13 10 -30q0 -12 -4 -17q15 8 36 8q23 0 32 -10q25 9 42 9q19 0 32 -9q8 4 21 7t25 3q18 0 26 -8q13 9 33 9q27 0 43 -15q-3 8 -3 22
q0 20 5 22q-6 12 -6 25t6 19q-2 8 -2 13q0 11 3 18q-8 11 -8 24q0 9 5 19q-5 10 -5 18q0 14 10 19q-3 11 -3 17q0 9 4 20q-7 13 -7 24q0 15 12 25.5t28 10.5q12 0 22 -7.5t14 -21.5q13 -9 13 -32q0 -19 -8 -37q6 -9 6 -33q0 -18 -4 -25q4 -7 4 -19q0 -16 -5 -26q5 -5 5 -13
q0 -11 -6 -17q3 -9 3 -16q0 -14 -10 -25q3 -6 3 -10zM342 -55q13 0 18 -4q22 -10 22 -34q0 -11 -6.5 -21t-17.5 -15q-11 -11 -26 -11q-6 0 -16 4q-16 1 -24 11.5t-8 25.5q0 14 8 24.5t23 11.5q9 8 27 8z" />
    <glyph glyph-name="I" unicode="I" horiz-adv-x="282" 
d="M186 527q0 -5 -2 -25q5 -10 5 -31q0 -18 -5 -28q5 -10 5 -19q0 -13 -9 -25q7 -17 7 -35q0 -14 -5 -31q6 -10 6 -25t-7 -33q8 -11 8 -23t-8 -23q4 -7 4 -16t-5 -19q8 -14 8 -21q0 -6 -7 -17q4 -14 4 -21q0 -15 -11 -26q12 -21 12 -51q0 -37 -21 -51q-10 -7 -21 -7
q-19 0 -31.5 17.5t-12.5 38.5q0 10 3 19q-9 12 -9 34t9 32q-2 5 -2 14q0 7 1 11q-5 8 -5 21q0 16 8 27q-8 8 -8 21q0 9 5 19q-4 8 -4 26q0 22 10 28q-10 18 -10 35q0 9 5 17q-7 14 -7 32q0 21 10 35q-4 9 -4 17q0 7 6 16q-8 11 -8 24q0 11 6 15q-7 8 -7 24q0 12 6 18
q-9 14 -9 40q0 23 7 32q-9 16 -9 36q0 18 8 26q1 17 13 27.5t28 10.5q11 0 20 -6q19 -11 19 -34q0 -19 -10 -37q13 -23 13 -51q0 -14 -4 -25q5 -20 5 -33z" />
    <glyph glyph-name="Iacute" unicode="&#xcd;" horiz-adv-x="283" 
d="M186 527q0 -5 -2 -25q5 -10 5 -31q0 -18 -5 -28q5 -10 5 -19q0 -13 -9 -25q7 -17 7 -35q0 -14 -5 -31q6 -10 6 -25t-7 -33q8 -11 8 -23t-8 -23q4 -7 4 -16t-5 -19q8 -14 8 -21q0 -6 -7 -17q4 -14 4 -21q0 -15 -11 -26q12 -21 12 -51q0 -37 -21 -51q-10 -7 -21 -7
q-19 0 -31.5 17.5t-12.5 38.5q0 10 3 19q-9 12 -9 34t9 32q-2 5 -2 14q0 7 1 11q-5 8 -5 21q0 16 8 27q-8 8 -8 21q0 9 5 19q-4 8 -4 26q0 22 10 28q-10 18 -10 35q0 9 5 17q-7 14 -7 32q0 21 10 35q-4 9 -4 17q0 7 6 16q-8 11 -8 24q0 11 6 15q-7 8 -7 24q0 12 6 18
q-9 14 -9 40q0 23 7 32q-9 16 -9 36q0 18 8 26q1 17 13 27.5t28 10.5q11 0 20 -6q19 -11 19 -34q0 -19 -10 -37q13 -23 13 -51q0 -14 -4 -25q5 -20 5 -33zM184 765q-13 -16 -25 -17q-13 -12 -26 -12t-23 10t-10 24q0 20 22 34q1 6 9 16q0 15 7.5 26t25.5 12q-1 12 6.5 22
t19.5 13q3 9 11.5 15.5t18.5 6.5q9 6 19 6q14 0 24.5 -12t10.5 -26q0 -19 -21 -26q-1 -13 -16 -20q-1 -13 -13 -26.5t-25 -15.5q-2 -14 -15 -30z" />
    <glyph glyph-name="Ibreve" unicode="&#x12c;" horiz-adv-x="281" 
d="M186 527q0 -5 -2 -25q5 -10 5 -31q0 -18 -5 -28q5 -10 5 -19q0 -13 -9 -25q7 -17 7 -35q0 -14 -5 -31q6 -10 6 -25t-7 -33q8 -11 8 -23t-8 -23q4 -7 4 -16t-5 -19q8 -14 8 -21q0 -6 -7 -17q4 -14 4 -21q0 -15 -11 -26q12 -21 12 -51q0 -37 -21 -51q-10 -7 -21 -7
q-19 0 -31.5 17.5t-12.5 38.5q0 10 3 19q-9 12 -9 34t9 32q-2 5 -2 14q0 7 1 11q-5 8 -5 21q0 16 8 27q-8 8 -8 21q0 9 5 19q-4 8 -4 26q0 22 10 28q-10 18 -10 35q0 9 5 17q-7 14 -7 32q0 21 10 35q-4 9 -4 17q0 7 6 16q-8 11 -8 24q0 11 6 15q-7 8 -7 24q0 12 6 18
q-9 14 -9 40q0 23 7 32q-9 16 -9 36q0 18 8 26q1 17 13 27.5t28 10.5q11 0 20 -6q19 -11 19 -34q0 -19 -10 -37q13 -23 13 -51q0 -14 -4 -25q5 -20 5 -33zM-5 800.5q-15 16.5 -14 38.5q-6 11 -6 20q0 15 13 25t29 10q14 0 24 -8.5t10 -26.5q16 -10 24.5 -16.5t11.5 -17.5
q8 2 13 2q11 0 22 -3.5t16 -8.5q24 18 61 19q-1 3 -1 8q0 10 6 19t16 14q1 15 12.5 24.5t25.5 9.5q15 0 27 -12q9 -10 9 -29q0 -12 -4.5 -24t-12.5 -19q2 -11 -10 -26.5t-32 -27.5t-40 -14q-7 -7 -23 -12.5t-31 -5.5q-16 0 -23 7q-7 -5 -22 -5q-21 0 -29 7q-12 -3 -23 5.5
t-16 23.5q-18 7 -33 23.5z" />
    <glyph glyph-name="Icircumflex" unicode="&#xce;" horiz-adv-x="301" 
d="M186 527q0 -5 -2 -25q5 -10 5 -31q0 -18 -5 -28q5 -10 5 -19q0 -13 -9 -25q7 -17 7 -35q0 -14 -5 -31q6 -10 6 -25t-7 -33q8 -11 8 -23t-8 -23q4 -7 4 -16t-5 -19q8 -14 8 -21q0 -6 -7 -17q4 -14 4 -21q0 -15 -11 -26q12 -21 12 -51q0 -37 -21 -51q-10 -7 -21 -7
q-19 0 -31.5 17.5t-12.5 38.5q0 10 3 19q-9 12 -9 34t9 32q-2 5 -2 14q0 7 1 11q-5 8 -5 21q0 16 8 27q-8 8 -8 21q0 9 5 19q-4 8 -4 26q0 22 10 28q-10 18 -10 35q0 9 5 17q-7 14 -7 32q0 21 10 35q-4 9 -4 17q0 7 6 16q-8 11 -8 24q0 11 6 15q-7 8 -7 24q0 12 6 18
q-9 14 -9 40q0 23 7 32q-9 16 -9 36q0 18 8 26q1 17 13 27.5t28 10.5q11 0 20 -6q19 -11 19 -34q0 -19 -10 -37q13 -23 13 -51q0 -14 -4 -25q5 -20 5 -33zM210 837.5q13 -13.5 14 -24.5q12 -5 20 -18.5t10 -24.5q18 -11 18 -27q0 -12 -15 -21q-6 -3 -13 -3q-12 0 -21 8.5
t-11 19.5q-9 4 -19 16.5t-12 21.5q-9 -1 -22 9t-15 19q-3 -11 -15 -24t-20 -14q-3 -9 -11 -19t-16 -12q-4 -12 -13.5 -21.5t-21.5 -9.5q-8 0 -19 6q-5 4 -8.5 11t-3.5 14q0 16 12 26q2 11 9 21.5t17 15.5q1 10 8.5 17.5t18.5 9.5q4 13 14 17q1 5 7.5 9.5t12.5 6.5q3 9 12 16
t18 7q10 0 17 -7q11 1 19 -9.5t8 -22.5q8 0 21 -13.5z" />
    <glyph glyph-name="uni0208" unicode="&#x208;" horiz-adv-x="318" 
d="M186 527q0 -5 -2 -25q5 -10 5 -31q0 -18 -5 -28q5 -10 5 -19q0 -13 -9 -25q7 -17 7 -35q0 -14 -5 -31q6 -10 6 -25t-7 -33q8 -11 8 -23t-8 -23q4 -7 4 -16t-5 -19q8 -14 8 -21q0 -6 -7 -17q4 -14 4 -21q0 -15 -11 -26q12 -21 12 -51q0 -37 -21 -51q-10 -7 -21 -7
q-19 0 -31.5 17.5t-12.5 38.5q0 10 3 19q-9 12 -9 34t9 32q-2 5 -2 14q0 7 1 11q-5 8 -5 21q0 16 8 27q-8 8 -8 21q0 9 5 19q-4 8 -4 26q0 22 10 28q-10 18 -10 35q0 9 5 17q-7 14 -7 32q0 21 10 35q-4 9 -4 17q0 7 6 16q-8 11 -8 24q0 11 6 15q-7 8 -7 24q0 12 6 18
q-9 14 -9 40q0 23 7 32q-9 16 -9 36q0 18 8 26q1 17 13 27.5t28 10.5q11 0 20 -6q19 -11 19 -34q0 -19 -10 -37q13 -23 13 -51q0 -14 -4 -25q5 -20 5 -33zM106 872q0 14 7.5 22.5t19.5 8.5q21 0 46 -29q12 -4 26 -17.5t20 -26.5q12 -3 24.5 -11.5t16.5 -18.5q14 -17 14 -31
q0 -13 -14 -23q-11 -8 -21 -8q-8 0 -17 5t-18 11q-16 0 -32 7.5t-19 23.5q-17 5 -23.5 15.5t-8.5 26.5q-21 21 -21 45zM-71 872q0 14 7.5 22.5t19.5 8.5q21 0 46 -29q12 -4 26 -17.5t20 -26.5q12 -3 24.5 -11.5t16.5 -18.5q14 -17 14 -31q0 -13 -14 -23q-11 -8 -21 -8
q-8 0 -17 5t-18 11q-16 0 -32 7.5t-19 23.5q-17 5 -23.5 15.5t-8.5 26.5q-21 21 -21 45z" />
    <glyph glyph-name="Idieresis" unicode="&#xcf;" horiz-adv-x="281" 
d="M186 527q0 -5 -2 -25q5 -10 5 -31q0 -18 -5 -28q5 -10 5 -19q0 -13 -9 -25q7 -17 7 -35q0 -14 -5 -31q6 -10 6 -25t-7 -33q8 -11 8 -23t-8 -23q4 -7 4 -16t-5 -19q8 -14 8 -21q0 -6 -7 -17q4 -14 4 -21q0 -15 -11 -26q12 -21 12 -51q0 -37 -21 -51q-10 -7 -21 -7
q-19 0 -31.5 17.5t-12.5 38.5q0 10 3 19q-9 12 -9 34t9 32q-2 5 -2 14q0 7 1 11q-5 8 -5 21q0 16 8 27q-8 8 -8 21q0 9 5 19q-4 8 -4 26q0 22 10 28q-10 18 -10 35q0 9 5 17q-7 14 -7 32q0 21 10 35q-4 9 -4 17q0 7 6 16q-8 11 -8 24q0 11 6 15q-7 8 -7 24q0 12 6 18
q-9 14 -9 40q0 23 7 32q-9 16 -9 36q0 18 8 26q1 17 13 27.5t28 10.5q11 0 20 -6q19 -11 19 -34q0 -19 -10 -37q13 -23 13 -51q0 -14 -4 -25q5 -20 5 -33zM235 771q-12 0 -21.5 8.5t-9.5 19.5q0 12 12 24q1 21 22 31q12 16 28 16q15 0 27 -12t12 -27q0 -16 -16 -28
q1 -10 -5.5 -15t-16.5 -5l-8 1q-10 -13 -24 -13zM30 801q0 -14 12 -23t27 -9q16 0 27 9t11 27q0 6 -1 9q4 8 4 17q0 15 -12 23.5t-27 8.5q-17 0 -27.5 -10t-7.5 -30q-6 -12 -6 -22z" />
    <glyph glyph-name="uni1E2E" unicode="&#x1e2e;" horiz-adv-x="314" 
d="M186 527q0 -5 -2 -25q5 -10 5 -31q0 -18 -5 -28q5 -10 5 -19q0 -13 -9 -25q7 -17 7 -35q0 -14 -5 -31q6 -10 6 -25t-7 -33q8 -11 8 -23t-8 -23q4 -7 4 -16t-5 -19q8 -14 8 -21q0 -6 -7 -17q4 -14 4 -21q0 -15 -11 -26q12 -21 12 -51q0 -37 -21 -51q-10 -7 -21 -7
q-19 0 -31.5 17.5t-12.5 38.5q0 10 3 19q-9 12 -9 34t9 32q-2 5 -2 14q0 7 1 11q-5 8 -5 21q0 16 8 27q-8 8 -8 21q0 9 5 19q-4 8 -4 26q0 22 10 28q-10 18 -10 35q0 9 5 17q-7 14 -7 32q0 21 10 35q-4 9 -4 17q0 7 6 16q-8 11 -8 24q0 11 6 15q-7 8 -7 24q0 12 6 18
q-9 14 -9 40q0 23 7 32q-9 16 -9 36q0 18 8 26q1 17 13 27.5t28 10.5q11 0 20 -6q19 -11 19 -34q0 -19 -10 -37q13 -23 13 -51q0 -14 -4 -25q5 -20 5 -33zM225 758q-12 0 -21.5 8.5t-9.5 19.5q0 12 12 24q1 21 22 31q12 16 28 16q15 0 27 -12t12 -27q0 -16 -16 -28
q1 -10 -5.5 -15t-16.5 -5l-8 1q-10 -13 -24 -13zM20 788q0 -14 12 -23t27 -9q16 0 27 9t11 27q0 6 -1 9q4 8 4 17q0 15 -12 23.5t-27 8.5q-17 0 -27.5 -10t-7.5 -30q-6 -12 -6 -22zM254 980q0 -18 -11 -28q-5 -37 -44 -51q-6 -12 -17 -18.5t-21 -6.5q-12 0 -19 8t-5 23
q-2 8 -2 11q0 9 6 18t15 14q3 17 29 32q-4 9 -4 19q0 17 13.5 28.5t28.5 11.5q11 0 18.5 -7t7.5 -20l-1 -8q6 -12 6 -26z" />
    <glyph glyph-name="Idotaccent" unicode="&#x130;" horiz-adv-x="281" 
d="M186 527q0 -5 -2 -25q5 -10 5 -31q0 -18 -5 -28q5 -10 5 -19q0 -13 -9 -25q7 -17 7 -35q0 -14 -5 -31q6 -10 6 -25t-7 -33q8 -11 8 -23t-8 -23q4 -7 4 -16t-5 -19q8 -14 8 -21q0 -6 -7 -17q4 -14 4 -21q0 -15 -11 -26q12 -21 12 -51q0 -37 -21 -51q-10 -7 -21 -7
q-19 0 -31.5 17.5t-12.5 38.5q0 10 3 19q-9 12 -9 34t9 32q-2 5 -2 14q0 7 1 11q-5 8 -5 21q0 16 8 27q-8 8 -8 21q0 9 5 19q-4 8 -4 26q0 22 10 28q-10 18 -10 35q0 9 5 17q-7 14 -7 32q0 21 10 35q-4 9 -4 17q0 7 6 16q-8 11 -8 24q0 11 6 15q-7 8 -7 24q0 12 6 18
q-9 14 -9 40q0 23 7 32q-9 16 -9 36q0 18 8 26q1 17 13 27.5t28 10.5q11 0 20 -6q19 -11 19 -34q0 -19 -10 -37q13 -23 13 -51q0 -14 -4 -25q5 -20 5 -33zM129 763q-15 0 -23 6q-13 6 -19.5 17t-6.5 24q0 14 7.5 25.5t20.5 17.5q14 14 32 14q9 0 19 -5q19 -2 29 -15t10 -30
t-10 -30t-28 -14q-11 -10 -31 -10z" />
    <glyph glyph-name="uni1ECA" unicode="&#x1eca;" horiz-adv-x="250" 
d="M186 527q0 -5 -2 -25q5 -10 5 -31q0 -18 -5 -28q5 -10 5 -19q0 -13 -9 -25q7 -17 7 -35q0 -14 -5 -31q6 -10 6 -25t-7 -33q8 -11 8 -23t-8 -23q4 -7 4 -16t-5 -19q8 -14 8 -21q0 -6 -7 -17q4 -14 4 -21q0 -15 -11 -26q12 -21 12 -51q0 -37 -21 -51q-10 -7 -21 -7
q-19 0 -31.5 17.5t-12.5 38.5q0 10 3 19q-9 12 -9 34t9 32q-2 5 -2 14q0 7 1 11q-5 8 -5 21q0 16 8 27q-8 8 -8 21q0 9 5 19q-4 8 -4 26q0 22 10 28q-10 18 -10 35q0 9 5 17q-7 14 -7 32q0 21 10 35q-4 9 -4 17q0 7 6 16q-8 11 -8 24q0 11 6 15q-7 8 -7 24q0 12 6 18
q-9 14 -9 40q0 23 7 32q-9 16 -9 36q0 18 8 26q1 17 13 27.5t28 10.5q11 0 20 -6q19 -11 19 -34q0 -19 -10 -37q13 -23 13 -51q0 -14 -4 -25q5 -20 5 -33zM154 -84q13 0 18 -4q22 -10 22 -34q0 -11 -6.5 -21t-17.5 -15q-11 -11 -26 -11q-6 0 -16 4q-16 1 -24 11.5t-8 25.5
q0 14 8 24.5t23 11.5q9 8 27 8z" />
    <glyph glyph-name="Igrave" unicode="&#xcc;" horiz-adv-x="274" 
d="M186 527q0 -5 -2 -25q5 -10 5 -31q0 -18 -5 -28q5 -10 5 -19q0 -13 -9 -25q7 -17 7 -35q0 -14 -5 -31q6 -10 6 -25t-7 -33q8 -11 8 -23t-8 -23q4 -7 4 -16t-5 -19q8 -14 8 -21q0 -6 -7 -17q4 -14 4 -21q0 -15 -11 -26q12 -21 12 -51q0 -37 -21 -51q-10 -7 -21 -7
q-19 0 -31.5 17.5t-12.5 38.5q0 10 3 19q-9 12 -9 34t9 32q-2 5 -2 14q0 7 1 11q-5 8 -5 21q0 16 8 27q-8 8 -8 21q0 9 5 19q-4 8 -4 26q0 22 10 28q-10 18 -10 35q0 9 5 17q-7 14 -7 32q0 21 10 35q-4 9 -4 17q0 7 6 16q-8 11 -8 24q0 11 6 15q-7 8 -7 24q0 12 6 18
q-9 14 -9 40q0 23 7 32q-9 16 -9 36q0 18 8 26q1 17 13 27.5t28 10.5q11 0 20 -6q19 -11 19 -34q0 -19 -10 -37q13 -23 13 -51q0 -14 -4 -25q5 -20 5 -33zM27 901q0 14 7.5 22.5t19.5 8.5q21 0 46 -29q12 -4 26 -17.5t20 -26.5q12 -3 24.5 -11.5t16.5 -18.5q14 -17 14 -31
q0 -13 -14 -23q-11 -8 -21 -8q-8 0 -17 5t-18 11q-16 0 -32 7.5t-19 23.5q-17 5 -23.5 15.5t-8.5 26.5q-21 21 -21 45z" />
    <glyph glyph-name="uni1EC8" unicode="&#x1ec8;" horiz-adv-x="287" 
d="M186 527q0 -5 -2 -25q5 -10 5 -31q0 -18 -5 -28q5 -10 5 -19q0 -13 -9 -25q7 -17 7 -35q0 -14 -5 -31q6 -10 6 -25t-7 -33q8 -11 8 -23t-8 -23q4 -7 4 -16t-5 -19q8 -14 8 -21q0 -6 -7 -17q4 -14 4 -21q0 -15 -11 -26q12 -21 12 -51q0 -37 -21 -51q-10 -7 -21 -7
q-19 0 -31.5 17.5t-12.5 38.5q0 10 3 19q-9 12 -9 34t9 32q-2 5 -2 14q0 7 1 11q-5 8 -5 21q0 16 8 27q-8 8 -8 21q0 9 5 19q-4 8 -4 26q0 22 10 28q-10 18 -10 35q0 9 5 17q-7 14 -7 32q0 21 10 35q-4 9 -4 17q0 7 6 16q-8 11 -8 24q0 11 6 15q-7 8 -7 24q0 12 6 18
q-9 14 -9 40q0 23 7 32q-9 16 -9 36q0 18 8 26q1 17 13 27.5t28 10.5q11 0 20 -6q19 -11 19 -34q0 -19 -10 -37q13 -23 13 -51q0 -14 -4 -25q5 -20 5 -33zM124 871q-7 0 -12 3q-15 8 -15 25q0 14 10.5 25.5t25.5 10.5q10 5 19 5q14 0 20 -8q17 0 33 -17.5t13 -39.5
q5 -5 8 -14t3 -18q0 -18 -13 -26q4 -13 -6.5 -27.5t-23.5 -13.5q-10 -15 -27 -15q-14 0 -26 9t-12 21q0 9 7 16q1 10 7.5 17t15.5 9l5 6q-7 7 -9 22q-11 3 -18 10h-5z" />
    <glyph glyph-name="uni020A" unicode="&#x20a;" horiz-adv-x="349" 
d="M186 527q0 -5 -2 -25q5 -10 5 -31q0 -18 -5 -28q5 -10 5 -19q0 -13 -9 -25q7 -17 7 -35q0 -14 -5 -31q6 -10 6 -25t-7 -33q8 -11 8 -23t-8 -23q4 -7 4 -16t-5 -19q8 -14 8 -21q0 -6 -7 -17q4 -14 4 -21q0 -15 -11 -26q12 -21 12 -51q0 -37 -21 -51q-10 -7 -21 -7
q-19 0 -31.5 17.5t-12.5 38.5q0 10 3 19q-9 12 -9 34t9 32q-2 5 -2 14q0 7 1 11q-5 8 -5 21q0 16 8 27q-8 8 -8 21q0 9 5 19q-4 8 -4 26q0 22 10 28q-10 18 -10 35q0 9 5 17q-7 14 -7 32q0 21 10 35q-4 9 -4 17q0 7 6 16q-8 11 -8 24q0 11 6 15q-7 8 -7 24q0 12 6 18
q-9 14 -9 40q0 23 7 32q-9 16 -9 36q0 18 8 26q1 17 13 27.5t28 10.5q11 0 20 -6q19 -11 19 -34q0 -19 -10 -37q13 -23 13 -51q0 -14 -4 -25q5 -20 5 -33zM284 802.5q15 -16.5 14 -38.5q6 -10 6 -20q0 -15 -13 -25t-29 -10q-14 0 -24 9t-10 26q-16 10 -24.5 16.5t-11.5 17.5
q-8 -2 -13 -2q-11 0 -22 3.5t-16 8.5q-24 -18 -61 -19q1 -3 1 -8q0 -10 -6 -19t-16 -14q-1 -15 -12.5 -24.5t-25.5 -9.5q-15 0 -27 12q-9 11 -9 29q0 12 4.5 24t12.5 19q-2 11 10 26.5t32 27.5t40 14q7 7 23 12.5t31 5.5q16 0 23 -7q7 5 22 5q21 0 29 -7q12 3 23 -5.5
t16 -23.5q18 -7 33 -23.5z" />
    <glyph glyph-name="Imacron" unicode="&#x12a;" horiz-adv-x="281" 
d="M186 527q0 -5 -2 -25q5 -10 5 -31q0 -18 -5 -28q5 -10 5 -19q0 -13 -9 -25q7 -17 7 -35q0 -14 -5 -31q6 -10 6 -25t-7 -33q8 -11 8 -23t-8 -23q4 -7 4 -16t-5 -19q8 -14 8 -21q0 -6 -7 -17q4 -14 4 -21q0 -15 -11 -26q12 -21 12 -51q0 -37 -21 -51q-10 -7 -21 -7
q-19 0 -31.5 17.5t-12.5 38.5q0 10 3 19q-9 12 -9 34t9 32q-2 5 -2 14q0 7 1 11q-5 8 -5 21q0 16 8 27q-8 8 -8 21q0 9 5 19q-4 8 -4 26q0 22 10 28q-10 18 -10 35q0 9 5 17q-7 14 -7 32q0 21 10 35q-4 9 -4 17q0 7 6 16q-8 11 -8 24q0 11 6 15q-7 8 -7 24q0 12 6 18
q-9 14 -9 40q0 23 7 32q-9 16 -9 36q0 18 8 26q1 17 13 27.5t28 10.5q11 0 20 -6q19 -11 19 -34q0 -19 -10 -37q13 -23 13 -51q0 -14 -4 -25q5 -20 5 -33zM1.5 762q-4.5 -1 -16.5 -1q-21 0 -34.5 12t-13.5 27q0 14 11 24t33 12q9 9 27 9t32 -8q17 10 42 10q23 0 53 -8
q28 5 48 5q28 0 39 -8q12 6 37 6q27 0 37 -7q5 1 13 1q16 0 26 -9.5t10 -22.5q0 -14 -10.5 -25t-29.5 -12q-18 -11 -34 -11q-11 0 -22 6q-8 -4 -24 -4q-27 0 -35 9q-10 -3 -26 -3q-19 0 -35 6q-11 -4 -24 -4q-14 0 -31 5q-19 -10 -33 -10q-13 0 -30 7q-5 -5 -9.5 -6z" />
    <glyph glyph-name="Iogonek" unicode="&#x12e;" horiz-adv-x="282" 
d="M189 252q0 -12 -8 -23q4 -7 4 -16t-5 -19q8 -14 8 -21q0 -6 -7 -17q4 -14 4 -21q0 -15 -11 -26q12 -21 12 -51q0 -37 -21 -51l-4 -2q5 -15 -8 -27t-30 -14q-4 -9 -12 -13.5t-17 -1.5q0 -19 -13 -31q8 -5 14.5 -15t6.5 -17q7 -2 8 -4q8 3 17 3q16 0 29.5 -6.5t17.5 -18.5
q1 -4 1 -10q0 -13 -10 -19t-24 -6q-6 0 -16 2q-7 -4 -17 -4q-17 0 -30 13q-12 -2 -21.5 6t-9.5 22q0 6 1 9q-9 2 -16 11t-7 18l2 8q-4 10 -4 18q0 12 4.5 22t11.5 14q-4 5 0.5 15.5t14.5 19t21 8.5q3 0 9 -2q2 5 9 10t16 7q-10 17 -10 35q0 6 4 18q-9 12 -9 34t9 32
q-2 5 -2 14q0 7 1 11q-5 8 -5 21q0 16 8 27q-8 8 -8 21q0 9 5 19q-4 8 -4 26q0 22 10 28q-10 18 -10 35q0 9 5 17q-7 14 -7 32q0 21 10 35q-4 9 -4 17q0 7 6 16q-8 11 -8 24q0 11 6 15q-7 8 -7 24q0 12 6 18q-9 14 -9 40q0 23 7 32q-9 16 -9 36q0 18 8 26q1 17 13 27.5
t28 10.5q11 0 20 -6q19 -11 19 -34q0 -19 -10 -37q13 -23 13 -51q0 -14 -4 -25q5 -20 5 -33q0 -5 -2 -25q5 -10 5 -31q0 -18 -5 -28q5 -10 5 -19q0 -13 -9 -25q7 -17 7 -35q0 -14 -5 -31q6 -10 6 -25t-7 -33q8 -11 8 -23z" />
    <glyph glyph-name="Itilde" unicode="&#x128;" horiz-adv-x="282" 
d="M186 527q0 -5 -2 -25q5 -10 5 -31q0 -18 -5 -28q5 -10 5 -19q0 -13 -9 -25q7 -17 7 -35q0 -14 -5 -31q6 -10 6 -25t-7 -33q8 -11 8 -23t-8 -23q4 -7 4 -16t-5 -19q8 -14 8 -21q0 -6 -7 -17q4 -14 4 -21q0 -15 -11 -26q12 -21 12 -51q0 -37 -21 -51q-10 -7 -21 -7
q-19 0 -31.5 17.5t-12.5 38.5q0 10 3 19q-9 12 -9 34t9 32q-2 5 -2 14q0 7 1 11q-5 8 -5 21q0 16 8 27q-8 8 -8 21q0 9 5 19q-4 8 -4 26q0 22 10 28q-10 18 -10 35q0 9 5 17q-7 14 -7 32q0 21 10 35q-4 9 -4 17q0 7 6 16q-8 11 -8 24q0 11 6 15q-7 8 -7 24q0 12 6 18
q-9 14 -9 40q0 23 7 32q-9 16 -9 36q0 18 8 26q1 17 13 27.5t28 10.5q11 0 20 -6q19 -11 19 -34q0 -19 -10 -37q13 -23 13 -51q0 -14 -4 -25q5 -20 5 -33zM247 879q0 14 10 24t26 10q33 0 35 -35q6 -10 6 -20q0 -19 -18 -27q-1 -6 -5.5 -10.5l-5.5 -5.5q-3 -7 -13.5 -11.5
t-20.5 -2.5q-7 -11 -18 -16.5t-22 -5.5q-15 0 -21 7q-3 -1 -9 -1q-14 0 -23 10q-8 -2 -20 1.5t-17 11.5q-8 -2 -12 -2q-10 0 -17.5 5t-11.5 14q-3 -1 -9 -1q-1 -6 -8.5 -13.5t-15.5 -9.5q-14 -25 -42 -30q-11 -8 -23 -8q-13 0 -22.5 10t-9.5 22t9 22t27 14q-1 4 -1 11
q0 23 20 36.5t41 13.5q6 0 9 -1q8 7 24 7q18 0 35.5 -8.5t21.5 -22.5q10 2 11 2q6 0 14 -4h5q13 0 21 -8q10 2 13 2q10 0 17 -6q7 12 22 15q-2 8 -2 11z" />
    <glyph glyph-name="J" unicode="J" horiz-adv-x="479" 
d="M437 412q0 -13 -2 -23.5t-6 -13.5q8 -8 8 -25q0 -18 -9 -27q3 -9 3 -17q0 -24 -13 -43q2 -8 2 -13q0 -10 -7 -28q7 -11 7 -24q0 -19 -14 -31q0 -14 -5 -27t-14 -20q1 -11 -6 -23t-19 -17q-1 -12 -11.5 -27.5t-21.5 -18.5q-4 -3 -11 -8t-12.5 -7t-11.5 -2
q-3 -10 -16.5 -15.5t-30.5 -5.5q-23 0 -34 9q-6 -9 -28 -9q-15 0 -29.5 5.5t-20.5 15.5q-11 -1 -25.5 10.5t-17.5 23.5q-15 8 -23.5 16.5t-13.5 26.5q-15 4 -22 13.5t-7 20.5q0 17 12 31.5t28 14.5q14 0 27 -12q17 -4 28.5 -16.5t11.5 -27.5q11 2 26.5 -7.5t20.5 -23.5
q8 6 19 6t23.5 -4.5t21.5 -11.5q6 9 17.5 14t21.5 4q-1 18 10.5 38.5t26.5 24.5q-1 7 2 19.5t9 18.5q-4 7 -4 18q0 12 4.5 25t9.5 21l-1 19q0 16 6 27q-8 11 -8 24q0 15 10 25q-3 18 -3 30q0 28 10 35q-8 12 -8 41q0 22 5 27q-6 10 -10 25t-4 29q0 16 5 23q-4 4 -7 12.5
t-3 16.5q0 9 3 13q-8 6 -13 15t-5 19q0 8 4 15q-6 11 -6 20q0 17 14 29.5t30 12.5q22 0 32 -22q19 -12 19 -36q0 -5 -2 -13q5 -6 8 -17.5t3 -22.5q0 -12 -5 -22q9 -6 13.5 -21t4.5 -31q0 -22 -8 -30q5 -3 9 -13.5t4 -22.5q0 -18 -8 -26q7 -6 7 -29z" />
    <glyph glyph-name="Jcircumflex" unicode="&#x134;" horiz-adv-x="587" 
d="M437 412q0 -13 -2 -23.5t-6 -13.5q8 -8 8 -25q0 -18 -9 -27q3 -9 3 -17q0 -24 -13 -43q2 -8 2 -13q0 -10 -7 -28q7 -11 7 -24q0 -19 -14 -31q0 -14 -5 -27t-14 -20q1 -11 -6 -23t-19 -17q-1 -12 -11.5 -27.5t-21.5 -18.5q-4 -3 -11 -8t-12.5 -7t-11.5 -2
q-3 -10 -16.5 -15.5t-30.5 -5.5q-23 0 -34 9q-6 -9 -28 -9q-15 0 -29.5 5.5t-20.5 15.5q-11 -1 -25.5 10.5t-17.5 23.5q-15 8 -23.5 16.5t-13.5 26.5q-15 4 -22 13.5t-7 20.5q0 17 12 31.5t28 14.5q14 0 27 -12q17 -4 28.5 -16.5t11.5 -27.5q11 2 26.5 -7.5t20.5 -23.5
q8 6 19 6t23.5 -4.5t21.5 -11.5q6 9 17.5 14t21.5 4q-1 18 10.5 38.5t26.5 24.5q-1 7 2 19.5t9 18.5q-4 7 -4 18q0 12 4.5 25t9.5 21l-1 19q0 16 6 27q-8 11 -8 24q0 15 10 25q-3 18 -3 30q0 28 10 35q-8 12 -8 41q0 22 5 27q-6 10 -10 25t-4 29q0 16 5 23q-4 4 -7 12.5
t-3 16.5q0 9 3 13q-8 6 -13 15t-5 19q0 8 4 15q-6 11 -6 20q0 17 14 29.5t30 12.5q22 0 32 -22q19 -12 19 -36q0 -5 -2 -13q5 -6 8 -17.5t3 -22.5q0 -12 -5 -22q9 -6 13.5 -21t4.5 -31q0 -22 -8 -30q5 -3 9 -13.5t4 -22.5q0 -18 -8 -26q7 -6 7 -29zM422 834.5
q13 -13.5 14 -24.5q12 -5 20 -18.5t10 -24.5q18 -11 18 -27q0 -12 -15 -21q-6 -3 -13 -3q-12 0 -21 8.5t-11 19.5q-9 4 -19 16.5t-12 21.5q-9 -1 -22 9t-15 19q-3 -11 -15 -24t-20 -14q-3 -9 -11 -19t-16 -12q-4 -12 -13.5 -21.5t-21.5 -9.5q-8 0 -19 6q-5 4 -8.5 11
t-3.5 14q0 16 12 26q2 11 9 21.5t17 15.5q1 10 8.5 17.5t18.5 9.5q4 13 14 17q1 5 7.5 9.5t12.5 6.5q3 9 12 16t18 7q10 0 17 -7q11 1 19 -9.5t8 -22.5q8 0 21 -13.5z" />
    <glyph glyph-name="K" unicode="K" horiz-adv-x="603" 
d="M575.5 55.5q2.5 -8.5 2.5 -18.5q0 -16 -7 -27.5t-23 -11.5q-8 0 -21 5q-14 6 -24 18t-12 25q-14 8 -20.5 20t-8.5 35q-9 3 -18.5 15t-11.5 23q-12 4 -22 16t-10 26q-21 5 -35 22t-14 36q0 6 1 9q-19 2 -34 21.5t-13 38.5q-11 3 -20.5 14t-13.5 26q-1 -6 -10 -13t-14 -7
q-5 -10 -16 -18.5t-21 -10.5q-3 -11 -13.5 -16.5t-24.5 -6.5q9 -17 9 -50q0 -31 -7 -52q9 -15 9 -41q0 -22 -6 -31q0 -4 2 -16.5t2 -24.5q0 -58 -47 -58q-21 0 -30 14t-9 34q0 22 7 34q-6 20 -6 33q0 15 5 22q-11 11 -11 37q0 20 5 35q-6 26 -6 36q0 13 4 26q-12 18 -12 39
q0 22 12 36q-15 9 -15 29q0 14 9 34q-6 12 -6 23q0 9 5 21q-8 9 -8 34q0 32 12 50q-7 8 -11 23.5t-4 32.5q0 24 6 36q-7 18 -7 34q0 23 14.5 36.5t33.5 13.5q18 0 30 -11t12 -32l-1 -10q11 -11 11 -31q0 -19 -8 -33q5 -5 5 -23q0 -26 -11 -33q6 -9 6 -22q0 -17 -8 -35
q11 -14 11 -28q0 -11 -6 -19q4 -5 4 -13q0 -6 -2.5 -15t-3.5 -15q8 -6 8 -20q0 -6 -3 -14q6 13 23 17q2 16 14 25.5t27 7.5q1 17 12 31t34 14q5 16 19 29t23 11q13 20 21.5 27t26.5 13q1 12 14 25.5t26 17.5q2 8 16 20t24 16q-2 12 12.5 27.5t29.5 14.5q5 16 15.5 24t22.5 8
q16 0 29 -10.5t13 -23.5q0 -15 -15 -27q-4 -39 -36 -53q-2 -11 -12 -21t-23 -12q-2 -11 -19.5 -26.5t-33.5 -16.5q-5 -16 -21 -32.5t-30 -16.5q-13 -21 -21 -28t-30 -20q27 -9 23 -36q15 -6 25 -20t7 -28q17 -6 34 -27.5t15 -37.5q13 -4 28 -19t17 -31q9 -4 20 -17.5
t13 -22.5q14 -5 23 -22t10 -35q8 -4 16 -16t11 -23q4 -4 6.5 -12.5z" />
    <glyph glyph-name="Kcommaaccent" unicode="&#x136;" 
d="M575.5 55.5q2.5 -8.5 2.5 -18.5q0 -16 -7 -27.5t-23 -11.5q-8 0 -21 5q-14 6 -24 18t-12 25q-14 8 -20.5 20t-8.5 35q-9 3 -18.5 15t-11.5 23q-12 4 -22 16t-10 26q-21 5 -35 22t-14 36q0 6 1 9q-19 2 -34 21.5t-13 38.5q-11 3 -20.5 14t-13.5 26q-1 -6 -10 -13t-14 -7
q-5 -10 -16 -18.5t-21 -10.5q-3 -11 -13.5 -16.5t-24.5 -6.5q9 -17 9 -50q0 -31 -7 -52q9 -15 9 -41q0 -22 -6 -31q0 -4 2 -16.5t2 -24.5q0 -58 -47 -58q-21 0 -30 14t-9 34q0 22 7 34q-6 20 -6 33q0 15 5 22q-11 11 -11 37q0 20 5 35q-6 26 -6 36q0 13 4 26q-12 18 -12 39
q0 22 12 36q-15 9 -15 29q0 14 9 34q-6 12 -6 23q0 9 5 21q-8 9 -8 34q0 32 12 50q-7 8 -11 23.5t-4 32.5q0 24 6 36q-7 18 -7 34q0 23 14.5 36.5t33.5 13.5q18 0 30 -11t12 -32l-1 -10q11 -11 11 -31q0 -19 -8 -33q5 -5 5 -23q0 -26 -11 -33q6 -9 6 -22q0 -17 -8 -35
q11 -14 11 -28q0 -11 -6 -19q4 -5 4 -13q0 -6 -2.5 -15t-3.5 -15q8 -6 8 -20q0 -6 -3 -14q6 13 23 17q2 16 14 25.5t27 7.5q1 17 12 31t34 14q5 16 19 29t23 11q13 20 21.5 27t26.5 13q1 12 14 25.5t26 17.5q2 8 16 20t24 16q-2 12 12.5 27.5t29.5 14.5q5 16 15.5 24t22.5 8
q16 0 29 -10.5t13 -23.5q0 -15 -15 -27q-4 -39 -36 -53q-2 -11 -12 -21t-23 -12q-2 -11 -19.5 -26.5t-33.5 -16.5q-5 -16 -21 -32.5t-30 -16.5q-13 -21 -21 -28t-30 -20q27 -9 23 -36q15 -6 25 -20t7 -28q17 -6 34 -27.5t15 -37.5q13 -4 28 -19t17 -31q9 -4 20 -17.5
t13 -22.5q14 -5 23 -22t10 -35q8 -4 16 -16t11 -23q4 -4 6.5 -12.5zM181 -178q0 16 13 30t35 14q-1 11 8 25.5t19 13.5q-3 3 -3 9q0 12 9 31.5t18 27.5q1 14 12 22t26 8q14 0 23.5 -7.5t9.5 -20.5q3 -8 3 -16q0 -13 -5.5 -26.5t-11.5 -17.5q4 -5 -3 -23t-19.5 -33.5
t-21.5 -15.5q-7 -18 -15.5 -27t-22.5 -11q-21 -15 -40 -15q-12 0 -20.5 6.5t-12.5 17.5q-1 3 -1 8z" />
    <glyph glyph-name="L" unicode="L" horiz-adv-x="564" 
d="M417.5 106q13.5 5 26.5 5q17 0 24 -7q12 2 15 2q19 0 29 -10t10 -25q0 -18 -13 -32.5t-34 -14.5q-13 0 -27 7q-7 -9 -21 -17t-29 -8q-13 0 -24 7q-8 -12 -30 -12q-11 0 -21 5q-15 -9 -36 -9q-15 0 -26 6q-12 -5 -23 -5q-18 0 -32 11q-11 -7 -23 -7q-15 0 -26 9.5
t-11 21.5q-14 7 -23.5 18t-9.5 26q0 10 4 19q-12 4 -19 14.5t-7 22.5q0 11 4 19q-10 13 -10 38q0 13 3 24t9 16q-13 13 -13 38q0 22 9 35q-8 18 -8 40q0 28 12 47q-10 11 -10 30q0 15 7 26q-10 11 -10 35q0 19 5 29q-8 15 -8 43q0 30 8 43q-4 7 -4 22q0 21 11 31
q-6 12 -6 23q0 17 12.5 27.5t28.5 10.5q11 0 20.5 -6.5t13.5 -19.5q13 -11 13 -33q0 -20 -11 -38q6 -9 6 -22q0 -16 -10 -26q17 -15 17 -39q0 -22 -14 -37q8 -13 8 -36q0 -21 -5 -29q8 -13 8 -42q0 -34 -10 -48q14 -15 14 -43q0 -14 -4 -26.5t-10 -20.5q13 -13 13 -38
q0 -16 -7 -30q5 -10 5 -25q0 -7 -1 -9q29 -23 24 -47q13 1 23.5 -2t14.5 -11q10 7 22 7q16 0 29 -11q7 13 27 13q10 0 22 -6q6 7 15.5 12t19.5 5q14 0 26 -9q4 8 17.5 13z" />
    </font>
</defs>
</svg>
